<?xml version="1.0" encoding="UTF-8"?>
<svg id="_レイヤー_2" data-name="レイヤー 2" xmlns="http://www.w3.org/2000/svg" viewBox="0 0 228.22 498.95">
  <defs>
    <style>
      .cls-1 {
        fill: #cb7d1e;
      }

      .cls-2 {
        opacity: .15;
      }
    </style>
  </defs>
  <g id="_数字" data-name="数字">
    <g class="cls-2">
      <path class="cls-1" d="M148.36,10.03c-.11.09-.12.26-.02.36l10.13,10.73c.15.16.41.07.43-.14.19-1.76.34-5.02.34-9.42,0-4.73-.17-8.15-.38-9.79-.03-.2-.26-.29-.41-.16l-4.2,3.51-5.88,4.91ZM136.86,18.01l8.4-7.01,12.12-10.11c.17-.14.09-.42-.13-.44-1.75-.19-5.03-.35-9.46-.35-6.08,0-9.99.29-10.75.57-.06.02-.11.07-.14.14-.5,1.3-.72,10.79-.44,17.02,0,.21.25.31.41.18ZM122.01,3.15c-.09-.09-.24-.09-.33,0l-17.75,14.82c-.1.08-.12.22-.05.33.47.73,1.01,1.42,1.64,2.05,2.25,2.25,5.24,3.49,8.42,3.49s6.17-1.24,8.42-3.49c4.65-4.65,4.65-12.2,0-16.85-.12-.12-.23-.23-.35-.34ZM103.34,16.59l17.1-14.27c.13-.11.12-.31-.02-.4-1.96-1.27-4.22-1.91-6.48-1.91-3.05,0-6.1,1.16-8.42,3.48-2.25,2.25-3.49,5.24-3.49,8.42,0,1.6.32,3.15.92,4.59.07.16.26.2.39.09ZM147.79,23.02c4.79,0,8.24-.18,9.86-.39.2-.03.29-.27.15-.42l-10.42-11.04c-.09-.1-.24-.11-.34-.02l-8.87,7.4-1.48,1.24c-.06.05-.1.13-.09.21.16,1.97.33,2.35.35,2.38-.02-.04.08.06.04.04.55.29,4.53.6,10.82.6ZM190.1,3.15c-.09-.09-.24-.09-.33,0l-17.75,14.82c-.1.08-.12.22-.05.33.47.73,1.01,1.42,1.64,2.05,2.25,2.25,5.24,3.49,8.42,3.49s6.17-1.24,8.42-3.49c4.65-4.65,4.65-12.2,0-16.85-.12-.12-.23-.23-.35-.34ZM171.42,16.59l17.1-14.27c.13-.11.12-.31-.02-.4-1.96-1.27-4.22-1.91-6.48-1.91-3.05,0-6.1,1.16-8.42,3.48-2.25,2.25-3.49,5.24-3.49,8.42,0,1.6.32,3.15.92,4.59.06.16.26.2.39.09ZM216.45,10.03c-.11.09-.12.26-.02.36l10.13,10.73c.15.16.41.07.43-.14.19-1.76.34-5.02.34-9.42,0-4.73-.17-8.15-.38-9.79-.03-.2-.26-.29-.41-.16l-4.2,3.51-5.88,4.91ZM215.87,23.02c4.79,0,8.24-.18,9.86-.39.2-.03.29-.27.15-.42l-10.42-11.04c-.09-.1-.24-.11-.34-.02l-8.87,7.4-1.48,1.24c-.06.05-.1.13-.09.21.16,1.97.33,2.35.35,2.38-.02-.04.08.06.04.04.55.29,4.53.6,10.82.6ZM204.95,18.01l8.4-7.01,12.12-10.11c.17-.14.09-.42-.13-.44-1.75-.19-5.03-.35-9.46-.35-6.08,0-9.99.29-10.75.57-.06.02-.11.07-.14.14-.5,1.3-.72,10.79-.44,17.02,0,.21.25.31.41.18ZM69.93,52.22c.47.73,1.01,1.42,1.64,2.05,2.25,2.25,5.24,3.49,8.42,3.49s6.17-1.24,8.42-3.49c4.65-4.65,4.65-12.2,0-16.85-.12-.12-.23-.23-.35-.34-.09-.09-.24-.09-.33,0l-17.75,14.82c-.1.08-.12.22-.05.33ZM69.4,50.53l17.1-14.27c.13-.11.12-.31-.02-.4-1.96-1.27-4.22-1.91-6.48-1.91-3.05,0-6.1,1.16-8.42,3.48-2.25,2.25-3.49,5.24-3.49,8.42,0,1.6.32,3.15.92,4.59.06.16.26.2.39.09ZM124.96,54.92c.19-1.76.34-5.02.34-9.42,0-4.73-.17-8.15-.38-9.79-.03-.2-.26-.29-.41-.16l-4.2,3.51-5.88,4.91c-.11.09-.12.26-.02.36l10.13,10.73c.15.16.41.07.43-.14ZM123.31,34.39c-1.75-.19-5.03-.35-9.46-.35-6.08,0-9.99.29-10.75.57-.06.02-.11.07-.14.14-.5,1.3-.72,10.79-.44,17.02,0,.21.25.31.41.18l8.4-7.01,12.12-10.11c.17-.14.09-.42-.13-.44ZM113.85,56.96c4.79,0,8.24-.18,9.86-.39.2-.03.29-.27.15-.42l-10.42-11.04c-.09-.1-.24-.11-.34-.02l-8.87,7.4-1.48,1.24c-.06.05-.1.13-.09.21.16,1.97.33,2.35.35,2.38-.02-.04.08.06.04.04.55.29,4.53.6,10.82.6ZM156.51,37.42c-.12-.12-.23-.23-.35-.34-.09-.08-.24-.09-.33,0l-17.75,14.82c-.1.08-.12.22-.05.33.47.73,1.01,1.42,1.64,2.05,2.25,2.25,5.24,3.49,8.42,3.49s6.17-1.24,8.42-3.49c4.64-4.65,4.64-12.2,0-16.85ZM137.49,50.53l17.1-14.27c.13-.11.12-.31-.02-.4-1.96-1.27-4.22-1.91-6.48-1.91-3.05,0-6.1,1.16-8.42,3.48-2.25,2.25-3.49,5.24-3.49,8.42,0,1.6.32,3.15.92,4.59.06.16.26.2.39.09ZM191.4,34.39c-1.75-.19-5.03-.35-9.46-.35-6.08,0-9.99.29-10.75.57-.06.02-.11.07-.14.14-.5,1.3-.72,10.79-.44,17.02,0,.21.25.31.41.18l8.4-7.01,12.12-10.11c.17-.14.09-.42-.13-.44ZM181.94,56.96c4.79,0,8.24-.18,9.86-.39.2-.03.29-.27.15-.42l-10.42-11.04c-.09-.1-.24-.11-.34-.02l-8.87,7.4-1.48,1.24c-.06.05-.1.13-.09.21.16,1.97.33,2.35.35,2.38-.02-.04.08.06.04.04.55.29,4.53.6,10.82.6ZM193.05,54.92c.19-1.76.34-5.02.34-9.42,0-4.73-.17-8.15-.38-9.79-.03-.2-.26-.29-.41-.16l-4.2,3.51-5.88,4.91c-.11.09-.12.26-.02.36l10.13,10.73c.15.16.41.07.43-.14ZM224.73,37.16c-.12-.12-.23-.23-.35-.34-.09-.09-.24-.09-.33,0l-17.75,14.82c-.1.08-.12.22-.05.33.47.73,1.01,1.42,1.64,2.05,2.25,2.25,5.24,3.49,8.42,3.49s6.17-1.24,8.42-3.49c4.65-4.65,4.65-12.2,0-16.85ZM205.7,50.27l17.1-14.27c.13-.11.12-.31-.02-.4-1.96-1.27-4.22-1.91-6.48-1.91-3.05,0-6.1,1.16-8.42,3.48-2.25,2.25-3.49,5.24-3.49,8.42,0,1.6.32,3.15.92,4.59.06.16.26.2.39.09ZM68.78,85.89l8.4-7.01,12.12-10.11c.17-.14.09-.42-.13-.44-1.75-.19-5.03-.35-9.46-.35-6.08,0-9.99.29-10.75.57-.06.02-.11.07-.14.14-.5,1.3-.72,10.79-.44,17.02,0,.21.25.31.41.18ZM79.7,90.89c4.79,0,8.24-.18,9.86-.39.2-.03.29-.27.15-.42l-10.42-11.04c-.09-.1-.24-.11-.34-.02l-8.87,7.4-1.48,1.24c-.06.05-.1.13-.09.21.16,1.97.33,2.35.35,2.38-.02-.04.08.06.04.04.55.29,4.53.6,10.82.6ZM90.81,88.85c.19-1.76.34-5.02.34-9.42,0-4.73-.17-8.15-.38-9.79-.02-.2-.26-.29-.41-.16l-4.2,3.51-5.88,4.91c-.11.09-.12.26-.02.36l10.13,10.73c.15.16.41.07.43-.14ZM53.92,71.02c-.09-.09-.24-.09-.33,0l-17.75,14.82c-.1.08-.12.22-.05.33.47.73,1.01,1.42,1.64,2.05,2.25,2.25,5.24,3.49,8.42,3.49s6.17-1.24,8.42-3.49c4.64-4.65,4.64-12.2,0-16.85-.12-.12-.23-.23-.35-.34ZM35.25,84.47l17.1-14.27c.13-.11.12-.31-.02-.4-1.96-1.27-4.22-1.91-6.48-1.91-3.05,0-6.1,1.16-8.42,3.48-2.25,2.25-3.49,5.24-3.49,8.42,0,1.6.32,3.15.92,4.59.07.16.26.2.39.09ZM122.01,71.02c-.09-.09-.24-.09-.33,0l-17.75,14.82c-.1.08-.12.22-.05.33.47.73,1.01,1.42,1.64,2.05,2.25,2.25,5.24,3.49,8.42,3.49s6.17-1.24,8.42-3.49c4.65-4.65,4.65-12.2,0-16.85-.12-.12-.23-.23-.35-.34ZM120.42,69.79c-1.96-1.27-4.22-1.91-6.48-1.91-3.05,0-6.1,1.16-8.42,3.48-2.25,2.25-3.49,5.24-3.49,8.42,0,1.6.32,3.15.92,4.59.07.16.26.2.39.09l17.1-14.27c.13-.11.12-.31-.02-.4ZM158.9,88.85c.19-1.76.34-5.02.34-9.42,0-4.73-.17-8.15-.38-9.79-.03-.2-.26-.29-.41-.16l-4.2,3.51-5.88,4.91c-.11.09-.12.26-.02.36l10.13,10.73c.15.16.41.07.43-.14ZM157.79,90.08l-10.42-11.04c-.09-.1-.24-.11-.34-.02l-8.87,7.4-1.48,1.24c-.06.05-.1.13-.09.21.16,1.97.33,2.35.35,2.38-.02-.04.08.06.04.04.55.29,4.53.6,10.82.6,4.79,0,8.24-.18,9.86-.39.2-.03.29-.27.15-.42ZM136.86,85.89l8.4-7.01,12.12-10.11c.17-.14.09-.42-.13-.44-1.75-.19-5.03-.35-9.46-.35-6.08,0-9.99.29-10.75.57-.06.02-.11.07-.14.14-.5,1.3-.72,10.79-.44,17.02,0,.21.25.31.41.18ZM226.99,88.85c.19-1.76.34-5.02.34-9.42,0-4.73-.17-8.15-.38-9.79-.03-.2-.26-.29-.41-.16l-4.2,3.51-5.88,4.91c-.11.09-.12.26-.02.36l10.13,10.73c.15.16.41.07.43-.14ZM204.95,85.89l8.4-7.01,12.12-10.11c.17-.14.09-.42-.13-.44-1.75-.19-5.03-.35-9.46-.35-6.08,0-9.99.29-10.75.57-.06.02-.11.07-.14.14-.5,1.3-.72,10.79-.44,17.02,0,.21.25.31.41.18ZM215.87,90.89c4.79,0,8.24-.18,9.86-.39.2-.03.29-.27.15-.42l-10.42-11.04c-.09-.1-.24-.11-.34-.02l-8.87,7.4-1.48,1.24c-.06.05-.1.13-.09.21.16,1.97.33,2.35.35,2.38-.02-.04.08.06.04.04.55.29,4.53.6,10.82.6ZM190.1,71.02c-.09-.09-.24-.09-.33,0l-17.75,14.82c-.1.08-.12.22-.05.33.47.73,1.01,1.42,1.64,2.05,2.25,2.25,5.24,3.49,8.42,3.49s6.17-1.24,8.42-3.49c4.65-4.65,4.65-12.2,0-16.85-.12-.12-.23-.23-.35-.34ZM171.42,84.47l17.1-14.27c.13-.11.12-.31-.02-.4-1.96-1.27-4.22-1.91-6.48-1.91-3.05,0-6.1,1.16-8.42,3.48-2.25,2.25-3.49,5.24-3.49,8.42,0,1.6.32,3.15.92,4.59.06.16.26.2.39.09ZM55.22,102.26c-1.75-.19-5.03-.35-9.46-.35-6.08,0-9.99.29-10.75.57-.06.02-.11.07-.14.14-.5,1.3-.72,10.79-.44,17.02,0,.21.25.31.41.18l8.4-7.01,12.12-10.11c.17-.14.09-.42-.13-.44ZM56.88,122.79c.19-1.76.34-5.02.34-9.42,0-4.73-.17-8.15-.38-9.79-.02-.2-.26-.29-.41-.16l-4.2,3.51-5.88,4.91c-.11.09-.12.26-.02.36l10.13,10.73c.15.16.41.07.43-.14ZM45.76,124.83c4.79,0,8.24-.18,9.86-.39.2-.03.29-.27.15-.42l-10.42-11.04c-.09-.1-.24-.11-.34-.02l-8.87,7.4-1.48,1.24c-.06.05-.1.13-.09.21.16,1.97.33,2.35.35,2.38-.02-.04.08.06.04.04.55.29,4.53.6,10.82.6ZM19.98,104.96c-.09-.09-.24-.09-.33,0L1.9,119.77c-.1.08-.12.22-.05.33.47.73,1.01,1.42,1.64,2.05,2.25,2.25,5.24,3.49,8.42,3.49s6.17-1.24,8.42-3.49c4.64-4.65,4.64-12.2,0-16.85-.12-.12-.23-.23-.35-.34ZM18.39,103.73c-1.96-1.27-4.22-1.91-6.48-1.91-3.05,0-6.1,1.16-8.42,3.48-2.25,2.25-3.49,5.24-3.49,8.42,0,1.6.32,3.15.92,4.59.07.16.26.2.39.09l17.1-14.27c.13-.11.12-.31-.02-.4ZM88.07,104.96c-.09-.09-.24-.09-.33,0l-17.75,14.82c-.1.08-.12.22-.05.33.47.73,1.01,1.42,1.64,2.05,2.25,2.25,5.24,3.49,8.42,3.49s6.17-1.24,8.42-3.49c4.64-4.65,4.64-12.2,0-16.85-.12-.12-.23-.23-.35-.34ZM86.48,103.73c-1.96-1.27-4.22-1.91-6.48-1.91-3.05,0-6.1,1.16-8.42,3.48-2.25,2.25-3.49,5.24-3.49,8.42,0,1.6.32,3.15.92,4.59.07.16.26.2.39.09l17.1-14.27c.13-.11.12-.31-.02-.4ZM156.16,104.96c-.09-.09-.24-.09-.33,0l-17.75,14.82c-.1.08-.12.22-.05.33.47.73,1.01,1.42,1.64,2.05,2.25,2.25,5.24,3.49,8.42,3.49s6.17-1.24,8.42-3.49c4.65-4.65,4.65-12.2,0-16.85-.12-.12-.23-.23-.35-.34ZM154.57,103.73c-1.96-1.27-4.22-1.91-6.48-1.91-3.05,0-6.1,1.16-8.42,3.48s-3.49,5.24-3.49,8.42c0,1.6.32,3.15.92,4.59.06.16.26.2.39.09l17.1-14.27c.13-.11.12-.31-.02-.4ZM193.05,122.79c.19-1.76.34-5.02.34-9.42,0-4.73-.17-8.15-.38-9.79-.03-.2-.26-.29-.41-.16l-4.2,3.51-5.88,4.91c-.11.09-.12.26-.02.36l10.13,10.73c.15.16.41.07.43-.14ZM181.94,124.83c4.79,0,8.24-.18,9.86-.39.2-.03.29-.27.15-.42l-10.42-11.04c-.09-.1-.24-.11-.34-.02l-8.87,7.4-1.48,1.24c-.06.05-.1.13-.09.21.16,1.97.33,2.35.35,2.38-.02-.04.08.06.04.04.55.29,4.53.6,10.82.6ZM191.4,102.26c-1.75-.19-5.03-.35-9.46-.35-6.08,0-9.99.29-10.75.57-.06.02-.11.07-.14.14-.5,1.3-.72,10.79-.44,17.02,0,.21.25.31.41.18l8.4-7.01,12.12-10.11c.17-.14.09-.42-.13-.44ZM224.25,104.96c-.09-.09-.24-.09-.33,0l-17.75,14.82c-.1.08-.12.22-.05.33.47.73,1.01,1.42,1.64,2.05,2.25,2.25,5.24,3.49,8.42,3.49s6.17-1.24,8.42-3.49c4.65-4.65,4.65-12.2,0-16.85-.12-.12-.23-.23-.35-.34ZM205.57,118.4l17.1-14.27c.13-.11.12-.31-.02-.4-1.96-1.27-4.22-1.91-6.48-1.91-3.05,0-6.1,1.16-8.42,3.48-2.25,2.25-3.49,5.24-3.49,8.42,0,1.6.32,3.15.92,4.59.06.16.26.2.39.09ZM53.92,138.9c-.09-.09-.24-.09-.33,0l-17.75,14.82c-.1.08-.12.22-.05.33.47.73,1.01,1.42,1.64,2.05,2.25,2.25,5.24,3.49,8.42,3.49s6.17-1.24,8.42-3.49c4.64-4.65,4.64-12.2,0-16.85-.12-.12-.23-.23-.35-.34ZM52.33,137.66c-1.96-1.27-4.22-1.91-6.48-1.91-3.05,0-6.1,1.16-8.42,3.48-2.25,2.25-3.49,5.24-3.49,8.42,0,1.6.32,3.15.92,4.59.07.16.26.2.39.09l17.1-14.27c.13-.11.12-.31-.02-.4ZM157.25,136.2c-1.75-.19-5.03-.35-9.46-.35-6.08,0-9.99.29-10.75.57-.06.02-.11.07-.14.14-.5,1.3-.72,10.79-.44,17.02,0,.21.25.31.41.18l8.4-7.01,12.12-10.11c.17-.14.09-.42-.13-.44ZM158.9,156.73c.19-1.76.34-5.02.34-9.42,0-4.73-.17-8.15-.38-9.79-.03-.2-.26-.29-.41-.16l-4.2,3.51-5.88,4.91c-.11.09-.12.26-.02.36l10.13,10.73c.15.16.41.07.43-.14ZM157.79,157.96l-10.42-11.04c-.09-.1-.24-.11-.34-.02l-8.87,7.4-1.48,1.24c-.06.05-.1.13-.09.21.16,1.97.33,2.35.35,2.38-.02-.04.08.06.04.04.55.29,4.53.6,10.82.6,4.79,0,8.24-.18,9.86-.39.2-.03.29-.27.15-.42ZM226.54,137.36l-4.2,3.51-5.88,4.91c-.11.09-.12.26-.02.36l10.13,10.73c.15.16.41.07.43-.14.19-1.76.34-5.02.34-9.42,0-4.73-.17-8.15-.38-9.79-.03-.2-.26-.29-.41-.16ZM215.87,158.77c4.79,0,8.24-.18,9.86-.39.2-.03.29-.27.15-.42l-10.42-11.04c-.09-.1-.24-.11-.34-.02l-8.87,7.4-1.48,1.24c-.06.05-.1.13-.09.21.16,1.97.33,2.35.35,2.38-.02-.04.08.06.04.04.55.29,4.53.6,10.82.6ZM190.1,138.9c-.09-.09-.24-.09-.33,0l-17.75,14.82c-.1.08-.12.22-.05.33.47.73,1.01,1.42,1.64,2.05,2.25,2.25,5.24,3.49,8.42,3.49s6.17-1.24,8.42-3.49c4.65-4.65,4.65-12.2,0-16.85-.12-.12-.23-.23-.35-.34ZM171.42,152.34l17.1-14.27c.13-.11.12-.31-.02-.4-1.96-1.27-4.22-1.91-6.48-1.91-3.05,0-6.1,1.16-8.42,3.48s-3.49,5.24-3.49,8.42c0,1.6.32,3.15.92,4.59.06.16.26.2.39.09ZM225.34,136.2c-1.75-.19-5.03-.35-9.46-.35-6.08,0-9.99.29-10.75.57-.06.02-.11.07-.14.14-.5,1.3-.72,10.79-.44,17.02,0,.21.25.31.41.18l8.4-7.01,12.12-10.11c.17-.14.09-.42-.13-.44ZM193.05,190.67c.19-1.76.34-5.02.34-9.42,0-4.73-.17-8.15-.38-9.79-.03-.2-.26-.29-.41-.16l-4.2,3.51-5.88,4.91c-.11.09-.12.26-.02.36l10.13,10.73c.15.16.41.07.43-.14ZM156.16,172.83c-.09-.09-.24-.09-.33,0l-17.75,14.82c-.1.08-.12.22-.05.33.47.73,1.01,1.42,1.64,2.05,2.25,2.25,5.24,3.49,8.42,3.49s6.17-1.24,8.42-3.49c4.65-4.65,4.65-12.2,0-16.85-.12-.12-.23-.23-.35-.34ZM154.57,171.6c-1.96-1.27-4.22-1.91-6.48-1.91-3.05,0-6.1,1.16-8.42,3.48-2.25,2.25-3.49,5.24-3.49,8.42,0,1.6.32,3.15.92,4.59.06.16.26.2.39.09l17.1-14.27c.13-.11.12-.31-.02-.4ZM191.4,170.14c-1.75-.19-5.03-.35-9.46-.35-6.08,0-9.99.29-10.75.57-.06.02-.11.07-.14.14-.5,1.3-.72,10.79-.44,17.02,0,.21.25.31.41.18l8.4-7.01,12.12-10.11c.17-.14.09-.42-.13-.44ZM181.94,192.71c4.79,0,8.24-.18,9.86-.39.2-.03.29-.27.15-.42l-10.42-11.04c-.09-.1-.24-.11-.34-.02l-8.87,7.4-1.48,1.24c-.06.05-.1.13-.09.21.16,1.97.33,2.35.35,2.38-.02-.04.08.06.04.04.55.29,4.53.6,10.82.6ZM224.6,173.17c-.12-.12-.23-.23-.35-.34-.09-.09-.24-.09-.33,0l-17.75,14.82c-.1.08-.12.22-.05.33.47.73,1.01,1.42,1.64,2.05,2.25,2.25,5.24,3.49,8.42,3.49,3.18,0,6.17-1.24,8.42-3.49,4.65-4.65,4.65-12.2,0-16.85ZM205.57,186.28l17.1-14.27c.13-.11.12-.31-.02-.4-1.96-1.27-4.22-1.91-6.48-1.91-3.05,0-6.1,1.16-8.42,3.48-2.25,2.25-3.49,5.24-3.49,8.42,0,1.6.32,3.15.92,4.59.06.16.26.2.39.09ZM157.25,204.08c-1.75-.19-5.03-.35-9.46-.35-6.08,0-9.99.29-10.75.57-.06.02-.11.07-.14.14-.5,1.3-.72,10.79-.44,17.02,0,.21.25.31.41.18l8.4-7.01,12.12-10.11c.17-.14.09-.42-.13-.44ZM157.79,225.83l-10.42-11.04c-.09-.1-.24-.11-.34-.02l-8.87,7.4-1.48,1.24c-.06.05-.1.13-.09.21.16,1.97.33,2.35.35,2.38-.02-.04.08.06.04.04.55.29,4.53.6,10.82.6,4.79,0,8.24-.18,9.86-.39.2-.03.29-.27.15-.42ZM158.9,224.6c.19-1.76.34-5.02.34-9.42,0-4.73-.17-8.15-.38-9.79-.03-.2-.26-.29-.41-.16l-4.2,3.51-5.88,4.91c-.11.09-.12.26-.02.36l10.13,10.73c.15.16.41.07.43-.14ZM225.34,204.08c-1.75-.19-5.03-.35-9.46-.35-6.08,0-9.99.29-10.75.57-.06.02-.11.07-.14.14-.5,1.3-.72,10.79-.44,17.02,0,.21.25.31.41.18l8.4-7.01,12.12-10.11c.17-.14.09-.42-.13-.44ZM190.1,206.77c-.09-.09-.24-.09-.33,0l-17.75,14.82c-.1.08-.12.22-.05.33.47.73,1.01,1.42,1.64,2.05,2.25,2.25,5.24,3.49,8.42,3.49s6.17-1.24,8.42-3.49c4.65-4.65,4.65-12.2,0-16.85-.12-.12-.23-.23-.35-.34ZM171.42,220.22l17.1-14.27c.13-.11.12-.31-.02-.4-1.96-1.27-4.22-1.91-6.48-1.91-3.05,0-6.1,1.16-8.42,3.48-2.25,2.25-3.49,5.24-3.49,8.42,0,1.6.32,3.15.92,4.59.06.16.26.2.39.09ZM216.45,213.66c-.11.09-.12.26-.02.36l10.13,10.73c.15.16.41.07.43-.14.19-1.76.34-5.02.34-9.42,0-4.73-.17-8.15-.38-9.79-.03-.2-.26-.29-.41-.16l-4.2,3.51-5.88,4.91ZM215.87,226.64c4.79,0,8.24-.18,9.86-.39.2-.03.29-.27.15-.42l-10.42-11.04c-.09-.1-.24-.11-.34-.02l-8.87,7.4-1.48,1.24c-.06.05-.1.13-.09.21.16,1.97.33,2.35.35,2.38-.02-.04.08.06.04.04.55.29,4.53.6,10.82.6ZM193.05,258.54c.19-1.76.34-5.02.34-9.42,0-4.73-.17-8.15-.38-9.79-.03-.2-.26-.29-.41-.16l-4.2,3.51-5.88,4.91c-.11.09-.12.26-.02.36l10.13,10.73c.15.16.41.07.43-.14ZM181.94,260.58c4.79,0,8.24-.18,9.86-.39.2-.03.29-.27.15-.42l-10.42-11.04c-.09-.1-.24-.11-.34-.02l-8.87,7.4-1.48,1.24c-.06.05-.1.13-.09.21.16,1.97.33,2.35.35,2.38-.02-.04.08.06.04.04.55.29,4.53.6,10.82.6ZM191.4,238.01c-1.75-.19-5.03-.35-9.46-.35-6.08,0-9.99.29-10.75.57-.06.02-.11.07-.14.14-.5,1.3-.72,10.79-.44,17.02,0,.21.25.31.41.18l8.4-7.01,12.12-10.11c.17-.14.09-.42-.13-.44ZM156.16,240.71c-.09-.09-.24-.09-.33,0l-17.75,14.82c-.1.08-.12.22-.05.33.47.73,1.01,1.42,1.64,2.05,2.25,2.25,5.24,3.49,8.42,3.49s6.17-1.24,8.42-3.49c4.65-4.65,4.65-12.2,0-16.85-.12-.12-.23-.23-.35-.34ZM154.57,239.48c-1.96-1.27-4.22-1.91-6.48-1.91-3.05,0-6.1,1.16-8.42,3.48-2.25,2.25-3.49,5.24-3.49,8.42,0,1.6.32,3.15.92,4.59.06.16.26.2.39.09l17.1-14.27c.13-.11.12-.31-.02-.4ZM224.6,241.05c-.12-.12-.23-.23-.35-.34-.09-.09-.24-.09-.33,0l-17.75,14.82c-.1.08-.12.22-.05.33.47.73,1.01,1.42,1.64,2.05,2.25,2.25,5.24,3.49,8.42,3.49s6.17-1.24,8.42-3.49c4.65-4.65,4.65-12.2,0-16.85ZM205.57,254.16l17.1-14.27c.13-.11.12-.31-.02-.4-1.96-1.27-4.22-1.91-6.48-1.91-3.05,0-6.1,1.16-8.42,3.48-2.25,2.25-3.49,5.24-3.49,8.42,0,1.6.32,3.15.92,4.59.06.16.26.2.39.09ZM157.25,271.95c-1.75-.19-5.03-.35-9.46-.35-6.08,0-9.99.29-10.75.57-.06.02-.11.07-.14.14-.5,1.3-.72,10.79-.44,17.02,0,.21.25.31.41.18l8.4-7.01,12.12-10.11c.17-.14.09-.42-.13-.44ZM158.9,292.48c.19-1.76.34-5.02.34-9.42,0-4.73-.17-8.15-.38-9.79-.03-.2-.26-.29-.41-.16l-4.2,3.51-5.88,4.91c-.11.09-.12.26-.02.36l10.13,10.73c.15.16.41.07.43-.14ZM157.79,293.71l-10.42-11.04c-.09-.1-.24-.11-.34-.02l-8.87,7.4-1.48,1.24c-.06.05-.1.13-.09.21.16,1.97.33,2.35.35,2.38-.02-.04.08.06.04.04.55.29,4.53.6,10.82.6,4.79,0,8.24-.18,9.86-.39.2-.03.29-.27.15-.42ZM225.88,293.71l-10.42-11.04c-.09-.1-.24-.11-.34-.02l-8.87,7.4-1.48,1.24c-.06.05-.1.13-.09.21.16,1.97.33,2.35.35,2.38-.02-.04.08.06.04.04.55.29,4.53.6,10.82.6,4.79,0,8.24-.18,9.86-.39.2-.03.29-.27.15-.42ZM226.99,292.48c.19-1.76.34-5.02.34-9.42,0-4.73-.17-8.15-.38-9.79-.03-.2-.26-.29-.41-.16l-4.2,3.51-5.88,4.91c-.11.09-.12.26-.02.36l10.13,10.73c.15.16.41.07.43-.14ZM204.95,289.52l8.4-7.01,12.12-10.11c.17-.14.09-.42-.13-.44-1.75-.19-5.03-.35-9.46-.35-6.08,0-9.99.29-10.75.57-.06.02-.11.07-.14.14-.5,1.3-.72,10.79-.44,17.02,0,.21.25.31.41.18ZM190.1,274.65c-.09-.09-.24-.09-.33,0l-17.75,14.82c-.1.08-.12.22-.05.33.47.73,1.01,1.42,1.64,2.05,2.25,2.25,5.24,3.49,8.42,3.49s6.17-1.24,8.42-3.49c4.65-4.65,4.65-12.2,0-16.85-.12-.12-.23-.23-.35-.34ZM171.42,288.09l17.1-14.27c.13-.11.12-.31-.02-.4-1.96-1.27-4.22-1.91-6.48-1.91-3.05,0-6.1,1.16-8.42,3.48-2.25,2.25-3.49,5.24-3.49,8.42,0,1.6.32,3.15.92,4.59.06.16.26.2.39.09ZM193.05,326.42c.19-1.76.34-5.02.34-9.42,0-4.73-.17-8.15-.38-9.79-.03-.2-.26-.29-.41-.16l-4.2,3.51-5.88,4.91c-.11.09-.12.26-.02.36l10.13,10.73c.15.16.41.07.43-.14ZM156.16,308.58c-.09-.09-.24-.09-.33,0l-17.75,14.82c-.1.08-.12.22-.05.33.47.73,1.01,1.42,1.64,2.05,2.25,2.25,5.24,3.49,8.42,3.49s6.17-1.24,8.42-3.49c4.65-4.65,4.65-12.2,0-16.85-.12-.12-.23-.23-.35-.34ZM154.57,307.35c-1.96-1.27-4.22-1.91-6.48-1.91-3.05,0-6.1,1.16-8.42,3.48s-3.49,5.24-3.49,8.42c0,1.6.32,3.15.92,4.59.06.16.26.2.39.09l17.1-14.27c.13-.11.12-.31-.02-.4ZM181.94,328.46c4.79,0,8.24-.18,9.86-.39.2-.03.29-.27.15-.42l-10.42-11.04c-.09-.1-.24-.11-.34-.02l-8.87,7.4-1.48,1.24c-.06.05-.1.13-.09.21.16,1.97.33,2.35.35,2.38-.02-.04.08.06.04.04.55.29,4.53.6,10.82.6ZM191.4,305.89c-1.75-.19-5.03-.35-9.46-.35-6.08,0-9.99.29-10.75.57-.06.02-.11.07-.14.14-.5,1.3-.72,10.79-.44,17.02,0,.21.25.31.41.18l8.4-7.01,12.12-10.11c.17-.14.09-.42-.13-.44ZM224.25,308.58c-.09-.09-.24-.09-.33,0l-17.75,14.82c-.1.08-.12.22-.05.33.47.73,1.01,1.42,1.64,2.05,2.25,2.25,5.24,3.49,8.42,3.49s6.17-1.24,8.42-3.49c4.65-4.65,4.65-12.2,0-16.85-.12-.12-.23-.23-.35-.34ZM222.66,307.35c-1.96-1.27-4.22-1.91-6.48-1.91-3.05,0-6.1,1.16-8.42,3.48s-3.49,5.24-3.49,8.42c0,1.6.32,3.15.92,4.59.06.16.26.2.39.09l17.1-14.27c.13-.11.12-.31-.02-.4ZM147.79,362.39c4.79,0,8.24-.18,9.86-.39.2-.03.29-.27.15-.42l-10.42-11.04c-.09-.1-.24-.11-.34-.02l-8.87,7.4-1.48,1.24c-.06.05-.1.13-.09.21.16,1.97.33,2.35.35,2.38-.02-.04.08.06.04.04.55.29,4.53.6,10.82.6ZM157.25,339.83c-1.75-.19-5.03-.35-9.46-.35-6.08,0-9.99.29-10.75.57-.06.02-.11.07-.14.14-.5,1.3-.72,10.79-.44,17.02,0,.21.25.31.41.18l8.4-7.01,12.12-10.11c.17-.14.09-.42-.13-.44ZM158.9,360.35c.19-1.76.34-5.02.34-9.42,0-4.73-.17-8.15-.38-9.79-.03-.2-.26-.29-.41-.16l-4.2,3.51-5.88,4.91c-.11.09-.12.26-.02.36l10.13,10.73c.15.16.41.07.43-.14ZM225.34,339.83c-1.75-.19-5.03-.35-9.46-.35-6.08,0-9.99.29-10.75.57-.06.02-.11.07-.14.14-.5,1.3-.72,10.79-.44,17.02,0,.21.25.31.41.18l8.4-7.01,12.12-10.11c.17-.14.09-.42-.13-.44ZM226.99,360.35c.19-1.76.34-5.02.34-9.42,0-4.73-.17-8.15-.38-9.79-.03-.2-.26-.29-.41-.16l-4.2,3.51-5.88,4.91c-.11.09-.12.26-.02.36l10.13,10.73c.15.16.41.07.43-.14ZM225.88,361.58l-10.42-11.04c-.09-.1-.24-.11-.34-.02l-8.87,7.4-1.48,1.24c-.06.05-.1.13-.09.21.16,1.97.33,2.35.35,2.38-.02-.04.08.06.04.04.55.29,4.53.6,10.82.6,4.79,0,8.24-.18,9.86-.39.2-.03.29-.27.15-.42ZM190.1,342.52c-.09-.09-.24-.09-.33,0l-17.75,14.82c-.1.08-.12.22-.05.33.47.73,1.01,1.42,1.64,2.05,2.25,2.25,5.24,3.49,8.42,3.49s6.17-1.24,8.42-3.49c4.65-4.65,4.65-12.2,0-16.85-.12-.12-.23-.23-.35-.34ZM171.42,355.97l17.1-14.27c.13-.11.12-.31-.02-.4-1.96-1.27-4.22-1.91-6.48-1.91-3.05,0-6.1,1.16-8.42,3.48-2.25,2.25-3.49,5.24-3.49,8.42,0,1.6.32,3.15.92,4.59.06.16.26.2.39.09ZM156.16,376.46c-.09-.09-.24-.09-.33,0l-17.75,14.82c-.1.08-.12.22-.05.33.47.73,1.01,1.42,1.64,2.05,2.25,2.25,5.24,3.49,8.42,3.49s6.17-1.24,8.42-3.49c4.64-4.65,4.64-12.2,0-16.85-.12-.12-.23-.23-.35-.34ZM137.49,389.9l17.1-14.27c.13-.11.12-.31-.02-.4-1.96-1.27-4.22-1.91-6.48-1.91-3.05,0-6.1,1.16-8.42,3.48-2.25,2.25-3.49,5.24-3.49,8.42,0,1.6.32,3.15.92,4.59.06.16.26.2.39.09ZM181.94,396.33c4.79,0,8.24-.18,9.86-.39.2-.03.29-.27.15-.42l-10.42-11.04c-.09-.1-.24-.11-.34-.02l-8.87,7.4-1.48,1.24c-.06.05-.1.13-.09.21.16,1.97.33,2.35.35,2.38-.02-.04.08.06.04.04.55.29,4.53.6,10.82.6ZM193.05,394.29c.19-1.76.34-5.02.34-9.42,0-4.73-.17-8.15-.38-9.79-.03-.2-.26-.29-.41-.16l-4.2,3.51-5.88,4.91c-.11.09-.12.26-.02.36l10.13,10.73c.15.16.41.07.43-.14ZM191.4,373.76c-1.75-.19-5.03-.35-9.46-.35-6.08,0-9.99.29-10.75.57-.06.02-.11.07-.14.14-.5,1.3-.72,10.79-.44,17.02,0,.21.25.31.41.18l8.4-7.01,12.12-10.11c.17-.14.09-.42-.13-.44ZM224.25,376.46c-.09-.09-.24-.09-.33,0l-17.75,14.82c-.1.08-.12.22-.05.33.47.73,1.01,1.42,1.64,2.05,2.25,2.25,5.24,3.49,8.42,3.49s6.17-1.24,8.42-3.49c4.65-4.65,4.65-12.2,0-16.85-.12-.12-.23-.23-.35-.34ZM222.66,375.23c-1.96-1.27-4.22-1.91-6.48-1.91-3.05,0-6.1,1.16-8.42,3.48-2.25,2.25-3.49,5.24-3.49,8.42,0,1.6.32,3.15.92,4.59.06.16.26.2.39.09l17.1-14.27c.13-.11.12-.31-.02-.4ZM147.79,430.27c4.79,0,8.24-.18,9.86-.39.2-.03.29-.27.15-.42l-10.42-11.04c-.09-.1-.24-.11-.34-.02l-8.87,7.4-1.48,1.24c-.06.05-.1.13-.09.21.16,1.97.33,2.35.35,2.38-.02-.04.08.06.04.04.55.29,4.53.6,10.82.6ZM158.9,428.23c.19-1.76.34-5.02.34-9.42,0-4.73-.17-8.15-.38-9.79-.03-.2-.26-.29-.41-.16l-4.2,3.51-5.88,4.91c-.11.09-.12.26-.02.36l10.13,10.73c.15.16.41.07.43-.14ZM157.25,407.7c-1.75-.19-5.03-.35-9.46-.35-6.08,0-9.99.29-10.75.57-.06.02-.11.07-.14.14-.5,1.3-.72,10.79-.44,17.02,0,.21.25.31.41.18l8.4-7.01,12.12-10.11c.17-.14.09-.42-.13-.44ZM225.34,407.7c-1.75-.19-5.03-.35-9.46-.35-6.08,0-9.99.29-10.75.57-.06.02-.11.07-.14.14-.5,1.3-.72,10.79-.44,17.02,0,.21.25.31.41.18l8.4-7.01,12.12-10.11c.17-.14.09-.42-.13-.44ZM215.87,430.27c4.79,0,8.24-.18,9.86-.39.2-.03.29-.27.15-.42l-10.42-11.04c-.09-.1-.24-.11-.34-.02l-8.87,7.4-1.48,1.24c-.06.05-.1.13-.09.21.16,1.97.33,2.35.35,2.38-.02-.04.08.06.04.04.55.29,4.53.6,10.82.6ZM226.99,428.23c.19-1.76.34-5.02.34-9.42,0-4.73-.17-8.15-.38-9.79-.03-.2-.26-.29-.41-.16l-4.2,3.51-5.88,4.91c-.11.09-.12.26-.02.36l10.13,10.73c.15.16.41.07.43-.14ZM190.1,410.4c-.09-.09-.24-.09-.33,0l-17.75,14.82c-.1.08-.12.22-.05.33.47.73,1.01,1.42,1.64,2.05,2.25,2.25,5.24,3.49,8.42,3.49s6.17-1.24,8.42-3.49c4.65-4.65,4.65-12.2,0-16.85-.12-.12-.23-.23-.35-.34ZM171.42,423.84l17.1-14.27c.13-.11.12-.31-.02-.4-1.96-1.27-4.22-1.91-6.48-1.91-3.05,0-6.1,1.16-8.42,3.48-2.25,2.25-3.49,5.24-3.49,8.42,0,1.6.32,3.15.92,4.59.07.16.26.2.39.09ZM191.4,441.64c-1.75-.19-5.03-.35-9.46-.35-6.08,0-9.99.29-10.75.57-.06.02-.11.07-.14.14-.5,1.3-.72,10.79-.44,17.02,0,.21.25.31.41.18l8.4-7.01,12.12-10.11c.17-.14.09-.42-.13-.44ZM156.16,444.33c-.09-.09-.24-.09-.33,0l-17.75,14.82c-.1.08-.12.22-.05.33.47.73,1.01,1.42,1.64,2.05,2.25,2.25,5.24,3.49,8.42,3.49s6.17-1.24,8.42-3.49c4.64-4.65,4.64-12.2,0-16.85-.12-.12-.23-.23-.35-.34ZM137.49,457.78l17.1-14.27c.13-.11.12-.31-.02-.4-1.96-1.27-4.22-1.91-6.48-1.91-3.05,0-6.1,1.16-8.42,3.48-2.25,2.25-3.49,5.24-3.49,8.42,0,1.6.32,3.15.92,4.59.06.16.26.2.39.09ZM193.05,462.17c.19-1.76.34-5.02.34-9.42,0-4.73-.17-8.15-.38-9.79-.03-.2-.26-.29-.41-.16l-4.2,3.51-5.88,4.91c-.11.09-.12.26-.02.36l10.13,10.73c.15.16.41.07.43-.14ZM181.94,464.21c4.79,0,8.24-.18,9.86-.39.2-.03.29-.27.15-.42l-10.42-11.04c-.09-.1-.24-.11-.34-.02l-8.87,7.4-1.48,1.24c-.06.05-.1.13-.09.21.16,1.97.33,2.35.35,2.38-.02-.04.08.06.04.04.55.29,4.53.6,10.82.6ZM224.25,444.33c-.09-.09-.24-.09-.33,0l-17.75,14.82c-.1.08-.12.22-.05.33.47.73,1.01,1.42,1.64,2.05,2.25,2.25,5.24,3.49,8.42,3.49s6.17-1.24,8.42-3.49c4.65-4.65,4.65-12.2,0-16.85-.12-.12-.23-.23-.35-.34ZM205.57,457.78l17.1-14.27c.13-.11.12-.31-.02-.4-1.96-1.27-4.22-1.91-6.48-1.91-3.05,0-6.1,1.16-8.42,3.48-2.25,2.25-3.49,5.24-3.49,8.42,0,1.6.32,3.15.92,4.59.06.16.26.2.39.09ZM158.45,476.74l-4.2,3.51-5.88,4.91c-.11.09-.12.26-.02.36l10.13,10.73c.15.16.41.07.43-.14.19-1.76.34-5.02.34-9.42,0-4.73-.17-8.15-.38-9.79-.03-.2-.26-.29-.41-.16ZM136.86,493.14l8.4-7.01,12.12-10.11c.17-.14.09-.42-.13-.44-1.75-.19-5.03-.35-9.46-.35-6.08,0-9.99.29-10.75.57-.06.02-.11.07-.14.14-.5,1.3-.72,10.79-.44,17.02,0,.21.25.31.41.18ZM147.37,486.29c-.09-.1-.24-.11-.34-.02l-8.87,7.4-1.48,1.24c-.06.05-.1.13-.09.21.16,1.97.33,2.35.35,2.38-.02-.04.08.06.04.04.55.29,4.53.6,10.82.6,4.79,0,8.24-.18,9.86-.39.2-.03.29-.27.15-.42l-10.42-11.04ZM190.1,478.27c-.09-.09-.24-.09-.33,0l-17.75,14.82c-.1.08-.12.22-.05.33.47.73,1.01,1.42,1.64,2.05,2.25,2.25,5.24,3.49,8.42,3.49s6.17-1.24,8.42-3.49c4.65-4.65,4.65-12.2,0-16.85-.12-.12-.23-.23-.35-.34ZM188.51,477.04c-1.96-1.27-4.22-1.91-6.48-1.91-3.05,0-6.1,1.16-8.42,3.48-2.25,2.25-3.49,5.24-3.49,8.42,0,1.6.32,3.15.92,4.59.06.16.26.2.39.09l17.1-14.28c.13-.11.12-.31-.02-.4ZM215.46,486.29c-.09-.1-.24-.11-.34-.02l-8.87,7.4-1.48,1.24c-.06.05-.1.13-.09.21.16,1.97.33,2.35.35,2.38-.02-.04.08.06.04.04.55.29,4.53.6,10.82.6,4.79,0,8.24-.18,9.86-.39.2-.03.29-.27.15-.42l-10.42-11.04ZM204.95,493.14l8.4-7.01,12.12-10.11c.17-.14.09-.42-.13-.44-1.75-.19-5.03-.35-9.46-.35-6.08,0-9.99.29-10.75.57-.06.02-.11.07-.14.14-.5,1.3-.72,10.79-.44,17.02,0,.21.25.31.41.18ZM226.54,476.74l-4.2,3.51-5.88,4.91c-.11.09-.12.26-.02.36l10.13,10.73c.15.16.41.07.43-.14.19-1.76.34-5.02.34-9.42,0-4.73-.17-8.15-.38-9.79-.03-.2-.26-.29-.41-.16Z"/>
    </g>
  </g>
</svg>