<?xml version="1.0" encoding="UTF-8"?>
<svg id="_レイヤー_2" data-name="レイヤー 2" xmlns="http://www.w3.org/2000/svg" viewBox="0 0 176.4 968.2">
  <defs>
    <style>
      .cls-1 {
        fill: #d97700;
      }
    </style>
  </defs>
  <g id="_文字_アウトライン" data-name="文字_アウトライン">
    <g>
      <path class="cls-1" d="M29.7,886.66c-5.4,10.92-8.1,22.62-8.1,35.1,0,6.72,1.44,11.88,4.32,15.48,2.88,3.6,6.72,5.4,11.52,5.4,8.52,0,14.52-6.18,18-18.54,4.68-16.8,10.38-28.65,17.1-35.55,6.72-6.9,15.42-10.35,26.1-10.35,12.36,0,21.81,4.08,28.35,12.24,6.54,8.16,9.81,19.98,9.81,35.46s-3.9,29.82-11.7,42.3l-20.16-6.3c7.8-11.52,11.7-23.7,11.7-36.54,0-7.08-1.53-12.45-4.59-16.11-3.06-3.66-7.41-5.49-13.05-5.49-5.16,0-9.24,1.47-12.24,4.41-3,2.94-5.64,8.25-7.92,15.93-4.44,15.36-10.02,26.49-16.74,33.39-6.72,6.9-14.94,10.35-24.66,10.35-10.8,0-19.44-3.99-25.92-11.97-6.48-7.98-9.72-19.17-9.72-33.57s2.82-28.5,8.46-40.86l19.44,5.22Z"/>
      <path class="cls-1" d="M21.6,850.67H0v-24.66h21.6v24.66ZM135,850.67H41.4v-24.66h93.6v24.66Z"/>
      <path class="cls-1" d="M3.6,768.77h57.06v-.36l-57.06-45.9v-29.34l63,52.2,68.4-54v29.34l-62.46,47.7v.36h62.46v25.2H3.6v-25.2Z"/>
      <path class="cls-1" d="M21.6,668.33H0v-24.66h21.6v24.66ZM135,668.33H41.4v-24.66h93.6v24.66Z"/>
      <path class="cls-1" d="M0,475.37h135v21.78l-13.14.54v.36c9.96,7.08,14.94,16.62,14.94,28.62,0,11.16-4.23,20.19-12.69,27.09-8.46,6.9-20.43,10.35-35.91,10.35s-27.9-3.33-36.18-9.99c-8.28-6.66-12.42-15.81-12.42-27.45s4.62-20.46,13.86-27.54v-.36H0v-23.4ZM88.2,541.61c9.72,0,17.19-2.01,22.41-6.03,5.22-4.02,7.83-9.21,7.83-15.57s-2.55-11.49-7.65-15.39c-5.1-3.9-12.33-5.85-21.69-5.85h-1.8c-9.12,0-16.29,1.95-21.51,5.85-5.22,3.9-7.83,9.03-7.83,15.39,0,6.84,2.52,12.15,7.56,15.93,5.04,3.78,12.6,5.67,22.68,5.67Z"/>
      <path class="cls-1" d="M96.66,432.54c7.08-.6,12.69-3.33,16.83-8.19,4.14-4.86,6.21-11.01,6.21-18.45,0-8.88-2.22-17.7-6.66-26.46l16.56-5.4c4.8,10.8,7.2,22.2,7.2,34.2,0,14.16-4.38,25.65-13.14,34.47-8.76,8.82-20.58,13.23-35.46,13.23s-27-4.08-35.64-12.24c-8.64-8.16-12.96-19.2-12.96-33.12s4.14-24.75,12.42-32.49c8.28-7.74,20.16-11.61,35.64-11.61,3,0,6,.18,9,.54v65.52ZM80.64,432.54v-43.92c-7.8.12-13.77,2.07-17.91,5.85-4.14,3.78-6.21,9.09-6.21,15.93s2.1,11.85,6.3,15.75c4.2,3.9,10.14,6.03,17.82,6.39Z"/>
      <path class="cls-1" d="M64.08,281.34c-4.56,9.96-6.84,19.74-6.84,29.34,0,11.04,3.24,16.56,9.72,16.56,3.12,0,5.52-1.2,7.2-3.6,1.68-2.4,2.94-6.6,3.78-12.6,1.92-13.32,5.37-22.86,10.35-28.62,4.98-5.76,11.85-8.64,20.61-8.64s15.45,3.33,20.43,9.99c4.98,6.66,7.47,16.05,7.47,28.17,0,14.52-3,27.42-9,38.7l-17.64-4.5c5.88-10.2,8.82-21.18,8.82-32.94,0-10.44-3.48-15.66-10.44-15.66-3.24,0-5.67,1.08-7.29,3.24s-2.97,6.36-4.05,12.6c-2.16,13.2-5.7,22.65-10.62,28.35-4.92,5.7-11.58,8.55-19.98,8.55s-14.85-3.27-19.71-9.81c-4.86-6.54-7.29-16.05-7.29-28.53s2.28-24.18,6.84-35.1l17.64,4.5Z"/>
      <path class="cls-1" d="M21.6,247.14H0v-24.66h21.6v24.66ZM135,247.14H41.4v-24.66h93.6v24.66Z"/>
      <path class="cls-1" d="M39.6,160.74c0-12,4.98-21.72,14.94-29.16v-.36l-13.14-.54v-21.78h84.06c33.96,0,50.94,16.38,50.94,49.14,0,10.8-1.8,21-5.4,30.6l-17.64-4.14c3.6-8.64,5.4-17.28,5.4-25.92,0-9.36-2.46-16.14-7.38-20.34-4.92-4.2-13.38-6.3-25.38-6.3h-6.66v.36c9.24,6.84,13.86,16.32,13.86,28.44,0,10.56-4.23,19.35-12.69,26.37s-19.83,10.53-34.11,10.53c-15.12,0-26.7-3.27-34.74-9.81-8.04-6.54-12.06-15.57-12.06-27.09ZM86.4,175.14c9,0,16.05-1.95,21.15-5.85,5.1-3.9,7.65-8.97,7.65-15.21,0-6.6-2.46-11.88-7.38-15.84-4.92-3.96-11.76-5.94-20.52-5.94h-1.8c-8.76,0-15.6,1.98-20.52,5.94-4.92,3.96-7.38,9.24-7.38,15.84s2.46,11.76,7.38,15.48c4.92,3.72,12.06,5.58,21.42,5.58Z"/>
      <path class="cls-1" d="M41.4,84.06v-21.96l13.14-.36v-.36c-4.68-3.6-8.34-8.07-10.98-13.41-2.64-5.34-3.96-10.83-3.96-16.47,0-10.8,3.33-18.75,9.99-23.85C56.25,2.55,67.14,0,82.26,0h52.74v23.04h-50.4c-10.32,0-17.31,1.2-20.97,3.6-3.66,2.4-5.49,6.72-5.49,12.96,0,5.28,2.7,10.11,8.1,14.49,5.4,4.38,11.7,6.57,18.9,6.57h49.86v23.4H41.4Z"/>
    </g>
  </g>
</svg>