<?xml version="1.0" encoding="UTF-8"?>
<svg id="_レイヤー_2" data-name="レイヤー 2" xmlns="http://www.w3.org/2000/svg" viewBox="0 0 641.79 266.51">
  <defs>
    <style>
      .cls-1 {
        fill: #d97700;
      }

      .cls-2 {
        fill: none;
        stroke: #d97700;
        stroke-miterlimit: 10;
      }
    </style>
  </defs>
  <g id="_文字_アウトライン" data-name="文字_アウトライン">
    <g>
      <g>
        <path class="cls-1" d="M35.37,17.27l19.92.48c-1.2,20.56-1.8,38.12-1.8,52.68,0,11.6,1.26,19.3,3.78,23.1,2.52,3.8,7.06,5.7,13.62,5.7,6.96,0,13.24-2.6,18.84-7.8,5.6-5.2,10.76-13.64,15.48-25.32l17.4,6.6c-11.12,29.92-28.36,44.88-51.72,44.88-9.52,0-16.9-1.4-22.14-4.2-5.24-2.8-9.06-7.58-11.46-14.34-2.4-6.76-3.6-16.3-3.6-28.62,0-17.52.56-35.24,1.68-53.16Z"/>
        <path class="cls-1" d="M209.09,45.43l7.68,10.08c-9.12,6.61-18.16,12.72-27.12,18.32-3.15,1.97-5.19,3.35-6.12,4.12-.93.77-1.4,1.53-1.4,2.28,0,.69.4,1.41,1.2,2.16.8.75,2.72,2.13,5.76,4.16,9.6,6.51,19.63,13.92,30.08,22.24l-8.32,9.44c-8.43-6.61-18.21-13.84-29.36-21.68-6.56-4.59-10.59-7.71-12.08-9.36-1.49-1.65-2.24-3.97-2.24-6.96,0-3.15.79-5.57,2.36-7.28,1.57-1.71,5.59-4.61,12.04-8.72,9.44-5.97,18.61-12.24,27.52-18.8Z"/>
        <path class="cls-1" d="M246.29,61.19v-10.96h34.56v10.96c-.16,1.55-.67,5.55-1.52,12,3.31.21,6.59.69,9.84,1.44.11-6.61.16-12.61.16-18h12.24c0,9.12-.11,16.35-.32,21.68,4.43,1.81,8.43,3.84,12,6.08l-5.2,10.48c-2.29-1.49-4.88-2.93-7.76-4.32-.64,4.96-1.72,9.01-3.24,12.16-1.52,3.15-3.35,5.65-5.48,7.52-2.13,1.87-5.31,4-9.52,6.4l-6.24-10.24c3.25-1.81,5.59-3.33,7-4.56,1.41-1.23,2.64-3.07,3.68-5.52,1.04-2.45,1.75-5.81,2.12-10.08-3.79-1.01-7.44-1.63-10.96-1.84-1.07,6.29-2.21,11.43-3.44,15.4-1.23,3.97-2.61,6.99-4.16,9.04-1.55,2.05-3.13,3.44-4.76,4.16-1.63.72-3.64,1.08-6.04,1.08-4.69,0-9.01-2.08-12.96-6.24-3.95-4.16-5.92-8.88-5.92-14.16s2.28-9.52,6.84-13.2c4.56-3.68,10.95-6,19.16-6.96.64-5.65,1.07-9.76,1.28-12.32h-21.36ZM264.77,85.03c-4,.69-7,1.8-9,3.32-2,1.52-3,3.29-3,5.32,0,1.71.63,3.4,1.88,5.08,1.25,1.68,2.44,2.52,3.56,2.52,2.56,0,4.75-5.41,6.56-16.24Z"/>
        <path class="cls-1" d="M58.29,156.55l20.4-1.56,1.68,19.32,37.56-1.32.6,17.4-36.6,1.32,1.92,22.08,38.88-1.32.6,17.4-37.92,1.32,2.4,27.12-20.4,1.56-2.4-27.96-41.64,1.44-.6-17.4,40.68-1.44-2.04-22.08-33.24,1.08-.6-17.4,32.28-1.08-1.56-18.48Z"/>
        <path class="cls-1" d="M176.5,213.84h30.68l-1.75,30.1h9.94v7.08h-44.2v-7.08h25.61l1.43-23.01h-21.71v-7.08Z"/>
        <path class="cls-1" d="M235.97,244.65c8.23-.82,14.8-3.24,19.69-7.25,4.9-4.01,8.8-10.08,11.7-18.23l8,3.12c-3.99,10.92-9.71,18.81-17.16,23.66-7.45,4.85-17.46,7.28-30.03,7.28h-1.56v-51.81h9.36v43.23Z"/>
        <path class="cls-1" d="M279.69,231.58v-8.71h42.95v8.71h-42.95Z"/>
        <path class="cls-1" d="M328.08,224.11l1.56-7.73c5.68.95,12.83,2.34,21.45,4.16l-1.62,7.67c-7.76-1.65-14.88-3.01-21.38-4.1ZM330.68,244.97c13.65-1.17,23.59-4.35,29.83-9.55s10.44-13.87,12.61-26l8.25,1.37c-2.47,14-7.5,24.23-15.08,30.71-7.58,6.48-19.02,10.39-34.32,11.73l-1.3-8.26ZM331.07,208.38l1.62-7.8c6.89,1.13,14.26,2.49,22.1,4.09l-1.62,7.8c-7.84-1.6-15.21-2.97-22.1-4.09Z"/>
        <path class="cls-1" d="M388.14,213.32h39.13v38.22h-39.13v-7.08h30.75v-9.49h-27.89v-6.96h27.89v-7.73h-30.75v-6.96Z"/>
        <path class="cls-1" d="M438.45,209.68l4.16-7.8c6.54,3.12,13.26,6.61,20.15,10.46l-4.35,7.67c-5.81-3.25-12.46-6.69-19.96-10.33ZM482.32,208.12l8.25,1.82c-2.3,12.87-7.5,22.77-15.6,29.71-8.1,6.93-19.37,11.03-33.8,12.29l-1.3-8.45c12.57-1.21,22.22-4.65,28.96-10.3,6.74-5.66,11.23-14.01,13.49-25.06Z"/>
        <path class="cls-1" d="M506.39,220.23c-1.25,4.91-1.88,10.24-1.88,16s.63,11.09,1.88,16l-6.36.68c-1.33-5.09-2-10.65-2-16.68s.67-11.59,2-16.68l6.36.68ZM529.35,244.55l.88,5.64c-3.15.8-6.37,1.2-9.68,1.2-3.84,0-6.84-.75-9-2.24-2.16-1.49-3.24-3.51-3.24-6.04,0-1.2.45-2.61,1.36-4.24s2.12-3.15,3.64-4.56l4.44,3.48c-2.08,2.13-3.12,3.77-3.12,4.92,0,.99.47,1.71,1.4,2.18.93.47,2.44.7,4.52.7,2.72,0,5.65-.35,8.8-1.04ZM511.75,228.03v-5.64h17.32v5.64h-17.32Z"/>
        <path class="cls-1" d="M568.51,230.15h-11.68v8.4c3.12,1.44,7.24,4.21,12.36,8.32l-3.88,4.52c-3.57-2.91-6.41-5.03-8.52-6.36-.19,2.77-1.06,4.83-2.62,6.18-1.56,1.35-3.83,2.02-6.82,2.02-3.39,0-5.97-.77-7.76-2.3-1.79-1.53-2.68-3.59-2.68-6.18s.9-4.65,2.7-6.12c1.8-1.47,4.38-2.2,7.74-2.2,1.15,0,2.15.05,3,.16v-17.88h6.48v6h11.68v5.44ZM550.35,242.19c-.91-.19-1.91-.28-3-.28-2.83,0-4.24.95-4.24,2.84,0,1.04.33,1.8,1,2.28.67.48,1.75.72,3.24.72,1.12,0,1.9-.28,2.34-.84.44-.56.66-1.59.66-3.08v-1.64Z"/>
        <path class="cls-1" d="M575.39,230.55c6.67-1.52,11.63-2.28,14.88-2.28,8.27,0,12.4,3.44,12.4,10.32,0,4.4-1.72,7.7-5.16,9.9-3.44,2.2-8.8,3.3-16.08,3.3l-.4-5.36c5.57,0,9.56-.62,11.96-1.86s3.6-3.11,3.6-5.62c0-1.81-.54-3.13-1.62-3.96-1.08-.83-2.83-1.24-5.26-1.24s-6.91.72-13.2,2.16l-1.12-5.36Z"/>
        <path class="cls-1" d="M608.47,221.95c10.83,0,21.87-.27,33.12-.8l.2,5.8c-6.13.43-10.75,1.69-13.84,3.78-3.09,2.09-4.64,4.67-4.64,7.74,0,2.45.84,4.41,2.52,5.86,1.68,1.45,3.88,2.18,6.6,2.18,1.33,0,2.95-.17,4.84-.52l.72,5.92c-1.84.37-3.8.56-5.88.56-4.77,0-8.6-1.21-11.48-3.64-2.88-2.43-4.32-5.67-4.32-9.72,0-2.13.65-4.24,1.96-6.32,1.31-2.08,3.12-3.84,5.44-5.28v-.08c-5.6.21-10.68.32-15.24.32v-5.8Z"/>
      </g>
      <polyline class="cls-2" points=".5 39.01 .5 .5 31.38 .5"/>
      <polyline class="cls-2" points="151.38 83.5 151.38 122.01 120.5 122.01"/>
      <polyline class="cls-2" points=".5 183.01 .5 144.5 31.38 144.5"/>
      <polyline class="cls-2" points="151.38 227.5 151.38 266.01 120.5 266.01"/>
    </g>
  </g>
</svg>