<?xml version="1.0" encoding="UTF-8"?>
<svg id="_レイヤー_2" data-name="レイヤー 2" xmlns="http://www.w3.org/2000/svg" viewBox="0 0 619.21 323.95">
  <defs>
    <style>
      .cls-1 {
        fill: none;
        stroke: #d97700;
        stroke-miterlimit: 10;
        stroke-width: 1.17px;
      }

      .cls-2 {
        fill: #d97700;
      }

      .cls-3 {
        fill: #d58013;
        opacity: .3;
      }
    </style>
  </defs>
  <g id="_イラスト" data-name="イラスト">
    <g>
      <line class="cls-1" x1="88.9" y1="76.03" x2="120.1" y2="120.89"/>
      <path class="cls-2" d="M85.41,78.72c-1.39-2-.9-4.74,1.1-6.13,2-1.39,4.74-.9,6.13,1.1,1.39,2,.9,4.74-1.1,6.13-2,1.39-4.74.9-6.13-1.1Z"/>
    </g>
    <g>
      <line class="cls-1" x1="259.54" y1="115.24" x2="210.03" y2="138.36"/>
      <path class="cls-2" d="M257.48,111.34c2.2-1.03,4.82-.08,5.85,2.13,1.03,2.2.08,4.82-2.13,5.85-2.2,1.03-4.82.08-5.85-2.13-1.03-2.2-.08-4.82,2.13-5.85Z"/>
    </g>
    <circle class="cls-3" cx="158.99" cy="157.62" r="61.47"/>
    <circle class="cls-1" cx="134.71" cy="285.31" r="38.05"/>
    <path class="cls-1" d="M242.04,28.3c0,18.07-13.75,28.6-31.82,28.6s-35.95-10.53-35.95-28.6S192.16.59,210.23.59s31.82,9.64,31.82,27.71Z"/>
    <path class="cls-1" d="M31.28,19.21l11.61,57.68c.44,2.21,3.11,3.11,4.8,1.62l44.15-38.9c1.69-1.49,1.13-4.25-1-4.97L35.08,15.86c-2.14-.72-4.25,1.14-3.8,3.35Z"/>
    <path class="cls-2" d="M524.6,38.31l-34.08,59.33c-1.31,2.27.34,5.1,2.96,5.1l68.42-.15c2.62,0,4.25-2.85,2.94-5.11l-34.34-59.18c-1.32-2.27-4.59-2.26-5.9.01Z"/>
    <path class="cls-1" d="M228.07,252.93l38.86,32.74c1.3,1.09,3.26.86,4.25-.52l44.58-61.37c1.68-2.31-.61-5.42-3.32-4.49l-83.44,28.63c-2.15.74-2.68,3.54-.94,5.01Z"/>
    <rect class="cls-1" x="278.72" y="88.6" width="58.54" height="58.54" rx="2.93" ry="2.93"/>
    <rect class="cls-2" x="502.95" y="105.34" width="49.46" height="49.46" rx="2.47" ry="2.47"/>
    <path class="cls-1" d="M41.54,173.88l-36.43-23.64c-2.17-1.41-4.96.48-4.47,3.02l13.51,68.8c.15.78.61,1.46,1.28,1.89l36.43,23.64c2.17,1.41,4.96-.48,4.47-3.02l-13.51-68.8c-.15-.78-.61-1.46-1.28-1.89Z"/>
    <g>
      <path class="cls-2" d="M124.72,149.06v-2.75h15.54v2.75h-15.54Z"/>
      <path class="cls-2" d="M154.98,152.56c.89.45,1.84.82,2.82,1.1l-.85,2.12c-1.4-.37-2.73-.94-3.98-1.68-1.03.63-2.28,1.2-3.76,1.68l-.73-1.55c-.05.75-.2,1.22-.45,1.41s-.77.29-1.56.29c-.46,0-.96-.03-1.5-.08l-.05-1.96h-.49v-4.35l-.27.03c-.03,1.65-.14,2.95-.33,3.89s-.48,1.79-.88,2.55l-1.75-1.58c.31-.61.52-1.23.64-1.84s.2-1.56.25-2.81l-.78.08-.02-2.14.83-.08v-6.15h1.65c.04-.34.1-.84.17-1.51l2.52.15c-.06.53-.11.99-.15,1.36h2.19v4.08c.37-.42.64-.92.8-1.49s.24-1.36.24-2.35v-1.04h5.76v3.79c0,.12.02.2.05.23.03.03.11.04.24.04.19,0,.31-.08.35-.25s.09-.76.14-1.77l1.75.29c-.02.46-.04.8-.05,1.02-.01.22-.04.48-.08.8-.04.32-.07.54-.08.65-.01.12-.06.27-.14.46s-.15.31-.19.36c-.04.05-.14.12-.29.22-.15.1-.27.15-.36.15s-.25.02-.49.05c-.24.03-.45.04-.61.04h-.77c-.78,0-1.29-.07-1.51-.21-.23-.14-.34-.44-.34-.89v-2.89h-1.19v.15c0,1.95-.5,3.42-1.51,4.4h6.87v2.09c-.56,1.24-1.26,2.28-2.11,3.13ZM146.48,145.85v-2.31h-2.31v.82l1.34-.54c.22.39.54,1.07.97,2.04ZM144.16,147.44l2.31-.24v-.71l-1.43.59c-.37-.83-.67-1.46-.88-1.89v2.24ZM146.03,149.38v4.27s.03,0,.05.02h.03c.18,0,.29-.03.31-.09.03-.06.04-.26.04-.6v-3.62l-.44.03ZM149.3,149.43v-2.09h.65l-1.44-1.5v1.16l.53-.07.02,2.14-.54.07v4.44c.95-.28,1.77-.6,2.45-.95-.71-.63-1.35-1.34-1.9-2.12l1.6-1.07h-1.34ZM152.95,151.29c.62-.54,1.14-1.16,1.56-1.85h-3.42c.5.67,1.12,1.29,1.85,1.85Z"/>
      <path class="cls-2" d="M172.16,155.77c-.78,0-2.07-.03-3.86-.1l-.15-2.29c1.31.07,2.24.1,2.79.1.08,0,.14-.03.19-.08.05-.06.1-.19.15-.4.06-.21.1-.52.13-.92.04-.4.07-.94.11-1.62.04-.68.08-1.52.11-2.53.03-1.01.07-2.23.1-3.65h-3.28c-.33.73-.72,1.44-1.17,2.16l1.51-.71c.83,1.36,1.57,2.88,2.24,4.57l-2.16.9c-.57-1.42-1.24-2.78-2.02-4.1-.25.35-.46.63-.65.83l-.61-.61v7.04h-4.23v1.22h-2.5v-13.24h1.89c.21-.7.42-1.48.61-2.33l2.57.31c-.12.6-.3,1.27-.53,2.02h2.19v2.07c.76-1.29,1.35-2.76,1.77-4.4l2.5.29c-.09.39-.26.95-.51,1.7h5.02c-.02,2.3-.05,4.18-.09,5.64-.03,1.46-.09,2.73-.18,3.82-.09,1.08-.17,1.89-.25,2.42-.08.53-.21.95-.4,1.27-.19.31-.37.5-.54.55s-.43.08-.76.08ZM161.37,147.27h1.79v-2.74h-1.79v2.74ZM161.37,149.42v2.79h1.79v-2.79h-1.79Z"/>
      <path class="cls-2" d="M176.06,144.91v-2.31h2.79c.25-1.02.43-1.79.54-2.31l2.46.31c-.09.45-.24,1.12-.44,2.01h2.67v2.31h-3.25c-.75,2.84-1.68,5.67-2.79,8.48l-2.4-.82c1.04-2.69,1.9-5.24,2.58-7.67h-2.18ZM190.79,145.25c-.74-.14-1.62-.22-2.65-.25v5.05c.97.66,2,1.51,3.08,2.55l-1.62,1.77c-.61-.56-1.17-1.04-1.67-1.46-.46,1.59-1.77,2.38-3.91,2.38-1.33,0-2.36-.31-3.1-.92-.74-.61-1.11-1.44-1.11-2.48s.37-1.85,1.1-2.46c.73-.61,1.77-.91,3.12-.91.45,0,.95.08,1.5.24v-6.15c2.1,0,3.95.11,5.56.34l-.29,2.31ZM185.53,151.13c-.51-.28-1.01-.42-1.5-.42-.53,0-.93.1-1.21.31-.27.21-.41.5-.41.86s.14.67.42.89.68.33,1.19.33c.57,0,.96-.12,1.17-.37.22-.25.32-.73.32-1.44v-.15Z"/>
      <path class="cls-2" d="M135.65,165.98l2.82.07c-.17,2.91-.25,5.4-.25,7.46,0,1.64.18,2.73.54,3.27s1,.81,1.93.81c.99,0,1.88-.37,2.67-1.1.79-.74,1.52-1.93,2.19-3.59l2.46.94c-1.58,4.24-4.02,6.36-7.33,6.36-1.35,0-2.39-.2-3.14-.59-.74-.4-1.28-1.07-1.62-2.03-.34-.96-.51-2.31-.51-4.05,0-2.48.08-4.99.24-7.53Z"/>
      <path class="cls-2" d="M160.77,165.36l1.63,2.14c-1.94,1.41-3.86,2.7-5.76,3.89-.67.42-1.1.71-1.3.88-.2.16-.3.33-.3.48,0,.15.08.3.25.46s.58.45,1.22.88c2.04,1.38,4.17,2.96,6.39,4.73l-1.77,2.01c-1.79-1.41-3.87-2.94-6.24-4.61-1.39-.97-2.25-1.64-2.57-1.99-.32-.35-.48-.84-.48-1.48,0-.67.17-1.18.5-1.55s1.19-.98,2.56-1.85c2.01-1.27,3.96-2.6,5.85-4Z"/>
      <path class="cls-2" d="M168.68,168.7v-2.33h7.34v2.33c-.03.33-.14,1.18-.32,2.55.7.05,1.4.15,2.09.31.02-1.41.03-2.68.03-3.83h2.6c0,1.94-.02,3.47-.07,4.61.94.39,1.79.82,2.55,1.29l-1.1,2.23c-.49-.32-1.04-.62-1.65-.92-.14,1.05-.37,1.92-.69,2.58-.32.67-.71,1.2-1.16,1.6-.45.4-1.13.85-2.02,1.36l-1.33-2.18c.69-.39,1.19-.71,1.49-.97.3-.26.56-.65.78-1.17.22-.52.37-1.24.45-2.14-.8-.22-1.58-.35-2.33-.39-.23,1.34-.47,2.43-.73,3.27-.26.84-.56,1.48-.88,1.92-.33.44-.67.73-1.01.88s-.77.23-1.28.23c-1,0-1.92-.44-2.75-1.33-.84-.88-1.26-1.89-1.26-3.01s.49-2.02,1.45-2.81c.97-.78,2.33-1.27,4.07-1.48.14-1.2.23-2.07.27-2.62h-4.54ZM172.61,173.77c-.85.15-1.49.38-1.91.71-.42.32-.64.7-.64,1.13,0,.36.13.72.4,1.08.27.36.52.54.76.54.54,0,1.01-1.15,1.39-3.45Z"/>
    </g>
    <path class="cls-3" d="M386.77,156.09c4.29-2.49,7.18-4.32,8.24-5.11.1-.08.1-.23,0-.3-1.05-.79-3.94-2.63-8.24-5.11-4.55-2.64-7.68-4.27-8.73-4.68-.1-.04-.22.02-.25.12-.33,1.06-.63,4.74-.63,9.82s.31,8.76.63,9.82c.03.11.15.16.25.12,1.04-.41,4.18-2.05,8.73-4.68Z"/>
    <path class="cls-3" d="M408.77,156.09c4.29-2.49,7.18-4.32,8.24-5.11.1-.08.1-.23,0-.3-1.05-.79-3.94-2.63-8.24-5.11-4.55-2.64-7.68-4.27-8.73-4.68-.1-.04-.22.02-.25.12-.33,1.06-.63,4.74-.63,9.82s.31,8.76.63,9.82c.03.11.15.16.25.12,1.04-.41,4.18-2.05,8.73-4.68Z"/>
    <path class="cls-3" d="M430.77,156.09c4.29-2.49,7.18-4.32,8.24-5.11.1-.08.1-.23,0-.3-1.05-.79-3.94-2.63-8.24-5.11-4.55-2.64-7.68-4.27-8.73-4.68-.1-.04-.22.02-.25.12-.33,1.06-.63,4.74-.63,9.82s.31,8.76.63,9.82c.03.11.15.16.25.12,1.04-.41,4.18-2.05,8.73-4.68Z"/>
  </g>
  <g id="_文字" data-name="文字">
    <g>
      <path class="cls-2" d="M459.72,200.06v-2.75h15.54v2.75h-15.54Z"/>
      <path class="cls-2" d="M489.98,203.56c.89.45,1.84.82,2.82,1.1l-.85,2.12c-1.4-.37-2.73-.94-3.98-1.68-1.03.63-2.28,1.2-3.76,1.68l-.73-1.55c-.05.75-.2,1.22-.45,1.41s-.77.29-1.55.29c-.46,0-.96-.03-1.5-.08l-.05-1.96h-.49v-4.35l-.27.03c-.03,1.65-.14,2.95-.33,3.89-.19.94-.48,1.79-.88,2.55l-1.75-1.58c.31-.61.52-1.23.64-1.84s.2-1.56.25-2.81l-.78.08-.02-2.14.83-.08v-6.15h1.65c.04-.34.1-.84.17-1.51l2.52.15c-.06.53-.11.99-.15,1.36h2.19v4.08c.37-.42.64-.92.8-1.49s.24-1.36.24-2.35v-1.04h5.76v3.79c0,.12.02.2.05.23.03.03.11.04.24.04.19,0,.31-.08.35-.25s.09-.76.14-1.77l1.75.29c-.02.46-.04.8-.05,1.02-.01.22-.04.48-.08.8-.04.32-.07.54-.08.65-.01.12-.06.27-.14.46s-.15.31-.19.36c-.04.05-.14.12-.29.22-.15.1-.27.15-.36.15s-.25.02-.49.05c-.24.03-.45.04-.61.04h-.77c-.78,0-1.29-.07-1.51-.21-.23-.14-.34-.44-.34-.89v-2.89h-1.19v.15c0,1.95-.5,3.42-1.51,4.4h6.87v2.09c-.56,1.24-1.26,2.28-2.11,3.13ZM481.48,196.85v-2.31h-2.31v.82l1.34-.54c.22.39.54,1.07.97,2.04ZM479.16,198.44l2.31-.24v-.71l-1.43.59c-.37-.83-.67-1.46-.88-1.89v2.24ZM481.03,200.38v4.27s.03,0,.05.02h.03c.18,0,.29-.03.31-.09.03-.06.04-.26.04-.6v-3.62l-.44.03ZM484.3,200.43v-2.09h.65l-1.44-1.5v1.16l.53-.07.02,2.14-.54.07v4.44c.95-.28,1.77-.6,2.45-.95-.71-.63-1.35-1.34-1.9-2.12l1.6-1.07h-1.34ZM487.95,202.29c.62-.54,1.14-1.16,1.56-1.85h-3.42c.5.67,1.12,1.29,1.85,1.85Z"/>
      <path class="cls-2" d="M507.16,206.77c-.78,0-2.07-.03-3.86-.1l-.15-2.29c1.31.07,2.24.1,2.79.1.08,0,.14-.03.19-.08.04-.06.1-.19.15-.4.06-.21.1-.52.14-.92s.07-.94.11-1.62c.04-.68.08-1.52.11-2.53.03-1.01.07-2.23.1-3.65h-3.28c-.33.73-.72,1.44-1.17,2.16l1.51-.71c.83,1.36,1.58,2.88,2.24,4.57l-2.16.9c-.57-1.42-1.24-2.78-2.02-4.1-.25.35-.46.63-.65.83l-.61-.61v7.04h-4.23v1.22h-2.5v-13.24h1.89c.21-.7.42-1.48.61-2.33l2.57.31c-.12.6-.3,1.27-.53,2.02h2.19v2.07c.76-1.29,1.35-2.76,1.77-4.4l2.5.29c-.09.39-.26.95-.51,1.7h5.02c-.02,2.3-.05,4.18-.08,5.64s-.09,2.73-.18,3.82c-.08,1.08-.17,1.89-.25,2.42-.08.53-.21.95-.4,1.27-.19.31-.37.5-.54.55-.18.06-.43.08-.76.08ZM496.37,198.27h1.79v-2.74h-1.79v2.74ZM496.37,200.42v2.79h1.79v-2.79h-1.79Z"/>
      <path class="cls-2" d="M511.06,195.91v-2.31h2.79c.25-1.02.43-1.79.54-2.31l2.47.31c-.09.45-.24,1.12-.44,2.01h2.67v2.31h-3.25c-.75,2.84-1.68,5.67-2.79,8.48l-2.4-.82c1.04-2.69,1.9-5.24,2.58-7.67h-2.18ZM525.8,196.25c-.74-.14-1.62-.22-2.65-.25v5.05c.97.66,2,1.51,3.08,2.55l-1.61,1.77c-.61-.56-1.17-1.04-1.67-1.46-.46,1.59-1.77,2.38-3.91,2.38-1.33,0-2.36-.31-3.1-.92-.74-.61-1.11-1.44-1.11-2.48s.37-1.85,1.1-2.46c.73-.61,1.77-.91,3.12-.91.45,0,.95.08,1.5.24v-6.15c2.1,0,3.95.11,5.56.34l-.29,2.31ZM520.53,202.13c-.51-.28-1.01-.42-1.5-.42-.53,0-.94.1-1.21.31-.27.21-.41.5-.41.86s.14.67.42.89.68.33,1.19.33c.57,0,.96-.12,1.17-.37.22-.25.32-.73.32-1.44v-.15Z"/>
      <path class="cls-2" d="M530.15,191.98l2.82.07c-.17,2.91-.26,5.4-.26,7.46,0,1.64.18,2.73.54,3.27.36.54,1,.81,1.93.81.98,0,1.88-.37,2.67-1.1.79-.74,1.52-1.93,2.19-3.59l2.46.94c-1.58,4.24-4.02,6.36-7.33,6.36-1.35,0-2.39-.2-3.14-.59s-1.28-1.07-1.62-2.03c-.34-.96-.51-2.31-.51-4.05,0-2.48.08-4.99.24-7.53Z"/>
      <path class="cls-2" d="M555.27,191.36l1.63,2.14c-1.94,1.41-3.86,2.7-5.76,3.89-.67.42-1.1.71-1.3.88-.2.16-.3.33-.3.48,0,.15.08.3.26.46.17.16.58.45,1.22.88,2.04,1.38,4.17,2.96,6.39,4.73l-1.77,2.01c-1.79-1.41-3.87-2.94-6.24-4.61-1.39-.97-2.25-1.64-2.57-1.99-.32-.35-.48-.84-.48-1.48,0-.67.17-1.18.5-1.55.33-.36,1.19-.98,2.56-1.85,2.01-1.27,3.96-2.6,5.85-4Z"/>
      <path class="cls-2" d="M563.18,194.7v-2.33h7.34v2.33c-.03.33-.14,1.18-.32,2.55.7.05,1.4.15,2.09.31.02-1.41.03-2.68.03-3.83h2.6c0,1.94-.02,3.47-.07,4.61.94.39,1.79.82,2.55,1.29l-1.1,2.23c-.49-.32-1.04-.62-1.65-.92-.14,1.05-.37,1.92-.69,2.58-.32.67-.71,1.2-1.16,1.6-.45.4-1.13.85-2.02,1.36l-1.33-2.18c.69-.39,1.19-.71,1.49-.97.3-.26.56-.65.78-1.17.22-.52.37-1.24.45-2.14-.8-.22-1.58-.35-2.33-.39-.23,1.34-.47,2.43-.73,3.27-.26.84-.56,1.48-.88,1.92-.33.44-.67.73-1.01.88s-.77.23-1.28.23c-1,0-1.92-.44-2.75-1.33-.84-.88-1.26-1.89-1.26-3.01s.49-2.02,1.45-2.81c.97-.78,2.33-1.27,4.07-1.48.14-1.2.23-2.07.27-2.62h-4.54ZM567.11,199.77c-.85.15-1.49.38-1.91.71-.42.32-.64.7-.64,1.13,0,.36.13.72.4,1.08.27.36.52.54.76.54.54,0,1.01-1.15,1.39-3.45Z"/>
      <path class="cls-2" d="M582.69,192.29c-.53,2.09-.8,4.35-.8,6.8s.27,4.71.8,6.8l-2.55.29c-.57-2.17-.85-4.53-.85-7.09s.28-4.92.85-7.09l2.55.29ZM593.91,196.63h-2.67v4.4c.74.62,1.67,1.54,2.81,2.74l-1.7,1.7c-.49-.53-.93-.99-1.33-1.38-.49,1.39-1.67,2.09-3.54,2.09-1.3,0-2.31-.3-3.03-.91-.72-.61-1.08-1.45-1.08-2.52s.36-1.88,1.07-2.47,1.73-.89,3.04-.89c.44,0,.83.05,1.16.14v-2.89h-4.64v-2.33h4.64v-2.48h2.6v2.48h2.67v2.33ZM588.64,202.07c-.43-.24-.87-.36-1.31-.36-.97,0-1.46.35-1.46,1.04,0,.74.49,1.1,1.46,1.1.46,0,.8-.1,1-.31.2-.2.31-.54.31-1.02v-.46Z"/>
      <path class="cls-2" d="M433.94,239.01c1.04-2.23,1.83-4.56,2.35-6.99l2.48.51c-.11.57-.23,1.1-.36,1.6.65,1.12,1.47,1.91,2.48,2.36v-5.32h-5.24v-6.54h12.65v6.54h-4.62v1.65h5.27v2.14h-5.27v2.23c1.11.15,2.74.22,4.88.22h1.22l-.14,2.29h-1.12c-3.06,0-5.39-.22-7-.66-1.6-.44-2.9-1.24-3.88-2.38-.42,1.2-.88,2.3-1.38,3.3l-2.33-.95ZM438.3,229.1h7.38v-2.33h-7.38v2.33Z"/>
      <path class="cls-2" d="M453.65,224.98l2.82.07c-.17,2.91-.25,5.4-.25,7.46,0,1.64.18,2.73.54,3.27.36.54,1,.81,1.93.81.99,0,1.88-.37,2.67-1.1.79-.74,1.52-1.93,2.19-3.59l2.46.94c-1.58,4.24-4.02,6.36-7.33,6.36-1.35,0-2.39-.2-3.14-.59-.74-.4-1.28-1.07-1.62-2.03-.34-.96-.51-2.31-.51-4.05,0-2.48.08-4.99.24-7.53Z"/>
      <path class="cls-2" d="M467.84,227.45c1.18-1.06,2.02-2.23,2.53-3.48l2.38.41c-.07.2-.15.43-.24.68h3.6v.95c.68-.71,1.17-1.39,1.46-2.04l2.36.41c-.13.36-.23.59-.27.68h4.08v2.07h-2.43c.16.41.27.71.34.92h.78v6.78h-1.97v.71h3.42v2.14h-3.42v2.18h-2.77v-2.18h-3.79c-.5.97-1.4,1.8-2.7,2.48l-2.11-1.53c.69-.35,1.19-.67,1.5-.95h-2.52v-2.14h3.64c.02-.16.05-.4.07-.71h-2.26v-5.71l-1.68-1.67ZM471.97,228.04l-.36-.92h-.27c-.28.4-.52.7-.71.92h1.34ZM472.3,230.05h7.38v-.51h-7.38v.51ZM472.3,231.22v.51h7.38v-.51h-7.38ZM472.3,232.91v.51h7.38v-.51h-7.38ZM476.1,228.04l-.92-.92h-.99c.16.41.27.71.34.92h1.56ZM474.52,235.54h3.18v-.71h-3.13c-.03.44-.05.68-.05.71ZM479.08,228.04l-.36-.92h-.42c-.18.22-.48.52-.9.92h1.68Z"/>
      <path class="cls-2" d="M485.61,226.02c4.6,0,9.29-.11,14.08-.34l.08,2.46c-2.62.18-4.58.73-5.89,1.63-1.31.91-1.96,2.05-1.96,3.43,0,1.11.35,1.99,1.06,2.63.71.64,1.65.96,2.81.96.56,0,1.24-.07,2.06-.22l.31,2.52c-.78.16-1.61.24-2.5.24-2.04,0-3.67-.53-4.89-1.58-1.22-1.05-1.83-2.48-1.83-4.27,0-.99.28-1.93.83-2.82.56-.9,1.33-1.65,2.31-2.28v-.03c-2.38.09-4.54.14-6.48.14v-2.46ZM498.56,232.72l-1.75.83c-.44-.9-.92-1.8-1.45-2.7l1.75-.88c.52.96,1,1.88,1.45,2.75ZM501.32,232.17l-1.79.85c-.51-.99-1-1.9-1.48-2.75l1.79-.9c.41.74.9,1.67,1.48,2.8Z"/>
      <path class="cls-2" d="M503.58,226.28h3.31v-1.8h2.5v1.8h7v2.19h-7v1.21c.57-.06,1.09-.08,1.58-.08,1.99,0,3.53.43,4.6,1.3,1.07.87,1.61,2.05,1.61,3.54,0,1.3-.44,2.42-1.32,3.34-.88.92-2.08,1.54-3.6,1.84l-.73-2.31c.91-.2,1.64-.57,2.2-1.1s.84-1.12.84-1.77c0-.79-.27-1.41-.82-1.84-.79,1.96-1.86,3.48-3.21,4.56-1.35,1.08-2.77,1.62-4.25,1.62-1.05,0-1.9-.31-2.54-.92-.64-.61-.96-1.44-.96-2.5,0-1.17.35-2.2,1.06-3.09.71-.9,1.72-1.58,3.03-2.04v-1.75h-3.31v-2.19ZM506.89,232.87c-1,.59-1.5,1.32-1.5,2.19,0,.44.11.79.31,1.03.21.24.5.37.88.37.07,0,.17-.01.31-.03v-3.55ZM511.41,231.94s-.12,0-.21,0c-.1,0-.17,0-.23,0-.48,0-1,.04-1.58.12v2.96c.8-.8,1.48-1.82,2.02-3.06Z"/>
      <path class="cls-2" d="M529.45,236.65c.93-.46,1.39-1.23,1.39-2.29,0-1.41-1.07-2.11-3.21-2.11-1.21,0-2.3.12-3.27.35-.97.23-2.09.65-3.37,1.25l-.95-1.89,7.33-4.3v-.02h-6.21v-2.26h11.12l.02,2.31-5.1,2.7.02.02c.56-.1,1.1-.15,1.63-.15,1.54,0,2.73.35,3.58,1.05s1.27,1.65,1.27,2.86c0,1.62-.6,2.88-1.79,3.77-1.19.9-2.88,1.34-5.07,1.34-3.45,0-5.17-1.04-5.17-3.11,0-.78.37-1.44,1.12-1.97.75-.53,1.76-.8,3.03-.8s2.25.21,2.83.64c.58.42.88,1.06.88,1.91,0,.25-.02.48-.07.7ZM527.02,237.14c.15-.36.22-.67.22-.92,0-.29-.11-.51-.33-.65-.22-.14-.64-.21-1.25-.21-.49,0-.85.08-1.1.23s-.37.35-.37.59c0,.66.88.99,2.63.99.02,0,.05,0,.09,0,.04,0,.07,0,.09,0Z"/>
      <path class="cls-2" d="M537.44,235.29c0-.63.2-1.29.6-1.97s1.11-1.51,2.12-2.48l2.02,1.48c-1.28,1.24-1.92,2.14-1.92,2.7,0,.5.32.9.95,1.19s1.57.44,2.81.44c.74,0,1.67-.08,2.79-.25,1.12-.16,2.08-.35,2.87-.57l.51,2.46c-.79.23-1.8.42-3.02.58-1.22.16-2.27.24-3.15.24-2.05,0-3.66-.35-4.83-1.05-1.17-.7-1.75-1.62-1.75-2.78ZM538.97,228.15v-2.4h10.2v2.4h-10.2Z"/>
      <path class="cls-2" d="M556.26,225.24l2.8-.44c.27,1.62.59,3.18.95,4.68,1.77-.74,3.9-1.38,6.41-1.94l.51,2.46c-3.06.68-5.37,1.44-6.93,2.29s-2.34,1.66-2.34,2.44c0,.66.28,1.15.83,1.47.55.32,1.42.48,2.61.48,1.81,0,3.69-.16,5.63-.48l.29,2.46c-1.89.32-3.87.48-5.92.48-4.22,0-6.32-1.43-6.32-4.28,0-1.5.87-2.83,2.62-4.01-.46-1.95-.84-3.82-1.14-5.61Z"/>
      <path class="cls-2" d="M581.13,232.8c0,4.2-1.03,6.31-3.09,6.31-.45,0-1.04-.07-1.77-.21-.73-.14-1.35-.31-1.89-.52l.63-2.35c1.22.4,2.04.59,2.46.59.16,0,.3-.12.42-.37s.24-.7.33-1.36c.1-.66.14-1.5.14-2.52,0-1.28-.05-2.03-.15-2.24-.1-.21-.46-.31-1.09-.31h-1.67c-.69,3.06-1.66,6.21-2.91,9.44l-2.28-.75c1.11-2.97,2-5.87,2.65-8.69h-2.29v-2.33h2.8c.24-1.2.44-2.31.59-3.31l2.41.17c-.09.75-.26,1.8-.51,3.15h2.18c.25,0,.54.02.87.06s.56.07.71.09c.14.02.31.1.51.22.2.12.33.23.39.31s.14.25.25.51c.1.26.16.47.17.65.01.18.03.48.07.9.03.42.05.79.05,1.12v1.43ZM583.39,227.96l-1.75.83c-.44-.9-.92-1.8-1.45-2.7l1.75-.88c.52.96,1,1.88,1.45,2.75ZM583.66,235.93c-.46-1.77-1.1-3.81-1.9-6.14l2.46-.77c.79,2.22,1.44,4.32,1.96,6.29l-2.52.61ZM586.15,227.42l-1.79.85c-.51-.99-1-1.9-1.48-2.75l1.78-.9c.41.74.9,1.67,1.48,2.81Z"/>
      <path class="cls-2" d="M587.3,227.52c1.44-.46,2.81-1.03,4.12-1.71s2.29-1.3,2.93-1.88l1.85,1.16h3.88v1.8c-1.04,1.62-2.59,2.96-4.64,4.02-2.05,1.06-4.53,1.77-7.45,2.13l-.71-2.02c1.95-.23,3.71-.62,5.27-1.19-.35-.35-.86-.83-1.51-1.45-.9.4-1.78.73-2.67,1l-1.07-1.87ZM589.36,234.25c1.48-.45,2.94-1.06,4.37-1.83s2.49-1.49,3.2-2.17l1.77,1.04h4.23v1.96c-1.1,1.8-2.74,3.28-4.93,4.45s-4.83,1.94-7.94,2.34l-.73-2.18c2.17-.27,4.08-.73,5.75-1.36-.52-.54-1.04-1.07-1.56-1.56-.99.48-1.99.88-3.01,1.21l-1.14-1.89ZM594.66,228.89c1.09-.59,1.99-1.26,2.7-2.01h-3.5c-.48.28-.74.44-.8.48.72.68,1.26,1.19,1.6,1.53ZM597.23,235.47c1.13-.63,2.08-1.38,2.86-2.23h-3.55c-.28.18-.59.37-.92.56.57.57,1.11,1.12,1.62,1.67Z"/>
      <path class="cls-2" d="M608.7,226.51c-.24.83-.44,1.78-.59,2.87-.16,1.09-.24,2.05-.24,2.87,0,1.15.17,2.12.52,2.92.35.8.69,1.2,1.03,1.2.26,0,.61-.3,1.04-.9s.87-1.46,1.31-2.58l2.35.88c-.58,1.68-1.32,2.99-2.24,3.93-.91.94-1.8,1.41-2.66,1.41-1.01,0-1.94-.66-2.8-1.99-.86-1.33-1.28-2.95-1.28-4.86,0-2.2.29-4.21.88-6.03l2.69.29ZM614.37,226.8l2.53-.73c1.54,3.22,2.31,6.95,2.31,11.2h-2.75c0-3.81-.7-7.3-2.09-10.47Z"/>
      <path class="cls-2" d="M511.11,259.02c4.6,0,9.29-.11,14.08-.34l.08,2.46c-2.62.18-4.58.73-5.89,1.63-1.31.91-1.96,2.05-1.96,3.43,0,1.11.35,1.99,1.06,2.63.71.64,1.65.96,2.81.96.56,0,1.24-.07,2.06-.22l.31,2.52c-.78.16-1.61.24-2.5.24-2.04,0-3.67-.53-4.89-1.58-1.22-1.05-1.83-2.48-1.83-4.27,0-.99.28-1.93.83-2.82.56-.9,1.33-1.65,2.31-2.28v-.03c-2.38.09-4.54.14-6.48.14v-2.46ZM524.06,265.72l-1.75.83c-.44-.9-.92-1.8-1.45-2.7l1.75-.88c.52.96,1,1.88,1.45,2.75ZM526.82,265.17l-1.79.85c-.51-.99-1-1.9-1.48-2.75l1.79-.9c.41.74.9,1.67,1.48,2.8Z"/>
      <path class="cls-2" d="M532.46,257.64l2.74.07c-.03.41-.07,1-.12,1.77h5.71v2.33h-5.87c-.03.6-.07,1.16-.1,1.68h4.69v2.31h-4.79c-.02.93-.04,1.54-.04,1.84,0,.94.15,1.54.44,1.81.29.27.97.4,2.02.4,1.22,0,2.04-.12,2.44-.37s.6-.71.6-1.39c0-.31-.08-.78-.24-1.43l2.53-.58c.21.9.31,1.63.31,2.21,0,1.39-.45,2.41-1.33,3.06-.89.65-2.33.97-4.31.97s-3.32-.34-4.07-1.01c-.75-.67-1.13-1.9-1.13-3.66,0-.29.01-.91.03-1.84h-3.55v-2.31h3.64c.03-.52.07-1.08.1-1.68h-3.26v-2.33h3.42c.02-.36.07-.97.14-1.84Z"/>
      <path class="cls-2" d="M445.22,294.69c-1.08-.53-2.21-.8-3.4-.8-.59,0-1.04.11-1.34.34-.31.23-.46.53-.46.92,0,.63.48,1.09,1.43,1.36,1.69.46,2.88,1.02,3.56,1.67.69.65,1.03,1.48,1.03,2.5,0,1.2-.41,2.12-1.22,2.75-.82.64-2.02.95-3.62.95-.71,0-1.46-.11-2.23-.33-.77-.22-1.42-.51-1.94-.86l.68-2.26c1.16.79,2.36,1.19,3.6,1.19.59,0,1.04-.12,1.33-.37s.45-.59.45-1.03c0-.36-.12-.66-.37-.88-.24-.23-.67-.43-1.28-.61-1.55-.45-2.67-1.01-3.35-1.66-.68-.65-1.02-1.46-1.02-2.42,0-1.08.41-1.93,1.21-2.57.81-.63,1.95-.95,3.41-.95,1.55,0,2.9.27,4.05.82l-.53,2.24Z"/>
      <path class="cls-2" d="M448.45,293.67v-2.21h2.87v2.21h-2.87ZM448.45,304.21v-8.84h2.87v8.84h-2.87Z"/>
      <path class="cls-2" d="M457.05,291.8v5.32h.03l3.76-5.32h3.35l-4.42,5.95,4.59,6.46h-3.35l-3.93-5.83h-.03v5.83h-2.89v-12.41h2.89Z"/>
      <path class="cls-2" d="M466.35,293.67v-2.21h2.87v2.21h-2.87ZM466.35,304.21v-8.84h2.87v8.84h-2.87Z"/>
      <path class="cls-2" d="M485.45,291.46v12.75h-2.53l-.05-1.22h-.03c-.69.93-1.58,1.39-2.65,1.39s-1.88-.4-2.53-1.22c-.66-.81-.99-1.94-.99-3.37s.32-2.61.95-3.4,1.49-1.19,2.57-1.19c1.02,0,1.86.41,2.52,1.24h.04v-4.98h2.72ZM479.27,299.79c0,.79.16,1.41.48,1.84.32.44.74.65,1.25.65s.94-.21,1.26-.63c.32-.42.48-1.01.48-1.79v-.17c0-.76-.16-1.35-.48-1.78-.32-.42-.74-.64-1.26-.64s-.97.21-1.28.63c-.31.42-.46,1.04-.46,1.87Z"/>
      <path class="cls-2" d="M489.89,300.69c.08.56.31.99.71,1.3.39.31.9.47,1.52.47.84,0,1.66-.2,2.46-.61l.6,1.85c-1.01.45-2.11.68-3.31.68-1.41,0-2.54-.41-3.39-1.24s-1.28-1.94-1.28-3.35.4-2.54,1.19-3.36c.79-.82,1.86-1.23,3.2-1.23s2.44.39,3.2,1.18c.76.79,1.14,1.91,1.14,3.37,0,.35-.02.66-.07.94h-5.95ZM489.87,299.01h3.5c-.01-1.3-.59-1.96-1.73-1.96-.52,0-.93.17-1.24.5-.31.33-.48.82-.53,1.45Z"/>
      <path class="cls-2" d="M504.27,297.77c-.96-.4-1.91-.6-2.84-.6-.52,0-.89.06-1.1.18-.21.12-.31.3-.31.54s.09.41.28.54c.19.13.52.23.99.3,1.33.17,2.28.49,2.85.97s.86,1.13.86,1.97-.33,1.5-.98,1.99c-.65.49-1.59.73-2.81.73-1.44,0-2.74-.28-3.91-.85l.51-1.97c.97.56,2.03.83,3.18.83.86,0,1.29-.26,1.29-.78,0-.23-.08-.4-.25-.51s-.51-.21-1.03-.29c-1.3-.2-2.24-.55-2.8-1.03-.57-.48-.85-1.13-.85-1.95s.33-1.44.98-1.92,1.61-.71,2.88-.71,2.42.21,3.57.63l-.51,1.94Z"/>
      <path class="cls-2" d="M507.33,293.67v-2.21h2.87v2.21h-2.87ZM507.33,304.21v-8.84h2.87v8.84h-2.87Z"/>
      <path class="cls-2" d="M515.85,295.2c1.08,0,1.97.46,2.69,1.39h.03l.05-1.22h2.53v7.87c0,1.62-.42,2.84-1.26,3.66s-2.07,1.22-3.71,1.22c-1.04,0-2.04-.17-2.97-.51l.46-1.97c.79.33,1.59.49,2.4.49.86,0,1.48-.21,1.85-.64.37-.43.56-1.16.56-2.22v-.48h-.02c-.65.83-1.52,1.24-2.62,1.24-1,0-1.83-.4-2.49-1.19-.66-.79-1-1.87-1-3.23s.31-2.49.94-3.26c.63-.77,1.48-1.16,2.54-1.16ZM514.97,299.62c0,.75.16,1.33.47,1.75.31.42.72.63,1.23.63s.96-.2,1.28-.6c.32-.4.48-.96.48-1.7v-.17c0-.73-.16-1.29-.48-1.69-.32-.4-.75-.6-1.28-.6s-.95.2-1.25.6c-.3.4-.45.99-.45,1.78Z"/>
      <path class="cls-2" d="M523.4,295.37h2.52l.07,1.22h.03c.33-.43.73-.77,1.21-1.02.48-.25.98-.37,1.49-.37,1.06,0,1.84.31,2.33.93.49.62.73,1.69.73,3.2v4.88h-2.69v-4.59c0-.92-.1-1.53-.29-1.84-.19-.31-.53-.47-1.02-.47-.42,0-.8.23-1.15.68-.35.45-.52.98-.52,1.58v4.64h-2.72v-8.84Z"/>
      <path class="cls-2" d="M537.53,291.29c-.53,2.09-.8,4.35-.8,6.8s.27,4.71.8,6.8l-2.55.29c-.57-2.17-.85-4.53-.85-7.09s.28-4.92.85-7.09l2.55.29ZM548.74,295.63h-2.67v4.4c.74.62,1.67,1.54,2.81,2.74l-1.7,1.7c-.49-.53-.93-.99-1.33-1.38-.49,1.39-1.67,2.09-3.54,2.09-1.3,0-2.31-.3-3.03-.91-.72-.61-1.08-1.45-1.08-2.52s.36-1.88,1.07-2.47,1.73-.89,3.04-.89c.44,0,.83.05,1.16.14v-2.89h-4.64v-2.33h4.64v-2.48h2.6v2.48h2.67v2.33ZM543.48,301.07c-.43-.24-.87-.36-1.31-.36-.97,0-1.46.35-1.46,1.04,0,.74.49,1.1,1.46,1.1.46,0,.8-.1,1-.31.2-.2.31-.54.31-1.02v-.46Z"/>
      <path class="cls-2" d="M555.92,300.73h-.83v-1.6h5v-.44h-4.73v-3.23h10.08v3.23h-2.57v.44h2.84v1.6h-2.84v.49h3.11v1.8h-3.11v.53h3.35l-.14,2.16h-4.56c-2.29,0-4.04-.1-5.26-.31-1.22-.21-2.13-.58-2.73-1.1-.7.59-1.44,1.14-2.23,1.67l-1.24-2.09c.66-.41,1.24-.8,1.73-1.17v-3.91h-1.45v-2.21h4.01v5.51c.15.24.29.43.44.58v-1.45h1.1v-.49ZM565.08,291v2.23h1.07v1.79h-11.63v-.77l-1.11,1.1c-1.14-1.19-2.18-2.22-3.11-3.08l1.72-1.65c.87.83,1.74,1.69,2.6,2.6h2.75c.01-.06.04-.14.08-.25.04-.11.07-.19.09-.25h-2.02v-1.73h2.53c.11-.41.19-.72.24-.94l2.7.15c-.02.08-.05.21-.09.38-.04.18-.07.31-.09.4h4.27ZM560.08,303.53v-.51h-4.73c.66.31,2.23.48,4.73.51ZM557.99,297.36h4.81v-.51h-4.81v.51ZM560.08,300.73h-1.77v.49h1.77v-.49ZM560.14,293.23h2.24v-.49h-2.07c-.01.06-.04.14-.08.25-.04.11-.07.19-.09.25Z"/>
      <path class="cls-2" d="M572.03,292.51c-.24.83-.44,1.78-.59,2.87-.16,1.09-.24,2.05-.24,2.87,0,1.15.17,2.12.52,2.92.35.8.69,1.2,1.03,1.2.26,0,.61-.3,1.04-.9s.87-1.46,1.31-2.58l2.35.88c-.58,1.68-1.32,2.99-2.24,3.93-.91.94-1.8,1.41-2.66,1.41-1.01,0-1.94-.66-2.8-1.99-.86-1.33-1.28-2.95-1.28-4.86,0-2.2.29-4.21.88-6.03l2.69.29ZM577.7,292.8l2.53-.73c1.54,3.22,2.31,6.95,2.31,11.2h-2.75c0-3.81-.7-7.3-2.09-10.47Z"/>
      <path class="cls-2" d="M585.6,292.11h6.6v-1.5h2.62v1.5h4.22v2.33h-4.22v1.07h3.57v2.28h-3.57v2.4c1.08.62,2.36,1.62,3.86,2.99l-1.6,1.77c-.97-.91-1.79-1.6-2.43-2.07-.22.86-.66,1.48-1.33,1.87-.67.39-1.63.58-2.86.58s-2.22-.29-2.92-.86c-.7-.57-1.05-1.38-1.05-2.42,0-.97.33-1.75.99-2.31.66-.57,1.65-.85,2.97-.85.59,0,1.17.07,1.75.22v-1.31h-5.95v-2.28h5.95v-1.07h-6.6v-2.33ZM592.2,301.44c-.5-.2-.99-.31-1.46-.31-1.08,0-1.62.3-1.62.9,0,.63.44.95,1.33.95.68,0,1.14-.1,1.38-.31.24-.21.36-.62.37-1.23Z"/>
      <path class="cls-2" d="M601.89,292h7.77v-1.7h2.6v1.7h4.49v2.18h-4.49v3.21c.35.68.53,1.46.53,2.35,0,1.76-.51,3.07-1.54,3.94-1.03.87-2.75,1.43-5.18,1.67l-.44-2.35c1.63-.16,2.73-.37,3.31-.63s.95-.67,1.13-1.22c0-.01,0-.03.02-.06.01-.03.02-.05.02-.06l-.03-.02c-.59.35-1.25.53-1.99.53-1.08,0-1.95-.31-2.63-.94-.67-.62-1.01-1.43-1.01-2.43s.34-1.81,1.03-2.43c.69-.62,1.59-.94,2.71-.94.46,0,.95.1,1.44.29l.03-.02v-.9h-7.77v-2.18ZM607.4,297.26c-.27.24-.4.54-.4.92s.13.68.4.92c.27.24.61.36,1.04.36s.78-.12,1.05-.36c.27-.24.4-.54.4-.92s-.13-.68-.4-.92c-.27-.24-.62-.36-1.05-.36s-.78.12-1.04.36Z"/>
    </g>
  </g>
</svg>