<?xml version="1.0" encoding="UTF-8"?>
<svg id="_レイヤー_2" data-name="レイヤー 2" xmlns="http://www.w3.org/2000/svg" viewBox="0 0 330.24 498.95">
  <defs>
    <style>
      .cls-1 {
        fill: #cb7d1e;
      }

      .cls-2 {
        opacity: .15;
      }
    </style>
  </defs>
  <g id="_数字" data-name="数字">
    <g class="cls-2">
      <path class="cls-1" d="M114.43,10.03c-.11.09-.12.26-.02.36l10.13,10.73c.15.16.41.07.43-.14.19-1.76.34-5.02.34-9.42,0-4.73-.17-8.15-.38-9.79-.02-.2-.26-.29-.41-.16l-4.2,3.51-5.88,4.91ZM102.93,18.01l8.4-7.01L123.44.89c.17-.14.09-.42-.13-.44-1.75-.19-5.03-.35-9.46-.35-6.08,0-9.99.29-10.75.57-.06.02-.11.07-.14.14-.5,1.3-.72,10.79-.44,17.02,0,.21.25.31.41.18ZM113.09,11.15l-8.87,7.4-1.48,1.24c-.06.05-.1.13-.09.21.16,1.97.33,2.35.35,2.38-.02-.04.08.06.04.04.55.29,4.53.6,10.82.6,4.79,0,8.24-.18,9.86-.39.2-.03.29-.27.15-.42l-10.42-11.04c-.09-.1-.24-.11-.34-.02ZM69.93,18.29c.47.73,1.01,1.42,1.64,2.05,2.25,2.25,5.24,3.49,8.42,3.49,3.18,0,6.17-1.24,8.42-3.49,4.65-4.65,4.65-12.2,0-16.85-.12-.12-.23-.23-.35-.34-.09-.09-.24-.09-.33,0l-17.75,14.82c-.1.08-.12.22-.05.33ZM69.4,16.59l17.1-14.27c.13-.11.12-.31-.02-.4-1.96-1.27-4.22-1.91-6.48-1.91-3.05,0-6.1,1.16-8.42,3.48-2.25,2.25-3.49,5.24-3.49,8.42,0,1.6.32,3.15.92,4.59.07.16.26.2.39.09ZM171.02,18.01l8.4-7.01,12.12-10.11c.17-.14.09-.42-.13-.44-1.75-.19-5.03-.35-9.46-.35-6.08,0-9.99.29-10.75.57-.06.02-.11.07-.14.14-.5,1.3-.72,10.79-.44,17.02,0,.21.25.31.41.18ZM182.51,10.03c-.11.09-.12.26-.02.36l10.13,10.73c.15.16.41.07.43-.14.19-1.76.34-5.02.34-9.42,0-4.73-.17-8.15-.38-9.79-.03-.2-.26-.29-.41-.16l-4.2,3.51-5.88,4.91ZM138.02,18.29c.47.73,1.01,1.42,1.64,2.05,2.25,2.25,5.24,3.49,8.42,3.49s6.17-1.24,8.42-3.49c4.65-4.65,4.65-12.2,0-16.85-.12-.12-.23-.23-.35-.34-.09-.09-.24-.09-.33,0l-17.75,14.82c-.1.08-.12.22-.05.33ZM137.49,16.59l17.1-14.27c.13-.11.12-.31-.02-.4C152.6.64,150.35,0,148.09,0c-3.05,0-6.1,1.16-8.42,3.48-2.25,2.25-3.49,5.24-3.49,8.42,0,1.6.32,3.15.92,4.59.06.16.26.2.39.09ZM191.94,22.21l-10.42-11.04c-.09-.1-.24-.11-.34-.02l-8.87,7.4-1.48,1.24c-.06.05-.1.13-.09.21.16,1.97.33,2.35.35,2.38-.02-.04.08.06.04.04.55.29,4.53.6,10.82.6,4.79,0,8.24-.18,9.86-.39.2-.03.29-.27.15-.42ZM250.6,10.03c-.11.09-.12.26-.02.36l10.13,10.73c.15.16.41.07.43-.14.19-1.76.34-5.02.34-9.42,0-4.73-.17-8.15-.38-9.79-.02-.2-.26-.29-.41-.16l-4.2,3.51-5.88,4.91ZM239.1,18.01l8.4-7.01,12.12-10.11c.17-.14.09-.42-.13-.44-1.75-.19-5.03-.35-9.46-.35-6.08,0-9.99.29-10.75.57-.06.02-.11.07-.14.14-.5,1.3-.72,10.79-.44,17.02,0,.21.25.31.41.18ZM206.11,18.29c.47.73,1.01,1.42,1.64,2.05,2.25,2.25,5.24,3.49,8.42,3.49s6.17-1.24,8.42-3.49c4.65-4.65,4.65-12.2,0-16.85-.12-.12-.23-.23-.35-.34-.09-.09-.24-.09-.33,0l-17.75,14.82c-.1.08-.12.22-.05.33ZM205.57,16.59l17.1-14.27c.13-.11.12-.31-.02-.4C220.69.64,218.44,0,216.18,0c-3.05,0-6.1,1.16-8.42,3.48-2.25,2.25-3.49,5.24-3.49,8.42,0,1.6.32,3.15.92,4.59.06.16.26.2.39.09ZM260.03,22.21l-10.42-11.04c-.09-.1-.24-.11-.34-.02l-8.87,7.4-1.48,1.24c-.06.05-.1.13-.09.21.16,1.97.33,2.35.35,2.38-.02-.04.08.06.04.04.55.29,4.53.6,10.82.6,4.79,0,8.24-.18,9.86-.39.2-.03.29-.27.15-.42ZM89.16,34.39c-1.75-.19-5.03-.35-9.46-.35-6.08,0-9.99.29-10.75.57-.06.02-.11.07-.14.14-.5,1.3-.72,10.79-.44,17.02,0,.21.25.31.41.18l8.4-7.01,12.12-10.11c.17-.14.09-.42-.13-.44ZM68.88,56.36c.55.29,4.53.6,10.82.6,4.79,0,8.24-.18,9.86-.39.2-.03.29-.27.15-.42l-10.42-11.04c-.09-.1-.24-.11-.34-.02l-8.87,7.4-1.48,1.24c-.06.05-.1.13-.09.21.16,1.97.33,2.35.35,2.38-.02-.04.08.06.04.04ZM35.78,52.22c.47.73,1.01,1.42,1.64,2.05,2.25,2.25,5.24,3.49,8.42,3.49s6.17-1.24,8.42-3.49c4.65-4.65,4.65-12.2,0-16.85-.12-.12-.23-.23-.35-.34-.09-.09-.24-.09-.33,0l-17.75,14.82c-.1.08-.12.22-.05.33ZM35.25,50.53l17.1-14.27c.13-.11.12-.31-.02-.4-1.96-1.27-4.22-1.91-6.48-1.91-3.05,0-6.1,1.16-8.42,3.48-2.25,2.25-3.49,5.24-3.49,8.42,0,1.6.32,3.15.92,4.59.06.16.26.2.39.09ZM80.28,43.97c-.11.09-.12.26-.02.36l10.13,10.73c.15.16.41.07.43-.14.19-1.76.34-5.02.34-9.42,0-4.73-.17-8.15-.38-9.79-.02-.2-.26-.29-.41-.16l-4.2,3.51-5.88,4.91ZM157.25,34.39c-1.75-.19-5.03-.35-9.46-.35-6.08,0-9.99.29-10.75.57-.06.02-.11.07-.14.14-.5,1.3-.72,10.79-.44,17.02,0,.21.25.31.41.18l8.4-7.01,12.12-10.11c.17-.14.09-.42-.13-.44ZM136.96,56.36c.55.29,4.53.6,10.82.6,4.79,0,8.24-.18,9.86-.39.2-.03.29-.27.15-.42l-10.42-11.04c-.09-.1-.24-.11-.34-.02l-8.87,7.4-1.48,1.24c-.06.05-.1.13-.09.21.16,1.97.33,2.35.35,2.38-.02-.04.08.06.04.04ZM148.36,43.97c-.11.09-.12.26-.02.36l10.13,10.73c.15.16.41.07.43-.14.19-1.76.34-5.02.34-9.42,0-4.73-.17-8.15-.38-9.79-.02-.2-.26-.29-.41-.16l-4.2,3.51-5.88,4.91ZM122.14,36.83c-.09-.09-.24-.09-.33,0l-17.75,14.82c-.1.08-.12.22-.05.33.47.73,1.01,1.42,1.64,2.05,2.25,2.25,5.24,3.49,8.42,3.49s6.17-1.24,8.42-3.49c4.65-4.65,4.65-12.2,0-16.85-.12-.12-.23-.23-.35-.34ZM103.47,50.27l17.1-14.27c.13-.11.12-.31-.02-.4-1.96-1.27-4.22-1.91-6.48-1.91-3.05,0-6.1,1.16-8.42,3.48-2.25,2.25-3.49,5.24-3.49,8.42,0,1.6.32,3.15.92,4.59.06.16.26.2.39.09ZM190.1,37.08c-.09-.09-.24-.09-.33,0l-17.75,14.82c-.1.08-.12.22-.05.33.47.73,1.01,1.42,1.64,2.05,2.25,2.25,5.24,3.49,8.42,3.49s6.17-1.24,8.42-3.49c4.65-4.65,4.65-12.2,0-16.85-.12-.12-.23-.23-.35-.34ZM171.42,50.53l17.1-14.27c.13-.11.12-.31-.02-.4-1.96-1.27-4.22-1.91-6.48-1.91-3.05,0-6.1,1.16-8.42,3.48-2.25,2.25-3.49,5.24-3.49,8.42,0,1.6.32,3.15.92,4.59.06.16.26.2.39.09ZM216.45,43.97c-.11.09-.12.26-.02.36l10.13,10.73c.15.16.41.07.43-.14.19-1.76.34-5.02.34-9.42,0-4.73-.17-8.15-.38-9.79-.03-.2-.26-.29-.41-.16l-4.2,3.51-5.88,4.91ZM205.05,56.36c.55.29,4.53.6,10.82.6,4.79,0,8.24-.18,9.86-.39.2-.03.29-.27.15-.42l-10.42-11.04c-.09-.1-.24-.11-.34-.02l-8.87,7.4-1.48,1.24c-.06.05-.1.13-.09.21.16,1.97.33,2.35.35,2.38-.02-.04.08.06.04.04ZM225.34,34.39c-1.75-.19-5.03-.35-9.46-.35-6.08,0-9.99.29-10.75.57-.06.02-.11.07-.14.14-.5,1.3-.72,10.79-.44,17.02,0,.21.25.31.41.18l8.4-7.01,12.12-10.11c.17-.14.09-.42-.13-.44ZM273.04,51.95l8.4-7.01,12.12-10.11c.17-.14.09-.42-.13-.44-1.75-.19-5.03-.35-9.46-.35-6.08,0-9.99.29-10.75.57-.06.02-.11.07-.14.14-.5,1.3-.72,10.79-.44,17.02,0,.21.25.31.41.18ZM258.54,37.42c-.12-.12-.23-.23-.35-.34-.09-.09-.24-.09-.33,0l-17.75,14.82c-.1.08-.12.22-.05.33.47.73,1.01,1.42,1.64,2.05,2.25,2.25,5.24,3.49,8.42,3.49,3.18,0,6.17-1.24,8.42-3.49,4.65-4.65,4.65-12.2,0-16.85ZM239.51,50.53l17.1-14.27c.13-.11.12-.31-.02-.4-1.96-1.27-4.22-1.91-6.48-1.91-3.05,0-6.1,1.16-8.42,3.48-2.25,2.25-3.49,5.24-3.49,8.42,0,1.6.32,3.15.92,4.59.06.16.26.2.39.09ZM284.54,43.97c-.11.09-.12.26-.02.36l10.13,10.73c.15.16.41.07.43-.14.19-1.76.34-5.02.34-9.42,0-4.73-.17-8.15-.38-9.79-.02-.2-.26-.29-.41-.16l-4.2,3.51-5.88,4.91ZM283.2,45.08l-8.87,7.4-1.48,1.24c-.06.05-.1.13-.09.21.16,1.97.33,2.35.35,2.38-.02-.04.08.06.04.04.55.29,4.53.6,10.82.6,4.79,0,8.24-.18,9.86-.39.2-.03.29-.27.15-.42l-10.42-11.04c-.09-.1-.24-.11-.34-.02ZM19.98,71.02c-.09-.09-.24-.09-.33,0L1.9,85.83c-.1.08-.12.22-.05.33.47.73,1.01,1.42,1.64,2.05,2.25,2.25,5.24,3.49,8.42,3.49s6.17-1.24,8.42-3.49c4.65-4.65,4.65-12.2,0-16.85-.12-.12-.23-.23-.35-.34ZM1.31,84.47l17.1-14.27c.13-.11.12-.31-.02-.4-1.96-1.27-4.22-1.91-6.48-1.91-3.05,0-6.1,1.16-8.42,3.48-2.25,2.25-3.49,5.24-3.49,8.42,0,1.6.32,3.15.92,4.59.06.16.26.2.39.09ZM34.94,90.3c.55.29,4.53.6,10.82.6,4.79,0,8.24-.18,9.86-.39.2-.03.29-.27.15-.42l-10.42-11.04c-.09-.1-.24-.11-.34-.02l-8.87,7.4-1.48,1.24c-.06.05-.1.13-.09.21.16,1.97.33,2.35.35,2.38-.02-.04.08.06.04.04ZM55.22,68.33c-1.75-.19-5.03-.35-9.46-.35-6.08,0-9.99.29-10.75.57-.06.02-.11.07-.14.14-.5,1.3-.72,10.79-.44,17.02,0,.21.25.31.41.18l8.4-7.01,12.12-10.11c.17-.14.09-.42-.13-.44ZM46.34,77.91c-.11.09-.12.26-.02.36l10.13,10.73c.15.16.41.07.43-.14.19-1.76.34-5.02.34-9.42,0-4.73-.17-8.15-.38-9.79-.02-.2-.26-.29-.41-.16l-4.2,3.51-5.88,4.91ZM113.09,79.02l-8.87,7.4-1.48,1.24c-.06.05-.1.13-.09.21.16,1.97.33,2.35.35,2.38-.02-.04.08.06.04.04.55.29,4.53.6,10.82.6,4.79,0,8.24-.18,9.86-.39.2-.03.29-.27.15-.42l-10.42-11.04c-.09-.1-.24-.11-.34-.02ZM123.31,68.33c-1.75-.19-5.03-.35-9.46-.35-6.08,0-9.99.29-10.75.57-.06.02-.11.07-.14.14-.5,1.3-.72,10.79-.44,17.02,0,.21.25.31.41.18l8.4-7.01,12.12-10.11c.17-.14.09-.42-.13-.44ZM88.43,71.36c-.12-.12-.23-.23-.35-.34-.09-.09-.24-.09-.33,0l-17.75,14.82c-.1.08-.12.22-.05.33.47.73,1.01,1.42,1.64,2.05,2.25,2.25,5.24,3.49,8.42,3.49s6.17-1.24,8.42-3.49c4.65-4.65,4.65-12.2,0-16.85ZM69.4,84.47l17.1-14.27c.13-.11.12-.31-.02-.4-1.96-1.27-4.22-1.91-6.48-1.91-3.05,0-6.1,1.16-8.42,3.48-2.25,2.25-3.49,5.24-3.49,8.42,0,1.6.32,3.15.92,4.59.06.16.26.2.39.09ZM124.96,88.85c.19-1.76.34-5.02.34-9.42,0-4.73-.17-8.15-.38-9.79-.02-.2-.26-.29-.41-.16l-4.2,3.51-5.88,4.91c-.11.09-.12.26-.02.36l10.13,10.73c.15.16.41.07.43-.14ZM250.6,77.91c-.11.09-.12.26-.02.36l10.13,10.73c.15.16.41.07.43-.14.19-1.76.34-5.02.34-9.42,0-4.73-.17-8.15-.38-9.79-.02-.2-.26-.29-.41-.16l-4.2,3.51-5.88,4.91ZM224.6,71.36c-.12-.12-.23-.23-.35-.34-.09-.09-.24-.09-.33,0l-17.75,14.82c-.1.08-.12.22-.05.33.47.73,1.01,1.42,1.64,2.05,2.25,2.25,5.24,3.49,8.42,3.49s6.17-1.24,8.42-3.49c4.65-4.65,4.65-12.2,0-16.85ZM205.57,84.47l17.1-14.27c.13-.11.12-.31-.02-.4-1.96-1.27-4.22-1.91-6.48-1.91-3.05,0-6.1,1.16-8.42,3.48-2.25,2.25-3.49,5.24-3.49,8.42,0,1.6.32,3.15.92,4.59.06.16.26.2.39.09ZM239.2,90.3c.55.29,4.53.6,10.82.6,4.79,0,8.24-.18,9.86-.39.2-.03.29-.27.15-.42l-10.42-11.04c-.09-.1-.24-.11-.34-.02l-8.87,7.4-1.48,1.24c-.06.05-.1.13-.09.21.16,1.97.33,2.35.35,2.38-.02-.04.08.06.04.04ZM259.49,68.33c-1.75-.19-5.03-.35-9.46-.35-6.08,0-9.99.29-10.75.57-.06.02-.11.07-.14.14-.5,1.3-.72,10.79-.44,17.02,0,.21.25.31.41.18l8.4-7.01,12.12-10.11c.17-.14.09-.42-.13-.44ZM292.47,70.76c-.09-.09-.24-.09-.33,0l-17.75,14.82c-.1.08-.12.22-.05.33.47.73,1.01,1.42,1.64,2.05,2.25,2.25,5.24,3.49,8.42,3.49s6.17-1.24,8.42-3.49c4.65-4.65,4.65-12.2,0-16.85-.12-.12-.23-.23-.35-.34ZM273.79,84.21l17.1-14.27c.13-.11.12-.31-.02-.4-1.96-1.27-4.22-1.91-6.48-1.91-3.05,0-6.1,1.16-8.42,3.48-2.25,2.25-3.49,5.24-3.49,8.42,0,1.6.32,3.15.92,4.59.06.16.26.2.39.09ZM318.69,77.91c-.11.09-.12.26-.02.36l10.13,10.73c.15.16.41.07.43-.14.19-1.76.34-5.02.34-9.42,0-4.73-.17-8.15-.38-9.79-.02-.2-.26-.29-.41-.16l-4.2,3.51-5.88,4.91ZM328.12,90.08l-10.42-11.04c-.09-.1-.24-.11-.34-.02l-8.87,7.4-1.48,1.24c-.06.05-.1.13-.09.21.16,1.97.33,2.35.35,2.38-.02-.04.08.06.04.04.55.29,4.53.6,10.82.6,4.79,0,8.24-.18,9.86-.39.2-.03.29-.27.15-.42ZM307.19,85.89l8.4-7.01,12.12-10.11c.17-.14.09-.42-.13-.44-1.75-.19-5.03-.35-9.46-.35-6.08,0-9.99.29-10.75.57-.06.02-.11.07-.14.14-.5,1.3-.72,10.79-.44,17.02,0,.21.25.31.41.18ZM10.85,112.96l-8.87,7.4-1.48,1.24c-.06.05-.1.13-.09.21.16,1.97.33,2.35.35,2.38-.02-.04.08.06.04.04.55.29,4.53.6,10.82.6,4.79,0,8.24-.18,9.86-.39.2-.03.29-.27.15-.42l-10.42-11.04c-.09-.1-.24-.11-.34-.02ZM21.07,102.26c-1.75-.19-5.03-.35-9.46-.35-6.08,0-9.99.29-10.75.57-.06.02-.11.07-.14.14-.5,1.3-.72,10.79-.44,17.02,0,.21.25.31.41.18l8.4-7.01,12.12-10.11c.17-.14.09-.42-.13-.44ZM22.73,122.79c.19-1.76.34-5.02.34-9.42,0-4.73-.17-8.15-.38-9.79-.02-.2-.26-.29-.41-.16l-4.21,3.51-5.88,4.91c-.11.09-.12.26-.02.36l10.13,10.73c.15.16.41.07.43-.14ZM89.7,124.02l-10.42-11.04c-.09-.1-.24-.11-.34-.02l-8.87,7.4-1.48,1.24c-.06.05-.1.13-.09.21.16,1.97.33,2.35.35,2.38-.02-.04.08.06.04.04.55.29,4.53.6,10.82.6,4.79,0,8.24-.18,9.86-.39.2-.03.29-.27.15-.42ZM90.81,122.79c.19-1.76.34-5.02.34-9.42,0-4.73-.17-8.15-.38-9.79-.02-.2-.26-.29-.41-.16l-4.2,3.51-5.88,4.91c-.11.09-.12.26-.02.36l10.13,10.73c.15.16.41.07.43-.14ZM68.78,119.83l8.4-7.01,12.12-10.11c.17-.14.09-.42-.13-.44-1.75-.19-5.03-.35-9.46-.35-6.08,0-9.99.29-10.75.57-.06.02-.11.07-.14.14-.5,1.3-.72,10.79-.44,17.02,0,.21.25.31.41.18ZM54.28,105.3c-.12-.12-.23-.23-.35-.34-.09-.09-.24-.09-.33,0l-17.75,14.82c-.1.08-.12.22-.05.33.47.73,1.01,1.42,1.64,2.05,2.25,2.25,5.24,3.49,8.42,3.49s6.17-1.24,8.42-3.49c4.65-4.65,4.65-12.2,0-16.85ZM35.25,118.4l17.1-14.27c.13-.11.12-.31-.02-.4-1.96-1.27-4.22-1.91-6.48-1.91-3.05,0-6.1,1.16-8.42,3.48s-3.49,5.24-3.49,8.42c0,1.6.32,3.15.92,4.59.06.16.26.2.39.09ZM295.08,122.79c.19-1.76.34-5.02.34-9.42,0-4.73-.17-8.15-.38-9.79-.02-.2-.26-.29-.41-.16l-4.2,3.51-5.88,4.91c-.11.09-.12.26-.02.36l10.13,10.73c.15.16.41.07.43-.14ZM293.42,102.26c-1.75-.19-5.03-.35-9.46-.35-6.08,0-9.99.29-10.75.57-.06.02-.11.07-.14.14-.5,1.3-.72,10.79-.44,17.02,0,.21.25.31.41.18l8.4-7.01,12.12-10.11c.17-.14.09-.42-.13-.44ZM283.2,112.96l-8.87,7.4-1.48,1.24c-.06.05-.1.13-.09.21.16,1.97.33,2.35.35,2.38-.02-.04.08.06.04.04.55.29,4.53.6,10.82.6,4.79,0,8.24-.18,9.86-.39.2-.03.29-.27.15-.42l-10.42-11.04c-.09-.1-.24-.11-.34-.02ZM258.54,105.3c-.12-.12-.23-.23-.35-.34-.09-.09-.24-.09-.33,0l-17.75,14.82c-.1.08-.12.22-.05.33.47.73,1.01,1.42,1.64,2.05,2.25,2.25,5.24,3.49,8.42,3.49,3.18,0,6.17-1.24,8.42-3.49,4.65-4.65,4.65-12.2,0-16.85ZM239.51,118.4l17.1-14.27c.13-.11.12-.31-.02-.4-1.96-1.27-4.22-1.91-6.48-1.91-3.05,0-6.1,1.16-8.42,3.48-2.25,2.25-3.49,5.24-3.49,8.42,0,1.6.32,3.15.92,4.59.06.16.26.2.39.09ZM326.76,105.04c-.12-.12-.23-.23-.35-.34-.09-.09-.24-.09-.33,0l-17.75,14.82c-.1.08-.12.22-.05.33.47.73,1.01,1.42,1.64,2.05,2.25,2.25,5.24,3.49,8.42,3.49s6.17-1.24,8.42-3.49c4.65-4.65,4.65-12.2,0-16.85ZM307.73,118.15l17.1-14.27c.13-.11.12-.31-.02-.4-1.96-1.27-4.22-1.91-6.48-1.91-3.05,0-6.1,1.16-8.42,3.48-2.25,2.25-3.49,5.24-3.49,8.42,0,1.6.32,3.15.92,4.59.06.16.26.2.39.09ZM46.34,145.78c-.11.09-.12.26-.02.36l10.13,10.73c.15.16.41.07.43-.14.19-1.76.34-5.02.34-9.42,0-4.73-.17-8.15-.38-9.79-.02-.2-.26-.29-.41-.16l-4.2,3.51-5.88,4.91ZM34.94,158.17c.55.29,4.53.6,10.82.6,4.79,0,8.24-.18,9.86-.39.2-.03.29-.27.15-.42l-10.42-11.04c-.09-.1-.24-.11-.34-.02l-8.87,7.4-1.48,1.24c-.06.05-.1.13-.09.21.16,1.97.33,2.35.35,2.38-.02-.04.08.06.04.04ZM19.98,138.9c-.09-.09-.24-.09-.33,0l-17.75,14.82c-.1.08-.12.22-.05.33.47.73,1.01,1.42,1.64,2.05,2.25,2.25,5.24,3.49,8.42,3.49s6.17-1.24,8.42-3.49c4.65-4.65,4.65-12.2,0-16.85-.12-.12-.23-.23-.35-.34ZM1.31,152.34l17.1-14.27c.13-.11.12-.31-.02-.4-1.96-1.27-4.22-1.91-6.48-1.91-3.05,0-6.1,1.16-8.42,3.48-2.25,2.25-3.49,5.24-3.49,8.42,0,1.6.32,3.15.92,4.59.06.16.26.2.39.09ZM55.22,136.2c-1.75-.19-5.03-.35-9.46-.35-6.08,0-9.99.29-10.75.57-.06.02-.11.07-.14.14-.5,1.3-.72,10.79-.44,17.02,0,.21.25.31.41.18l8.4-7.01,12.12-10.11c.17-.14.09-.42-.13-.44ZM259.49,136.2c-1.75-.19-5.03-.35-9.46-.35-6.08,0-9.99.29-10.75.57-.06.02-.11.07-.14.14-.5,1.3-.72,10.79-.44,17.02,0,.21.25.31.41.18l8.4-7.01,12.12-10.11c.17-.14.09-.42-.13-.44ZM250.6,145.78c-.11.09-.12.26-.02.36l10.13,10.73c.15.16.41.07.43-.14.19-1.76.34-5.02.34-9.42,0-4.73-.17-8.15-.38-9.79-.02-.2-.26-.29-.41-.16l-4.2,3.51-5.88,4.91ZM239.2,158.17c.55.29,4.53.6,10.82.6,4.79,0,8.24-.18,9.86-.39.2-.03.29-.27.15-.42l-10.42-11.04c-.09-.1-.24-.11-.34-.02l-8.87,7.4-1.48,1.24c-.06.05-.1.13-.09.21.16,1.97.33,2.35.35,2.38-.02-.04.08.06.04.04ZM307.19,153.76l8.4-7.01,12.12-10.11c.17-.14.09-.42-.13-.44-1.75-.19-5.03-.35-9.46-.35-6.08,0-9.99.29-10.75.57-.06.02-.11.07-.14.14-.5,1.3-.72,10.79-.44,17.02,0,.21.25.31.41.18ZM292.47,138.64c-.09-.09-.24-.09-.33,0l-17.75,14.82c-.1.08-.12.22-.05.33.47.73,1.01,1.42,1.64,2.05,2.25,2.25,5.24,3.49,8.42,3.49s6.17-1.24,8.42-3.49c4.65-4.65,4.65-12.2,0-16.85-.12-.12-.23-.23-.35-.34ZM273.79,152.09l17.1-14.27c.13-.11.12-.31-.02-.4-1.96-1.27-4.22-1.91-6.48-1.91-3.05,0-6.1,1.16-8.42,3.48-2.25,2.25-3.49,5.24-3.49,8.42,0,1.6.32,3.15.92,4.59.07.16.26.2.39.09ZM329.23,156.73c.19-1.76.34-5.02.34-9.42,0-4.73-.17-8.15-.38-9.79-.02-.2-.26-.29-.41-.16l-4.2,3.51-5.88,4.91c-.11.09-.12.26-.02.36l10.13,10.73c.15.16.41.07.43-.14ZM307.29,158.17c.55.29,4.53.6,10.82.6,4.79,0,8.24-.18,9.86-.39.2-.03.29-.27.15-.42l-10.42-11.04c-.09-.1-.24-.11-.34-.02l-8.87,7.4-1.48,1.24c-.06.05-.1.13-.09.21.16,1.97.33,2.35.35,2.38-.02-.04.08.06.04.04ZM294.62,171.3l-4.2,3.51-5.88,4.91c-.11.09-.12.26-.02.36l10.13,10.73c.15.16.41.07.43-.14.19-1.76.34-5.02.34-9.42,0-4.73-.17-8.15-.38-9.79-.02-.2-.26-.29-.41-.16ZM293.42,170.14c-1.75-.19-5.03-.35-9.46-.35-6.08,0-9.99.29-10.75.57-.06.02-.11.07-.14.14-.5,1.3-.72,10.79-.44,17.02,0,.21.25.31.41.18l8.4-7.01,12.12-10.11c.17-.14.09-.42-.13-.44ZM258.54,173.17c-.12-.12-.23-.23-.35-.34-.09-.09-.24-.09-.33,0l-17.75,14.82c-.1.08-.12.22-.05.33.47.73,1.01,1.42,1.64,2.05,2.25,2.25,5.24,3.49,8.42,3.49s6.17-1.24,8.42-3.49c4.65-4.65,4.65-12.2,0-16.85ZM239.51,186.28l17.1-14.27c.13-.11.12-.31-.02-.4-1.96-1.27-4.22-1.91-6.48-1.91-3.05,0-6.1,1.16-8.42,3.48-2.25,2.25-3.49,5.24-3.49,8.42,0,1.6.32,3.15.92,4.59.06.16.26.2.39.09ZM293.97,191.89l-10.42-11.04c-.09-.1-.24-.11-.34-.02l-8.87,7.4-1.48,1.24c-.06.05-.1.13-.09.21.16,1.97.33,2.35.35,2.38-.02-.04.08.06.04.04.55.29,4.53.6,10.82.6,4.79,0,8.24-.18,9.86-.39.2-.03.29-.27.15-.42ZM326.27,172.83c-.09-.09-.24-.09-.33,0l-17.75,14.82c-.1.08-.12.22-.05.33.47.73,1.01,1.42,1.64,2.05,2.25,2.25,5.24,3.49,8.42,3.49s6.17-1.24,8.42-3.49c4.65-4.65,4.65-12.2,0-16.85-.12-.12-.23-.23-.35-.34ZM307.6,186.28l17.1-14.27c.13-.11.12-.31-.02-.4-1.96-1.27-4.22-1.91-6.48-1.91-3.05,0-6.1,1.16-8.42,3.48-2.25,2.25-3.49,5.24-3.49,8.42,0,1.6.32,3.15.92,4.59.06.16.26.2.39.09ZM224.6,207.11c-.12-.12-.23-.23-.35-.34-.09-.09-.24-.09-.33,0l-17.75,14.82c-.1.08-.12.22-.05.33.47.73,1.01,1.42,1.64,2.05,2.25,2.25,5.24,3.49,8.42,3.49s6.17-1.24,8.42-3.49c4.65-4.65,4.65-12.2,0-16.85ZM205.57,220.22l17.1-14.27c.13-.11.12-.31-.02-.4-1.96-1.27-4.22-1.91-6.48-1.91-3.05,0-6.1,1.16-8.42,3.48-2.25,2.25-3.49,5.24-3.49,8.42,0,1.6.32,3.15.92,4.59.06.16.26.2.39.09ZM239.2,226.05c.55.29,4.53.6,10.82.6,4.79,0,8.24-.18,9.86-.39.2-.03.29-.27.15-.42l-10.42-11.04c-.09-.1-.24-.11-.34-.02l-8.87,7.4-1.48,1.24c-.06.05-.1.13-.09.21.16,1.97.33,2.35.35,2.38-.02-.04.08.06.04.04ZM261.14,224.6c.19-1.76.34-5.02.34-9.42,0-4.73-.17-8.15-.38-9.79-.02-.2-.26-.29-.41-.16l-4.2,3.51-5.88,4.91c-.11.09-.12.26-.02.36l10.13,10.73c.15.16.41.07.43-.14ZM239.1,221.64l8.4-7.01,12.12-10.11c.17-.14.09-.42-.13-.44-1.75-.19-5.03-.35-9.46-.35-6.08,0-9.99.29-10.75.57-.06.02-.11.07-.14.14-.5,1.3-.72,10.79-.44,17.02,0,.21.25.31.41.18ZM292.69,207.11c-.12-.12-.23-.23-.35-.34-.09-.09-.24-.09-.33,0l-17.75,14.82c-.1.08-.12.22-.05.33.47.73,1.01,1.42,1.64,2.05,2.25,2.25,5.24,3.49,8.42,3.49s6.17-1.24,8.42-3.49c4.65-4.65,4.65-12.2,0-16.85ZM273.66,220.22l17.1-14.27c.13-.11.12-.31-.02-.4-1.96-1.27-4.22-1.91-6.48-1.91-3.05,0-6.1,1.16-8.42,3.48-2.25,2.25-3.49,5.24-3.49,8.42,0,1.6.32,3.15.92,4.59.06.16.26.2.39.09ZM225.88,259.77l-10.42-11.04c-.09-.1-.24-.11-.34-.02l-8.87,7.4-1.48,1.24c-.06.05-.1.13-.09.21.16,1.97.33,2.35.35,2.38-.02-.04.08.06.04.04.55.29,4.53.6,10.82.6,4.79,0,8.24-.18,9.86-.39.2-.03.29-.27.15-.42ZM204.95,255.58l8.4-7.01,12.12-10.11c.17-.14.09-.42-.13-.44-1.75-.19-5.03-.35-9.46-.35-6.08,0-9.99.29-10.75.57-.06.02-.11.07-.14.14-.5,1.3-.72,10.79-.44,17.02,0,.21.25.31.41.18ZM190.45,241.05c-.12-.12-.23-.23-.35-.34-.09-.09-.24-.09-.33,0l-17.75,14.82c-.1.08-.12.22-.05.33.47.73,1.01,1.42,1.64,2.05,2.25,2.25,5.24,3.49,8.42,3.49,3.18,0,6.17-1.24,8.42-3.49,4.65-4.65,4.65-12.2,0-16.85ZM188.51,239.48c-1.96-1.27-4.22-1.91-6.48-1.91-3.05,0-6.1,1.16-8.42,3.48-2.25,2.25-3.49,5.24-3.49,8.42,0,1.6.32,3.15.92,4.59.06.16.26.2.39.09l17.1-14.27c.13-.11.12-.31-.02-.4ZM226.99,258.54c.19-1.76.34-5.02.34-9.42,0-4.73-.17-8.15-.38-9.79-.03-.2-.26-.29-.41-.16l-4.2,3.51-5.88,4.91c-.11.09-.12.26-.02.36l10.13,10.73c.15.16.41.07.43-.14ZM258.19,240.71c-.09-.09-.24-.09-.33,0l-17.75,14.82c-.1.08-.12.22-.05.33.47.73,1.01,1.42,1.64,2.05,2.25,2.25,5.24,3.49,8.42,3.49s6.17-1.24,8.42-3.49c4.65-4.65,4.65-12.2,0-16.85-.12-.12-.23-.23-.35-.34ZM239.51,254.15l17.1-14.27c.13-.11.12-.31-.02-.4-1.96-1.27-4.22-1.91-6.48-1.91-3.05,0-6.1,1.16-8.42,3.48-2.25,2.25-3.49,5.24-3.49,8.42,0,1.6.32,3.15.92,4.59.07.16.26.2.39.09ZM193.05,292.48c.19-1.76.34-5.02.34-9.42,0-4.73-.17-8.15-.38-9.79-.03-.2-.26-.29-.41-.16l-4.2,3.51-5.88,4.91c-.11.09-.12.26-.02.36l10.13,10.73c.15.16.41.07.43-.14ZM171.05,272.31c-.5,1.3-.72,10.79-.44,17.02,0,.21.25.31.41.18l8.4-7.01,12.12-10.11c.17-.14.09-.42-.13-.44-1.75-.19-5.03-.35-9.46-.35-6.08,0-9.99.29-10.75.57-.06.02-.11.07-.14.14ZM191.94,293.71l-10.42-11.04c-.09-.1-.24-.11-.34-.02l-8.87,7.4-1.48,1.24c-.06.05-.1.13-.09.21.16,1.97.33,2.35.35,2.38-.02-.04.08.06.04.04.55.29,4.53.6,10.82.6,4.79,0,8.24-.18,9.86-.39.2-.03.29-.27.15-.42ZM156.51,274.99c-.12-.12-.23-.23-.35-.34-.09-.09-.24-.09-.33,0l-17.75,14.82c-.1.08-.12.22-.05.33.47.73,1.01,1.42,1.64,2.05,2.25,2.25,5.24,3.49,8.42,3.49s6.17-1.24,8.42-3.49c4.65-4.65,4.65-12.2,0-16.85ZM137.49,288.09l17.1-14.27c.13-.11.12-.31-.02-.4-1.96-1.27-4.22-1.91-6.48-1.91-3.05,0-6.1,1.16-8.42,3.48-2.25,2.25-3.49,5.24-3.49,8.42,0,1.6.32,3.15.92,4.59.06.16.26.2.39.09ZM224.25,274.65c-.09-.09-.24-.09-.33,0l-17.75,14.82c-.1.08-.12.22-.05.33.47.73,1.01,1.42,1.64,2.05,2.25,2.25,5.24,3.49,8.42,3.49s6.17-1.24,8.42-3.49c4.65-4.65,4.65-12.2,0-16.85-.12-.12-.23-.23-.35-.34ZM222.66,273.41c-1.96-1.27-4.22-1.91-6.48-1.91-3.05,0-6.1,1.16-8.42,3.48-2.25,2.25-3.49,5.24-3.49,8.42,0,1.6.32,3.16.92,4.59.06.16.26.2.39.09l17.1-14.27c.13-.11.12-.31-.02-.4ZM122.14,308.33c-.09-.08-.24-.09-.33,0l-17.75,14.82c-.1.08-.12.22-.05.33.47.73,1.01,1.42,1.64,2.05,2.25,2.25,5.24,3.49,8.42,3.49s6.17-1.24,8.42-3.49c4.65-4.65,4.65-12.2,0-16.85-.12-.12-.23-.23-.35-.34ZM103.47,321.77l17.1-14.27c.13-.11.12-.31-.02-.4-1.96-1.27-4.22-1.91-6.48-1.91-3.05,0-6.1,1.16-8.42,3.48-2.25,2.25-3.49,5.24-3.49,8.42,0,1.6.32,3.15.92,4.59.06.16.26.2.39.09ZM158.9,326.42c.19-1.76.34-5.02.34-9.42,0-4.73-.17-8.15-.38-9.79-.02-.2-.26-.29-.41-.16l-4.2,3.51-5.88,4.91c-.11.09-.12.26-.02.36l10.13,10.73c.15.16.41.07.43-.14ZM157.79,327.64l-10.42-11.04c-.09-.1-.24-.11-.34-.02l-8.87,7.4-1.48,1.24c-.06.05-.1.13-.09.21.16,1.97.33,2.35.35,2.38-.02-.04.08.06.04.04.55.29,4.53.6,10.82.6,4.79,0,8.24-.18,9.86-.39.2-.03.29-.27.15-.42ZM136.86,323.45l8.4-7.01,12.12-10.11c.17-.14.09-.42-.13-.44-1.75-.19-5.03-.35-9.46-.35-6.08,0-9.99.29-10.75.57-.06.02-.11.07-.14.14-.5,1.3-.72,10.79-.44,17.02,0,.21.25.31.41.18ZM190.23,308.33c-.09-.09-.24-.09-.33,0l-17.75,14.82c-.1.08-.12.22-.05.33.47.73,1.01,1.42,1.64,2.05,2.25,2.25,5.24,3.49,8.42,3.49s6.17-1.24,8.42-3.49c4.65-4.65,4.65-12.2,0-16.85-.12-.12-.23-.23-.35-.34ZM188.64,307.09c-1.96-1.27-4.22-1.91-6.48-1.91-3.05,0-6.1,1.16-8.42,3.48s-3.49,5.24-3.49,8.42c0,1.6.32,3.15.92,4.59.06.16.26.2.39.09l17.1-14.27c.13-.11.12-.31-.02-.4ZM123.31,339.83c-1.75-.19-5.03-.34-9.46-.34-6.08,0-9.99.29-10.75.57-.06.02-.11.07-.14.14-.5,1.3-.72,10.79-.44,17.02,0,.21.25.31.41.18l8.4-7.01,12.12-10.11c.17-.14.09-.42-.13-.44ZM113.09,350.52l-8.87,7.4-1.48,1.24c-.06.05-.1.13-.09.21.16,1.97.33,2.35.35,2.38-.02-.04.08.06.04.04.55.29,4.53.6,10.82.6,4.79,0,8.24-.18,9.86-.39.2-.03.29-.27.15-.42l-10.42-11.04c-.09-.1-.24-.11-.34-.02ZM124.96,360.35c.19-1.76.34-5.02.34-9.42,0-4.73-.17-8.15-.38-9.79-.02-.2-.26-.29-.41-.16l-4.2,3.51-5.88,4.91c-.11.09-.12.26-.02.36l10.13,10.73c.15.16.41.07.43-.14ZM88.07,342.52c-.09-.08-.24-.09-.33,0l-17.75,14.82c-.1.08-.12.22-.05.33.47.73,1.01,1.42,1.64,2.05,2.25,2.25,5.24,3.49,8.42,3.49,3.18,0,6.17-1.24,8.42-3.49,4.65-4.65,4.65-12.2,0-16.85-.12-.12-.23-.23-.35-.34ZM86.48,341.29c-1.96-1.27-4.22-1.91-6.48-1.91-3.05,0-6.1,1.16-8.42,3.48s-3.49,5.24-3.49,8.42c0,1.6.32,3.15.92,4.59.06.16.26.2.39.09l17.1-14.27c.13-.11.12-.31-.02-.4ZM156.34,342.5c-.09-.09-.24-.09-.33,0l-17.75,14.82c-.1.08-.12.22-.05.33.47.73,1.01,1.42,1.64,2.05,2.25,2.25,5.24,3.49,8.42,3.49s6.17-1.24,8.42-3.49c4.65-4.65,4.65-12.2,0-16.85-.12-.12-.23-.23-.35-.34ZM154.75,341.27c-1.96-1.27-4.22-1.91-6.48-1.91-3.05,0-6.1,1.16-8.42,3.48-2.25,2.25-3.49,5.24-3.49,8.42,0,1.6.32,3.15.92,4.59.06.16.26.2.39.09l17.1-14.27c.13-.11.12-.31-.02-.4ZM54.28,376.8c-.12-.12-.23-.23-.35-.34-.09-.09-.24-.09-.33,0l-17.75,14.82c-.1.08-.12.22-.05.33.47.73,1.01,1.42,1.64,2.05,2.25,2.25,5.24,3.49,8.42,3.49s6.17-1.24,8.42-3.49c4.65-4.65,4.65-12.2,0-16.85ZM35.25,389.91l17.1-14.27c.13-.11.12-.31-.02-.4-1.96-1.27-4.22-1.91-6.48-1.91-3.05,0-6.1,1.16-8.42,3.48-2.25,2.25-3.49,5.24-3.49,8.42,0,1.6.32,3.15.92,4.59.06.16.26.2.39.09ZM90.81,394.29c.19-1.76.34-5.02.34-9.42,0-4.73-.17-8.15-.38-9.79-.02-.2-.26-.29-.41-.16l-4.2,3.51-5.88,4.91c-.11.09-.12.26-.02.36l10.13,10.73c.15.16.41.07.43-.14ZM89.16,373.77c-1.75-.19-5.03-.35-9.46-.35-6.08,0-9.99.29-10.75.57-.06.02-.11.07-.14.14-.5,1.3-.72,10.79-.44,17.02,0,.21.25.31.41.18l8.4-7.01,12.12-10.11c.17-.14.09-.42-.13-.44ZM89.7,395.52l-10.42-11.04c-.09-.1-.24-.11-.34-.02l-8.87,7.4-1.48,1.24c-.06.05-.1.13-.09.21.16,1.97.33,2.35.35,2.38-.02-.04.08.06.04.04.55.29,4.53.6,10.82.6,4.79,0,8.24-.18,9.86-.39.2-.03.29-.27.15-.42ZM122.01,376.46c-.09-.09-.24-.09-.33,0l-17.75,14.82c-.1.08-.12.22-.05.33.47.73,1.01,1.42,1.64,2.05,2.25,2.25,5.24,3.49,8.42,3.49s6.17-1.24,8.42-3.49c4.65-4.65,4.65-12.2,0-16.85-.12-.12-.23-.23-.35-.34ZM103.34,389.91l17.1-14.27c.13-.11.12-.31-.02-.4-1.96-1.27-4.22-1.91-6.48-1.91-3.05,0-6.1,1.16-8.42,3.48-2.25,2.25-3.49,5.24-3.49,8.42,0,1.6.32,3.15.92,4.59.06.16.26.2.39.09ZM34.84,425.27l8.4-7.01,12.12-10.11c.17-.14.09-.42-.13-.44-1.75-.19-5.03-.35-9.46-.35-6.08,0-9.99.29-10.75.57-.06.02-.11.07-.14.14-.5,1.3-.72,10.79-.44,17.02,0,.21.25.31.41.18ZM19.98,410.4c-.09-.09-.24-.09-.33,0l-17.75,14.82c-.1.08-.12.22-.05.33.47.73,1.01,1.42,1.64,2.05,2.25,2.25,5.24,3.49,8.42,3.49s6.17-1.24,8.42-3.49c4.65-4.65,4.65-12.2,0-16.85-.12-.12-.23-.23-.35-.34ZM1.31,423.84l17.1-14.27c.13-.11.12-.31-.02-.4-1.96-1.27-4.22-1.91-6.48-1.91-3.05,0-6.1,1.16-8.42,3.48-2.25,2.25-3.49,5.24-3.49,8.42,0,1.6.32,3.15.92,4.59.06.16.26.2.39.09ZM34.94,429.67c.55.29,4.53.6,10.82.6,4.79,0,8.24-.18,9.86-.39.2-.03.29-.27.15-.42l-10.42-11.04c-.09-.1-.24-.11-.34-.02l-8.87,7.4-1.48,1.24c-.06.05-.1.13-.09.21.16,1.97.33,2.35.35,2.38-.02-.04.08.06.04.04ZM56.88,428.23c.19-1.76.34-5.02.34-9.42,0-4.73-.17-8.15-.38-9.79-.02-.2-.26-.29-.41-.16l-4.2,3.51-5.88,4.91c-.11.09-.12.26-.02.36l10.13,10.73c.15.16.41.07.43-.15ZM113.09,418.4l-8.87,7.4-1.48,1.24c-.06.05-.1.13-.09.21.16,1.97.33,2.35.35,2.38-.02-.04.08.06.04.04.55.29,4.53.6,10.82.6,4.79,0,8.24-.18,9.86-.39.2-.03.29-.27.15-.42l-10.42-11.04c-.09-.1-.24-.11-.34-.02ZM88.07,410.4c-.09-.09-.24-.09-.33,0l-17.75,14.82c-.1.08-.12.22-.05.33.47.73,1.01,1.42,1.64,2.05,2.25,2.25,5.24,3.49,8.42,3.49s6.17-1.24,8.42-3.49c4.65-4.65,4.65-12.2,0-16.85-.12-.12-.23-.23-.35-.34ZM86.48,409.16c-1.96-1.27-4.22-1.91-6.48-1.91-3.05,0-6.1,1.16-8.42,3.48-2.25,2.25-3.49,5.24-3.49,8.42,0,1.6.32,3.15.92,4.59.06.16.26.2.39.09l17.1-14.27c.13-.11.12-.31-.02-.4ZM124.96,428.23c.19-1.76.34-5.02.34-9.42,0-4.73-.17-8.15-.38-9.79-.02-.2-.26-.29-.41-.16l-4.2,3.51-5.88,4.91c-.11.09-.12.26-.02.36l10.13,10.73c.15.16.41.07.43-.15ZM123.31,407.7c-1.75-.19-5.03-.35-9.46-.35-6.08,0-9.99.29-10.75.57-.06.02-.11.07-.14.14-.5,1.3-.72,10.79-.44,17.02,0,.21.25.31.41.18l8.4-7.01,12.12-10.11c.17-.14.09-.42-.13-.44ZM156.16,410.4c-.09-.09-.24-.09-.33,0l-17.75,14.82c-.1.08-.12.22-.05.33.47.73,1.01,1.42,1.64,2.05,2.25,2.25,5.24,3.49,8.42,3.49s6.17-1.24,8.42-3.49c4.65-4.65,4.65-12.2,0-16.85-.12-.12-.23-.23-.35-.34ZM154.57,409.16c-1.96-1.27-4.22-1.91-6.48-1.91-3.05,0-6.1,1.16-8.42,3.48-2.25,2.25-3.49,5.24-3.49,8.42,0,1.6.32,3.15.92,4.59.06.16.26.2.39.09l17.1-14.27c.13-.11.12-.31-.02-.4ZM193.05,428.23c.19-1.76.34-5.02.34-9.42,0-4.73-.17-8.15-.38-9.79-.03-.2-.26-.29-.41-.16l-4.2,3.51-5.88,4.91c-.11.09-.12.26-.02.36l10.13,10.73c.15.16.41.07.43-.15ZM191.4,407.7c-1.75-.19-5.03-.35-9.46-.35-6.08,0-9.99.29-10.75.57-.06.02-.11.07-.14.14-.5,1.3-.72,10.79-.44,17.02,0,.21.25.31.41.18l8.4-7.01,12.12-10.11c.17-.14.09-.42-.13-.44ZM181.18,418.4l-8.87,7.4-1.48,1.24c-.06.05-.1.13-.09.21.16,1.97.33,2.35.35,2.38-.02-.04.08.06.04.04.55.29,4.53.6,10.82.6,4.79,0,8.24-.18,9.86-.39.2-.03.29-.27.15-.42l-10.42-11.04c-.09-.1-.24-.11-.34-.02ZM259.49,407.7c-1.75-.19-5.03-.35-9.46-.35-6.08,0-9.99.29-10.75.57-.06.02-.11.07-.14.14-.5,1.3-.72,10.79-.44,17.02,0,.21.25.31.41.18l8.4-7.01,12.12-10.11c.17-.14.09-.42-.13-.44ZM261.14,428.23c.19-1.76.34-5.02.34-9.42,0-4.73-.17-8.15-.38-9.79-.02-.2-.26-.29-.41-.16l-4.2,3.51-5.88,4.91c-.11.09-.12.26-.02.36l10.13,10.73c.15.16.41.07.43-.15ZM249.26,418.4l-8.87,7.4-1.48,1.24c-.06.05-.1.13-.09.21.16,1.97.33,2.35.35,2.38-.02-.04.08.06.04.04.55.29,4.53.6,10.82.6,4.79,0,8.24-.18,9.86-.39.2-.03.29-.27.15-.42l-10.42-11.04c-.09-.1-.24-.11-.34-.02ZM224.25,410.4c-.09-.09-.24-.09-.33,0l-17.75,14.82c-.1.08-.12.22-.05.33.47.73,1.01,1.42,1.64,2.05,2.25,2.25,5.24,3.49,8.42,3.49s6.17-1.24,8.42-3.49c4.65-4.65,4.65-12.2,0-16.85-.12-.12-.23-.23-.35-.34ZM222.66,409.16c-1.96-1.27-4.22-1.91-6.48-1.91-3.05,0-6.1,1.16-8.42,3.48-2.25,2.25-3.49,5.24-3.49,8.42,0,1.6.32,3.15.92,4.59.06.16.26.2.39.09l17.1-14.27c.13-.11.12-.31-.02-.4ZM327.57,407.7c-1.75-.19-5.03-.35-9.46-.35-6.08,0-9.99.29-10.75.57-.06.02-.11.07-.14.14-.5,1.3-.72,10.79-.44,17.02,0,.21.25.31.41.18l8.4-7.01,12.12-10.11c.17-.14.09-.42-.13-.44ZM329.23,428.23c.19-1.76.34-5.02.34-9.42,0-4.73-.17-8.15-.38-9.79-.02-.2-.26-.29-.41-.16l-4.2,3.51-5.88,4.91c-.11.09-.12.26-.02.36l10.13,10.73c.15.16.41.07.43-.15ZM317.35,418.4l-8.87,7.4-1.48,1.24c-.06.05-.1.13-.09.21.16,1.97.33,2.35.35,2.38-.02-.04.08.06.04.04.55.29,4.53.6,10.82.6,4.79,0,8.24-.18,9.86-.39.2-.03.29-.27.15-.42l-10.42-11.04c-.09-.1-.24-.11-.34-.02ZM292.34,410.4c-.09-.09-.24-.09-.33,0l-17.75,14.82c-.1.08-.12.22-.05.33.47.73,1.01,1.42,1.64,2.05,2.25,2.25,5.24,3.49,8.42,3.49s6.17-1.24,8.42-3.49c4.65-4.65,4.65-12.2,0-16.85-.12-.12-.23-.23-.35-.34ZM290.74,409.16c-1.96-1.27-4.22-1.91-6.48-1.91-3.05,0-6.1,1.16-8.42,3.48s-3.49,5.24-3.49,8.42c0,1.6.32,3.15.92,4.59.06.16.26.2.39.09l17.1-14.27c.13-.11.12-.31-.02-.4ZM21.07,441.64c-1.75-.19-5.03-.35-9.46-.35-6.08,0-9.99.29-10.75.57-.06.02-.11.07-.14.14-.5,1.3-.72,10.79-.44,17.02,0,.21.25.31.41.18l8.4-7.01,12.12-10.11c.17-.14.09-.42-.13-.44ZM22.73,462.17c.19-1.76.34-5.02.34-9.42,0-4.73-.17-8.15-.38-9.79-.02-.2-.26-.29-.41-.16l-4.21,3.51-5.88,4.91c-.11.09-.12.26-.02.36l10.13,10.73c.15.16.41.07.43-.15ZM10.85,452.34l-8.87,7.4-1.48,1.24c-.06.05-.1.13-.09.21.16,1.97.33,2.35.35,2.38-.02-.04.08.06.04.04.55.29,4.53.6,10.82.6,4.79,0,8.24-.18,9.86-.39.2-.03.29-.27.15-.42l-10.42-11.04c-.09-.1-.24-.1-.34-.02ZM78.94,452.34l-8.87,7.4-1.48,1.24c-.06.05-.1.13-.09.21.16,1.97.33,2.35.35,2.38-.02-.04.08.06.04.04.55.29,4.53.6,10.82.6,4.79,0,8.24-.18,9.86-.39.2-.03.29-.27.15-.42l-10.42-11.04c-.09-.1-.24-.1-.34-.02ZM90.81,462.17c.19-1.76.34-5.02.34-9.42,0-4.73-.17-8.15-.38-9.79-.02-.2-.26-.29-.41-.16l-4.2,3.51-5.88,4.91c-.11.09-.12.26-.02.36l10.13,10.73c.15.16.41.07.43-.15ZM89.16,441.64c-1.75-.19-5.03-.35-9.46-.35-6.08,0-9.99.29-10.75.57-.06.02-.11.07-.14.14-.5,1.3-.72,10.79-.44,17.02,0,.21.25.31.41.18l8.4-7.01,12.12-10.11c.17-.14.09-.42-.13-.44ZM53.92,444.33c-.09-.09-.24-.09-.33,0l-17.75,14.82c-.1.08-.12.22-.05.33.47.73,1.01,1.42,1.64,2.05,2.25,2.25,5.24,3.49,8.42,3.49s6.17-1.24,8.42-3.49c4.65-4.65,4.65-12.2,0-16.85-.12-.12-.23-.23-.35-.34ZM35.25,457.78l17.1-14.27c.13-.11.12-.31-.02-.4-1.96-1.27-4.22-1.91-6.48-1.91-3.05,0-6.1,1.16-8.42,3.48-2.25,2.25-3.49,5.24-3.49,8.42,0,1.6.32,3.16.92,4.59.06.16.26.2.39.09ZM147.03,452.34l-8.87,7.4-1.48,1.24c-.06.05-.1.13-.09.21.16,1.97.33,2.35.35,2.38-.02-.04.08.06.04.04.55.29,4.53.6,10.82.6,4.79,0,8.24-.18,9.86-.39.2-.03.29-.27.15-.42l-10.42-11.04c-.09-.1-.24-.1-.34-.02ZM157.25,441.64c-1.75-.19-5.03-.35-9.46-.35-6.08,0-9.99.29-10.75.57-.06.02-.11.07-.14.14-.5,1.3-.72,10.79-.44,17.02,0,.21.25.31.41.18l8.4-7.01,12.12-10.11c.17-.14.09-.42-.13-.44ZM122.01,444.33c-.09-.09-.24-.09-.33,0l-17.75,14.82c-.1.08-.12.22-.05.33.47.73,1.01,1.42,1.64,2.05,2.25,2.25,5.24,3.49,8.42,3.49,3.18,0,6.17-1.24,8.42-3.49,4.65-4.65,4.65-12.2,0-16.85-.12-.12-.23-.23-.35-.34ZM103.34,457.78l17.1-14.27c.13-.11.12-.31-.02-.4-1.96-1.27-4.22-1.91-6.48-1.91-3.05,0-6.1,1.16-8.42,3.48-2.25,2.25-3.49,5.24-3.49,8.42,0,1.6.32,3.15.92,4.59.06.16.26.2.39.09ZM158.9,462.17c.19-1.76.34-5.02.34-9.42,0-4.73-.17-8.15-.38-9.79-.02-.2-.26-.29-.41-.16l-4.2,3.51-5.88,4.91c-.11.09-.12.26-.02.36l10.13,10.73c.15.16.41.07.43-.15ZM225.34,441.64c-1.75-.19-5.03-.35-9.46-.35-6.08,0-9.99.29-10.75.57-.06.02-.11.07-.14.14-.5,1.3-.72,10.79-.44,17.02,0,.21.25.31.41.18l8.4-7.01,12.12-10.11c.17-.14.09-.42-.13-.44ZM226.99,462.17c.19-1.76.34-5.02.34-9.42,0-4.73-.17-8.15-.38-9.79-.03-.2-.26-.29-.41-.16l-4.2,3.51-5.88,4.91c-.11.09-.12.26-.02.36l10.13,10.73c.15.16.41.07.43-.15ZM215.11,452.34l-8.87,7.4-1.48,1.24c-.06.05-.1.13-.09.21.16,1.97.33,2.35.35,2.38-.02-.04.08.06.04.04.55.29,4.53.6,10.82.6,4.79,0,8.24-.18,9.86-.39.2-.03.29-.27.15-.42l-10.42-11.04c-.09-.1-.24-.1-.34-.02ZM190.1,444.33c-.09-.09-.24-.09-.33,0l-17.75,14.82c-.1.08-.12.22-.05.33.47.73,1.01,1.42,1.64,2.05,2.25,2.25,5.24,3.49,8.42,3.49s6.17-1.24,8.42-3.49c4.65-4.65,4.65-12.2,0-16.85-.12-.12-.23-.23-.35-.34ZM171.42,457.78l17.1-14.27c.13-.11.12-.31-.02-.4-1.96-1.27-4.22-1.91-6.48-1.91-3.05,0-6.1,1.16-8.42,3.48s-3.49,5.24-3.49,8.42c0,1.6.32,3.15.92,4.59.07.16.26.2.39.09ZM258.19,444.33c-.09-.09-.24-.09-.33,0l-17.75,14.82c-.1.08-.12.22-.05.33.47.73,1.01,1.42,1.64,2.05,2.25,2.25,5.24,3.49,8.42,3.49,3.18,0,6.17-1.24,8.42-3.49,4.65-4.65,4.65-12.2,0-16.85-.12-.12-.23-.23-.35-.34ZM239.51,457.78l17.1-14.27c.13-.11.12-.31-.02-.4-1.96-1.27-4.22-1.91-6.48-1.91-3.05,0-6.1,1.16-8.42,3.48-2.25,2.25-3.49,5.24-3.49,8.42,0,1.6.32,3.15.92,4.59.07.16.26.2.39.09ZM295.08,462.17c.19-1.76.34-5.02.34-9.42,0-4.73-.17-8.15-.38-9.79-.02-.2-.26-.29-.41-.16l-4.2,3.51-5.88,4.91c-.11.09-.12.26-.02.36l10.13,10.73c.15.16.41.07.43-.15ZM293.42,441.64c-1.75-.19-5.03-.35-9.46-.35-6.08,0-9.99.29-10.75.57-.06.02-.11.07-.14.14-.5,1.3-.72,10.79-.44,17.02,0,.21.25.31.41.18l8.4-7.01,12.12-10.11c.17-.14.09-.42-.13-.44ZM283.2,452.34l-8.87,7.4-1.48,1.24c-.06.05-.1.13-.09.21.16,1.97.33,2.35.35,2.38-.02-.04.08.06.04.04.55.29,4.53.6,10.82.6,4.79,0,8.24-.18,9.86-.39.2-.03.29-.27.15-.42l-10.42-11.04c-.09-.1-.24-.1-.34-.02ZM326.27,444.33c-.09-.09-.24-.09-.33,0l-17.75,14.82c-.1.08-.12.22-.05.33.47.73,1.01,1.42,1.64,2.05,2.25,2.25,5.24,3.49,8.42,3.49s6.17-1.24,8.42-3.49c4.65-4.65,4.65-12.2,0-16.85-.12-.12-.23-.23-.35-.34ZM307.6,457.78l17.1-14.27c.13-.11.12-.31-.02-.4-1.96-1.27-4.22-1.91-6.48-1.91-3.05,0-6.1,1.16-8.42,3.48-2.25,2.25-3.49,5.24-3.49,8.42,0,1.6.32,3.15.92,4.59.06.16.26.2.39.09ZM19.98,478.27c-.09-.09-.24-.09-.33,0l-17.75,14.82c-.1.08-.12.22-.05.33.47.73,1.01,1.42,1.64,2.05,2.25,2.25,5.24,3.49,8.42,3.49s6.17-1.24,8.42-3.49c4.65-4.65,4.65-12.2,0-16.85-.12-.12-.23-.23-.35-.34ZM18.39,477.04c-1.96-1.27-4.22-1.91-6.48-1.91-3.05,0-6.1,1.16-8.42,3.48s-3.49,5.24-3.49,8.42c0,1.6.32,3.15.92,4.59.06.16.26.2.39.09l17.1-14.27c.13-.11.12-.31-.02-.4ZM56.42,476.74l-4.2,3.51-5.88,4.91c-.11.09-.12.26-.02.36l10.13,10.73c.15.16.41.07.43-.14.19-1.76.34-5.02.34-9.42,0-4.73-.17-8.15-.38-9.79-.02-.2-.26-.29-.41-.16ZM34.84,493.14l8.4-7.01,12.12-10.11c.17-.14.09-.42-.13-.44-1.75-.19-5.03-.34-9.46-.34-6.08,0-9.99.29-10.75.57-.06.02-.11.07-.14.14-.5,1.3-.72,10.79-.44,17.02,0,.21.25.31.41.18ZM45.34,486.29c-.09-.1-.24-.11-.34-.02l-8.87,7.4-1.48,1.24c-.06.05-.1.13-.09.21.16,1.97.33,2.35.35,2.38-.02-.04.08.06.04.04.55.29,4.53.6,10.82.6,4.79,0,8.24-.18,9.86-.39.2-.03.29-.27.15-.42l-10.42-11.04ZM88.07,478.27c-.09-.09-.24-.09-.33,0l-17.75,14.82c-.1.08-.12.22-.05.33.47.73,1.01,1.42,1.64,2.05,2.25,2.25,5.24,3.49,8.42,3.49s6.17-1.24,8.42-3.49c4.65-4.65,4.65-12.2,0-16.85-.12-.12-.23-.23-.35-.34ZM86.48,477.04c-1.96-1.27-4.22-1.91-6.48-1.91-3.05,0-6.1,1.16-8.42,3.48-2.25,2.25-3.49,5.24-3.49,8.42,0,1.6.32,3.15.92,4.59.06.16.26.2.39.09l17.1-14.27c.13-.11.12-.31-.02-.4ZM124.51,476.74l-4.2,3.51-5.88,4.91c-.11.09-.12.26-.02.36l10.13,10.73c.15.16.41.07.43-.14.19-1.76.34-5.02.34-9.42,0-4.73-.17-8.15-.38-9.79-.02-.2-.26-.29-.41-.16ZM102.93,493.14l8.4-7.01,12.12-10.11c.17-.14.09-.42-.13-.44-1.75-.19-5.03-.34-9.46-.34-6.08,0-9.99.29-10.75.57-.06.02-.11.07-.14.14-.5,1.3-.72,10.79-.44,17.02,0,.21.25.31.41.18ZM113.43,486.29c-.09-.1-.24-.11-.34-.02l-8.87,7.4-1.48,1.24c-.06.05-.1.13-.09.21.16,1.97.33,2.35.35,2.38-.02-.04.08.06.04.04.55.29,4.53.6,10.82.6,4.79,0,8.24-.18,9.86-.39.2-.03.29-.27.15-.42l-10.42-11.04ZM181.52,486.29c-.09-.1-.24-.11-.34-.02l-8.87,7.4-1.48,1.24c-.06.05-.1.13-.09.21.16,1.97.33,2.35.35,2.38-.02-.04.08.06.04.04.55.29,4.53.6,10.82.6,4.79,0,8.24-.18,9.86-.39.2-.03.29-.27.15-.42l-10.42-11.04ZM171.02,493.14l8.4-7.01,12.12-10.11c.17-.14.09-.42-.13-.44-1.75-.19-5.03-.34-9.46-.34-6.08,0-9.99.29-10.75.57-.06.02-.11.07-.14.14-.5,1.3-.72,10.79-.44,17.02,0,.21.25.31.41.18ZM192.6,476.74l-4.2,3.51-5.88,4.91c-.11.09-.12.26-.02.36l10.13,10.73c.15.16.41.07.43-.14.19-1.76.34-5.02.34-9.42,0-4.73-.17-8.15-.38-9.79-.03-.2-.26-.29-.41-.16ZM156.16,478.27c-.09-.09-.24-.09-.33,0l-17.75,14.82c-.1.08-.12.22-.05.33.47.73,1.01,1.42,1.64,2.05,2.25,2.25,5.24,3.49,8.42,3.49s6.17-1.24,8.42-3.49c4.65-4.65,4.65-12.2,0-16.85-.12-.12-.23-.23-.35-.34ZM154.57,477.04c-1.96-1.27-4.22-1.91-6.48-1.91-3.05,0-6.1,1.16-8.42,3.48-2.25,2.25-3.49,5.24-3.49,8.42,0,1.6.32,3.15.92,4.59.06.16.26.2.39.09l17.1-14.27c.13-.11.12-.31-.02-.4ZM249.61,486.29c-.09-.1-.24-.11-.34-.02l-8.87,7.4-1.48,1.24c-.06.05-.1.13-.09.21.16,1.97.33,2.35.35,2.38-.02-.04.08.06.04.04.55.29,4.53.6,10.82.6,4.79,0,8.24-.18,9.86-.39.2-.03.29-.27.15-.42l-10.42-11.04ZM224.25,478.27c-.09-.09-.24-.09-.33,0l-17.75,14.82c-.1.08-.12.22-.05.33.47.73,1.01,1.42,1.64,2.05,2.25,2.25,5.24,3.49,8.42,3.49s6.17-1.24,8.42-3.49c4.65-4.65,4.65-12.2,0-16.85-.12-.12-.23-.23-.35-.34ZM222.66,477.04c-1.96-1.27-4.22-1.91-6.48-1.91-3.05,0-6.1,1.16-8.42,3.48-2.25,2.25-3.49,5.24-3.49,8.42,0,1.6.32,3.15.92,4.59.06.16.26.2.39.09l17.1-14.27c.13-.11.12-.31-.02-.4ZM239.1,493.14l8.4-7.01,12.12-10.11c.17-.14.09-.42-.13-.44-1.75-.19-5.03-.34-9.46-.34-6.08,0-9.99.29-10.75.57-.06.02-.11.07-.14.14-.5,1.3-.72,10.79-.44,17.02,0,.21.25.31.41.18ZM260.69,476.74l-4.2,3.51-5.88,4.91c-.11.09-.12.26-.02.36l10.13,10.73c.15.16.41.07.43-.14.19-1.76.34-5.02.34-9.42,0-4.73-.17-8.15-.38-9.79-.02-.2-.26-.29-.41-.16ZM328.78,476.74l-4.2,3.51-5.88,4.91c-.11.09-.12.26-.02.36l10.13,10.73c.15.16.41.07.43-.14.19-1.76.34-5.02.34-9.42,0-4.73-.17-8.15-.38-9.79-.02-.2-.26-.29-.41-.16ZM317.69,486.29c-.09-.1-.24-.11-.34-.02l-8.87,7.4-1.48,1.24c-.06.05-.1.13-.09.21.16,1.97.33,2.35.35,2.38-.02-.04.08.06.04.04.55.29,4.53.6,10.82.6,4.79,0,8.24-.18,9.86-.39.2-.03.29-.27.15-.42l-10.42-11.04ZM292.34,478.27c-.09-.09-.24-.09-.33,0l-17.75,14.82c-.1.08-.12.22-.05.33.47.73,1.01,1.42,1.64,2.05,2.25,2.25,5.24,3.49,8.42,3.49s6.17-1.24,8.42-3.49c4.65-4.65,4.65-12.2,0-16.85-.12-.12-.23-.23-.35-.34ZM290.74,477.04c-1.96-1.27-4.22-1.91-6.48-1.91-3.05,0-6.1,1.16-8.42,3.48-2.25,2.25-3.49,5.24-3.49,8.42,0,1.6.32,3.15.92,4.59.06.16.26.2.39.09l17.1-14.27c.13-.11.12-.31-.02-.4ZM307.19,493.14l8.4-7.01,12.12-10.11c.17-.14.09-.42-.13-.44-1.75-.19-5.03-.34-9.46-.34-6.08,0-9.99.29-10.75.57-.06.02-.11.07-.14.14-.5,1.3-.72,10.79-.44,17.02,0,.21.25.31.41.18Z"/>
    </g>
  </g>
</svg>