<?xml version="1.0" encoding="UTF-8"?>
<svg id="_レイヤー_2" data-name="レイヤー 2" xmlns="http://www.w3.org/2000/svg" viewBox="0 0 626.36 511.68">
  <defs>
    <style>
      .cls-1 {
        fill: #d97700;
      }
    </style>
  </defs>
  <g id="_文字_アウトライン" data-name="文字_アウトライン">
    <g>
      <path class="cls-1" d="M3.37,7.71l32.78.96c-2.09,37.6-3.13,73.19-3.13,106.76,0,17.35,1.4,30.57,4.22,39.64,2.81,9.08,6.87,15.18,12.17,18.32,5.3,3.13,12.93,4.7,22.9,4.7,30.52,0,54.95-23.14,73.26-69.41l28.68,11.09c-22.01,59.29-55.99,88.93-101.94,88.93-27.32,0-46.19-6.63-56.64-19.88C5.22,175.57,0,151.11,0,115.44S1.12,45.15,3.37,7.71Z"/>
      <path class="cls-1" d="M343.43,0l19.76,24.34c-30.21,22.82-58.56,42.66-85.07,59.53-9.64,6.11-15.83,10.28-18.56,12.53-2.73,2.25-4.1,4.58-4.1,6.99,0,2.25,1.2,4.5,3.61,6.75,2.41,2.25,8.03,6.35,16.87,12.29,31.49,21.37,62.98,44.99,94.47,70.85l-21.45,23.14c-32.46-26.35-63.06-49.41-91.82-69.17-17.51-12.05-28.32-20.4-32.41-25.06-4.1-4.66-6.14-10.92-6.14-18.8,0-8.51,2.17-15.1,6.51-19.76,4.34-4.66,15.26-12.61,32.78-23.86,29.08-18.8,57.6-38.72,85.56-59.77Z"/>
      <path class="cls-1" d="M426.57,41.45V14.22h99.77v27.23c-.8,8.19-2.57,22.58-5.3,43.14,11.57.64,24.1,2.57,37.6,5.78.32-10.44.48-29.4.48-56.88h30.61c0,23.78-.4,45.87-1.21,66.28,12.69,4.98,25.3,11.33,37.84,19.04l-13.5,26.03c-9-5.94-17.83-10.85-26.51-14.7-1.45,12.21-3.38,22.45-5.79,30.73-2.41,8.28-5.99,15.51-10.72,21.69-4.74,6.19-9.84,11.29-15.3,15.3-5.46,4.01-12.94,8.68-22.41,13.98l-15.67-25.55c7.71-4.18,13.53-7.67,17.47-10.48,3.94-2.81,7.75-6.67,11.45-11.57,3.7-4.9,6.35-10.8,7.95-17.71,1.6-6.91,2.89-15.91,3.86-26.99-13.82-4.01-27.23-6.35-40.25-6.99-2.57,15.59-5.3,28.84-8.19,39.76-2.89,10.93-5.87,19.72-8.92,26.39-3.05,6.67-6.55,11.89-10.48,15.67-3.94,3.77-7.83,6.3-11.69,7.59-3.86,1.28-8.52,1.93-13.98,1.93-13.34,0-25.79-6.23-37.36-18.68-11.57-12.45-17.35-26.47-17.35-42.05s7.11-27.79,21.33-38.56c14.22-10.76,33.86-17.35,58.93-19.76,1.93-15.1,3.53-29.56,4.82-43.38h-67.48ZM485.13,113.51c-14.62,1.93-25.75,5.58-33.38,10.97-7.63,5.39-11.45,11.61-11.45,18.68,0,6.59,2.49,13.13,7.47,19.64,4.98,6.51,9.72,9.76,14.22,9.76,8.83,0,16.54-19.68,23.13-59.04Z"/>
    </g>
    <g>
      <path class="cls-1" d="M564.37,309.54c6.54-.84,11.58-3.39,15.12-7.65,3.54-4.26,5.31-10.02,5.31-17.28,0-6.24-1.91-11.5-5.71-15.79-3.81-4.29-8.78-6.85-14.89-7.7-1.44,11.4-3.14,20.96-5.09,28.67-1.95,7.71-4.11,13.58-6.48,17.6-2.37,4.02-4.77,6.83-7.2,8.42-2.43,1.59-5.21,2.38-8.32,2.38-4.86,0-9.33-2.79-13.41-8.37-4.08-5.58-6.12-12.39-6.12-20.43,0-11.64,3.96-21.09,11.88-28.35,7.92-7.26,18.27-10.89,31.05-10.89,10.32,0,18.86,3.24,25.61,9.72s10.12,14.73,10.12,24.75-2.65,18.81-7.96,25.11-12.46,9.84-21.46,10.62l-2.43-10.8ZM552.31,261.66c-7.26,1.38-12.96,4.53-17.1,9.45-4.14,4.92-6.21,11.01-6.21,18.27,0,4.56.93,8.61,2.79,12.15,1.86,3.54,3.63,5.31,5.31,5.31.84,0,1.71-.41,2.61-1.21.9-.81,1.9-2.3,3.02-4.46,1.11-2.16,2.21-4.89,3.29-8.19,1.08-3.3,2.17-7.65,3.28-13.05,1.11-5.4,2.12-11.49,3.02-18.27Z"/>
      <path class="cls-1" d="M541.41,383.88v-9.72h4.59l-4.41-5.04c-2.22,3.6-4.44,6.72-6.66,9.36v40.5h-11.61v-30.51c-2.22,2.7-4.44,4.92-6.66,6.66l-3.06-12.51c4.62-3.48,8.5-6.93,11.65-10.35s6.29-7.62,9.4-12.6l8.28,4.95c2.34-2.16,3.97-4.78,4.9-7.88.93-3.09,1.39-7.27,1.39-12.55v-4.68h35.55v20.88c0,.72.1,1.14.31,1.26.21.12.91.18,2.12.18,1.44,0,2.31-.45,2.61-1.35.3-.9.63-3.99.99-9.27l9,1.26c-.18,2.76-.3,4.81-.36,6.17-.06,1.35-.26,2.87-.58,4.54-.33,1.68-.59,2.82-.77,3.42-.18.6-.65,1.3-1.39,2.11-.75.81-1.38,1.31-1.89,1.48-.51.18-1.5.39-2.97.63-1.47.24-2.76.36-3.87.36h-5.27c-4.08,0-6.68-.33-7.79-.99-1.11-.66-1.66-2.13-1.66-4.41v-16.38h-13.23v1.17c-.06,10.56-3.81,18.42-11.25,23.58h45v9.72c-3.6,6.9-8.31,12.75-14.13,17.55,5.94,2.94,12.48,5.34,19.62,7.2l-3.96,9.72c-9.6-2.4-18.15-5.76-25.65-10.08-7.14,3.96-16.14,7.35-27,10.17l-4.32-9.9c8.04-1.68,15.18-3.99,21.42-6.93-5.1-4.08-9.27-8.34-12.51-12.78l6.93-4.95h-12.78ZM519.46,363.9l-4.5-9.99c4.26-2.58,7.86-5.17,10.8-7.78,2.94-2.61,5.85-5.77,8.73-9.5l8.64,5.76c-3.48,4.68-6.99,8.64-10.53,11.88-3.54,3.24-7.92,6.45-13.14,9.63ZM569.86,395.76c4.8-3.48,8.7-7.44,11.7-11.88h-24.66c3.36,4.32,7.68,8.28,12.96,11.88Z"/>
      <path class="cls-1" d="M522.24,433.38h69.3v78.3h-11.97v-4.14h-45.36v4.14h-11.97v-78.3ZM534.22,455.16h45.36v-11.97h-45.36v11.97ZM534.22,464.61v11.97h45.36v-11.97h-45.36ZM534.22,486.03v12.06h45.36v-12.06h-45.36Z"/>
    </g>
  </g>
</svg>