<?xml version="1.0" encoding="UTF-8"?>
<svg id="_レイヤー_2" data-name="レイヤー 2" xmlns="http://www.w3.org/2000/svg" viewBox="0 0 915.15 411.16">
  <defs>
    <style>
      .cls-1 {
        fill: #d97700;
      }
    </style>
  </defs>
  <g id="_文字_アウトライン" data-name="文字_アウトライン">
    <g>
      <path class="cls-1" d="M15.92,7.84l33.32.98c-2.12,38.22-3.18,74.4-3.18,108.53,0,17.64,1.43,31.08,4.29,40.3,2.86,9.23,6.98,15.44,12.37,18.62,5.39,3.19,13.15,4.78,23.28,4.78,31.03,0,55.86-23.52,74.48-70.56l29.15,11.27c-22.38,60.27-56.92,90.4-103.63,90.4-27.77,0-46.96-6.74-57.58-20.21-10.62-13.48-15.92-38.34-15.92-74.6s1.14-71.46,3.43-109.52Z"/>
      <path class="cls-1" d="M361.61,0l20.09,24.75c-30.71,23.19-59.54,43.36-86.49,60.52-9.8,6.21-16.09,10.45-18.86,12.74-2.78,2.29-4.17,4.66-4.17,7.1,0,2.29,1.22,4.57,3.67,6.86,2.45,2.29,8.17,6.45,17.15,12.5,32.01,21.72,64.03,45.73,96.04,72.03l-21.8,23.52c-32.99-26.79-64.11-50.23-93.34-70.31-17.8-12.25-28.79-20.74-32.95-25.48-4.17-4.74-6.25-11.1-6.25-19.11,0-8.66,2.21-15.35,6.62-20.09,4.41-4.74,15.52-12.82,33.32-24.25,29.56-19.11,58.56-39.36,86.98-60.76Z"/>
      <path class="cls-1" d="M460.84,42.14V14.46h101.43v27.69c-.82,8.33-2.61,22.95-5.39,43.85,11.76.65,24.5,2.61,38.22,5.88.33-10.62.49-29.89.49-57.82h31.12c0,24.17-.41,46.63-1.23,67.38,12.9,5.06,25.73,11.52,38.47,19.35l-13.72,26.46c-9.15-6.04-18.13-11.02-26.95-14.94-1.47,12.41-3.43,22.83-5.88,31.24-2.45,8.41-6.09,15.76-10.9,22.05-4.82,6.29-10.01,11.48-15.56,15.56-5.55,4.08-13.15,8.82-22.79,14.21l-15.92-25.97c7.84-4.25,13.76-7.8,17.76-10.66,4-2.86,7.88-6.78,11.64-11.76,3.75-4.98,6.45-10.98,8.08-18.01,1.63-7.02,2.94-16.17,3.92-27.44-14.05-4.08-27.68-6.45-40.92-7.1-2.61,15.84-5.39,29.32-8.33,40.42-2.94,11.11-5.96,20.05-9.06,26.83-3.11,6.78-6.66,12.09-10.66,15.93-4,3.84-7.96,6.41-11.88,7.72-3.92,1.31-8.66,1.96-14.21,1.96-13.56,0-26.22-6.33-37.98-18.99s-17.64-26.91-17.64-42.75,7.23-28.26,21.68-39.2c14.46-10.94,34.42-17.64,59.9-20.09,1.96-15.35,3.59-30.05,4.9-44.1h-68.6ZM520.37,115.4c-14.86,1.96-26.18,5.68-33.93,11.15-7.76,5.47-11.64,11.8-11.64,18.99,0,6.7,2.53,13.35,7.59,19.97,5.06,6.62,9.88,9.92,14.46,9.92,8.98,0,16.82-20.01,23.52-60.02Z"/>
    </g>
    <g>
      <path class="cls-1" d="M48.36,276.61l21.98-1.73,2.2,25.91,50.87-1.88.63,18.84-49.77,1.88,2.83,32.81,52.59-1.73.63,18.84-51.65,1.73,3.3,38.15-21.98,1.73-3.45-39.25-55.89,1.88-.63-18.84,54.95-1.73-2.83-32.97-45.22,1.57-.63-18.68,44.27-1.57-2.2-24.96Z"/>
      <path class="cls-1" d="M156.53,310.68h74.1l-4.24,72.69h24.02v17.11h-106.76v-17.11h61.86l3.45-55.58h-52.44v-17.11Z"/>
      <path class="cls-1" d="M300.18,385.09c19.88-1.99,35.74-7.82,47.57-17.5,11.83-9.68,21.25-24.36,28.26-44.04l19.31,7.54c-9.63,26.38-23.45,45.43-41.45,57.15-18,11.72-42.18,17.58-72.53,17.58h-3.77v-125.13h22.61v104.4Z"/>
      <path class="cls-1" d="M405.78,353.54v-21.04h103.75v21.04h-103.75Z"/>
      <path class="cls-1" d="M522.65,335.48l3.77-18.68c13.71,2.3,30.98,5.65,51.81,10.05l-3.92,18.53c-18.74-3.98-35.95-7.27-51.65-9.89ZM528.93,385.88c32.97-2.83,56.99-10.52,72.06-23.08,15.07-12.56,25.22-33.49,30.46-62.8l19.94,3.3c-5.97,33.81-18.11,58.54-36.42,74.18-18.32,15.65-45.95,25.09-82.9,28.34l-3.14-19.94ZM529.88,297.49l3.92-18.84c16.64,2.72,34.43,6.02,53.38,9.89l-3.92,18.84c-18.95-3.87-36.74-7.17-53.38-9.89Z"/>
      <path class="cls-1" d="M667.72,309.42h94.51v92.32h-94.51v-17.11h74.26v-22.92h-67.35v-16.8h67.35v-18.68h-74.26v-16.8Z"/>
      <path class="cls-1" d="M789.24,300.63l10.05-18.84c15.8,7.54,32.03,15.96,48.67,25.28l-10.52,18.53c-14.03-7.85-30.09-16.17-48.2-24.96ZM895.21,296.86l19.94,4.4c-5.55,31.09-18.11,55-37.68,71.75-19.57,16.75-46.79,26.64-81.64,29.67l-3.14-20.41c30.35-2.93,53.67-11.23,69.94-24.88,16.27-13.66,27.13-33.83,32.58-60.52Z"/>
    </g>
  </g>
</svg>