<?xml version="1.0" encoding="UTF-8"?>
<svg id="_レイヤー_2" data-name="レイヤー 2" xmlns="http://www.w3.org/2000/svg" viewBox="0 0 330.29 498.95">
  <defs>
    <style>
      .cls-1 {
        fill: #cb7d1e;
      }

      .cls-2 {
        opacity: .15;
      }
    </style>
  </defs>
  <g id="_数字" data-name="数字">
    <g class="cls-2">
      <path class="cls-1" d="M260.03,22.21l-10.42-11.04c-.09-.1-.24-.11-.34-.02l-8.87,7.4-1.48,1.24c-.06.05-.1.13-.09.21.16,1.97.33,2.35.35,2.38-.02-.04.08.06.04.04.55.29,4.53.6,10.82.6,4.79,0,8.24-.18,9.86-.39.2-.03.29-.27.15-.42ZM250.6,10.03c-.11.09-.12.26-.02.36l10.13,10.73c.15.16.41.07.43-.14.19-1.76.34-5.02.34-9.42,0-4.73-.17-8.15-.38-9.79-.02-.2-.26-.29-.41-.16l-4.2,3.51-5.88,4.91ZM239.1,18.01l8.4-7.01,12.12-10.11c.17-.14.09-.42-.13-.44-1.75-.19-5.03-.34-9.46-.34-6.08,0-9.99.29-10.75.57-.06.02-.11.07-.14.14-.5,1.3-.72,10.79-.44,17.02,0,.21.25.31.41.18ZM274.2,18.29c.47.73,1.01,1.42,1.64,2.05,2.25,2.25,5.24,3.49,8.42,3.49s6.17-1.24,8.42-3.49c4.65-4.65,4.65-12.2,0-16.85-.12-.12-.23-.23-.35-.34-.09-.09-.24-.09-.33,0l-17.75,14.82c-.1.08-.12.22-.05.33ZM273.66,16.59l17.1-14.27c.13-.11.12-.31-.02-.4-1.96-1.27-4.22-1.91-6.48-1.91-3.05,0-6.1,1.16-8.42,3.48-2.25,2.25-3.49,5.24-3.49,8.42,0,1.6.32,3.15.92,4.59.06.16.26.2.39.09ZM215.11,45.08l-8.87,7.4-1.48,1.24c-.06.05-.1.13-.09.21.16,1.97.33,2.35.35,2.38-.02-.04.08.06.04.04.55.29,4.53.6,10.82.6,4.79,0,8.24-.18,9.86-.39.2-.03.29-.27.15-.42l-10.42-11.04c-.09-.1-.24-.11-.34-.02ZM204.95,51.95l8.4-7.01,12.12-10.11c.17-.14.09-.42-.13-.44-1.75-.19-5.03-.35-9.46-.35-6.08,0-9.99.29-10.75.57-.06.02-.11.07-.14.14-.5,1.3-.72,10.79-.44,17.02,0,.21.25.31.41.18ZM216.45,43.97c-.11.09-.12.26-.02.36l10.13,10.73c.15.16.41.07.43-.14.19-1.76.34-5.02.34-9.42,0-4.73-.17-8.15-.38-9.79-.02-.2-.26-.29-.41-.16l-4.2,3.51-5.88,4.91ZM293.42,34.39c-1.75-.19-5.03-.35-9.46-.35-6.08,0-9.99.29-10.75.57-.06.02-.11.07-.14.14-.5,1.3-.72,10.79-.44,17.02,0,.21.25.31.41.18l8.4-7.01,12.12-10.11c.17-.14.09-.42-.13-.44ZM258.54,37.42c-.12-.12-.23-.23-.35-.34-.09-.09-.24-.09-.33,0l-17.75,14.82c-.1.08-.12.22-.05.33.47.73,1.01,1.42,1.64,2.05,2.25,2.25,5.24,3.49,8.42,3.49s6.17-1.24,8.42-3.49c4.65-4.65,4.65-12.2,0-16.85ZM239.51,50.53l17.1-14.27c.13-.11.12-.31-.02-.4-1.96-1.27-4.22-1.91-6.48-1.91-3.05,0-6.1,1.16-8.42,3.48-2.25,2.25-3.49,5.24-3.49,8.42,0,1.6.32,3.15.92,4.59.06.16.26.2.39.09ZM283.2,45.08l-8.87,7.4-1.48,1.24c-.06.05-.1.13-.09.21.16,1.97.33,2.35.35,2.38-.02-.04.08.06.04.04.55.29,4.53.6,10.82.6,4.79,0,8.24-.18,9.86-.39.2-.03.29-.27.15-.42l-10.42-11.04c-.09-.1-.24-.11-.34-.02ZM295.08,54.92c.19-1.76.34-5.02.34-9.42,0-4.73-.17-8.15-.38-9.79-.02-.2-.26-.29-.41-.16l-4.2,3.51-5.88,4.91c-.11.09-.12.26-.02.36l10.13,10.73c.15.16.41.07.43-.14ZM182.51,77.91c-.11.09-.12.26-.02.36l10.13,10.73c.15.16.41.07.43-.14.19-1.76.34-5.02.34-9.42,0-4.73-.17-8.15-.38-9.79-.02-.2-.26-.29-.41-.16l-4.2,3.51-5.88,4.91ZM181.18,79.02l-8.87,7.4-1.48,1.24c-.06.05-.1.13-.09.21.16,1.97.33,2.35.35,2.38-.02-.04.08.06.04.04.55.29,4.53.6,10.82.6,4.79,0,8.24-.18,9.86-.39.2-.03.29-.27.15-.42l-10.42-11.04c-.09-.1-.24-.11-.34-.02ZM171.02,85.89l8.4-7.01,12.12-10.11c.17-.14.09-.42-.13-.44-1.75-.19-5.03-.35-9.46-.35-6.08,0-9.99.29-10.75.57-.06.02-.11.07-.14.14-.5,1.3-.72,10.79-.44,17.02,0,.21.25.31.41.18ZM239.2,90.3c.55.29,4.53.6,10.82.6,4.79,0,8.24-.18,9.86-.39.2-.03.29-.27.15-.42l-10.42-11.04c-.09-.1-.24-.11-.34-.02l-8.87,7.4-1.48,1.24c-.06.05-.1.13-.09.21.16,1.97.33,2.35.35,2.38-.02-.04.08.06.04.04ZM224.25,71.02c-.09-.09-.24-.09-.33,0l-17.75,14.82c-.1.08-.12.22-.05.33.47.73,1.01,1.42,1.64,2.05,2.25,2.25,5.24,3.49,8.42,3.49s6.17-1.24,8.42-3.49c4.65-4.65,4.65-12.2,0-16.85-.12-.12-.23-.23-.35-.34ZM205.57,84.47l17.1-14.27c.13-.11.12-.31-.02-.4-1.96-1.27-4.22-1.91-6.48-1.91-3.05,0-6.1,1.16-8.42,3.48-2.25,2.25-3.49,5.24-3.49,8.42,0,1.6.32,3.15.92,4.59.06.16.26.2.39.09ZM259.49,68.33c-1.75-.19-5.03-.35-9.46-.35-6.08,0-9.99.29-10.75.57-.06.02-.11.07-.14.14-.5,1.3-.72,10.79-.44,17.02,0,.21.25.31.41.18l8.4-7.01,12.12-10.11c.17-.14.09-.42-.13-.44ZM250.6,77.91c-.11.09-.12.26-.02.36l10.13,10.73c.15.16.41.07.43-.14.19-1.76.34-5.02.34-9.42,0-4.73-.17-8.15-.38-9.79-.02-.2-.26-.29-.41-.16l-4.2,3.51-5.88,4.91ZM292.69,71.36c-.12-.12-.23-.23-.35-.34-.09-.08-.24-.09-.33,0l-17.75,14.82c-.1.08-.12.22-.05.33.47.73,1.01,1.42,1.64,2.05,2.25,2.25,5.24,3.49,8.42,3.49s6.17-1.24,8.42-3.49c4.65-4.65,4.65-12.2,0-16.85ZM273.27,84.37c.06.16.26.2.39.09l17.1-14.27c.13-.11.12-.31-.02-.4-1.96-1.27-4.22-1.91-6.48-1.91-3.05,0-6.1,1.16-8.42,3.48-2.25,2.25-3.49,5.24-3.49,8.42,0,1.6.32,3.15.92,4.59ZM157.79,124.02l-10.42-11.04c-.09-.1-.24-.11-.34-.02l-8.87,7.4-1.48,1.24c-.06.05-.1.13-.09.21.16,1.97.33,2.35.35,2.38-.02-.04.08.06.04.04.55.29,4.53.6,10.82.6,4.79,0,8.24-.18,9.86-.39.2-.03.29-.27.15-.42ZM148.36,111.84c-.11.09-.12.26-.02.36l10.13,10.73c.15.16.41.07.43-.14.19-1.76.34-5.02.34-9.42,0-4.73-.17-8.15-.38-9.79-.03-.2-.26-.29-.41-.16l-4.2,3.51-5.88,4.91ZM136.87,119.83l8.4-7.01,12.12-10.11c.17-.14.09-.42-.13-.44-1.75-.19-5.03-.34-9.46-.34-6.08,0-9.99.29-10.75.57-.06.02-.11.07-.14.14-.5,1.3-.72,10.79-.44,17.02,0,.21.25.31.41.18ZM225.34,102.26c-1.75-.19-5.03-.34-9.46-.34-6.08,0-9.99.29-10.75.57-.06.02-.11.07-.14.14-.5,1.3-.72,10.79-.44,17.02,0,.21.25.31.41.18l8.4-7.01,12.12-10.11c.17-.14.09-.42-.13-.44ZM190.1,104.96c-.09-.08-.24-.09-.33,0l-17.75,14.82c-.1.08-.12.22-.05.33.47.73,1.01,1.42,1.64,2.05,2.25,2.25,5.24,3.49,8.42,3.49s6.17-1.24,8.42-3.49c4.65-4.65,4.65-12.2,0-16.85-.12-.12-.23-.23-.35-.34ZM171.42,118.4l17.1-14.27c.13-.11.12-.31-.02-.4-1.96-1.27-4.22-1.91-6.48-1.91-3.05,0-6.1,1.16-8.42,3.48s-3.49,5.24-3.49,8.42c0,1.6.32,3.16.92,4.59.07.16.26.2.39.09ZM225.88,124.02l-10.42-11.04c-.09-.1-.24-.11-.34-.02l-8.87,7.4-1.48,1.24c-.06.05-.1.13-.09.21.16,1.97.33,2.35.35,2.38-.02-.04.08.06.04.04.55.29,4.53.6,10.82.6,4.79,0,8.24-.18,9.86-.39.2-.03.29-.27.15-.42ZM226.54,103.43l-4.2,3.51-5.88,4.91c-.11.09-.12.26-.02.36l10.13,10.73c.15.16.41.07.43-.14.19-1.76.34-5.02.34-9.42,0-4.73-.17-8.15-.38-9.79-.02-.2-.26-.29-.41-.16ZM295.08,122.79c.19-1.76.34-5.02.34-9.42,0-4.73-.17-8.15-.38-9.79-.02-.2-.26-.29-.41-.16l-4.2,3.51-5.88,4.91c-.11.09-.12.26-.02.36l10.13,10.73c.15.16.41.07.43-.14ZM273.07,102.62c-.5,1.3-.72,10.79-.44,17.02,0,.21.25.31.41.18l8.4-7.01,12.12-10.11c.17-.14.09-.42-.13-.44-1.75-.19-5.03-.34-9.46-.34-6.08,0-9.99.29-10.75.57-.06.02-.11.07-.14.14ZM258.54,105.3c-.12-.12-.23-.23-.35-.34-.09-.09-.24-.09-.33,0l-17.75,14.82c-.1.08-.12.22-.05.33.47.73,1.01,1.42,1.64,2.05,2.25,2.25,5.24,3.49,8.42,3.49s6.17-1.24,8.42-3.49c4.65-4.65,4.65-12.2,0-16.85ZM239.51,118.4l17.1-14.27c.13-.11.12-.31-.02-.4-1.96-1.27-4.22-1.91-6.48-1.91-3.05,0-6.1,1.16-8.42,3.48s-3.49,5.24-3.49,8.42c0,1.6.32,3.15.92,4.59.06.16.26.2.39.09ZM293.97,124.02l-10.42-11.04c-.09-.1-.24-.11-.34-.02l-8.87,7.4-1.48,1.24c-.06.05-.1.13-.09.21.16,1.97.33,2.35.35,2.38-.02-.04.08.06.04.04.55.29,4.53.6,10.82.6,4.79,0,8.24-.18,9.86-.39.2-.03.29-.27.15-.42ZM113.09,146.9l-8.87,7.4-1.48,1.24c-.06.05-.1.13-.09.21.16,1.97.33,2.35.35,2.38-.02-.04.08.06.04.04.55.29,4.53.6,10.82.6,4.79,0,8.24-.18,9.86-.39.2-.03.29-.27.15-.42l-10.42-11.04c-.09-.1-.24-.11-.34-.02ZM102.93,153.76l8.4-7.01,12.12-10.11c.17-.14.09-.42-.13-.44-1.75-.19-5.03-.35-9.46-.35-6.08,0-9.99.29-10.75.57-.06.02-.11.07-.14.14-.5,1.3-.72,10.79-.44,17.02,0,.21.25.31.41.18ZM114.43,145.78c-.11.09-.12.26-.02.36l10.13,10.73c.15.16.41.07.43-.14.19-1.76.34-5.02.34-9.42,0-4.73-.17-8.15-.38-9.79-.02-.2-.26-.29-.41-.16l-4.2,3.51-5.88,4.91ZM191.4,136.2c-1.75-.19-5.03-.35-9.46-.35-6.08,0-9.99.29-10.75.57-.06.02-.11.07-.14.14-.5,1.3-.72,10.79-.44,17.02,0,.21.25.31.41.18l8.4-7.01,12.12-10.11c.17-.14.09-.42-.13-.44ZM193.05,156.73c.19-1.76.34-5.02.34-9.42,0-4.73-.17-8.15-.38-9.79-.02-.2-.26-.29-.41-.16l-4.2,3.51-5.88,4.91c-.11.09-.12.26-.02.36l10.13,10.73c.15.16.41.07.43-.14ZM181.18,146.9l-8.87,7.4-1.48,1.24c-.06.05-.1.13-.09.21.16,1.97.33,2.35.35,2.38-.02-.04.08.06.04.04.55.29,4.53.6,10.82.6,4.79,0,8.24-.18,9.86-.39.2-.03.29-.27.15-.42l-10.42-11.04c-.09-.1-.24-.11-.34-.02ZM156.51,139.24c-.12-.12-.23-.23-.35-.34-.09-.08-.24-.09-.33,0l-17.75,14.82c-.1.08-.12.22-.05.33.47.73,1.01,1.42,1.64,2.05,2.25,2.25,5.24,3.49,8.42,3.49s6.17-1.24,8.42-3.49c4.65-4.65,4.65-12.2,0-16.85ZM137.48,152.35l17.1-14.27c.13-.11.12-.31-.02-.4-1.96-1.27-4.22-1.91-6.48-1.91-3.05,0-6.1,1.16-8.42,3.48-2.25,2.25-3.49,5.24-3.49,8.42,0,1.6.32,3.15.92,4.59.06.16.26.2.39.09ZM239.2,158.17c.55.29,4.53.6,10.82.6,4.79,0,8.24-.18,9.86-.39.2-.03.29-.27.15-.42l-10.42-11.04c-.09-.1-.24-.11-.34-.02l-8.87,7.4-1.48,1.24c-.06.05-.1.13-.09.21.16,1.97.33,2.35.35,2.38-.02-.04.08.06.04.04ZM259.49,136.2c-1.75-.19-5.03-.35-9.46-.35-6.08,0-9.99.29-10.75.57-.06.02-.11.07-.14.14-.5,1.3-.72,10.79-.44,17.02,0,.21.25.31.41.18l8.4-7.01,12.12-10.11c.17-.14.09-.42-.13-.44ZM250.6,145.78c-.11.09-.12.26-.02.36l10.13,10.73c.15.16.41.07.43-.14.19-1.76.34-5.02.34-9.42,0-4.73-.17-8.15-.38-9.79-.02-.2-.26-.29-.41-.16l-4.2,3.51-5.88,4.91ZM224.6,139.23c-.12-.12-.23-.23-.35-.34-.09-.09-.24-.09-.33,0l-17.75,14.82c-.1.08-.12.22-.05.33.47.73,1.01,1.42,1.64,2.05,2.25,2.25,5.24,3.49,8.42,3.49,3.18,0,6.17-1.24,8.42-3.49,4.65-4.65,4.65-12.2,0-16.85ZM205.57,152.34l17.1-14.27c.13-.11.12-.31-.02-.4-1.96-1.27-4.22-1.91-6.48-1.91-3.05,0-6.1,1.16-8.42,3.48-2.25,2.25-3.49,5.24-3.49,8.42,0,1.6.32,3.15.92,4.59.06.16.26.2.39.09ZM292.34,138.9c-.09-.08-.24-.09-.33,0l-17.75,14.82c-.1.08-.12.22-.05.33.47.73,1.01,1.42,1.64,2.05,2.25,2.25,5.24,3.49,8.42,3.49s6.17-1.24,8.42-3.49c4.65-4.65,4.65-12.2,0-16.85-.12-.12-.23-.23-.35-.34ZM290.74,137.66c-1.96-1.27-4.22-1.91-6.48-1.91-3.05,0-6.1,1.16-8.42,3.48-2.25,2.25-3.49,5.24-3.49,8.42,0,1.6.32,3.15.92,4.59.06.16.26.2.39.09l17.1-14.27c.13-.11.12-.31-.02-.4ZM78.94,180.84l-8.87,7.4-1.48,1.24c-.06.05-.1.13-.09.21.16,1.97.33,2.35.35,2.38-.02-.04.08.06.04.04.55.29,4.53.6,10.82.6,4.79,0,8.24-.18,9.86-.39.2-.03.29-.27.15-.42l-10.42-11.04c-.09-.1-.24-.11-.34-.02ZM68.78,187.7l8.4-7.01,12.12-10.11c.17-.14.09-.42-.13-.44-1.75-.19-5.03-.35-9.46-.35-6.08,0-9.99.29-10.75.57-.06.02-.11.07-.14.14-.5,1.3-.72,10.79-.44,17.02,0,.21.25.31.41.18ZM80.28,179.72c-.11.09-.12.26-.02.36l10.13,10.73c.15.16.41.07.43-.14.19-1.76.34-5.02.34-9.42,0-4.73-.17-8.15-.38-9.79-.02-.2-.26-.29-.41-.16l-4.2,3.51-5.88,4.91ZM122.01,172.83c-.09-.09-.24-.09-.33,0l-17.75,14.82c-.1.08-.12.22-.05.33.47.73,1.01,1.42,1.64,2.05,2.25,2.25,5.24,3.49,8.42,3.49s6.17-1.24,8.42-3.49c4.65-4.65,4.65-12.2,0-16.85-.12-.12-.23-.23-.35-.34ZM103.34,186.28l17.1-14.27c.13-.11.12-.31-.02-.4-1.96-1.27-4.22-1.91-6.48-1.91-3.05,0-6.1,1.16-8.42,3.48-2.25,2.25-3.49,5.24-3.49,8.42,0,1.6.32,3.15.92,4.59.07.16.26.2.39.09ZM136.87,187.7l8.4-7.01,12.12-10.11c.17-.14.09-.42-.13-.44-1.75-.19-5.03-.35-9.46-.35-6.08,0-9.99.29-10.75.57-.06.02-.11.07-.14.14-.5,1.3-.72,10.79-.44,17.02,0,.21.25.31.41.18ZM158.9,190.67c.19-1.76.34-5.02.34-9.42,0-4.73-.17-8.15-.38-9.79-.03-.2-.26-.29-.41-.16l-4.2,3.51-5.88,4.91c-.11.09-.12.26-.02.36l10.13,10.73c.15.16.41.07.43-.14ZM157.79,191.89l-10.42-11.04c-.09-.1-.24-.11-.34-.02l-8.87,7.4-1.48,1.24c-.06.05-.1.13-.09.21.16,1.97.33,2.35.35,2.38-.02-.04.08.06.04.04.55.29,4.53.6,10.82.6,4.79,0,8.24-.18,9.86-.39.2-.03.29-.27.15-.42ZM205.05,192.11c.55.29,4.53.6,10.82.6,4.79,0,8.24-.18,9.86-.39.2-.03.29-.27.15-.42l-10.42-11.04c-.09-.1-.24-.11-.34-.02l-8.87,7.4-1.48,1.24c-.06.05-.1.13-.09.21.16,1.97.33,2.35.35,2.38-.02-.04.08.06.04.04ZM226.99,190.67c.19-1.76.34-5.02.34-9.42,0-4.73-.17-8.15-.38-9.79-.02-.2-.26-.29-.41-.16l-4.2,3.51-5.88,4.91c-.11.09-.12.26-.02.36l10.13,10.73c.15.16.41.07.43-.14ZM204.95,187.7l8.4-7.01,12.12-10.11c.17-.14.09-.42-.13-.44-1.75-.19-5.03-.35-9.46-.35-6.08,0-9.99.29-10.75.57-.06.02-.11.07-.14.14-.5,1.3-.72,10.79-.44,17.02,0,.21.25.31.41.18ZM190.1,172.83c-.09-.09-.24-.09-.33,0l-17.75,14.82c-.1.08-.12.22-.05.33.47.73,1.01,1.42,1.64,2.05,2.25,2.25,5.24,3.49,8.42,3.49s6.17-1.24,8.42-3.49c4.65-4.65,4.65-12.2,0-16.85-.12-.12-.23-.23-.35-.34ZM171.42,186.28l17.1-14.27c.13-.11.12-.31-.02-.4-1.96-1.27-4.22-1.91-6.48-1.91-3.05,0-6.1,1.16-8.42,3.48-2.25,2.25-3.49,5.24-3.49,8.42,0,1.6.32,3.15.92,4.59.07.16.26.2.39.09ZM295.08,190.67c.19-1.76.34-5.02.34-9.42,0-4.73-.17-8.15-.38-9.79-.02-.2-.26-.29-.41-.16l-4.2,3.51-5.88,4.91c-.11.09-.12.26-.02.36l10.13,10.73c.15.16.41.07.43-.14ZM258.54,173.17c-.12-.12-.23-.23-.35-.34-.09-.09-.24-.09-.33,0l-17.75,14.82c-.1.08-.12.22-.05.33.47.73,1.01,1.42,1.64,2.05,2.25,2.25,5.24,3.49,8.42,3.49s6.17-1.24,8.42-3.49c4.65-4.65,4.65-12.2,0-16.85ZM239.51,186.28l17.1-14.27c.13-.11.12-.31-.02-.4-1.96-1.27-4.22-1.91-6.48-1.91-3.05,0-6.1,1.16-8.42,3.48-2.25,2.25-3.49,5.24-3.49,8.42,0,1.6.32,3.15.92,4.59.06.16.26.2.39.09ZM293.97,191.89l-10.42-11.04c-.09-.1-.24-.11-.34-.02l-8.87,7.4-1.48,1.24c-.06.05-.1.13-.09.21.16,1.97.33,2.35.35,2.38-.02-.04.08.06.04.04.55.29,4.53.6,10.82.6,4.79,0,8.24-.18,9.86-.39.2-.03.29-.27.15-.42ZM293.42,170.14c-1.75-.19-5.03-.35-9.46-.35-6.08,0-9.99.29-10.75.57-.06.02-.11.07-.14.14-.5,1.3-.72,10.79-.44,17.02,0,.21.25.31.41.18l8.4-7.01,12.12-10.11c.17-.14.09-.42-.13-.44ZM46.34,213.66c-.11.09-.12.26-.02.36l10.13,10.73c.15.16.41.07.43-.15.19-1.76.34-5.02.34-9.42,0-4.73-.17-8.15-.38-9.79-.03-.2-.26-.29-.41-.16l-4.2,3.51-5.88,4.91ZM55.77,225.83l-10.42-11.04c-.09-.1-.24-.11-.34-.02l-8.87,7.4-1.48,1.24c-.06.05-.1.13-.09.21.16,1.97.33,2.35.35,2.38-.02-.04.08.06.04.04.55.29,4.53.6,10.82.6,4.79,0,8.24-.18,9.86-.39.2-.03.29-.27.15-.42ZM34.84,221.64l8.4-7.01,12.12-10.11c.17-.14.09-.42-.13-.44-1.75-.19-5.03-.35-9.46-.35-6.08,0-9.99.29-10.75.57-.06.02-.11.07-.14.14-.5,1.3-.72,10.79-.44,17.02,0,.21.25.31.41.18ZM123.85,225.83l-10.42-11.04c-.09-.1-.24-.11-.34-.02l-8.87,7.4-1.48,1.24c-.06.05-.1.13-.09.21.16,1.97.33,2.35.35,2.38-.02-.04.08.06.04.04.55.29,4.53.6,10.82.6,4.79,0,8.24-.18,9.86-.39.2-.03.29-.27.15-.42ZM124.51,205.24l-4.2,3.51-5.88,4.91c-.11.09-.12.26-.02.36l10.13,10.73c.15.16.41.07.43-.15.19-1.76.34-5.02.34-9.42,0-4.73-.17-8.15-.38-9.79-.02-.2-.26-.29-.41-.16ZM123.31,204.08c-1.75-.19-5.03-.35-9.46-.35-6.08,0-9.99.29-10.75.57-.06.02-.11.07-.14.14-.5,1.3-.72,10.79-.44,17.02,0,.21.25.31.41.18l8.4-7.01,12.12-10.11c.17-.14.09-.42-.13-.44ZM88.07,206.77c-.09-.09-.24-.09-.33,0l-17.75,14.82c-.1.08-.12.22-.05.33.47.73,1.01,1.42,1.64,2.05,2.25,2.25,5.24,3.49,8.42,3.49s6.17-1.24,8.42-3.49c4.65-4.65,4.65-12.2,0-16.85-.12-.12-.23-.23-.35-.34ZM69.4,220.22l17.1-14.27c.13-.11.12-.31-.02-.4-1.96-1.27-4.22-1.91-6.48-1.91-3.05,0-6.1,1.16-8.42,3.48-2.25,2.25-3.49,5.24-3.49,8.42,0,1.6.32,3.15.92,4.59.06.16.26.2.39.09ZM156.16,206.77c-.09-.09-.24-.09-.33,0l-17.75,14.82c-.1.08-.12.22-.05.33.47.73,1.01,1.42,1.64,2.05,2.25,2.25,5.24,3.49,8.42,3.49s6.17-1.24,8.42-3.49c4.65-4.65,4.65-12.2,0-16.85-.12-.12-.23-.23-.35-.34ZM154.57,205.54c-1.96-1.27-4.22-1.91-6.48-1.91-3.05,0-6.1,1.16-8.42,3.48s-3.49,5.24-3.49,8.42c0,1.6.32,3.16.92,4.59.07.16.26.2.39.09l17.1-14.27c.13-.11.12-.31-.02-.4ZM261.14,224.6c.19-1.76.34-5.02.34-9.42,0-4.73-.17-8.15-.38-9.79-.02-.2-.26-.29-.41-.16l-4.2,3.51-5.88,4.91c-.11.09-.12.26-.02.36l10.13,10.73c.15.16.41.07.43-.15ZM239.2,226.05c.55.29,4.53.6,10.82.6,4.79,0,8.24-.18,9.86-.39.2-.03.29-.27.15-.42l-10.42-11.04c-.09-.1-.24-.11-.34-.02l-8.87,7.4-1.48,1.24c-.06.05-.1.13-.09.21.16,1.97.33,2.35.35,2.38-.02-.04.08.06.04.04ZM239.1,221.64l8.4-7.01,12.12-10.11c.17-.14.09-.42-.13-.44-1.75-.19-5.03-.35-9.46-.35-6.08,0-9.99.29-10.75.57-.06.02-.11.07-.14.14-.5,1.3-.72,10.79-.44,17.02,0,.21.25.31.41.18ZM224.25,206.77c-.09-.09-.24-.09-.33,0l-17.75,14.82c-.1.08-.12.22-.05.33.47.73,1.01,1.42,1.64,2.05,2.25,2.25,5.24,3.49,8.42,3.49s6.17-1.24,8.42-3.49c4.65-4.65,4.65-12.2,0-16.85-.12-.12-.23-.23-.35-.34ZM205.57,220.22l17.1-14.27c.13-.11.12-.31-.02-.4-1.96-1.27-4.22-1.91-6.48-1.91-3.05,0-6.1,1.16-8.42,3.48-2.25,2.25-3.49,5.24-3.49,8.42,0,1.6.32,3.15.92,4.59.06.16.26.2.39.09ZM292.34,206.77c-.09-.09-.24-.09-.33,0l-17.75,14.82c-.1.08-.12.22-.05.33.47.73,1.01,1.42,1.64,2.05,2.25,2.25,5.24,3.49,8.42,3.49s6.17-1.24,8.42-3.49c4.65-4.65,4.65-12.2,0-16.85-.12-.12-.23-.23-.35-.34ZM290.74,205.54c-1.96-1.27-4.22-1.91-6.48-1.91-3.05,0-6.1,1.16-8.42,3.48-2.25,2.25-3.49,5.24-3.49,8.42,0,1.6.32,3.15.92,4.59.06.16.26.2.39.09l17.1-14.27c.13-.11.12-.31-.02-.4ZM21.62,259.77l-10.42-11.04c-.09-.1-.24-.11-.34-.02l-8.87,7.4-1.48,1.24c-.06.05-.1.13-.09.21.16,1.97.33,2.35.35,2.38-.02-.04.08.06.04.04.55.29,4.53.6,10.82.6,4.79,0,8.24-.18,9.86-.39.2-.03.29-.27.15-.42ZM12.19,247.59c-.11.09-.12.26-.02.36l10.13,10.73c.15.16.41.07.43-.14.19-1.76.34-5.02.34-9.42,0-4.73-.17-8.15-.38-9.79-.02-.2-.26-.29-.41-.16l-4.2,3.51-5.88,4.91ZM.69,255.58l8.4-7.01,12.12-10.11c.17-.14.09-.42-.13-.44-1.75-.19-5.03-.34-9.46-.34-6.08,0-9.99.29-10.75.57-.06.02-.11.07-.14.14-.5,1.3-.72,10.79-.44,17.02,0,.21.25.31.41.18ZM54.28,241.05c-.12-.12-.23-.23-.35-.34-.09-.09-.24-.09-.33,0l-17.75,14.82c-.1.08-.12.22-.05.33.47.73,1.01,1.42,1.64,2.05,2.25,2.25,5.24,3.49,8.42,3.49s6.17-1.24,8.42-3.49c4.65-4.65,4.65-12.2,0-16.85ZM35.25,254.15l17.1-14.27c.13-.11.12-.31-.02-.4-1.96-1.27-4.22-1.91-6.48-1.91-3.05,0-6.1,1.16-8.42,3.48-2.25,2.25-3.49,5.24-3.49,8.42,0,1.6.32,3.15.92,4.59.06.16.26.2.39.09ZM90.81,258.54c.19-1.76.34-5.02.34-9.42,0-4.73-.17-8.15-.38-9.79-.02-.2-.26-.29-.41-.16l-4.2,3.51-5.88,4.91c-.11.09-.12.26-.02.36l10.13,10.73c.15.16.41.07.43-.14ZM78.94,248.71l-8.87,7.4-1.48,1.24c-.06.05-.1.13-.09.21.16,1.97.33,2.35.35,2.38-.02-.04.08.06.04.04.55.29,4.53.6,10.82.6,4.79,0,8.24-.18,9.86-.39.2-.03.29-.27.15-.42l-10.42-11.04c-.09-.1-.24-.11-.34-.02ZM89.16,238.01c-1.75-.19-5.03-.34-9.46-.34-6.08,0-9.99.29-10.75.57-.06.02-.11.07-.14.14-.5,1.3-.72,10.79-.44,17.02,0,.21.25.31.41.18l8.4-7.01,12.12-10.11c.17-.14.09-.42-.13-.44ZM122.36,241.05c-.12-.12-.23-.23-.35-.34-.09-.09-.24-.09-.33,0l-17.75,14.82c-.1.08-.12.22-.05.33.47.73,1.01,1.42,1.64,2.05,2.25,2.25,5.24,3.49,8.42,3.49s6.17-1.24,8.42-3.49c4.65-4.65,4.65-12.2,0-16.85ZM103.33,254.15l17.1-14.27c.13-.11.12-.31-.02-.4-1.96-1.27-4.22-1.91-6.48-1.91-3.05,0-6.1,1.16-8.42,3.48-2.25,2.25-3.49,5.24-3.49,8.42,0,1.6.32,3.15.92,4.59.06.16.26.2.39.09ZM225.34,238.01c-1.75-.19-5.03-.34-9.46-.34-6.08,0-9.99.29-10.75.57-.06.02-.11.07-.14.14-.5,1.3-.72,10.79-.44,17.02,0,.21.25.31.41.18l8.4-7.01,12.12-10.11c.17-.14.09-.42-.13-.44ZM215.11,248.71l-8.87,7.4-1.48,1.24c-.06.05-.1.13-.09.21.16,1.97.33,2.35.35,2.38-.02-.04.08.06.04.04.55.29,4.53.6,10.82.6,4.79,0,8.24-.18,9.86-.39.2-.03.29-.27.15-.42l-10.42-11.04c-.09-.1-.24-.11-.34-.02ZM226.99,258.54c.19-1.76.34-5.02.34-9.42,0-4.73-.17-8.15-.38-9.79-.02-.2-.26-.29-.41-.16l-4.2,3.51-5.88,4.91c-.11.09-.12.26-.02.36l10.13,10.73c.15.16.41.07.43-.14ZM295.08,258.54c.19-1.76.34-5.02.34-9.42,0-4.73-.17-8.15-.38-9.79-.02-.2-.26-.29-.41-.16l-4.2,3.51-5.88,4.91c-.11.09-.12.26-.02.36l10.13,10.73c.15.16.41.07.43-.14ZM293.97,259.77l-10.42-11.04c-.09-.1-.24-.11-.34-.02l-8.87,7.4-1.48,1.24c-.06.05-.1.13-.09.21.16,1.97.33,2.35.35,2.38-.02-.04.08.06.04.04.55.29,4.53.6,10.82.6,4.79,0,8.24-.18,9.86-.39.2-.03.29-.27.15-.42ZM293.42,238.01c-1.75-.19-5.03-.34-9.46-.34-6.08,0-9.99.29-10.75.57-.06.02-.11.07-.14.14-.5,1.3-.72,10.79-.44,17.02,0,.21.25.31.41.18l8.4-7.01,12.12-10.11c.17-.14.09-.42-.13-.44ZM258.19,240.71c-.09-.09-.24-.09-.33,0l-17.75,14.82c-.1.08-.12.22-.05.33.47.73,1.01,1.42,1.64,2.05,2.25,2.25,5.24,3.49,8.42,3.49s6.17-1.24,8.42-3.49c4.65-4.65,4.65-12.2,0-16.85-.12-.12-.23-.23-.35-.34ZM239.51,254.15l17.1-14.27c.13-.11.12-.31-.02-.4-1.96-1.27-4.22-1.91-6.48-1.91-3.05,0-6.1,1.16-8.42,3.48-2.25,2.25-3.49,5.24-3.49,8.42,0,1.6.32,3.15.92,4.59.06.16.26.2.39.09ZM55.22,271.95c-1.75-.19-5.03-.35-9.46-.35-6.08,0-9.99.29-10.75.57-.06.02-.11.07-.14.14-.5,1.3-.72,10.79-.44,17.02,0,.21.25.31.41.18l8.4-7.01,12.12-10.11c.17-.14.09-.42-.13-.44ZM46.34,281.53c-.11.09-.12.26-.02.36l10.13,10.73c.15.16.41.07.43-.14.19-1.76.34-5.02.34-9.42,0-4.73-.17-8.15-.38-9.79-.03-.2-.26-.29-.41-.16l-4.2,3.51-5.88,4.91ZM34.94,293.92c.55.29,4.53.6,10.82.6,4.79,0,8.24-.18,9.86-.39.2-.03.29-.27.15-.42l-10.42-11.04c-.09-.1-.24-.11-.34-.02l-8.87,7.4-1.48,1.24c-.06.05-.1.13-.09.21.16,1.97.33,2.35.35,2.38-.02-.04.08.06.04.04ZM20.34,274.98c-.12-.12-.23-.23-.35-.34-.09-.09-.24-.09-.33,0l-17.75,14.82c-.1.08-.12.22-.05.33.47.73,1.01,1.42,1.64,2.05,2.25,2.25,5.24,3.49,8.42,3.49s6.17-1.24,8.42-3.49c4.65-4.65,4.65-12.2,0-16.85ZM1.31,288.09l17.1-14.27c.13-.11.12-.31-.02-.4-1.96-1.27-4.22-1.91-6.48-1.91-3.05,0-6.1,1.16-8.42,3.48-2.25,2.25-3.49,5.24-3.49,8.42,0,1.6.32,3.15.92,4.59.07.16.26.2.39.09ZM88.07,274.65c-.09-.09-.24-.09-.33,0l-17.75,14.82c-.1.08-.12.22-.05.33.47.73,1.01,1.42,1.64,2.05,2.25,2.25,5.24,3.49,8.42,3.49s6.17-1.24,8.42-3.49c4.65-4.65,4.65-12.2,0-16.85-.12-.12-.23-.23-.35-.34ZM69.4,288.09l17.1-14.27c.13-.11.12-.31-.02-.4-1.96-1.27-4.22-1.91-6.48-1.91-3.05,0-6.1,1.16-8.42,3.48s-3.49,5.24-3.49,8.42c0,1.6.32,3.15.92,4.59.06.16.26.2.39.09ZM224.25,274.65c-.09-.09-.24-.09-.33,0l-17.75,14.82c-.1.08-.12.22-.05.33.47.73,1.01,1.42,1.64,2.05,2.25,2.25,5.24,3.49,8.42,3.49s6.17-1.24,8.42-3.49c4.65-4.65,4.65-12.2,0-16.85-.12-.12-.23-.23-.35-.34ZM205.57,288.09l17.1-14.27c.13-.11.12-.31-.02-.4-1.96-1.27-4.22-1.91-6.48-1.91-3.05,0-6.1,1.16-8.42,3.48-2.25,2.25-3.49,5.24-3.49,8.42,0,1.6.32,3.16.92,4.59.06.16.26.2.39.09ZM259.49,271.95c-1.75-.19-5.03-.35-9.46-.35-6.08,0-9.99.29-10.75.57-.06.02-.11.07-.14.14-.5,1.3-.72,10.79-.44,17.02,0,.21.25.31.41.18l8.4-7.01,12.12-10.11c.17-.14.09-.42-.13-.44ZM261.14,292.48c.19-1.76.34-5.02.34-9.42,0-4.73-.17-8.15-.38-9.79-.02-.2-.26-.29-.41-.16l-4.2,3.51-5.88,4.91c-.11.09-.12.26-.02.36l10.13,10.73c.15.16.41.07.43-.14ZM249.26,282.65l-8.87,7.4-1.48,1.24c-.06.05-.1.13-.09.21.16,1.97.33,2.35.35,2.38-.02-.04.08.06.04.04.55.29,4.53.6,10.82.6,4.79,0,8.24-.18,9.86-.39.2-.03.29-.27.15-.42l-10.42-11.04c-.09-.1-.24-.11-.34-.02ZM292.34,274.65c-.09-.09-.24-.09-.33,0l-17.75,14.82c-.1.08-.12.22-.05.33.47.73,1.01,1.42,1.64,2.05,2.25,2.25,5.24,3.49,8.42,3.49s6.17-1.24,8.42-3.49c4.65-4.65,4.65-12.2,0-16.85-.12-.12-.23-.23-.35-.34ZM290.74,273.41c-1.96-1.27-4.22-1.91-6.48-1.91-3.05,0-6.1,1.16-8.42,3.48-2.25,2.25-3.49,5.24-3.49,8.42,0,1.6.32,3.15.92,4.59.06.16.26.2.39.09l17.1-14.27c.13-.11.12-.31-.02-.4ZM.69,323.45l8.4-7.01,12.12-10.11c.17-.14.09-.42-.13-.44-1.75-.19-5.03-.35-9.46-.35-6.08,0-9.99.29-10.75.57-.06.02-.11.07-.14.14-.5,1.3-.72,10.79-.44,17.02,0,.21.25.31.41.18ZM22.73,326.42c.19-1.76.34-5.02.34-9.42,0-4.73-.17-8.15-.38-9.79-.02-.2-.26-.29-.41-.16l-4.2,3.51-5.88,4.91c-.11.09-.12.26-.02.36l10.13,10.73c.15.16.41.07.43-.14ZM.79,327.86c.55.29,4.53.6,10.82.6,4.79,0,8.24-.18,9.86-.39.2-.03.29-.27.15-.42l-10.42-11.04c-.09-.1-.24-.11-.34-.02l-8.87,7.4-1.48,1.24c-.06.05-.1.13-.09.21.16,1.97.33,2.35.35,2.38-.02-.04.08.06.04.04ZM54.28,308.92c-.12-.12-.23-.23-.35-.34-.09-.08-.24-.09-.33,0l-17.75,14.82c-.1.08-.12.22-.05.33.47.73,1.01,1.42,1.64,2.05,2.25,2.25,5.24,3.49,8.42,3.49s6.17-1.24,8.42-3.49c4.65-4.65,4.65-12.2,0-16.85ZM35.25,322.03l17.1-14.27c.13-.11.12-.31-.02-.4-1.96-1.27-4.22-1.91-6.48-1.91-3.05,0-6.1,1.16-8.42,3.48s-3.49,5.24-3.49,8.42c0,1.6.32,3.15.92,4.59.06.16.26.2.39.09ZM89.16,305.89c-1.75-.19-5.03-.35-9.46-.35-6.08,0-9.99.29-10.75.57-.06.02-.11.07-.14.14-.5,1.3-.72,10.79-.44,17.02,0,.21.25.31.41.18l8.4-7.01,12.12-10.11c.17-.14.09-.42-.13-.44ZM78.94,316.59l-8.87,7.4-1.48,1.24c-.06.05-.1.13-.09.21.16,1.97.33,2.35.35,2.38-.02-.04.08.06.04.04.55.29,4.53.6,10.82.6,4.79,0,8.24-.18,9.86-.39.2-.03.29-.27.15-.42l-10.42-11.04c-.09-.1-.24-.11-.34-.02ZM90.81,326.42c.19-1.76.34-5.02.34-9.42,0-4.73-.17-8.15-.38-9.79-.02-.2-.26-.29-.41-.16l-4.2,3.51-5.88,4.91c-.11.09-.12.26-.02.36l10.13,10.73c.15.16.41.07.43-.14ZM147.03,316.59l-8.87,7.4-1.48,1.24c-.06.05-.1.13-.09.21.16,1.97.33,2.35.35,2.38-.02-.04.08.06.04.04.55.29,4.53.6,10.82.6,4.79,0,8.24-.18,9.86-.39.2-.03.29-.27.15-.42l-10.42-11.04c-.09-.1-.24-.11-.34-.02ZM122.36,308.92c-.12-.12-.23-.23-.35-.34-.09-.08-.24-.09-.33,0l-17.75,14.82c-.1.08-.12.22-.05.33.47.73,1.01,1.42,1.64,2.05,2.25,2.25,5.24,3.49,8.42,3.49s6.17-1.24,8.42-3.49c4.65-4.65,4.65-12.2,0-16.85ZM103.33,322.03l17.1-14.27c.13-.11.12-.31-.02-.4-1.96-1.27-4.22-1.91-6.48-1.91-3.05,0-6.1,1.16-8.42,3.48-2.25,2.25-3.49,5.24-3.49,8.42,0,1.6.32,3.15.92,4.59.06.16.26.2.39.09ZM158.9,326.42c.19-1.76.34-5.02.34-9.42,0-4.73-.17-8.15-.38-9.79-.03-.2-.26-.29-.41-.16l-4.2,3.51-5.88,4.91c-.11.09-.12.26-.02.36l10.13,10.73c.15.16.41.07.43-.14ZM157.25,305.89c-1.75-.19-5.03-.35-9.46-.35-6.08,0-9.99.29-10.75.57-.06.02-.11.07-.14.14-.5,1.3-.72,10.79-.44,17.02,0,.21.25.31.41.18l8.4-7.01,12.12-10.11c.17-.14.09-.42-.13-.44ZM225.34,305.89c-1.75-.19-5.03-.35-9.46-.35-6.08,0-9.99.29-10.75.57-.06.02-.11.07-.14.14-.5,1.3-.72,10.79-.44,17.02,0,.21.25.31.41.18l8.4-7.01,12.12-10.11c.17-.14.09-.42-.13-.44ZM226.99,326.42c.19-1.76.34-5.02.34-9.42,0-4.73-.17-8.15-.38-9.79-.02-.2-.26-.29-.41-.16l-4.2,3.51-5.88,4.91c-.11.09-.12.26-.02.36l10.13,10.73c.15.16.41.07.43-.14ZM215.11,316.59l-8.87,7.4-1.48,1.24c-.06.05-.1.13-.09.21.16,1.97.33,2.35.35,2.38-.02-.04.08.06.04.04.55.29,4.53.6,10.82.6,4.79,0,8.24-.18,9.86-.39.2-.03.29-.27.15-.42l-10.42-11.04c-.09-.1-.24-.11-.34-.02ZM190.1,308.58c-.09-.08-.24-.09-.33,0l-17.75,14.82c-.1.08-.12.22-.05.33.47.73,1.01,1.42,1.64,2.05,2.25,2.25,5.24,3.49,8.42,3.49s6.17-1.24,8.42-3.49c4.65-4.65,4.65-12.2,0-16.85-.12-.12-.23-.23-.35-.34ZM171.42,322.03l17.1-14.27c.13-.11.12-.31-.02-.4-1.96-1.27-4.22-1.91-6.48-1.91-3.05,0-6.1,1.16-8.42,3.48-2.25,2.25-3.49,5.24-3.49,8.42,0,1.6.32,3.15.92,4.59.06.16.26.2.39.09ZM295.08,326.42c.19-1.76.34-5.02.34-9.42,0-4.73-.17-8.15-.38-9.79-.02-.2-.26-.29-.41-.16l-4.2,3.51-5.88,4.91c-.11.09-.12.26-.02.36l10.13,10.73c.15.16.41.07.43-.14ZM283.2,316.59l-8.87,7.4-1.48,1.24c-.06.05-.1.13-.09.21.16,1.97.33,2.35.35,2.38-.02-.04.08.06.04.04.55.29,4.53.6,10.82.6,4.79,0,8.24-.18,9.86-.39.2-.03.29-.27.15-.42l-10.42-11.04c-.09-.1-.24-.11-.34-.02ZM293.42,305.89c-1.75-.19-5.03-.35-9.46-.35-6.08,0-9.99.29-10.75.57-.06.02-.11.07-.14.14-.5,1.3-.72,10.79-.44,17.02,0,.21.25.31.41.18l8.4-7.01,12.12-10.11c.17-.14.09-.42-.13-.44ZM258.19,308.58c-.09-.08-.24-.09-.33,0l-17.75,14.82c-.1.08-.12.22-.05.33.47.73,1.01,1.42,1.64,2.05,2.25,2.25,5.24,3.49,8.42,3.49s6.17-1.24,8.42-3.49c4.65-4.65,4.65-12.2,0-16.85-.12-.12-.23-.23-.35-.34ZM239.51,322.03l17.1-14.27c.13-.11.12-.31-.02-.4-1.96-1.27-4.22-1.91-6.48-1.91-3.05,0-6.1,1.16-8.42,3.48-2.25,2.25-3.49,5.24-3.49,8.42,0,1.6.32,3.15.92,4.59.06.16.26.2.39.09ZM308.32,323.7c.47.73,1.01,1.42,1.64,2.05,2.25,2.25,5.24,3.49,8.42,3.49s6.17-1.24,8.42-3.49c4.65-4.65,4.65-12.2,0-16.85-.12-.12-.23-.23-.35-.34-.09-.09-.24-.09-.33,0l-17.75,14.82c-.1.08-.12.22-.05.33ZM307.78,322.01l17.1-14.27c.13-.11.12-.31-.02-.4-1.96-1.27-4.22-1.91-6.48-1.91-3.05,0-6.1,1.16-8.42,3.48-2.25,2.25-3.49,5.24-3.49,8.42,0,1.6.32,3.15.92,4.59.06.16.26.2.39.09ZM34.94,361.8c.55.29,4.53.6,10.82.6,4.79,0,8.24-.18,9.86-.39.2-.03.29-.27.15-.42l-10.42-11.04c-.09-.1-.24-.11-.34-.02l-8.87,7.4-1.48,1.24c-.06.05-.1.13-.09.21.16,1.97.33,2.35.35,2.38-.02-.04.08.06.04.04ZM56.88,360.35c.19-1.76.34-5.02.34-9.42,0-4.73-.17-8.15-.38-9.79-.03-.2-.26-.29-.41-.16l-4.2,3.51-5.88,4.91c-.11.09-.12.26-.02.36l10.13,10.73c.15.16.41.07.43-.14ZM34.84,357.39l8.4-7.01,12.12-10.11c.17-.14.09-.42-.13-.44-1.75-.19-5.03-.34-9.46-.34-6.08,0-9.99.29-10.75.57-.06.02-.11.07-.14.14-.5,1.3-.72,10.79-.44,17.02,0,.21.25.31.41.18ZM19.98,342.52c-.09-.08-.24-.09-.33,0l-17.75,14.82c-.1.08-.12.22-.05.33.47.73,1.01,1.42,1.64,2.05,2.25,2.25,5.24,3.49,8.42,3.49s6.17-1.24,8.42-3.49c4.65-4.65,4.65-12.2,0-16.85-.12-.12-.23-.23-.35-.34ZM1.31,355.97l17.1-14.27c.13-.11.12-.31-.02-.4-1.96-1.27-4.22-1.91-6.48-1.91-3.05,0-6.1,1.16-8.42,3.48S0,348.1,0,351.28c0,1.6.32,3.16.92,4.59.06.16.26.2.39.09ZM102.93,357.39l8.4-7.01,12.12-10.11c.17-.14.09-.42-.13-.44-1.75-.19-5.03-.34-9.46-.34-6.08,0-9.99.29-10.75.57-.06.02-.11.07-.14.14-.5,1.3-.72,10.79-.44,17.02,0,.21.25.31.41.18ZM124.96,360.35c.19-1.76.34-5.02.34-9.42,0-4.73-.17-8.15-.38-9.79-.02-.2-.26-.29-.41-.16l-4.2,3.51-5.88,4.91c-.11.09-.12.26-.02.36l10.13,10.73c.15.16.41.07.43-.14ZM88.07,342.52c-.09-.09-.24-.09-.33,0l-17.75,14.82c-.1.08-.12.22-.05.33.47.73,1.01,1.42,1.64,2.05,2.25,2.25,5.24,3.49,8.42,3.49s6.17-1.24,8.42-3.49c4.65-4.65,4.65-12.2,0-16.85-.12-.12-.23-.23-.35-.34ZM69.4,355.97l17.1-14.27c.13-.11.12-.31-.02-.4-1.96-1.27-4.22-1.91-6.48-1.91-3.05,0-6.1,1.16-8.42,3.48-2.25,2.25-3.49,5.24-3.49,8.42,0,1.6.32,3.16.92,4.59.06.16.26.2.39.09ZM103.03,361.8c.55.29,4.53.6,10.82.6,4.79,0,8.24-.18,9.86-.39.2-.03.29-.27.15-.42l-10.42-11.04c-.09-.1-.24-.11-.34-.02l-8.87,7.4-1.48,1.24c-.06.05-.1.13-.09.21.16,1.97.33,2.35.35,2.38-.02-.04.08.06.04.04ZM156.16,342.52c-.09-.09-.24-.09-.33,0l-17.75,14.82c-.1.08-.12.22-.05.33.47.73,1.01,1.42,1.64,2.05,2.25,2.25,5.24,3.49,8.42,3.49s6.17-1.24,8.42-3.49c4.65-4.65,4.65-12.2,0-16.85-.12-.12-.23-.23-.35-.34ZM137.49,355.97l17.1-14.27c.13-.11.12-.31-.02-.4-1.96-1.27-4.22-1.91-6.48-1.91-3.05,0-6.1,1.16-8.42,3.48-2.25,2.25-3.49,5.24-3.49,8.42,0,1.6.32,3.15.92,4.59.07.16.26.2.39.09ZM181.18,350.52l-8.87,7.4-1.48,1.24c-.06.05-.1.13-.09.21.16,1.97.33,2.35.35,2.38-.02-.04.08.06.04.04.55.29,4.53.6,10.82.6,4.79,0,8.24-.18,9.86-.39.2-.03.29-.27.15-.42l-10.42-11.04c-.09-.1-.24-.11-.34-.02ZM193.05,360.35c.19-1.76.34-5.02.34-9.42,0-4.73-.17-8.15-.38-9.79-.02-.2-.26-.29-.41-.16l-4.2,3.51-5.88,4.91c-.11.09-.12.26-.02.36l10.13,10.73c.15.16.41.07.43-.14ZM191.4,339.83c-1.75-.19-5.03-.34-9.46-.34-6.08,0-9.99.29-10.75.57-.06.02-.11.07-.14.14-.5,1.3-.72,10.79-.44,17.02,0,.21.25.31.41.18l8.4-7.01,12.12-10.11c.17-.14.09-.42-.13-.44ZM224.25,342.52c-.09-.08-.24-.09-.33,0l-17.75,14.82c-.1.08-.12.22-.05.33.47.73,1.01,1.42,1.64,2.05,2.25,2.25,5.24,3.49,8.42,3.49s6.17-1.24,8.42-3.49c4.65-4.65,4.65-12.2,0-16.85-.12-.12-.23-.23-.35-.34ZM205.57,355.97l17.1-14.27c.13-.11.12-.31-.02-.4-1.96-1.27-4.22-1.91-6.48-1.91-3.05,0-6.1,1.16-8.42,3.48-2.25,2.25-3.49,5.24-3.49,8.42,0,1.6.32,3.15.92,4.59.06.16.26.2.39.09ZM260.03,361.58l-10.42-11.04c-.09-.1-.24-.11-.34-.02l-8.87,7.4-1.48,1.24c-.06.05-.1.13-.09.21.16,1.97.33,2.35.35,2.38-.02-.04.08.06.04.04.55.29,4.53.6,10.82.6,4.79,0,8.24-.18,9.86-.39.2-.03.29-.27.15-.42ZM259.49,339.83c-1.75-.19-5.03-.34-9.46-.34-6.08,0-9.99.29-10.75.57-.06.02-.11.07-.14.14-.5,1.3-.72,10.79-.44,17.02,0,.21.25.31.41.18l8.4-7.01,12.12-10.11c.17-.14.09-.42-.13-.44ZM260.69,340.99l-4.2,3.51-5.88,4.91c-.11.09-.12.26-.02.36l10.13,10.73c.15.16.41.07.43-.14.19-1.76.34-5.02.34-9.42,0-4.73-.17-8.15-.38-9.79-.02-.2-.26-.29-.41-.16ZM315.5,350.38l12.12-10.11c.17-.14.09-.42-.13-.44-1.75-.19-5.03-.34-9.46-.34-6.08,0-9.99.29-10.75.57-.06.02-.11.07-.14.14-.5,1.3-.72,10.79-.44,17.02,0,.21.25.31.41.18l8.4-7.01ZM329.14,360.35c.19-1.76.34-5.02.34-9.42,0-4.73-.17-8.15-.38-9.79-.02-.2-.26-.29-.41-.16l-4.2,3.51-5.88,4.91c-.11.09-.12.26-.02.36l10.13,10.73c.15.16.41.07.43-.14ZM292.34,342.52c-.09-.09-.24-.09-.33,0l-17.75,14.82c-.1.08-.12.22-.05.33.47.73,1.01,1.42,1.64,2.05,2.25,2.25,5.24,3.49,8.42,3.49,3.18,0,6.17-1.24,8.42-3.49,4.65-4.65,4.65-12.2,0-16.85-.12-.12-.23-.23-.35-.34ZM273.66,355.97l17.1-14.27c.13-.11.12-.31-.02-.4-1.96-1.27-4.22-1.91-6.48-1.91-3.05,0-6.1,1.16-8.42,3.48-2.25,2.25-3.49,5.24-3.49,8.42,0,1.6.32,3.15.92,4.59.06.16.26.2.39.09ZM307.29,361.8c.55.29,4.53.6,10.82.6,4.79,0,8.24-.18,9.86-.39.2-.03.29-.27.15-.42l-10.42-11.04c-.09-.1-.24-.11-.34-.02l-8.87,7.4-1.48,1.24c-.06.05-.1.13-.09.21.16,1.97.33,2.35.35,2.38-.02-.04.08.06.04.04ZM.69,391.33l8.4-7.01,12.12-10.11c.17-.14.09-.42-.13-.44-1.75-.19-5.03-.35-9.46-.35-6.08,0-9.99.29-10.75.57-.06.02-.11.07-.14.14-.5,1.3-.72,10.79-.44,17.02,0,.21.25.31.41.18ZM11.19,384.48c-.09-.1-.24-.11-.34-.02l-8.87,7.4-1.48,1.24c-.06.05-.1.13-.09.21.16,1.97.33,2.35.35,2.38-.02-.04.08.06.04.04.55.29,4.53.6,10.82.6,4.79,0,8.24-.18,9.86-.39.2-.03.29-.27.15-.42l-10.42-11.04ZM22.27,374.93l-4.2,3.51-5.88,4.91c-.11.09-.12.26-.02.36l10.13,10.73c.15.16.41.07.43-.14.19-1.76.34-5.02.34-9.42,0-4.73-.17-8.15-.38-9.79-.02-.2-.26-.29-.41-.16ZM79.28,384.48c-.09-.1-.24-.11-.34-.02l-8.87,7.4-1.48,1.24c-.06.05-.1.13-.09.21.16,1.97.33,2.35.35,2.38-.02-.04.08.06.04.04.55.29,4.53.6,10.82.6,4.79,0,8.24-.18,9.86-.39.2-.03.29-.27.15-.42l-10.42-11.04ZM90.36,374.93l-4.2,3.51-5.88,4.91c-.11.09-.12.26-.02.36l10.13,10.73c.15.16.41.07.43-.14.19-1.76.34-5.02.34-9.42,0-4.73-.17-8.15-.38-9.79-.02-.2-.26-.29-.41-.16ZM53.92,376.46c-.09-.09-.24-.09-.33,0l-17.75,14.82c-.1.08-.12.22-.05.33.47.73,1.01,1.42,1.64,2.05,2.25,2.25,5.24,3.49,8.42,3.49s6.17-1.24,8.42-3.49c4.65-4.65,4.65-12.2,0-16.85-.12-.12-.23-.23-.35-.34ZM52.33,375.23c-1.96-1.27-4.22-1.91-6.48-1.91-3.05,0-6.1,1.16-8.42,3.48-2.25,2.25-3.49,5.24-3.49,8.42,0,1.6.32,3.15.92,4.59.06.16.26.2.39.09l17.1-14.27c.13-.11.12-.31-.02-.4ZM68.78,391.33l8.4-7.01,12.12-10.11c.17-.14.09-.42-.13-.44-1.75-.19-5.03-.35-9.46-.35-6.08,0-9.99.29-10.75.57-.06.02-.11.07-.14.14-.5,1.3-.72,10.79-.44,17.02,0,.21.25.31.41.18ZM122.01,376.46c-.09-.09-.24-.09-.33,0l-17.75,14.82c-.1.08-.12.22-.05.33.47.73,1.01,1.42,1.64,2.05,2.25,2.25,5.24,3.49,8.42,3.49s6.17-1.24,8.42-3.49c4.65-4.65,4.65-12.2,0-16.85-.12-.12-.23-.23-.35-.34ZM120.42,375.23c-1.96-1.27-4.22-1.91-6.48-1.91-3.05,0-6.1,1.16-8.42,3.48-2.25,2.25-3.49,5.24-3.49,8.42,0,1.6.32,3.15.92,4.59.07.16.26.2.39.09l17.1-14.27c.13-.11.12-.31-.02-.4ZM136.87,391.33l8.4-7.01,12.12-10.11c.17-.14.09-.42-.13-.44-1.75-.19-5.03-.35-9.46-.35-6.08,0-9.99.29-10.75.57-.06.02-.11.07-.14.14-.5,1.3-.72,10.79-.44,17.02,0,.21.25.31.41.18ZM147.37,384.48c-.09-.1-.24-.11-.34-.02l-8.87,7.4-1.48,1.24c-.06.05-.1.13-.09.21.16,1.97.33,2.35.35,2.38-.02-.04.08.06.04.04.55.29,4.53.6,10.82.6,4.79,0,8.24-.18,9.86-.39.2-.03.29-.27.15-.42l-10.42-11.04ZM158.45,374.93l-4.2,3.51-5.88,4.91c-.11.09-.12.26-.02.36l10.13,10.73c.15.16.41.07.43-.14.19-1.76.34-5.02.34-9.42,0-4.73-.17-8.15-.38-9.79-.03-.2-.26-.29-.41-.16ZM190.1,376.46c-.09-.09-.24-.09-.33,0l-17.75,14.82c-.1.08-.12.22-.05.33.47.73,1.01,1.42,1.64,2.05,2.25,2.25,5.24,3.49,8.42,3.49s6.17-1.24,8.42-3.49c4.65-4.65,4.65-12.2,0-16.85-.12-.12-.23-.23-.35-.34ZM188.51,375.23c-1.96-1.27-4.22-1.91-6.48-1.91-3.05,0-6.1,1.16-8.42,3.48-2.25,2.25-3.49,5.24-3.49,8.42,0,1.6.32,3.15.92,4.59.06.16.26.2.39.09l17.1-14.27c.13-.11.12-.31-.02-.4ZM225.34,373.77c-1.75-.19-5.03-.35-9.46-.35-6.08,0-9.99.29-10.75.57-.06.02-.11.07-.14.14-.5,1.3-.72,10.79-.44,17.02,0,.21.25.31.41.18l8.4-7.01,12.12-10.11c.17-.14.09-.42-.13-.44ZM215.11,384.46l-8.87,7.4-1.48,1.24c-.06.05-.1.13-.09.21.16,1.97.33,2.35.35,2.38-.02-.04.08.06.04.04.55.29,4.53.6,10.82.6,4.79,0,8.24-.18,9.86-.39.2-.03.29-.27.15-.42l-10.42-11.04c-.09-.1-.24-.11-.34-.02ZM226.99,394.29c.19-1.76.34-5.02.34-9.42,0-4.73-.17-8.15-.38-9.79-.02-.2-.26-.29-.41-.16l-4.2,3.51-5.88,4.91c-.11.09-.12.26-.02.36l10.13,10.73c.15.16.41.07.43-.14ZM283.2,384.46l-8.87,7.4-1.48,1.24c-.06.05-.1.13-.09.21.16,1.97.33,2.35.35,2.38-.02-.04.08.06.04.04.55.29,4.53.6,10.82.6,4.79,0,8.24-.18,9.86-.39.2-.03.29-.27.15-.42l-10.42-11.04c-.09-.1-.24-.11-.34-.02ZM258.54,376.8c-.12-.12-.23-.23-.35-.34-.09-.09-.24-.09-.33,0l-17.75,14.82c-.1.08-.12.22-.05.33.47.73,1.01,1.42,1.64,2.05,2.25,2.25,5.24,3.49,8.42,3.49s6.17-1.24,8.42-3.49c4.65-4.65,4.65-12.2,0-16.85ZM239.51,389.91l17.1-14.27c.13-.11.12-.31-.02-.4-1.96-1.27-4.22-1.91-6.48-1.91-3.05,0-6.1,1.16-8.42,3.48s-3.49,5.24-3.49,8.42c0,1.6.32,3.16.92,4.59.06.16.26.2.39.09ZM295.08,394.29c.19-1.76.34-5.02.34-9.42,0-4.73-.17-8.15-.38-9.79-.02-.2-.26-.29-.41-.16l-4.2,3.51-5.88,4.91c-.11.09-.12.26-.02.36l10.13,10.73c.15.16.41.07.43-.14ZM293.42,373.77c-1.75-.19-5.03-.35-9.46-.35-6.08,0-9.99.29-10.75.57-.06.02-.11.07-.14.14-.5,1.3-.72,10.79-.44,17.02,0,.21.25.31.41.18l8.4-7.01,12.12-10.11c.17-.14.09-.42-.13-.44ZM326.27,376.46c-.09-.09-.24-.09-.33,0l-17.75,14.82c-.1.08-.12.22-.05.33.47.73,1.01,1.42,1.64,2.05,2.25,2.25,5.24,3.49,8.42,3.49s6.17-1.24,8.42-3.49c4.65-4.65,4.65-12.2,0-16.85-.12-.12-.23-.23-.35-.34ZM324.68,375.23c-1.96-1.27-4.22-1.91-6.48-1.91-3.05,0-6.1,1.16-8.42,3.48-2.25,2.25-3.49,5.24-3.49,8.42,0,1.6.32,3.15.92,4.59.06.16.26.2.39.09l17.1-14.27c.13-.11.12-.31-.02-.4ZM224.25,410.4c-.09-.09-.24-.09-.33,0l-17.75,14.82c-.1.08-.12.22-.05.33.47.73,1.01,1.42,1.64,2.05,2.25,2.25,5.24,3.49,8.42,3.49s6.17-1.24,8.42-3.49c4.65-4.65,4.65-12.2,0-16.85-.12-.12-.23-.23-.35-.34ZM205.57,423.84l17.1-14.27c.13-.11.12-.31-.02-.4-1.96-1.27-4.22-1.91-6.48-1.91-3.05,0-6.1,1.16-8.42,3.48-2.25,2.25-3.49,5.24-3.49,8.42,0,1.6.32,3.15.92,4.59.06.16.26.2.39.09ZM239.1,425.27l8.4-7.01,12.12-10.11c.17-.14.09-.42-.13-.44-1.75-.19-5.03-.35-9.46-.35-6.08,0-9.99.29-10.75.57-.06.02-.11.07-.14.14-.5,1.3-.72,10.79-.44,17.02,0,.21.25.31.41.18ZM239.2,429.67c.55.29,4.53.6,10.82.6,4.79,0,8.24-.18,9.86-.39.2-.03.29-.27.15-.42l-10.42-11.04c-.09-.1-.24-.11-.34-.02l-8.87,7.4-1.48,1.24c-.06.05-.1.13-.09.21.16,1.97.33,2.35.35,2.38-.02-.04.08.06.04.04ZM261.14,428.23c.19-1.76.34-5.02.34-9.42,0-4.73-.17-8.15-.38-9.79-.02-.2-.26-.29-.41-.16l-4.2,3.51-5.88,4.91c-.11.09-.12.26-.02.36l10.13,10.73c.15.16.41.07.43-.15ZM292.34,410.4c-.09-.09-.24-.09-.33,0l-17.75,14.82c-.1.08-.12.22-.05.33.47.73,1.01,1.42,1.64,2.05,2.25,2.25,5.24,3.49,8.42,3.49s6.17-1.24,8.42-3.49c4.65-4.65,4.65-12.2,0-16.85-.12-.12-.23-.23-.35-.34ZM273.66,423.84l17.1-14.27c.13-.11.12-.31-.02-.4-1.96-1.27-4.22-1.91-6.48-1.91-3.05,0-6.1,1.16-8.42,3.48-2.25,2.25-3.49,5.24-3.49,8.42,0,1.6.32,3.15.92,4.59.06.16.26.2.39.09ZM226.99,462.17c.19-1.76.34-5.02.34-9.42,0-4.73-.17-8.15-.38-9.79-.02-.2-.26-.29-.41-.16l-4.2,3.51-5.88,4.91c-.11.09-.12.26-.02.36l10.13,10.73c.15.16.41.07.43-.15ZM215.11,452.34l-8.87,7.4-1.48,1.24c-.06.05-.1.13-.09.21.16,1.97.33,2.35.35,2.38-.02-.04.08.06.04.04.55.29,4.53.6,10.82.6,4.79,0,8.24-.18,9.86-.39.2-.03.29-.27.15-.42l-10.42-11.04c-.09-.1-.24-.1-.34-.02ZM225.34,441.64c-1.75-.19-5.03-.35-9.46-.35-6.08,0-9.99.29-10.75.57-.06.02-.11.07-.14.14-.5,1.3-.72,10.79-.44,17.02,0,.21.25.31.41.18l8.4-7.01,12.12-10.11c.17-.14.09-.42-.13-.44ZM258.19,444.33c-.09-.09-.24-.09-.33,0l-17.75,14.82c-.1.08-.12.22-.05.33.47.73,1.01,1.42,1.64,2.05,2.25,2.25,5.24,3.49,8.42,3.49s6.17-1.24,8.42-3.49c4.65-4.65,4.65-12.2,0-16.85-.12-.12-.23-.23-.35-.34ZM239.51,457.78l17.1-14.27c.13-.11.12-.31-.02-.4-1.96-1.27-4.22-1.91-6.48-1.91-3.05,0-6.1,1.16-8.42,3.48-2.25,2.25-3.49,5.24-3.49,8.42,0,1.6.32,3.15.92,4.59.06.16.26.2.39.09ZM283.2,452.34l-8.87,7.4-1.48,1.24c-.06.05-.1.13-.09.21.16,1.97.33,2.35.35,2.38-.02-.04.08.06.04.04.55.29,4.53.6,10.82.6,4.79,0,8.24-.18,9.86-.39.2-.03.29-.27.15-.42l-10.42-11.04c-.09-.1-.24-.1-.34-.02ZM293.42,441.64c-1.75-.19-5.03-.35-9.46-.35-6.08,0-9.99.29-10.75.57-.06.02-.11.07-.14.14-.5,1.3-.72,10.79-.44,17.02,0,.21.25.31.41.18l8.4-7.01,12.12-10.11c.17-.14.09-.42-.13-.44ZM295.08,462.17c.19-1.76.34-5.02.34-9.42,0-4.73-.17-8.15-.38-9.79-.02-.2-.26-.29-.41-.16l-4.2,3.51-5.88,4.91c-.11.09-.12.26-.02.36l10.13,10.73c.15.16.41.07.43-.15ZM260.69,476.74l-4.2,3.51-5.88,4.91c-.11.09-.12.26-.02.36l10.13,10.73c.15.16.41.07.43-.14.19-1.76.34-5.02.34-9.42,0-4.73-.17-8.15-.38-9.79-.02-.2-.26-.29-.41-.16ZM249.61,486.29c-.09-.1-.24-.11-.34-.02l-8.87,7.4-1.48,1.24c-.06.05-.1.13-.09.21.16,1.97.33,2.35.35,2.38-.02-.04.08.06.04.04.55.29,4.53.6,10.82.6,4.79,0,8.24-.18,9.86-.39.2-.03.29-.27.15-.42l-10.42-11.04ZM224.25,478.27c-.09-.09-.24-.09-.33,0l-17.75,14.82c-.1.08-.12.22-.05.33.47.73,1.01,1.42,1.64,2.05,2.25,2.25,5.24,3.49,8.42,3.49s6.17-1.24,8.42-3.49c4.65-4.65,4.65-12.2,0-16.85-.12-.12-.23-.23-.35-.34ZM222.66,477.04c-1.96-1.27-4.22-1.91-6.48-1.91-3.05,0-6.1,1.16-8.42,3.48-2.25,2.25-3.49,5.24-3.49,8.42,0,1.6.32,3.16.92,4.59.06.16.26.2.39.09l17.1-14.27c.13-.11.12-.31-.02-.4ZM239.1,493.14l8.4-7.01,12.12-10.11c.17-.14.09-.42-.13-.44-1.75-.19-5.03-.34-9.46-.34-6.08,0-9.99.29-10.75.57-.06.02-.11.07-.14.14-.5,1.3-.72,10.79-.44,17.02,0,.21.25.31.41.18ZM292.34,478.27c-.09-.09-.24-.09-.33,0l-17.75,14.82c-.1.08-.12.22-.05.33.47.73,1.01,1.42,1.64,2.05,2.25,2.25,5.24,3.49,8.42,3.49s6.17-1.24,8.42-3.49c4.65-4.65,4.65-12.2,0-16.85-.12-.12-.23-.23-.35-.34ZM290.74,477.04c-1.96-1.27-4.22-1.91-6.48-1.91-3.05,0-6.1,1.16-8.42,3.48-2.25,2.25-3.49,5.24-3.49,8.42,0,1.6.32,3.16.92,4.59.06.16.26.2.39.09l17.1-14.27c.13-.11.12-.31-.02-.4Z"/>
    </g>
  </g>
</svg>