<?xml version="1.0" encoding="UTF-8"?>
<svg id="_レイヤー_2" data-name="レイヤー 2" xmlns="http://www.w3.org/2000/svg" viewBox="0 0 905.25 326.89">
  <defs>
    <style>
      .cls-1 {
        fill: #d97700;
      }
    </style>
  </defs>
  <g id="_文字_アウトライン" data-name="文字_アウトライン">
    <g>
      <path class="cls-1" d="M7.65,156.3v-28.81h40.54c2.38-13.6,4.16-23.88,5.36-30.85l32.38,2.8c-2.04,12.58-3.66,21.93-4.84,28.05h88.99v28.81h-94.6c-11.39,56.78-25.84,111.01-43.35,162.69l-32.13-7.4c17.34-50.83,31.45-102.59,42.33-155.29H7.65ZM210.63,280.48l3.82,28.81c-18.19,3.4-36.13,5.1-53.8,5.1-23.46,0-42.2-4.3-56.23-12.88-14.03-8.58-21.04-19.59-21.04-33.02s8.5-26.26,25.5-39.52l23.21,14.79c-6.63,5.61-11.05,9.91-13.26,12.88-2.21,2.98-3.31,5.83-3.31,8.54,0,5.95,4.04,10.84,12.11,14.66,8.07,3.83,19.08,5.74,33.02,5.74,15.13,0,31.79-1.7,49.98-5.1ZM208.59,205.26c-36.21,0-70.55,1.96-103.02,5.86l-2.04-28.56c33.32-3.91,68.34-5.87,105.06-5.87v28.56Z"/>
      <path class="cls-1" d="M380.72,283.03c18.53-2.38,32.81-9.6,42.84-21.67,10.03-12.07,15.04-28.39,15.04-48.96,0-17.68-5.4-32.6-16.19-44.75-10.8-12.15-24.86-19.42-42.2-21.8-4.08,32.3-8.89,59.38-14.41,81.22-5.53,21.85-11.65,38.47-18.36,49.85-6.72,11.39-13.52,19.34-20.4,23.84s-14.75,6.76-23.59,6.76c-13.77,0-26.44-7.9-38-23.71-11.56-15.81-17.34-35.1-17.34-57.89,0-32.98,11.22-59.75,33.66-80.32,22.44-20.57,51.77-30.85,87.98-30.85,29.24,0,53.42,9.18,72.55,27.54,19.12,18.36,28.69,41.74,28.69,70.12s-7.52,53.29-22.57,71.15c-15.04,17.85-35.32,27.88-60.82,30.09l-6.88-30.6ZM346.55,147.37c-20.57,3.91-36.72,12.84-48.45,26.78-11.73,13.94-17.59,31.2-17.59,51.76,0,12.92,2.63,24.4,7.91,34.43,5.27,10.03,10.28,15.04,15.04,15.04,2.38,0,4.84-1.15,7.39-3.44,2.55-2.3,5.39-6.5,8.54-12.62,3.14-6.12,6.25-13.85,9.31-23.21,3.06-9.35,6.16-21.67,9.31-36.98,3.14-15.3,5.99-32.55,8.54-51.77Z"/>
      <path class="cls-1" d="M527.09,106.06l34.68,1.02c-2.21,39.78-3.32,77.44-3.32,112.97,0,18.36,1.49,32.35,4.46,41.95,2.97,9.61,7.27,16.06,12.88,19.38,5.61,3.31,13.68,4.97,24.22,4.97,32.3,0,58.14-24.48,77.52-73.44l30.35,11.73c-23.29,62.73-59.25,94.1-107.87,94.1-28.9,0-48.88-7.01-59.92-21.04-11.05-14.02-16.58-39.91-16.58-77.65s1.19-74.37,3.57-113.98Z"/>
      <path class="cls-1" d="M876.69,97.9l20.91,25.75c-31.96,24.14-61.96,45.14-90.01,62.98-10.2,6.46-16.75,10.88-19.64,13.26-2.89,2.38-4.33,4.84-4.33,7.4,0,2.38,1.28,4.76,3.83,7.14,2.55,2.38,8.5,6.72,17.85,13,33.32,22.61,66.64,47.6,99.96,74.97l-22.7,24.48c-34.34-27.88-66.73-52.27-97.16-73.19-18.53-12.75-29.96-21.59-34.3-26.52-4.33-4.93-6.5-11.56-6.5-19.89,0-9.01,2.29-15.98,6.88-20.91,4.59-4.93,16.15-13.34,34.68-25.25,30.77-19.89,60.94-40.97,90.52-63.24Z"/>
    </g>
    <g>
      <path class="cls-1" d="M15.75,6.66h23.82V.84h7.56v5.82h15.42v6.78h-15.42v5.22h13.2v6.66h-13.2v9.72c4.32,2.44,9.04,5.98,14.16,10.62l-4.74,5.28c-3.24-3.04-6.48-5.7-9.72-7.98-.6,3.36-2.03,5.78-4.29,7.26s-5.59,2.22-9.99,2.22-7.57-.99-9.99-2.97c-2.42-1.98-3.63-4.73-3.63-8.25,0-3.16,1.11-5.71,3.33-7.65,2.22-1.94,5.65-2.91,10.29-2.91,2.4,0,4.74.34,7.02,1.02v-6.36h-21.6v-6.66h21.6v-5.22H15.75v-6.78ZM39.57,38.76c-2.36-.96-4.44-1.44-6.24-1.44-2.36,0-4.05.32-5.07.96-1.02.64-1.53,1.62-1.53,2.94,0,1.4.51,2.49,1.53,3.27,1.02.78,2.45,1.17,4.29,1.17,2.72,0,4.57-.48,5.55-1.44.98-.96,1.47-2.78,1.47-5.46Z"/>
      <path class="cls-1" d="M74.97,14.82v-6.78h13.2c.36-1.8.76-4.28,1.2-7.44l7.56.48c-.28,2.36-.64,4.68-1.08,6.96h27.48v6.78h-29.1c-1.04,3.72-2.18,7.06-3.42,10.02l.06.12c4.32-1.68,8.42-2.52,12.3-2.52,5.52,0,9.73,1.21,12.63,3.63,2.9,2.42,4.35,5.87,4.35,10.35s-2.01,8.37-6.03,11.19c-4.02,2.82-9.41,4.23-16.17,4.23-5.08,0-10.1-.54-15.06-1.62l1.32-6.78c4.96,1.08,9.54,1.62,13.74,1.62s7.82-.82,10.38-2.46c2.56-1.64,3.84-3.82,3.84-6.54,0-4.56-3.14-6.84-9.42-6.84-5.52,0-10.82,1.66-15.9,4.98l-6.9-2.88c3.04-6.24,5.24-11.74,6.6-16.5h-11.58Z"/>
      <path class="cls-1" d="M179.31,43.86l.66,6.78c-5.28.8-10.48,1.2-15.6,1.2-7.52,0-12.94-.89-16.26-2.67-3.32-1.78-4.98-4.55-4.98-8.31,0-3,1.39-5.77,4.17-8.31,2.78-2.54,6.97-4.71,12.57-6.51-.92-1.96-2.62-2.94-5.1-2.94-4.24,0-9.26,4.06-15.06,12.18l-6.3-3.78c4.68-6.52,8.34-12.68,10.98-18.48h-10.26v-6.36h12.9c.8-2.12,1.58-4.34,2.34-6.66l7.74,1.44c-.48,1.44-1.12,3.18-1.92,5.22h24.96v6.36h-27.54c-.48,1.12-1.24,2.8-2.28,5.04l.06.12c2.2-.88,4.26-1.32,6.18-1.32,5.36,0,8.98,2.4,10.86,7.2,4.28-.88,8.52-1.56,12.72-2.04l.6,6.6c-3.52.4-7.44,1.04-11.76,1.92.36,2.64.54,5.74.54,9.3h-7.98c0-3.08-.08-5.5-.24-7.26-3.28,1.08-5.79,2.27-7.53,3.57-1.74,1.3-2.61,2.59-2.61,3.87,0,1.12.3,2.03.9,2.73.6.7,1.9,1.29,3.9,1.77,2,.48,4.8.72,8.4.72,4.08,0,9.06-.46,14.94-1.38Z"/>
    </g>
  </g>
</svg>