<?xml version="1.0" encoding="UTF-8"?>
<svg id="_レイヤー_2" data-name="レイヤー 2" xmlns="http://www.w3.org/2000/svg" viewBox="0 0 1194.4 382.68">
  <defs>
    <style>
      .cls-1 {
        stroke-miterlimit: 10;
      }

      .cls-1, .cls-2 {
        stroke-width: 2px;
      }

      .cls-1, .cls-2, .cls-3, .cls-4 {
        fill: none;
        stroke: #d97700;
      }

      .cls-5, .cls-6 {
        fill: #d97700;
      }

      .cls-2, .cls-3, .cls-4 {
        stroke-linecap: round;
        stroke-linejoin: round;
      }

      .cls-3 {
        stroke-dasharray: 0 17.01;
        stroke-width: 2.6px;
      }

      .cls-6 {
        opacity: .23;
      }

      .cls-4 {
        stroke-dasharray: 0 7.04;
        stroke-width: 2.61px;
      }
    </style>
  </defs>
  <g id="_イラスト" data-name="イラスト">
    <g>
      <path class="cls-5" d="M524.01,317.23c-5.27,4.63-8.52,7.91-9.11,8.86-.05.09-.06.19-.02.29.46,1.01,3.26,4.69,7.89,9.96,1.87,2.13,3.52,3.93,4.89,5.36.17.18.47.08.51-.16l4.84-30.99c.04-.26-.25-.44-.47-.29-1.74,1.24-4.71,3.63-8.52,6.97Z"/>
      <path class="cls-5" d="M540.76,312.84c-.23-.11-.48.09-.42.34.48,2.03,1.61,5.78,3.36,10.74,1.81,5.13,3.33,8.84,4.22,10.65.1.21.4.22.52.02l8.2-13.8c.09-.15.03-.35-.13-.42l-15.75-7.53Z"/>
      <path class="cls-5" d="M567.97,277.58c.02-.09,0-.19-.06-.27-.98-1.16-1.65-1.84-1.93-1.99,0,0,0,0,0,0,0,0,0,0,0,0,0,0,0,0,0,0-.76.13-4.8,2.61-10.81,6.95-4.27,3.09-7.33,5.52-8.88,6.92-.19.17-.09.48.15.52l17.44,2.81c.15.02.3-.07.34-.22l3.75-14.72Z"/>
      <path class="cls-5" d="M497.35,294.06c-.07.07-.09.17-.07.27.3,1.49.56,2.41.73,2.67,0,0,0,0,0,0,0,0,0,0,0,0,0,0,0,0,0,0,.73.25,5.46.04,12.83-.85,5.23-.64,9.09-1.29,11.12-1.76.24-.06.31-.37.12-.53l-13.91-10.89c-.12-.1-.3-.08-.4.03l-10.4,11.07Z"/>
      <path class="cls-5" d="M520.92,274.28c2.66,2.66,6.2,4.12,9.96,4.12s7.3-1.46,9.96-4.12c5.49-5.49,5.49-14.42,0-19.92-.14-.14-.28-.27-.42-.4-.11-.1-.28-.1-.39,0l-20.98,17.51c-.11.1-.14.26-.06.39.55.87,1.2,1.68,1.94,2.42Z"/>
      <path class="cls-5" d="M516.56,256.8c-2.24,3.02-3.17,6.73-2.62,10.46.28,1.87.92,3.63,1.87,5.21.1.17.34.19.48.04l17.52-19.66c.13-.15.09-.39-.1-.47-2.52-1.15-5.27-1.5-7.91-1.11-3.57.53-6.93,2.42-9.25,5.53Z"/>
      <path class="cls-5" d="M543.27,293.21c-3.88-6.7-6.74-11.21-7.97-12.85-.12-.16-.36-.16-.48,0-1.23,1.64-4.1,6.15-7.97,12.85-4.11,7.1-6.66,11.99-7.31,13.61-.06.16.02.34.19.39,1.65.51,7.39.99,15.32.99s13.67-.48,15.32-.99c.17-.05.26-.23.19-.39-.65-1.63-3.2-6.51-7.31-13.61Z"/>
    </g>
    <g>
      <path class="cls-5" d="M801.73,315.24c-5.27,4.63-8.52,7.91-9.11,8.86-.05.09-.06.19-.02.29.46,1.01,3.26,4.69,7.89,9.96,1.87,2.13,3.52,3.93,4.89,5.36.17.18.47.08.51-.16l4.84-30.99c.04-.26-.25-.44-.47-.29-1.74,1.24-4.71,3.63-8.52,6.97Z"/>
      <path class="cls-5" d="M818.47,310.85c-.23-.11-.48.09-.42.34.48,2.03,1.61,5.78,3.36,10.74,1.81,5.13,3.33,8.84,4.22,10.65.1.21.4.22.52.02l8.2-13.8c.09-.15.03-.35-.13-.42l-15.75-7.53Z"/>
      <path class="cls-5" d="M775.94,299.52c-.01.1.02.19.09.26,1.09,1.06,1.82,1.67,2.11,1.79,0,0,0,0,0,0,0,0,0,0,0,0,0,0,0,0,0,0,.74-.2,4.53-3.06,10.09-7.96,3.95-3.48,6.77-6.2,8.17-7.74.17-.19.05-.48-.2-.5l-17.63-1.11c-.15,0-.29.1-.31.25l-2.32,15.01Z"/>
      <path class="cls-5" d="M852.56,296.42c.09-.02.17-.09.21-.18.55-1.42.84-2.33.84-2.64,0,0,0,0,0,0,0,0,0,0,0,0,0,0,0,0,0,0-.47-.61-4.57-2.99-11.25-6.22-4.74-2.3-8.34-3.84-10.3-4.53-.24-.08-.46.14-.38.38l5.8,16.69c.05.15.2.23.35.19l14.74-3.68Z"/>
      <path class="cls-5" d="M823.96,266.64c-1.87,3.26-4.91,5.6-8.54,6.58-3.63.98-7.43.49-10.69-1.39-6.73-3.87-9.06-12.5-5.19-19.23.1-.17.2-.33.3-.49.08-.13.24-.17.38-.11l24.82,11.44c.14.06.21.22.16.36-.31.98-.72,1.93-1.24,2.84Z"/>
      <path class="cls-5" d="M823.61,248.63c2.95,2.33,4.82,5.68,5.25,9.41.22,1.88.06,3.75-.45,5.51-.05.19-.28.27-.45.16l-22.04-14.41c-.17-.11-.18-.35-.03-.48,2.13-1.76,4.69-2.82,7.34-3.13,3.58-.42,7.32.53,10.37,2.93Z"/>
      <path class="cls-5" d="M804.56,293.25c3.88,6.7,6.74,11.21,7.97,12.85.12.16.36.16.48,0,1.23-1.64,4.1-6.15,7.97-12.85,4.11-7.1,6.66-11.99,7.31-13.61.06-.16-.02-.34-.19-.39-1.65-.51-7.39-.99-15.32-.99s-13.67.48-15.32.99c-.17.05-.26.23-.19.39.65,1.63,3.2,6.51,7.31,13.61Z"/>
    </g>
    <g>
      <path class="cls-5" d="M1089.64,103.17c1.37,8.55,1.38,17.3,0,25.85-1.38-8.55-1.37-17.3,0-25.85h0Z"/>
      <path class="cls-5" d="M1089.64,78.46c1.37,3.51,1.38,7.46,0,10.97-1.38-3.5-1.37-7.46,0-10.97h0Z"/>
      <path class="cls-5" d="M1061.71,108.09c4.21,7.56,7.21,15.79,8.84,24.29-4.22-7.56-7.2-15.79-8.84-24.29h0Z"/>
      <path class="cls-5" d="M1037.15,122.27c6.54,5.67,12.18,12.37,16.62,19.8-6.55-5.66-12.17-12.37-16.62-19.8h0Z"/>
      <path class="cls-5" d="M1021.27,103.34c3.3,1.81,5.85,4.83,7.05,8.4-3.31-1.8-5.84-4.84-7.05-8.4h0Z"/>
      <path class="cls-5" d="M1018.92,144c8.09,3.09,15.67,7.46,22.39,12.93-8.09-3.08-15.67-7.46-22.39-12.93h0Z"/>
      <path class="cls-5" d="M1117.57,108.09c-1.64,8.5-4.62,16.73-8.84,24.29,1.63-8.5,4.63-16.73,8.84-24.29h0Z"/>
      <path class="cls-5" d="M1142.13,122.27c-4.45,7.43-10.06,14.14-16.62,19.8,4.44-7.44,10.07-14.13,16.62-19.8h0Z"/>
      <path class="cls-5" d="M1158.02,103.34c-1.21,3.56-3.74,6.6-7.05,8.4,1.2-3.57,3.75-6.6,7.05-8.4h0Z"/>
      <path class="cls-5" d="M1160.36,144c-6.72,5.46-14.29,9.85-22.39,12.93,6.71-5.47,14.3-9.84,22.39-12.93h0Z"/>
      <path class="cls-5" d="M1170.06,170.65c-8.18,2.83-16.8,4.36-25.46,4.49,8.18-2.84,16.8-4.35,25.46-4.49h0Z"/>
      <path class="cls-5" d="M1194.4,166.36c-3.22,1.95-7.11,2.65-10.8,1.9,3.21-1.96,7.11-2.64,10.8-1.9h0Z"/>
      <path class="cls-5" d="M1170.06,199.01c-8.66-.14-17.28-1.65-25.46-4.49,8.66.13,17.28,1.66,25.46,4.49h0Z"/>
      <path class="cls-5" d="M1009.22,199.01c8.18-2.83,16.8-4.36,25.46-4.49-8.18,2.84-16.8,4.35-25.46,4.49h0Z"/>
      <path class="cls-2" d="M1081.07,177.9l-15.53,3.89,15.53,3.89c2.3.58,4.1,2.37,4.67,4.67l3.89,15.53,3.89-15.53c.58-2.3,2.37-4.1,4.67-4.67l15.53-3.89-15.53-3.89c-2.3-.58-4.1-2.37-4.67-4.67l-3.89-15.53-3.89,15.53c-.58,2.3-2.37,4.1-4.67,4.67Z"/>
      <path class="cls-5" d="M1009.57,170.58c8.66.14,17.28,1.65,25.46,4.49-8.66-.12-17.28-1.66-25.46-4.49h0Z"/>
      <path class="cls-5" d="M985.23,166.29c3.69-.74,7.59-.06,10.8,1.9-3.69.75-7.59.05-10.8-1.9h0Z"/>
    </g>
    <path class="cls-6" d="M479.24,170.96c.41,0-1.55-2.17-3.62-4.24-2.07-2.07-4.24-4.04-4.24-3.62,0-.41-2.17,1.55-4.24,3.62l-9.44,9.44-9.44-9.44c-2.07-2.07-4.24-4.04-4.24-3.62,0-.41-2.17,1.55-4.24,3.62-2.07,2.07-4.04,4.24-3.62,4.24-.41,0,1.55,2.17,3.62,4.24l9.44,9.44-9.44,9.44c-2.07,2.07-4.04,4.24-3.62,4.24-.41,0,1.55,2.17,3.62,4.24,2.07,2.07,4.24,4.04,4.24,3.62,0,.41,2.17-1.55,4.24-3.62l9.44-9.44,9.44,9.44c2.07,2.07,4.24,4.04,4.24,3.62,0,.41,2.17-1.55,4.24-3.62,2.07-2.07,4.04-4.24,3.62-4.24.41,0-1.55-2.17-3.62-4.24l-9.44-9.44,9.44-9.44c2.07-2.07,4.04-4.24,3.62-4.24Z"/>
    <g>
      <path class="cls-6" d="M887.34,182.65c-2.93,0-5.86-.15-5.56-.44-.29.29-.44-2.64-.44-5.56s.15-5.86.44-5.56c-.29-.29,2.64-.44,5.56-.44h26.71c2.93,0,5.86.15,5.56.44.29-.29.44,2.64.44,5.56s-.15,5.86-.44,5.56c.29.29-2.64.44-5.56.44h-26.71Z"/>
      <path class="cls-6" d="M887.34,198.65c-2.93,0-5.86-.15-5.56-.44-.29.29-.44-2.64-.44-5.56s.15-5.86.44-5.56c-.29-.29,2.64-.44,5.56-.44h26.71c2.93,0,5.86.15,5.56.44.29-.29.44,2.64.44,5.56s-.15,5.86-.44,5.56c.29.29-2.64.44-5.56.44h-26.71Z"/>
    </g>
    <g>
      <path class="cls-5" d="M164.82,324.16c0-.53-.43-.96-.96-.96h-.64s0,0,0,0h-49.27c-.06,0-.12,0-.18.02-.01,0-.02,0-.04,0-.05.01-.09.03-.14.04-.01,0-.02,0-.03.01-.11.05-.21.11-.29.2,0,0,0,0,0,0-.04.04-.07.08-.1.13,0,0-.01.01-.01.02-.03.04-.06.09-.08.14,0,0,0,0,0,.01,0,0,0,.02-.01.03-.04.11-.06.22-.06.34,0,0,0,0,0,0v32.76s0,.02,0,.02c0,.04,0,.08.01.11,0,.03,0,.05.01.08,0,.03.02.07.03.1,0,.03.02.05.03.08.01.03.03.06.04.08.02.03.03.06.05.08,0,0,0,.02.01.02.03.03.05.07.08.1,0,0,0,0,0,0,.04.04.08.07.13.11,0,0,.01,0,.02.01.05.03.09.06.15.08,0,0,.02,0,.03.01.05.02.1.04.16.05,0,0,.02,0,.02,0,.06.01.12.02.18.02,0,0,0,0,0,0h49.91s0,0,0,0c.06,0,.12,0,.18-.02,0,0,.02,0,.03,0,.05-.01.1-.03.16-.05.01,0,.02,0,.03-.01.05-.02.1-.05.14-.08,0,0,.01,0,.02-.01.04-.03.08-.06.12-.1,0,0,0,0,.01-.01.03-.03.06-.06.08-.09,0,0,0-.02.01-.02.02-.03.04-.06.06-.09.01-.03.03-.05.04-.08.01-.03.02-.06.03-.09.01-.03.02-.06.03-.09,0-.03,0-.06.01-.08,0-.04,0-.07.01-.11,0,0,0-.02,0-.03v-32.76ZM147.07,342.92c-.42-.32-1.03-.24-1.35.18-.32.42-.24,1.03.18,1.35l15.09,11.51h-44.21l15.09-11.51c.42-.32.5-.93.18-1.35-.32-.42-.93-.5-1.35-.18l-15.82,12.06v-28.65l23.02,20.71c.18.16.41.25.64.25s.46-.08.64-.25l23.67-21.3v29.24l-15.82-12.06ZM160.69,325.12l-22.12,19.9-22.12-19.9h44.24Z"/>
      <path class="cls-5" d="M45.77,158.47c-.16,0-.35,0-.56-.04h-.27s-31.86,0-31.86,0c-7.21,0-13.07-5.86-13.07-13.07,0-5.14,3.05-9.81,7.68-11.91-.2-.93-.31-1.87-.31-2.83,0-7.21,5.86-13.07,13.07-13.07,5.83,0,10.85,3.76,12.51,9.25,4.38-.21,8.5,2.11,10.64,5.86,1.02-.25,2.07-.38,3.13-.38,7.21,0,13.07,5.86,13.07,13.07s-5.86,13.07-13.07,13.07c-.18,0-.33.01-.48.02-.15.01-.3.02-.48.02ZM20.44,119.72c-6.01,0-10.9,4.89-10.9,10.9,0,1.08.16,2.14.47,3.16l.3.98-.97.35c-4.29,1.56-7.17,5.68-7.17,10.24,0,6.01,4.89,10.9,10.9,10.9h31.88l.5.02c.25.04.39.03.65,0,.17-.01.37-.03.63-.03,6.01,0,10.9-4.89,10.9-10.9s-4.89-10.9-10.9-10.9c-1.15,0-2.27.18-3.36.53l-.91.3-.41-.87c-1.55-3.31-4.9-5.45-8.56-5.45-.41,0-.82.03-1.22.08l-.98.13-.22-.96c-1.13-4.99-5.5-8.48-10.63-8.48Z"/>
      <path class="cls-5" d="M234.69,352.5h-15.22c-1.18,0-2.14-.96-2.14-2.14v-2.15c0-2.15-.59-4.19-1.71-5.9-1.53-2.34-2.28-5.06-2.14-7.87.32-6.74,5.84-12.26,12.58-12.57,3.65-.17,7.11,1.13,9.75,3.64,2.64,2.52,4.09,5.91,4.09,9.56,0,2.31-.6,4.58-1.75,6.57-.86,1.5-1.32,3.27-1.32,5.12v3.6c0,1.18-.96,2.14-2.14,2.14ZM219.57,350.26h15.03v-3.5c0-2.23.56-4.39,1.62-6.23.95-1.65,1.45-3.54,1.45-5.46,0-3.03-1.21-5.85-3.4-7.94-2.19-2.09-5.07-3.17-8.1-3.03-5.6.26-10.19,4.84-10.45,10.44-.11,2.34.51,4.6,1.78,6.54,1.36,2.07,2.08,4.53,2.08,7.12v2.05ZM237.02,355.23c0-.56-.46-1.02-1.02-1.02h-17.9c-.56,0-1.02.46-1.02,1.02,0,.56.46,1.02,1.02,1.02h17.9c.56,0,1.02-.46,1.02-1.02ZM237.02,359.09c0-.56-.46-1.02-1.02-1.02h-17.9c-.56,0-1.02.46-1.02,1.02s.46,1.02,1.02,1.02h17.9c.56,0,1.02-.46,1.02-1.02ZM237.02,362.94c0-.56-.46-1.02-1.02-1.02h-17.9c-.56,0-1.02.46-1.02,1.02s.46,1.02,1.02,1.02h17.9c.56,0,1.02-.46,1.02-1.02ZM210.78,335.4c0-.56-.46-1.02-1.02-1.02h-5.62c-.56,0-1.02.46-1.02,1.02s.46,1.02,1.02,1.02h5.62c.56,0,1.02-.46,1.02-1.02ZM215.44,324.16c.4-.4.4-1.04,0-1.44l-3.98-3.98c-.4-.4-1.04-.4-1.44,0-.4.4-.4,1.04,0,1.44l3.98,3.98c.2.2.46.3.72.3s.52-.1.72-.3ZM227.7,318.48v-5.62c0-.56-.46-1.02-1.02-1.02s-1.02.46-1.02,1.02v5.62c0,.56.46,1.02,1.02,1.02s1.02-.46,1.02-1.02ZM239.37,324.16l3.98-3.98c.4-.4.4-1.04,0-1.44-.4-.4-1.04-.4-1.44,0l-3.98,3.98c-.4.4-.4,1.04,0,1.44.2.2.46.3.72.3s.52-.1.72-.3ZM250.24,335.4c0-.56-.46-1.02-1.02-1.02h-5.62c-.56,0-1.02.46-1.02,1.02s.46,1.02,1.02,1.02h5.62c.56,0,1.02-.46,1.02-1.02ZM235.15,333.16c0-3.71-3.02-6.73-6.73-6.73-.56,0-1.02.46-1.02,1.02s.46,1.02,1.02,1.02c2.59,0,4.69,2.11,4.69,4.69,0,.56.46,1.02,1.02,1.02s1.02-.46,1.02-1.02Z"/>
      <path class="cls-5" d="M174.17,22.85L148.28.48c-.74-.64-1.86-.64-2.61,0,0,0,0,0,0,0l-25.9,22.37c-.64.55-.86,1.42-.57,2.21.29.79,1.03,1.3,1.87,1.3h8.05v24.2h14.04v-9.69c0-2.16,1.76-3.92,3.92-3.92s3.92,1.76,3.92,3.92v9.69h13.82v-24.2h8.05c.84,0,1.58-.51,1.87-1.3.29-.79.07-1.65-.57-2.21ZM162.65,48.38h-9.47v-7.52c0-3.36-2.73-6.09-6.09-6.09s-6.09,2.73-6.09,6.09v7.52h-9.7v-22.02h31.35v22.02ZM164.82,24.19h-43.27l25.42-21.96,25.42,21.96h-7.58Z"/>
      <path class="cls-5" d="M239.51,44.05c-.81.55-1.92.34-2.47-.47l-7.34-10.76-1.17.47c-6.15,2.49-13.32.32-17.06-5.16-4.41-6.47-2.74-15.32,3.73-19.73,6.47-4.41,15.32-2.74,19.73,3.73,3.74,5.48,3.14,12.95-1.42,17.76l-.87.91,7.34,10.76c.55.81.34,1.92-.47,2.47ZM216.64,10.52c-5.3,3.62-6.67,10.87-3.06,16.18,3.62,5.3,10.87,6.67,16.18,3.06,5.3-3.62,6.67-10.87,3.06-16.18-3.62-5.3-10.87-6.67-16.18-3.06Z"/>
      <path class="cls-5" d="M356.13,141.65c-2.16,0-3.91-1.75-3.91-3.91v-14.55l-1.8-1.22c-1.03-.7-1.78-2.11-1.78-3.35v-18.37c0-.98.14-5.98,2.97-8.62,2.48-2.3,6.43-2.4,6.87-2.4.42,0,.8.16,1.1.45h0c.29.29.46.68.46,1.1v46.96c0,2.16-1.75,3.91-3.91,3.91ZM358.03,91.27c-1.03.07-3.49.4-5.04,1.84-1.84,1.71-2.33,5.3-2.33,7.15v18.37c0,.58.42,1.37.9,1.69l2.68,1.82v15.61c0,1.05.85,1.9,1.9,1.9s1.9-.85,1.9-1.9v-46.47Z"/>
      <path class="cls-5" d="M332.07,141.65c-2.16,0-3.91-1.75-3.91-3.91v-20.55c-3.18-1.18-5.35-4.23-5.35-7.69l1.02-16.94c.17-2,1.18-3.33,2.51-3.33s2.34,1.32,2.51,3.29l.35,4.21.35-4.21c.16-1.97,1.17-3.29,2.51-3.29s2.34,1.32,2.51,3.29l.35,4.2.35-4.2c.16-1.97,1.17-3.29,2.51-3.29s2.34,1.32,2.51,3.29l1.03,16.88c0,3.53-2.16,6.6-5.34,7.78v20.55c0,2.16-1.75,3.91-3.91,3.91ZM326.33,91.24c-.08.06-.41.56-.48,1.47l-1.02,16.85c0,2.74,1.89,5.2,4.6,5.92l.75.2v22.06c0,1.05.85,1.9,1.9,1.9s1.9-.85,1.9-1.9v-22.06l.75-.2c2.71-.72,4.6-3.19,4.6-6.01l-1.02-16.8c-.07-.82-.37-1.32-.5-1.42-.14.1-.43.6-.51,1.44l-1.05,12.51h-2.62s-1.05-12.51-1.05-12.51c-.08-.9-.4-1.4-.53-1.46-.08.06-.41.56-.48,1.46l-1.05,12.51h-2.62s-1.05-12.51-1.05-12.51c-.08-.9-.4-1.4-.53-1.46Z"/>
      <path class="cls-5" d="M58.73,90.62c-9.51,0-16.92-5.77-19.79-8.39-2.74-2.5-5.51-5.93-5.51-7.95s2.77-5.45,5.51-7.95c3.09-2.82,11.41-9.26,21.94-8.3,9.5.87,17.03,5.9,21.82,10.16l12.57-6.6c.37-.2.82-.15,1.14.13.32.27.44.71.31,1.11l-3.8,11.46,3.8,11.45c.13.4,0,.84-.31,1.11s-.77.32-1.14.13l-12.57-6.61c-4.79,4.26-12.32,9.29-21.82,10.16-.72.07-1.44.1-2.14.1ZM58.73,59.99c-8.8,0-15.72,5.4-18.41,7.86-3.42,3.12-4.84,5.73-4.84,6.43s1.42,3.31,4.84,6.43c2.89,2.63,10.64,8.65,20.36,7.77,9.29-.85,16.63-5.97,21.16-10.11.32-.29.79-.35,1.17-.15l10.94,5.75-3.1-9.35c-.07-.21-.07-.44,0-.65l3.1-9.37-10.94,5.75c-.39.2-.85.14-1.17-.15-4.53-4.14-11.87-9.26-21.16-10.11-.66-.06-1.31-.09-1.95-.09ZM46.36,75.32c-1.89,0-3.42-1.53-3.42-3.42s1.53-3.42,3.42-3.42c1.89,0,3.42,1.53,3.42,3.42s-1.53,3.42-3.42,3.42ZM46.36,70.53c-.75,0-1.36.61-1.36,1.36s.61,1.36,1.36,1.36,1.36-.61,1.36-1.36-.61-1.36-1.36-1.36Z"/>
      <path class="cls-5" d="M293.29,335.62c-.73,0-1.43-.1-2.07-.22-5.61-1.05-9.24-6.7-10.24-11.49-.55-2.62-.06-5.38,1.32-7.57.26-.4,1.02-1.65,2.11-1.46,1.25.21,1.7,2.07,2.1,3.71.05.21.1.41.15.58.33,1.23.94,2.31,2,3.49.6.77,1.09,1.2,1.54,1.56,1.02.98,2.04,1.95,2.86,3.16l.02.03c.73,1.24,1.07,2.42,1.43,3.68.13.44.25.88.4,1.34.02.06.07.16.13.3.45.95.75,1.67.51,2.19-.1.23-.29.39-.52.46-.58.17-1.17.24-1.74.24ZM284.19,316.2s-.26.09-.75.86c-1.2,1.89-1.62,4.29-1.14,6.58.94,4.51,4.39,9.55,9.18,10.45.86.16,1.83.29,2.76.12-.11-.31-.3-.72-.39-.91-.1-.21-.17-.37-.2-.45-.15-.47-.28-.93-.41-1.38-.33-1.16-.65-2.26-1.29-3.35-.74-1.09-1.7-2.01-2.62-2.89-.44-.35-1.03-.87-1.68-1.71-1.18-1.31-1.89-2.55-2.27-4-.05-.18-.1-.39-.15-.61-.15-.63-.62-2.54-1.03-2.71Z"/>
      <path class="cls-5" d="M297.08,334.15c-.09,0-.19,0-.28-.03-1.11-.25-1.54-1.82-1.92-3.54l-.07-.3c-.38-1.66-1.31-3.31-2.76-4.9-.42-.46-.9-.86-1.4-1.28-.65-.54-1.32-1.1-1.89-1.84-1.09-1.4-1.51-2.9-1.92-4.35-.13-.46-.26-.93-.42-1.41l-.12-.35c-.27-.78-.51-1.52-.09-2.14.41-.6,1.24-.7,1.92-.73,1.69-.08,3.3.58,4.51,1.16,2.05.97,3.87,2.67,5.56,5.19,2.96,4.97,3.1,10.03.39,13.54-.5.65-1.01.97-1.53.97ZM288.37,314.61c-.06,0-.12,0-.19,0-.73.03-.87.16-.88.16-.02.11.15.61.26.95l.12.36c.16.49.3.98.43,1.46.39,1.39.76,2.7,1.69,3.89.49.62,1.07,1.11,1.7,1.63.51.43,1.04.87,1.53,1.41,1.61,1.77,2.64,3.62,3.08,5.5l.07.31c.42,1.92.73,2.43.91,2.52,0-.01.16-.08.45-.45,3.5-4.55.53-10.35-.46-12.02-1.53-2.29-3.18-3.83-5.01-4.7h0c-1.02-.49-2.35-1.03-3.7-1.03Z"/>
      <path class="cls-5" d="M292.92,313.46c-1.37,0-2.85-.49-4.52-1.5h0c-4.42-2.66-6.16-7.99-6.32-12.08-.1-2.44.64-4.9,2.08-6.91.39-.55,1.82-2.09,3.1-1.83.35.07.97.33,1.22,1.33.2.81.19,1.61.19,2.39v.39c0,1.31.31,2.52.97,3.83.53,1.29,1.04,1.97,1.57,2.61.74,1.14,1.4,2.22,1.89,3.49.54,1.66.59,3.15.64,4.72,0,.15.04.33.08.55.29,1.69.34,2.31.03,2.7l-.18.23-.36.06c-.13,0-.25.01-.38.01ZM286.96,292.44c-.38,0-1.25.66-1.71,1.3-1.27,1.77-1.92,3.93-1.84,6.08.14,3.57,1.71,8.6,5.68,10.99h0c1.39.84,2.55,1.26,3.62,1.3-.04-.45-.16-1.13-.21-1.44-.05-.32-.09-.56-.09-.65-.06-1.62-.1-2.96-.57-4.41-.43-1.11-1.06-2.13-1.72-3.15-.52-.63-1.12-1.43-1.7-2.84-.73-1.45-1.09-2.86-1.09-4.38v-.4c0-.73.01-1.42-.15-2.07-.05-.21-.12-.33-.17-.34-.02,0-.03,0-.05,0Z"/>
      <path class="cls-5" d="M295.63,312.75s-.03,0-.04,0c-.24,0-.82-.12-1.07-.89-.34-1.05-.36-2.11-.38-3.14,0-.49-.02-.98-.06-1.46-.16-1.7-.93-3.53-2.16-5.16-1.04-1.38-2.08-2.96-2.63-5.18h0c-.22-.91-.26-1.83-.28-2.72-.03-.85-.05-1.64-.24-2.42-.21-.87.25-1.27.46-1.4,1.55-.98,6.29,2.08,6.33,2.11,1.77,1.39,3.21,3.51,4.28,6.3.83,2.56,1.06,4.85.73,7.27-.14,1.03-.51,2-.85,2.81-.02.04-2.42,3.88-4.09,3.88ZM290.58,296.58c.46,1.88,1.29,3.24,2.4,4.7,1.38,1.83,2.24,3.9,2.43,5.84.05.52.06,1.04.07,1.57.02.94.03,1.84.29,2.68.73-.33,2.42-2.47,2.74-3.06.29-.7.62-1.57.74-2.45.3-2.2.09-4.31-.67-6.64-.97-2.53-2.27-4.46-3.85-5.7-.59-.47-3.67-2.05-4.64-2.05h-.02c.21.9.24,1.79.27,2.66.03.86.05,1.66.25,2.44h0Z"/>
      <path class="cls-5" d="M302.57,322.94c-.58,0-.98-.44-1.12-.59-.85-.91-1.31-2.06-1.69-3.17-1.72-5.05.82-10.7,4.09-14.05,2.25-2.3,5.31-3.46,8.19-3.1.89.11,1.44.46,1.64,1.05.39,1.13-.79,2.46-2.15,3.83-.14.14-.26.26-.35.36-.84.9-1.4,1.93-1.83,3.36-.37.98-.48,1.67-.55,2.27v.06s-.66-.14-.66-.14l.64.18c-.28,1.33-.57,2.71-1.15,4.04-.67,1.31-1.54,2.28-2.38,3.22-.3.34-.61.68-.92,1.05-.12.15-.23.32-.34.49-.31.5-.67,1.07-1.32,1.14-.04,0-.08,0-.11,0ZM311,303.3c-2.2,0-4.47,1-6.2,2.77-2.89,2.96-5.31,8.19-3.78,12.68.33.97.73,1.96,1.4,2.69.05.06.1.1.13.12.1-.11.23-.33.32-.47.14-.22.28-.45.44-.64.31-.38.63-.73.94-1.08.82-.92,1.59-1.78,2.17-2.9.51-1.17.79-2.47,1.05-3.74h0c.08-.65.21-1.46.61-2.53.47-1.57,1.15-2.81,2.12-3.85.1-.11.23-.24.38-.39,1.61-1.63,1.89-2.24,1.83-2.45h0s-.12-.1-.55-.16c-.29-.04-.58-.05-.87-.05Z"/>
      <path class="cls-5" d="M306.56,324.85c-1.24,0-2.04-.32-2.39-.96-.35-.64-.17-1.45.52-2.42.35-.49.73-.92,1.03-1.24.37-.36.7-.71,1.05-1.16.4-.46.66-.82.87-1.17.81-1.33,1.25-2.82,1.48-5,.14-1.32.59-2.65,1.35-3.94.48-.73.98-1.38,1.46-1.99.22-.24.4-.44.59-.63.6-.62,1.16-1.21,1.56-1.95.37-.7.93-.69,1.14-.66,1.63.25,3.05,5.28,3.06,5.35h0c.45,2.42,0,5.19-1.35,8.22-1.22,2.4-2.76,4.26-4.72,5.7-1.52,1.12-3.36,1.76-5.33,1.84-.11,0-.22,0-.32,0ZM315.16,305.2c-.49.83-1.09,1.46-1.67,2.06-.18.19-.36.38-.54.57-.43.54-.91,1.17-1.34,1.83-.63,1.08-1.04,2.26-1.16,3.37-.17,1.59-.51,3.65-1.67,5.56-.26.42-.56.83-.98,1.32-.38.49-.75.87-1.12,1.24-.26.29-.6.67-.9,1.09-.45.64-.46.94-.43,1.01.05.09.41.31,1.48.26,1.7-.07,3.29-.62,4.6-1.58,1.82-1.34,3.18-2.99,4.31-5.2,1.22-2.76,1.65-5.26,1.24-7.41h0c-.12-.63-1.17-3.36-1.81-4.12Z"/>
      <path class="cls-5" d="M295.42,79.72c-.14,0-.29-.03-.42-.09-22.35-10.02-24.52-22.96-24.41-28.05.13-6.22,3.61-11.58,8.85-13.68,5.23-2.08,11-.61,15.98,4.02,4.98-4.64,10.76-6.11,15.98-4.02,5.25,2.09,8.72,7.46,8.85,13.68.11,5.09-2.06,18.03-24.41,28.05-.13.06-.28.09-.42.09ZM284.2,39.04c-1.36,0-2.7.25-4,.77-4.48,1.78-7.44,6.42-7.56,11.81-.1,4.65,1.94,16.45,22.77,25.94,20.84-9.49,22.87-21.29,22.77-25.94-.11-5.39-3.08-10.02-7.56-11.81-4.68-1.87-9.96-.31-14.48,4.27-.39.39-1.08.39-1.46,0-3.27-3.31-6.94-5.04-10.49-5.04Z"/>
      <path class="cls-5" d="M69.95,316.2h-26.45c-.51,0-.95-.38-1.02-.88l-5.29-37.03c-.04-.29.05-.59.24-.82.2-.23.48-.35.78-.35h37.03c.3,0,.58.13.78.35.2.22.28.52.24.82l-.66,4.59c6.62,2.25,11.2,7.7,11.25,13.52.03,3.73-1.86,7.48-5.17,10.29-2.81,2.39-6.27,3.81-10.07,4.13l-.64,4.49c-.07.51-.51.88-1.02.88ZM44.39,314.14h24.67l.63-4.44c.07-.49.48-.86.98-.88,3.67-.15,7.01-1.43,9.68-3.7,2.85-2.42,4.47-5.59,4.45-8.71-.04-5.08-4.5-10.06-10.62-11.83-.49-.14-.8-.63-.73-1.13l.61-4.28h-34.66l5,34.97ZM71.47,305.52c-.27,0-.54-.11-.74-.31-.22-.23-.33-.55-.28-.87l2.23-15.58c.04-.31.22-.57.49-.74.26-.16.59-.19.88-.09,4.9,1.73,7.49,5.58,7.51,8.5.02,2.12-1.22,4.45-3.31,6.22h0c-1.83,1.56-4.14,2.54-6.65,2.85-.04,0-.08,0-.12,0ZM74.53,290.37l-1.84,12.85c1.59-.39,3.03-1.11,4.22-2.13,1.63-1.38,2.59-3.12,2.58-4.64-.01-1.94-1.85-4.58-4.97-6.08ZM77.59,301.88h.01-.01Z"/>
      <path class="cls-5" d="M39.17,246.21H15.21c-2.42,0-4.38-1.97-4.38-4.38v-46.37c0-2.42,1.97-4.38,4.38-4.38h23.95c2.42,0,4.38,1.97,4.38,4.38v46.37c0,2.42-1.97,4.38-4.38,4.38ZM15.21,193.13c-1.28,0-2.32,1.04-2.32,2.32v46.37c0,1.28,1.04,2.33,2.32,2.33h23.95c1.28,0,2.32-1.04,2.32-2.33v-46.37c0-1.28-1.04-2.32-2.32-2.32H15.21Z"/>
      <path class="cls-5" d="M42.52,240.08H11.86c-.57,0-1.03-.46-1.03-1.03s.46-1.03,1.03-1.03h30.66c.57,0,1.03.46,1.03,1.03s-.46,1.03-1.03,1.03Z"/>
      <path class="cls-5" d="M31.79,198h-5.73c-.57,0-1.03-.46-1.03-1.03s.46-1.03,1.03-1.03h5.73c.57,0,1.03.46,1.03,1.03s-.46,1.03-1.03,1.03Z"/>
      <circle class="cls-5" cx="22.71" cy="196.97" r="1.34"/>
      <path class="cls-5" d="M42.52,202.1H11.86c-.57,0-1.03-.46-1.03-1.03s.46-1.03,1.03-1.03h30.66c.57,0,1.03.46,1.03,1.03s-.46,1.03-1.03,1.03Z"/>
      <path class="cls-5" d="M361.31,277.34h-40.89c-.45,0-.81-.36-.81-.81v-25.56c0-.45.36-.81.81-.81h8.89l4.48-7.28c.15-.24.41-.38.69-.38h12.78c.28,0,.54.15.69.38l4.48,7.28h8.89c.45,0,.81.36.81.81v25.56c0,.45-.36.81-.81.81ZM321.22,275.73h39.28v-23.94h-8.54c-.28,0-.54-.15-.69-.38l-4.48-7.28h-11.88l-4.48,7.28c-.15.24-.41.38-.69.38h-8.54s0,23.94,0,23.94Z"/>
      <path class="cls-5" d="M340.86,272.08c-5.07,0-9.2-4.13-9.2-9.2s4.13-9.2,9.2-9.2,9.2,4.13,9.2,9.2-4.13,9.2-9.2,9.2ZM340.86,255.29c-4.18,0-7.59,3.4-7.59,7.59s3.4,7.59,7.59,7.59,7.59-3.4,7.59-7.59-3.4-7.59-7.59-7.59Z"/>
      <path class="cls-5" d="M340.86,268.8c-3.26,0-5.92-2.65-5.92-5.92s2.65-5.92,5.92-5.92,5.92,2.65,5.92,5.92-2.66,5.92-5.92,5.92ZM340.86,258.57c-2.37,0-4.3,1.93-4.3,4.3s1.93,4.3,4.3,4.3,4.31-1.93,4.31-4.3-1.93-4.3-4.31-4.3Z"/>
      <path class="cls-5" d="M372.81,209.8h-39.99c-.57,0-1.03-.46-1.03-1.03,0-8.21,4.57-15.55,11.77-19.11-2.41-2.46-3.77-5.76-3.77-9.27,0-7.27,5.84-13.19,13.03-13.19s13.03,5.92,13.03,13.19c0,3.51-1.35,6.81-3.77,9.27,7.2,3.56,11.76,10.9,11.76,19.11,0,.57-.46,1.03-1.03,1.03ZM333.88,207.74h37.88c-.39-7.49-4.98-14.03-11.92-16.84-.34-.14-.58-.45-.63-.81-.05-.36.09-.73.38-.95,2.67-2.13,4.21-5.32,4.21-8.75,0-6.14-4.92-11.13-10.97-11.13s-10.97,5-10.97,11.13c0,3.43,1.53,6.62,4.21,8.75.29.23.43.59.38.95-.05.36-.29.67-.63.81-6.94,2.81-11.54,9.35-11.92,16.84Z"/>
    </g>
    <path class="cls-1" d="M822.31,199.17c-3.16,15.04-4.97,13.55-36.56,27.84-12.77,5.78-22.28,30.08-50.23,33.33-11.69,5.03-35.43-.94-60.58-2.04-23.34-1.02-49.47,14.44-63.89,11.4-29.96-6.3-47.87-34.25-64.6-52.22-16.72-17.97-12.21-41.43-7.77-62.54,4.44-21.11,1.43-24.09,23.97-33.8,11.5-4.95,35.45-50.41,69.03-55.14,32.23-4.54,70.73,8.79,85.4,11.87,29.96,6.3,49.23,27.64,65.95,45.61,16.72,17.97,45.75,12.89,39.27,75.68Z"/>
    <path class="cls-5" d="M640.1,103.94c-.17-.05-.28-.22-.26-.4l.21-1.5h-12.1l1.74,12.21h8.61l.22-1.55c.02-.17.17-.3.34-.31,1.28-.05,2.45-.5,3.38-1.29.99-.84,1.56-1.95,1.55-3.04-.01-1.77-1.57-3.51-3.71-4.13ZM641.52,110.25c-.64.54-1.44.89-2.32.99-.01,0-.03,0-.04,0-.1,0-.19-.04-.26-.11-.08-.08-.11-.19-.1-.3l.78-5.44c.02-.11.08-.2.17-.26.09-.06.21-.07.31-.03,1.71.6,2.62,1.95,2.62,2.97,0,.74-.43,1.55-1.15,2.17Z"/>
    <path class="cls-5" d="M785.24,180.71c-.12-.05-.2-.16-.22-.28s.03-.25.13-.33c.93-.74,1.47-1.86,1.47-3.06,0-2.14-1.72-3.89-3.83-3.89s-3.83,1.74-3.83,3.89c0,1.2.54,2.31,1.47,3.06.1.08.15.21.13.33s-.1.23-.22.28c-2.42.98-4.03,3.26-4.16,5.88h13.22c-.14-2.61-1.74-4.9-4.16-5.88Z"/>
    <path class="cls-5" d="M578.54,143.01c-.12-.05-.2-.16-.22-.28s.03-.25.13-.33c.93-.74,1.47-1.86,1.47-3.06,0-2.14-1.72-3.89-3.83-3.89s-3.83,1.74-3.83,3.89c0,1.2.54,2.31,1.47,3.06.1.08.15.21.13.33s-.1.23-.22.28c-2.42.98-4.03,3.26-4.16,5.88h13.22c-.14-2.61-1.74-4.9-4.16-5.88Z"/>
    <path class="cls-5" d="M718.8,117.02c7.27-3.31,7.98-7.43,7.95-9.05-.04-1.88-1.08-3.5-2.64-4.12-1.63-.65-3.48-.11-5.06,1.49-.13.14-.38.14-.51,0-1.14-1.16-2.42-1.76-3.66-1.76-.47,0-.94.09-1.4.27-1.56.62-2.6,2.24-2.64,4.12-.03,1.62.68,5.74,7.95,9.05Z"/>
    <path class="cls-5" d="M579.1,210.48c3.24-.3,5.81-2.08,7.39-3.53.11-.1.27-.12.41-.05l3.82,2.01-1.08-3.27c-.02-.07-.02-.15,0-.23l1.08-3.27-3.82,2.01c-.13.07-.3.05-.41-.05-1.58-1.45-4.14-3.23-7.39-3.53-.23-.02-.46-.03-.68-.03-3.07,0-5.49,1.89-6.43,2.74-1.19,1.09-1.69,2-1.69,2.24s.5,1.16,1.69,2.24c1.01.92,3.71,3.02,7.11,2.71ZM574.1,203.5c.66,0,1.19.54,1.19,1.19s-.54,1.19-1.19,1.19-1.19-.54-1.19-1.19.54-1.19,1.19-1.19Z"/>
    <path class="cls-5" d="M731.83,241.19h.17c.09.02.14.02.23,0,.06,0,.13,0,.22,0,2.1,0,3.81-1.71,3.81-3.81s-1.71-3.81-3.81-3.81c-.4,0-.79.06-1.17.18l-.32.1-.14-.3c-.54-1.16-1.71-1.9-2.99-1.9-.14,0-.29,0-.43.03l-.34.04-.08-.34c-.39-1.74-1.92-2.96-3.71-2.96-2.1,0-3.81,1.71-3.81,3.81,0,.38.05.75.16,1.1l.1.34-.34.12c-1.5.55-2.5,1.98-2.5,3.58,0,2.1,1.71,3.81,3.81,3.81h11.13Z"/>
    <g>
      <path class="cls-5" d="M638.69,240.42c-.08,0-.16-.03-.23-.09l-8.04-7.23v10l5.52-4.21c.15-.11.36-.08.47.06.11.15.08.36-.06.47l-5.27,4.02h15.43l-5.27-4.02c-.15-.11-.18-.32-.06-.47.11-.15.32-.18.47-.06l5.52,4.21v-10.21l-8.26,7.44c-.06.06-.14.09-.22.09Z"/>
      <polygon class="cls-5" points="646.41 232.68 630.96 232.68 638.69 239.63 646.41 232.68"/>
    </g>
    <path class="cls-3" d="M781.97,179.25c-2.72,37.96-52.52,65.32-111.25,61.12-57.74-4.13-105.11-24.58-101.41-76.33,2.72-37.96,52.52-65.32,111.25-61.12,58.72,4.2,104.13,38.38,101.41,76.33Z"/>
    <circle class="cls-4" cx="352.55" cy="190.04" r="41.22"/>
    <circle class="cls-4" cx="65.6" cy="73.51" r="41.22"/>
    <circle class="cls-4" cx="138.63" cy="340.15" r="41.22"/>
  </g>
  <g id="_文字" data-name="文字">
    <g>
      <path class="cls-5" d="M605.94,157.63c-1.08-.53-2.21-.8-3.4-.8-.59,0-1.04.11-1.34.34-.31.23-.46.53-.46.92,0,.63.48,1.09,1.43,1.36,1.69.46,2.88,1.02,3.56,1.67.69.65,1.03,1.48,1.03,2.5,0,1.2-.41,2.12-1.22,2.75-.82.63-2.02.95-3.62.95-.71,0-1.46-.11-2.23-.33-.77-.22-1.42-.51-1.94-.86l.68-2.26c1.16.79,2.36,1.19,3.6,1.19.59,0,1.03-.12,1.33-.37.3-.24.45-.59.45-1.03,0-.36-.12-.66-.37-.88s-.67-.43-1.28-.61c-1.55-.45-2.67-1-3.35-1.66-.68-.65-1.02-1.46-1.02-2.42,0-1.08.41-1.93,1.22-2.57.81-.63,1.95-.95,3.41-.95,1.55,0,2.9.27,4.05.82l-.53,2.24Z"/>
      <path class="cls-5" d="M609.17,156.61v-2.21h2.87v2.21h-2.87ZM609.17,167.15v-8.84h2.87v8.84h-2.87Z"/>
      <path class="cls-5" d="M617.55,163.41h-.03v3.74h-2.72v-12.75h2.72v7.26h.03l2.86-3.35h3.14l-3.79,4.22,3.88,4.62h-3.14l-2.94-3.74Z"/>
      <path class="cls-5" d="M625.79,156.61v-2.21h2.87v2.21h-2.87ZM625.79,167.15v-8.84h2.87v8.84h-2.87Z"/>
      <path class="cls-5" d="M644.9,154.4v12.75h-2.53l-.05-1.22h-.03c-.69.93-1.58,1.39-2.65,1.39s-1.88-.41-2.53-1.22c-.66-.81-.99-1.93-.99-3.37s.32-2.61.95-3.4c.63-.79,1.49-1.19,2.57-1.19,1.02,0,1.86.41,2.52,1.24h.03v-4.98h2.72ZM638.71,162.73c0,.79.16,1.41.48,1.84s.74.65,1.25.65.94-.21,1.26-.63.48-1.01.48-1.79v-.17c0-.76-.16-1.35-.48-1.78s-.74-.64-1.26-.64-.97.21-1.28.63c-.31.42-.46,1.04-.46,1.87Z"/>
      <path class="cls-5" d="M649.34,163.63c.08.55.31.99.71,1.3.39.31.9.47,1.52.47.84,0,1.66-.2,2.46-.61l.59,1.85c-1.01.45-2.11.68-3.31.68-1.41,0-2.54-.41-3.39-1.24-.86-.83-1.28-1.94-1.28-3.35s.4-2.54,1.19-3.36,1.86-1.23,3.2-1.23,2.44.39,3.2,1.18c.76.79,1.14,1.91,1.14,3.37,0,.35-.02.66-.07.94h-5.95ZM649.32,161.95h3.5c-.01-1.3-.59-1.96-1.73-1.96-.52,0-.94.17-1.24.5-.31.33-.48.82-.53,1.45Z"/>
      <path class="cls-5" d="M663.72,160.71c-.96-.4-1.91-.59-2.84-.59-.52,0-.89.06-1.1.18s-.31.3-.31.54.09.41.28.54c.19.13.52.23,1,.3,1.33.17,2.27.49,2.85.97.57.48.86,1.13.86,1.97s-.33,1.5-.98,1.99c-.65.49-1.59.73-2.81.73-1.44,0-2.74-.28-3.91-.85l.51-1.97c.97.56,2.03.83,3.18.83.86,0,1.29-.26,1.29-.78,0-.23-.08-.4-.25-.51s-.51-.21-1.03-.29c-1.3-.2-2.24-.55-2.81-1.03-.57-.48-.85-1.13-.85-1.95s.33-1.45.98-1.92c.65-.48,1.61-.71,2.88-.71s2.42.21,3.57.63l-.51,1.94Z"/>
      <path class="cls-5" d="M666.78,156.61v-2.21h2.87v2.21h-2.87ZM666.78,167.15v-8.84h2.87v8.84h-2.87Z"/>
      <path class="cls-5" d="M675.3,158.14c1.08,0,1.97.46,2.69,1.39h.03l.05-1.22h2.53v7.87c0,1.62-.42,2.84-1.26,3.65-.84.82-2.07,1.22-3.71,1.22-1.04,0-2.03-.17-2.97-.51l.46-1.97c.79.33,1.59.49,2.4.49.86,0,1.48-.21,1.85-.64.37-.42.56-1.16.56-2.22v-.48h-.02c-.65.83-1.52,1.24-2.62,1.24-1,0-1.83-.4-2.49-1.19-.66-.79-.99-1.87-.99-3.23s.31-2.49.94-3.26c.63-.77,1.48-1.16,2.54-1.16ZM674.41,162.56c0,.75.16,1.33.47,1.75s.72.63,1.23.63.96-.2,1.28-.59.48-.96.48-1.7v-.17c0-.73-.16-1.29-.48-1.69s-.75-.6-1.28-.6-.95.2-1.25.6c-.3.4-.45.99-.45,1.78Z"/>
      <path class="cls-5" d="M682.84,158.31h2.52l.07,1.22h.03c.33-.43.73-.77,1.21-1.02.48-.25.98-.37,1.49-.37,1.06,0,1.84.31,2.33.93.49.62.73,1.69.73,3.2v4.88h-2.69v-4.59c0-.92-.1-1.53-.29-1.84-.19-.31-.53-.47-1.02-.47-.42,0-.8.23-1.15.68s-.52.98-.52,1.58v4.64h-2.72v-8.84Z"/>
      <path class="cls-5" d="M702.07,165.42c2.41-.34,3.62-1.8,3.62-4.39,0-1.05-.3-1.95-.91-2.69s-1.4-1.21-2.39-1.4c-.29,2.12-.63,3.89-.99,5.31s-.78,2.51-1.24,3.26-.93,1.28-1.4,1.57c-.48.29-1.03.44-1.65.44-.96,0-1.85-.54-2.66-1.63s-1.22-2.41-1.22-3.98c0-2.23.75-4.05,2.26-5.45,1.51-1.4,3.49-2.1,5.95-2.1,1.98,0,3.62.63,4.91,1.88s1.94,2.85,1.94,4.79-.51,3.63-1.53,4.83c-1.02,1.2-2.4,1.88-4.13,2.02l-.56-2.47ZM699.66,157.04c-1.2.29-2.14.87-2.81,1.73-.67.86-1.01,1.91-1.01,3.14,0,.76.15,1.45.45,2.07.3.62.58.93.82.93.12,0,.26-.08.42-.24.15-.16.32-.43.5-.82.18-.39.36-.87.54-1.45.17-.58.36-1.33.55-2.25.19-.92.37-1.96.54-3.12Z"/>
      <path class="cls-5" d="M724.12,163.04c-.07.9-.14,1.64-.21,2.23-.07.59-.17,1.1-.29,1.55-.12.44-.24.78-.37,1.01-.12.23-.3.42-.53.56s-.46.23-.69.27c-.23.04-.54.06-.93.06-1.11,0-2.5-.03-4.17-.09l-.15-2.23c1.72.07,2.83.1,3.31.1.32,0,.52-.06.6-.2.08-.13.17-.54.27-1.23l-6.53-.02c-.17.73-.34,1.35-.51,1.89l-2.7-.37c.35-1.1.67-2.37.95-3.81-.34.11-.86.27-1.56.48l-.87-2.28c1.82-.46,3.52-1.03,5.08-1.7h-5.02v-2.09h5.47v-1.05h-4.05v-2.01h4.05v-1.1h2.77v1.1h3.4v1.11c.7-.61,1.31-1.22,1.82-1.84l2.04,1.34c-.67.78-1.52,1.6-2.55,2.45h2.92v2.09h-5.87c-.7.43-1.43.84-2.19,1.22,2.86-.18,5.2-.43,7.02-.75l.48,1.96c-2.54.41-5.93.69-10.18.85-.01.06-.03.14-.04.25-.02.11-.03.19-.04.25h9.25ZM720.36,156.12h-2.29v1.05h.77c.5-.32,1.01-.67,1.53-1.05Z"/>
      <path class="cls-5" d="M729.02,157.67h11.17v2.69l-3.35,2.36v.02h.05c.48,0,.83.51,1.07,1.53.14.55.29.9.47,1.04s.52.21,1.05.21c.68,0,1.33-.09,1.94-.27l.44,2.33c-.83.23-1.72.34-2.67.34-1.09,0-1.9-.16-2.45-.49-.54-.33-.91-.86-1.09-1.6-.12-.53-.25-.9-.38-1.1-.13-.2-.29-.3-.47-.3s-.51.16-1,.47c-.48.31-2.02,1.38-4.62,3.19l-1.46-2.04,8.77-6.03-.02-.03h-7.46v-2.31ZM730.48,155.98l.29-2.31c2.69.35,5.39.53,8.13.53v2.4c-2.4,0-5.21-.2-8.42-.61Z"/>
      <path class="cls-5" d="M754.23,165.59c.93-.46,1.39-1.23,1.39-2.29,0-1.4-1.07-2.11-3.21-2.11-1.21,0-2.3.12-3.27.35-.97.23-2.09.65-3.37,1.25l-.95-1.89,7.33-4.3v-.02h-6.21v-2.26h11.12l.02,2.31-5.1,2.7.02.02c.56-.1,1.1-.15,1.63-.15,1.54,0,2.73.35,3.58,1.05.84.7,1.27,1.66,1.27,2.86,0,1.62-.6,2.88-1.79,3.77-1.19.9-2.88,1.34-5.07,1.34-3.45,0-5.17-1.04-5.17-3.11,0-.78.37-1.44,1.12-1.97.75-.53,1.76-.8,3.03-.8s2.25.21,2.83.64c.58.43.88,1.06.88,1.91,0,.25-.02.48-.07.7ZM751.8,166.08c.15-.36.22-.67.22-.92,0-.29-.11-.51-.33-.65-.22-.14-.64-.21-1.25-.21-.49,0-.85.08-1.1.23-.24.15-.37.35-.37.59,0,.66.88.99,2.63.99.02,0,.05,0,.09,0s.07,0,.09,0Z"/>
      <path class="cls-5" d="M605.23,178.93l2.82.07c-.17,2.91-.26,5.4-.26,7.46,0,1.64.18,2.73.54,3.27.36.54,1,.81,1.93.81.99,0,1.88-.37,2.67-1.1.79-.74,1.52-1.93,2.19-3.59l2.47.93c-1.58,4.24-4.02,6.36-7.33,6.36-1.35,0-2.39-.2-3.14-.6s-1.28-1.07-1.62-2.03c-.34-.96-.51-2.31-.51-4.05,0-2.48.08-4.99.24-7.53Z"/>
      <path class="cls-5" d="M630.36,178.3l1.63,2.14c-1.94,1.41-3.86,2.7-5.76,3.89-.67.42-1.1.71-1.3.88s-.3.33-.3.48c0,.15.08.3.26.46.17.16.58.45,1.22.88,2.04,1.38,4.17,2.96,6.39,4.73l-1.77,2.01c-1.79-1.41-3.87-2.94-6.24-4.61-1.39-.97-2.25-1.64-2.57-1.99-.32-.35-.48-.84-.48-1.48,0-.67.17-1.18.5-1.55.33-.36,1.19-.98,2.56-1.85,2.01-1.27,3.96-2.6,5.85-4Z"/>
      <path class="cls-5" d="M638.26,181.65v-2.33h7.34v2.33c-.03.33-.14,1.18-.32,2.55.7.05,1.4.15,2.09.31.02-1.4.03-2.68.03-3.82h2.6c0,1.94-.02,3.47-.07,4.61.94.39,1.79.82,2.55,1.29l-1.1,2.23c-.49-.32-1.04-.62-1.65-.92-.14,1.05-.37,1.92-.69,2.58s-.71,1.2-1.16,1.6c-.45.4-1.13.85-2.02,1.36l-1.33-2.18c.69-.38,1.19-.71,1.49-.97.3-.26.56-.65.78-1.17s.37-1.24.45-2.14c-.8-.22-1.58-.35-2.33-.39-.23,1.34-.47,2.43-.73,3.27-.26.84-.56,1.49-.88,1.92-.33.44-.67.73-1.01.88-.35.15-.77.23-1.28.23-1,0-1.92-.44-2.75-1.33-.84-.88-1.26-1.89-1.26-3.01s.49-2.02,1.45-2.81,2.33-1.27,4.07-1.48c.14-1.2.23-2.07.27-2.62h-4.54ZM642.19,186.71c-.85.15-1.49.38-1.91.71-.42.32-.64.7-.64,1.13,0,.36.13.72.4,1.08.27.36.52.54.76.54.54,0,1.01-1.15,1.39-3.45Z"/>
      <path class="cls-5" d="M667.37,190.42l.22,2.33c-1.52.23-3.03.34-4.52.34-2.15,0-3.7-.26-4.64-.78-.94-.52-1.41-1.32-1.41-2.4,0-.84.37-1.62,1.12-2.35s1.87-1.34,3.37-1.85c-.26-.41-.7-.61-1.33-.61-.56,0-1.12.23-1.7.7-.58.46-1.32,1.32-2.21,2.57l-2.18-1.21c1.27-1.78,2.26-3.42,2.96-4.91h-2.67v-2.19h3.57c.2-.57.41-1.16.61-1.79l2.72.46c-.06.17-.14.4-.25.69s-.19.5-.24.64h6.9v2.19h-7.82c-.1.23-.27.58-.49,1.05l.03.02c.51-.19.99-.29,1.45-.29,1.59,0,2.68.66,3.28,1.99.99-.2,2.14-.38,3.47-.53l.22,2.26c-1.07.11-2.11.27-3.13.48.09.7.14,1.47.14,2.29h-2.75c0-.58-.02-1.1-.05-1.56-.74.26-1.3.54-1.69.84-.39.3-.59.58-.59.84,0,.41.23.71.68.9.45.19,1.33.29,2.63.29,1.03,0,2.46-.14,4.3-.41Z"/>
      <path class="cls-5" d="M681.83,187.09v2.07h-2.01v1.38c.63-.1,1.38-.23,2.24-.39l.02,2.21c-2.18.44-4.61.78-7.29,1.02l-.14-2.21c.76-.07,1.65-.16,2.67-.29v-1.72h-2.02v-1.31c-.36.14-.71.25-1.04.36v2.47c0,.51,0,.92-.02,1.22-.01.31-.05.59-.12.84-.07.25-.14.44-.22.56s-.21.22-.4.3c-.19.08-.39.13-.59.14-.21.02-.5.03-.86.03-.34,0-.8-.03-1.38-.08l-.14-2.14c.44.06.77.08.97.08.11,0,.18-.03.2-.08.02-.06.03-.26.03-.61v-2.02c-.12.02-.49.1-1.09.22l-.15-2.35c.57-.1.98-.18,1.24-.24v-3.25h-1.22v-2.21h1.22v-2.82h2.52v2.82h1.07v-1.48h1.99v-1.36h2.5v1.36h1.99v2.07h-1.99v1.55h2.26v2.14h-7.02v-2.07h-.8v2.6c.6-.18.96-.29,1.09-.34l.02,1.53h1.96v-1.36h2.5v1.36h2.01ZM675.37,183.23h1.96v-1.55h-1.96v1.55ZM682.45,193.8v-15.54h2.58v5.1c.67.86,1.32,1.89,1.96,3.08l-.8,2.84c-.37-.77-.76-1.47-1.16-2.11v6.63h-2.58Z"/>
      <path class="cls-5" d="M692.24,179.23c-.53,2.08-.8,4.35-.8,6.8s.27,4.71.8,6.8l-2.7.29c-.57-2.16-.85-4.53-.85-7.09s.28-4.92.85-7.09l2.7.29ZM693.48,181.9h4.76v-3.13h2.6v3.13h2.35v2.31h-2.35v1.79c0,1.58-.16,2.81-.47,3.71-.31.9-.83,1.6-1.56,2.12-.73.51-1.8.95-3.2,1.3l-.87-2.33c.58-.17,1.03-.31,1.35-.42s.63-.26.93-.44c.3-.18.52-.36.65-.54.13-.18.25-.44.35-.78.1-.34.16-.7.19-1.08.02-.38.03-.89.03-1.52v-1.79h-4.76v-2.31Z"/>
      <path class="cls-5" d="M717.33,183.91v1.07h-9.52v-1.07c-.74.46-1.5.9-2.28,1.29l-.99-2.21c1.29-.7,2.42-1.41,3.39-2.13.97-.72,1.94-1.57,2.9-2.54h3.47c.96.97,1.93,1.82,2.9,2.54.97.72,2.1,1.43,3.39,2.13l-.99,2.21c-.78-.4-1.54-.83-2.28-1.29ZM708.98,192.98v.73h-2.7v-7.46h12.58v7.46h-2.7v-.73h-7.17ZM716.16,190.93v-2.53h-7.17v2.53h7.17ZM715.78,182.84c-1.16-.86-2.23-1.8-3.21-2.82-.99,1.02-2.06,1.96-3.21,2.82h6.43Z"/>
      <path class="cls-5" d="M725.37,188.07c-.23.25-.57.64-1.04,1.17-.46.53-.75.85-.87.98l-1.8-1.67c1.47-1.71,2.71-3.08,3.71-4.1v-1.31h-3.2v-2.18h3.2v-2.36h2.46v3.6c1.55-1.22,3.01-1.84,4.37-1.84,1.62,0,2.8.47,3.53,1.42.73.95,1.1,2.54,1.1,4.79,0,1.94-.44,3.42-1.32,4.45s-2.07,1.55-3.56,1.55c-1.01,0-1.97-.24-2.89-.73l.8-2.31c.82.34,1.51.51,2.09.51,1.46,0,2.19-1.16,2.19-3.47,0-1.47-.14-2.45-.43-2.94s-.84-.73-1.64-.73c-.5,0-1.07.19-1.73.58-.65.39-1.49,1.07-2.51,2.04v7.77h-2.46v-5.22Z"/>
      <path class="cls-5" d="M739.14,179.95h7.77v-1.7h2.6v1.7h4.49v2.18h-4.49v3.21c.35.68.53,1.46.53,2.35,0,1.76-.51,3.07-1.54,3.94-1.03.87-2.75,1.43-5.18,1.67l-.44-2.35c1.63-.16,2.73-.37,3.31-.63s.95-.67,1.13-1.22c0-.01,0-.03.02-.06.01-.03.02-.05.02-.06l-.03-.02c-.59.35-1.25.53-1.99.53-1.08,0-1.95-.31-2.63-.93-.67-.62-1.01-1.43-1.01-2.43s.34-1.81,1.03-2.43,1.59-.94,2.71-.94c.46,0,.95.1,1.44.29l.03-.02v-.9h-7.77v-2.18ZM744.66,185.2c-.27.24-.4.54-.4.92s.13.68.4.92c.27.24.61.36,1.04.36s.78-.12,1.05-.36c.27-.24.4-.54.4-.92s-.13-.68-.4-.92c-.27-.24-.62-.36-1.05-.36s-.78.12-1.04.36Z"/>
    </g>
    <g>
      <path class="cls-5" d="M121.13,173.9v-2.21h10.95c.03-.45.07-.99.1-1.62h-6.82c-.06.27-.14.6-.24.99l-2.7-.24c.62-2.86,1.15-5.66,1.56-8.42l2.7.15c-.02.16-.06.4-.1.72-.04.32-.08.56-.1.72h9.26v2.21h-9.62c-.14.77-.24,1.35-.32,1.73h9.3c-.09,1.94-.16,3.18-.2,3.74h2.11v2.21h-2.33c-.11.94-.25,1.69-.42,2.24-.16.55-.4.96-.7,1.23-.3.27-.61.44-.94.52-.33.07-.79.11-1.39.11-1.33,0-2.86-.03-4.59-.1l-.07-2.28c1.44.06,2.79.08,4.06.08.31,0,.52-.02.65-.07.12-.04.24-.2.34-.46.1-.26.19-.69.25-1.27h-10.74Z"/>
      <path class="cls-5" d="M140.32,167.02h11.17v2.69l-3.35,2.36v.02h.05c.48,0,.83.51,1.07,1.53.14.55.29.9.47,1.04s.52.21,1.05.21c.68,0,1.33-.09,1.94-.27l.44,2.33c-.83.23-1.72.34-2.67.34-1.09,0-1.9-.16-2.45-.49-.54-.33-.91-.86-1.09-1.6-.12-.53-.25-.9-.38-1.1-.13-.2-.29-.3-.47-.3s-.51.16-1,.47c-.48.31-2.02,1.38-4.62,3.19l-1.46-2.04,8.77-6.03-.02-.03h-7.46v-2.31ZM141.79,165.33l.29-2.31c2.69.35,5.39.53,8.13.53v2.4c-2.4,0-5.21-.2-8.42-.61Z"/>
      <path class="cls-5" d="M157.56,166.9l2.67.22c-.19,1.46-.32,2.42-.39,2.89l.02.02c1.62-1.04,3.21-1.56,4.78-1.56,1.75,0,3.02.33,3.82,1s1.21,1.71,1.21,3.13c0,1.51-.64,2.69-1.93,3.55-1.29.86-3.13,1.29-5.53,1.29-1.3,0-2.68-.08-4.13-.24l.2-2.35c1.64.17,2.95.26,3.93.26,1.38,0,2.45-.23,3.21-.68.76-.45,1.14-1.06,1.14-1.84,0-1.21-.78-1.82-2.33-1.82-1.27,0-2.96.65-5.07,1.94l-2.45-.53c.31-1.69.59-3.45.85-5.29ZM159.23,163.5c2.82.34,5.6.51,8.33.51v2.33c-2.92,0-5.8-.17-8.64-.51l.31-2.33Z"/>
      <path class="cls-5" d="M172.47,165.32h3.55v-2.38h2.6v3.94c1.03-.91,1.82-1.49,2.36-1.76.54-.27,1.13-.4,1.75-.4.92,0,1.58.28,1.97.83.4.56.6,1.57.6,3.04,0,.54-.08,1.24-.25,2.09-.16.84-.24,1.53-.24,2.07,0,.94.18,1.41.53,1.41.31,0,.87-.38,1.7-1.14l1.33,1.87c-.59.62-1.23,1.12-1.92,1.48s-1.32.54-1.89.54c-.86,0-1.49-.29-1.89-.86-.4-.57-.59-1.58-.59-3.02,0-.54.08-1.24.24-2.09.16-.79.24-1.48.24-2.07,0-.95-.18-1.43-.53-1.43-.1,0-.23.04-.37.14s-.47.35-.97.78c-.5.43-1.18,1.06-2.06,1.89v7.4h-2.6v-4.88c-.23.23-.59.59-1.1,1.09s-.89.87-1.15,1.12l-1.75-1.73c2.39-2.36,3.72-3.67,4-3.94v-1.68h-3.55v-2.31Z"/>
      <path class="cls-5" d="M190.18,166.9v-2.33h2.63c.16-.86.27-1.51.34-1.96l2.6.22c-.06.39-.15.96-.29,1.73h5.81v2.33h-6.24c-.75,3.75-1.67,7.3-2.77,10.64l-2.6-.58c1.06-3.22,1.96-6.57,2.69-10.06h-2.18ZM203.84,174.6l.29,2.33c-1.21.23-2.4.34-3.57.34-1.62,0-2.91-.3-3.87-.89-.96-.59-1.44-1.36-1.44-2.29,0-.86.54-1.73,1.62-2.6l2.02.97c-.42.39-.69.67-.83.84-.13.18-.2.34-.2.5,0,.33.24.6.71.82.47.21,1.13.32,1.98.32.95,0,2.04-.11,3.28-.34ZM203.73,170.18c-2.39,0-4.7.12-6.94.37l-.14-2.26c2.28-.25,4.64-.37,7.07-.37v2.26Z"/>
      <path class="cls-5" d="M212.68,169.94h2.79v1.33h6.17v2.14h-5.17c1.47.84,3.41,1.59,5.8,2.24l-1.02,2.26c-2.32-.82-4.25-1.76-5.78-2.82v2.98h-2.79v-2.98c-1.53,1.07-3.46,2.01-5.78,2.82l-1.02-2.26c2.39-.66,4.32-1.41,5.8-2.24h-5.17v-2.14h6.17v-1.33ZM211.54,167.87c-.62-.36-1.18-.73-1.68-1.09-.52.32-1.11.62-1.75.92l-1.68-1.77c2.21-.99,3.98-2.2,5.3-3.65l2.8.34c-.25.35-.46.63-.63.83h6.05v2.06c-.91.88-1.89,1.65-2.94,2.29,1.3.34,2.99.69,5.05,1.05l-.73,2.14c-2.74-.43-5.11-1.04-7.11-1.82-1.93.77-4.39,1.38-7.38,1.82l-.66-2.14c2.15-.28,3.94-.61,5.35-.99ZM214.32,166.93c.86-.38,1.64-.86,2.33-1.43h-4.95c.76.54,1.63,1.02,2.62,1.43Z"/>
      <path class="cls-5" d="M238.6,165.01v2.21h-3.06v3.54h3.47v2.29h-3.47v5.1h-2.7v-5.1h-5.12v-2.29h5.12v-3.54h-2.41c-.45.97-1.03,2.03-1.73,3.16l-1.6-1.02v8.79h-2.58v-7.04c-.4.63-.75,1.12-1.05,1.44l-.75-3.06c.75-.94,1.36-1.96,1.84-3.06.48-1.1.87-2.4,1.17-3.89l2.48.42c-.23,1.46-.59,2.85-1.1,4.17v1.21c1.08-1.85,1.94-3.75,2.6-5.7l2.31.51c-.16.54-.37,1.16-.65,1.85h1.48v-2.4h2.7v2.4h3.06Z"/>
      <path class="cls-5" d="M246.95,163.53l2.6-.71c.05.15.15.51.32,1.09s.3,1.03.39,1.36c.52-.1,1.05-.15,1.58-.15,1.21,0,2.2.37,2.95,1.11s1.13,1.73,1.13,2.97c0,1.38-.41,2.47-1.23,3.25-.82.79-1.92,1.18-3.31,1.18-.74,0-1.46-.07-2.18-.2l.22-2.43c.54.09,1.1.14,1.67.14.61,0,1.11-.16,1.5-.49.38-.33.58-.76.58-1.31,0-1.17-.58-1.75-1.75-1.75-.15,0-.31.02-.49.05.18.68.35,1.33.51,1.94l-2.46.73c-.18-.69-.37-1.35-.56-1.97-.11.03-.29.09-.53.18-.24.08-.47.17-.69.25-.22.08-.44.16-.65.24.77,2.56,1.53,5.3,2.28,8.21l-2.67.66c-.62-2.48-1.34-5.12-2.16-7.91-.34.12-.87.33-1.58.62s-1.19.48-1.43.57l-.94-2.33c.46-.18,1.09-.43,1.87-.73.78-.31,1.23-.48,1.34-.53-.62-1.99-.96-3.08-1.02-3.25l2.6-.8c.23.68.56,1.71.99,3.09.63-.23,1.26-.44,1.87-.65-.34-1.11-.59-1.92-.75-2.43Z"/>
      <path class="cls-5" d="M85.01,190.45v-2.67h2.55v2.67h2.26v-2.67h2.63v2.67h2.19v2.28h-2.19v5.44h-7.45v-5.44h-1.87v7.06h10.78v2.28h-10.78v1.09h-2.7v-10.42h-1.94v-2.28h1.94v-2.67h2.7v2.67h1.87ZM87.56,192.73v3.37h2.26v-3.37h-2.26Z"/>
      <path class="cls-5" d="M104.88,199.77c2.41-.34,3.62-1.8,3.62-4.39,0-1.05-.3-1.95-.91-2.69s-1.4-1.21-2.39-1.4c-.29,2.12-.63,3.89-.99,5.31s-.78,2.51-1.24,3.26-.93,1.28-1.4,1.57c-.48.29-1.03.44-1.65.44-.96,0-1.85-.54-2.66-1.63s-1.22-2.41-1.22-3.98c0-2.23.75-4.05,2.26-5.45,1.51-1.4,3.49-2.1,5.95-2.1,1.98,0,3.62.63,4.91,1.88s1.94,2.85,1.94,4.79-.51,3.63-1.53,4.83c-1.02,1.2-2.4,1.88-4.13,2.02l-.56-2.47ZM102.46,191.39c-1.2.29-2.14.87-2.81,1.73-.67.86-1.01,1.91-1.01,3.14,0,.76.15,1.45.45,2.07.3.62.58.93.82.93.12,0,.26-.08.42-.24.15-.16.32-.43.5-.82.18-.39.36-.87.54-1.45.17-.58.36-1.33.55-2.25.19-.92.37-1.96.54-3.12Z"/>
      <path class="cls-5" d="M115.78,198.41v.9h-2.55v-9.16h5.95v-2.7h2.79v2.7h5.95v9.16h-2.55v-.9h-3.4v4.91h-2.79v-4.91h-3.4ZM115.78,196.2h3.4v-3.77h-3.4v3.77ZM125.36,196.2v-3.77h-3.4v3.77h3.4Z"/>
      <path class="cls-5" d="M134.41,188.58c-.53,2.08-.8,4.35-.8,6.8s.27,4.71.8,6.8l-2.7.29c-.57-2.16-.85-4.53-.85-7.09s.28-4.92.85-7.09l2.7.29ZM144.17,198.92l.37,2.4c-1.34.34-2.71.51-4.11.51-1.63,0-2.91-.32-3.83-.95s-1.38-1.49-1.38-2.57c0-.51.19-1.11.58-1.8.38-.69.9-1.34,1.55-1.94l1.89,1.48c-.88.91-1.33,1.6-1.33,2.09,0,.42.2.73.59.93.4.2,1.04.3,1.92.3,1.16,0,2.4-.15,3.74-.44ZM136.69,191.9v-2.4h7.36v2.4h-7.36Z"/>
      <path class="cls-5" d="M148.16,189.57h3.32v-1.8h2.5v1.8h7v2.19h-7v1.21c.57-.06,1.09-.08,1.58-.08,1.99,0,3.53.43,4.6,1.3,1.07.87,1.61,2.05,1.61,3.54,0,1.3-.44,2.42-1.32,3.34-.88.92-2.08,1.54-3.59,1.84l-.73-2.31c.91-.2,1.64-.57,2.2-1.1.56-.53.84-1.12.84-1.77,0-.79-.27-1.4-.82-1.84-.79,1.96-1.87,3.48-3.21,4.56-1.35,1.08-2.76,1.61-4.25,1.61-1.05,0-1.9-.31-2.54-.92-.64-.61-.96-1.44-.96-2.5,0-1.17.35-2.2,1.06-3.09.71-.89,1.72-1.58,3.04-2.04v-1.75h-3.32v-2.19ZM151.48,196.16c-1,.59-1.5,1.32-1.5,2.19,0,.44.1.78.31,1.03.21.24.5.37.88.37.07,0,.17-.01.31-.03v-3.55ZM156,195.23s-.12,0-.21,0c-.1,0-.17,0-.23,0-.48,0-1,.04-1.58.12v2.96c.8-.8,1.48-1.82,2.02-3.06Z"/>
      <path class="cls-5" d="M174.03,199.94c.93-.46,1.39-1.23,1.39-2.29,0-1.4-1.07-2.11-3.21-2.11-1.21,0-2.3.12-3.27.35-.97.23-2.09.65-3.37,1.25l-.95-1.89,7.33-4.3v-.02h-6.21v-2.26h11.12l.02,2.31-5.1,2.7.02.02c.56-.1,1.1-.15,1.63-.15,1.54,0,2.73.35,3.58,1.05.84.7,1.27,1.66,1.27,2.86,0,1.62-.6,2.88-1.79,3.77-1.19.9-2.88,1.34-5.07,1.34-3.45,0-5.17-1.04-5.17-3.11,0-.78.37-1.44,1.12-1.97.75-.53,1.76-.8,3.03-.8s2.25.21,2.83.64c.58.43.88,1.06.88,1.91,0,.25-.02.48-.07.7ZM171.6,200.43c.15-.36.22-.67.22-.92,0-.29-.11-.51-.33-.65-.22-.14-.64-.21-1.25-.21-.49,0-.85.08-1.1.23-.24.15-.37.35-.37.59,0,.66.88.99,2.63.99.02,0,.05,0,.09,0s.07,0,.09,0Z"/>
      <path class="cls-5" d="M180.97,198.24v-2.04h4.15c.04-.06.12-.15.21-.28.1-.13.17-.22.23-.28h-3.89v-4.88h3.54v-.58h-4.2v-2.16h15.13v2.16h-4.2v.58h3.54v4.88h-6.85l-.36.56h7.9v2.04h-2.45c-.39.63-.86,1.2-1.43,1.7,1.11.34,2.31.75,3.59,1.24l-1.44,2.02c-1.84-.8-3.34-1.41-4.5-1.8-1.86.8-4.56,1.35-8.09,1.63l-.65-2.16c2.06-.1,3.77-.29,5.13-.56-.73-.18-1.28-.31-1.67-.39-.06.05-.17.13-.33.25-.17.12-.29.21-.38.28l-2.18-1.09c.53-.42.99-.79,1.36-1.12h-2.16ZM185.27,193.8v-1.27h-1.33v1.27h1.33ZM189.62,199.19c.52-.31.95-.62,1.28-.95h-4.3s-.08.06-.14.11-.1.09-.12.13c1.04.19,2.14.43,3.28.71ZM189.35,193.8v-1.27h-1.56v1.27h1.56ZM187.86,190.18v.58h1.43v-.58h-1.43ZM191.87,193.8h1.33v-1.27h-1.33v1.27Z"/>
      <path class="cls-5" d="M209.31,197.13l2.12-.97c.82,1.02,1.6,2.07,2.35,3.16l-2.07,1.04c-.34-.48-.53-.74-.56-.78l-1.58.03c1.29.53,2.57,1.1,3.83,1.72l-1.21,1.82c-1.52-.78-3.04-1.5-4.57-2.16l1.04-1.36-1.72.05v3.47h-2.77v-3.4l-1.85.03,1.05,1.21c-1.21.71-2.7,1.42-4.47,2.12l-1.17-1.8c1.21-.44,2.36-.94,3.45-1.5l-3.28.08-.07-1.96,3.59-.07c-.99-.77-1.76-1.36-2.31-1.77l1.97-1.39h-3.4v-1.82h6.44v-.46h-5.29v-1.63h5.29v-.48h-5.81v-1.89h5.81v-1h2.92v1h5.81v1.89h-5.81v.48h5.29v1.63h-5.29v.46h6.44v1.82h-3.23l.77.65c-1.05.79-2.23,1.59-3.54,2.4l2.29-.05c-.1-.14-.25-.33-.46-.58ZM202.14,195.4c.28-.17.62-.4,1.02-.68h-1.94c.11.08.28.2.5.37.22.17.36.27.42.32ZM204.4,197.17c1.38-.85,2.62-1.67,3.71-2.45h-1.31c-.97.75-1.94,1.43-2.91,2.04l.51.41Z"/>
      <path class="cls-5" d="M228.37,199.77l.22,2.33c-1.52.23-3.03.34-4.52.34-2.15,0-3.7-.26-4.64-.78-.94-.52-1.41-1.32-1.41-2.4,0-.84.37-1.62,1.12-2.35s1.87-1.34,3.37-1.85c-.26-.41-.7-.61-1.33-.61-.56,0-1.12.23-1.7.7-.58.46-1.32,1.32-2.21,2.57l-2.18-1.21c1.27-1.78,2.26-3.42,2.96-4.91h-2.67v-2.19h3.57c.2-.57.41-1.16.61-1.79l2.72.46c-.06.17-.14.4-.25.69s-.19.5-.24.64h6.9v2.19h-7.82c-.1.23-.27.58-.49,1.05l.03.02c.51-.19.99-.29,1.45-.29,1.59,0,2.68.66,3.28,1.99.99-.2,2.14-.38,3.47-.53l.22,2.26c-1.07.11-2.11.27-3.13.48.09.7.14,1.47.14,2.29h-2.75c0-.58-.02-1.1-.05-1.56-.74.26-1.3.54-1.69.84-.39.3-.59.58-.59.84,0,.41.23.71.68.9.45.19,1.33.29,2.63.29,1.03,0,2.46-.14,4.3-.41Z"/>
      <path class="cls-5" d="M231.72,193.87h3.98v5.51c.27.44.62.76,1.05.95l-.32-.71c.96-.27,1.79-.56,2.48-.87h-2.65v-2.04h2.02v-.58h-1.63v-1.89h1.63v-.44c-.19,0-.44-.01-.73-.03-.58-.02-.95-.11-1.12-.26-.17-.15-.26-.48-.26-.98v-1.22l-1.48,1.39c-1.08-1.19-2.08-2.25-3.01-3.18l1.77-1.6c.93.95,1.84,1.93,2.72,2.92v-.61h2.82v-.53h-2.97v-1.85h5.17v3.76h-1.33l1.65.34c-.07.61-.14,1.03-.22,1.25s-.24.37-.48.45v.59h1.89v-.51c-.34-.05-.57-.15-.68-.32s-.17-.46-.17-.88v-2.3h2.82v-.53h-2.89v-1.85h5.08v3.76h-1.33l1.65.34c-.09.84-.22,1.34-.37,1.51-.16.17-.6.27-1.33.31-.02,0-.06,0-.12,0s-.1,0-.14,0v.46h1.63v1.89h-1.63v.58h2.01v2.04h-1.85c.74.32,1.34.61,1.82.88l-.63,1.21h.88l-.14,2.16h-4.45c-2.29,0-4.04-.11-5.26-.31-1.22-.21-2.13-.58-2.73-1.1-.7.59-1.44,1.14-2.23,1.67l-1.24-2.09c.66-.41,1.24-.8,1.73-1.17v-3.91h-1.43v-2.21ZM239.42,191.61h-1.34v.32c0,.12.02.21.05.25.03.04.11.06.22.06h.7c.17,0,.27-.03.3-.08s.05-.24.08-.54ZM244.87,200.84c-.84-.43-1.75-.83-2.72-1.19l.42-.9h-1.51l.49.82c-.53.43-1.23.83-2.09,1.21.77.05,1.88.07,3.31.07h2.09ZM240.81,196.71h1.89v-.58h-1.89v.58ZM245.1,191.61h-1.34v.32c0,.12.02.21.05.25.03.04.11.06.24.06h.68c.17,0,.27-.03.3-.08s.05-.24.08-.54Z"/>
      <path class="cls-5" d="M250.47,203.08c-.37,0-.9-.03-1.56-.08l-.14-2.12c.7.06,1.13.08,1.27.08.1,0,.16-.03.19-.09.02-.06.03-.26.03-.6v-2.23c-.71.15-1.2.24-1.45.27l-.15-2.36c1-.17,1.53-.26,1.6-.27v-3.2h-1.6v-2.21h1.6v-2.65h2.52v2.65h1.58v2.21h-1.58v2.6c.31-.07.76-.19,1.36-.37l.31,2.26c-.66.2-1.21.36-1.67.48v2.57c0,.52,0,.93-.02,1.22-.01.29-.05.57-.12.83-.07.26-.14.45-.23.55s-.22.2-.42.29-.4.14-.62.15c-.22.02-.52.03-.91.03ZM257.52,195.77c-.1,1.58-.31,2.95-.63,4.13s-.78,2.29-1.38,3.35l-2.19-1.46c.66-1.26,1.11-2.54,1.35-3.86.24-1.31.37-3.26.37-5.83v-4h8.64v7.67h-2.36c.59,2.15,1.68,3.97,3.26,5.46l-1.55,2.02c-.93-.71-1.79-1.73-2.58-3.06-.79-1.33-1.39-2.8-1.79-4.42h-1.14ZM257.61,193.56h3.43v-3.18h-3.43v3.18Z"/>
      <path class="cls-5" d="M266.14,189.3h7.77v-1.7h2.6v1.7h4.49v2.18h-4.49v3.21c.35.68.53,1.46.53,2.35,0,1.76-.51,3.07-1.54,3.94-1.03.87-2.75,1.43-5.18,1.67l-.44-2.35c1.63-.16,2.73-.37,3.31-.63s.95-.67,1.13-1.22c0-.01,0-.03.02-.06.01-.03.02-.05.02-.06l-.03-.02c-.59.35-1.25.53-1.99.53-1.08,0-1.95-.31-2.63-.93-.67-.62-1.01-1.43-1.01-2.43s.34-1.81,1.03-2.43,1.59-.94,2.71-.94c.46,0,.95.1,1.44.29l.03-.02v-.9h-7.77v-2.18ZM271.66,194.55c-.27.24-.4.54-.4.92s.13.68.4.92c.27.24.61.36,1.04.36s.78-.12,1.05-.36c.27-.24.4-.54.4-.92s-.13-.68-.4-.92c-.27-.24-.62-.36-1.05-.36s-.78.12-1.04.36Z"/>
      <path class="cls-5" d="M293.03,199.94c.93-.46,1.39-1.23,1.39-2.29,0-1.4-1.07-2.11-3.21-2.11-1.21,0-2.3.12-3.27.35-.97.23-2.09.65-3.37,1.25l-.95-1.89,7.33-4.3v-.02h-6.21v-2.26h11.12l.02,2.31-5.1,2.7.02.02c.56-.1,1.1-.15,1.63-.15,1.54,0,2.73.35,3.58,1.05.84.7,1.27,1.66,1.27,2.86,0,1.62-.6,2.88-1.79,3.77-1.19.9-2.88,1.34-5.07,1.34-3.45,0-5.17-1.04-5.17-3.11,0-.78.37-1.44,1.12-1.97.75-.53,1.76-.8,3.03-.8s2.25.21,2.83.64c.58.43.88,1.06.88,1.91,0,.25-.02.48-.07.7ZM290.6,200.43c.15-.36.22-.67.22-.92,0-.29-.11-.51-.33-.65-.22-.14-.64-.21-1.25-.21-.49,0-.85.08-1.1.23-.24.15-.37.35-.37.59,0,.66.88.99,2.63.99.02,0,.05,0,.09,0s.07,0,.09,0Z"/>
    </g>
    <g>
      <path class="cls-5" d="M1007.62,247.53h-2.84v.75h2.62v2.14h-2.57c.66.55,1.35,1.18,2.09,1.87.54-1.1.92-2.43,1.12-4,.2-1.57.31-3.96.31-7.17,2.5-.2,4.58-.6,6.22-1.19l.66,2.35c-1.34.43-2.83.75-4.47.97-.02.85-.05,1.48-.07,1.9h4.62v2.35h-1.19v8.02h-2.52v-8.02h-1.07c-.17,1.93-.46,3.5-.88,4.71-.41,1.21-1,2.33-1.76,3.37l-1.58-1.65-.37.44c-.32-.38-.71-.82-1.17-1.31v2.62h-2.57v-2.84c-.53.86-1.11,1.61-1.72,2.24l-1.29-2.02c.93-.78,1.69-1.66,2.29-2.63h-1.84v-2.14h2.55v-.75h-2.55v-2.07h1.34c-.16-.65-.33-1.29-.51-1.94h-.75v-2.14h2.47v-1.6h2.57v1.6h2.91v2.14h-.71c-.14.54-.35,1.19-.63,1.94h1.27v2.07ZM1003.22,245.46h.85c.26-.66.48-1.3.65-1.94h-1.97c.23.86.39,1.51.48,1.94Z"/>
      <path class="cls-5" d="M1017.48,244.32v-2.33h2.63c.16-.86.27-1.51.34-1.96l2.6.22c-.06.38-.15.96-.29,1.73h5.81v2.33h-6.24c-.75,3.75-1.67,7.3-2.77,10.64l-2.6-.58c1.06-3.22,1.96-6.57,2.69-10.06h-2.18ZM1031.13,252.02l.29,2.33c-1.21.23-2.4.34-3.57.34-1.62,0-2.91-.3-3.87-.89-.96-.59-1.44-1.36-1.44-2.29,0-.86.54-1.73,1.61-2.6l2.02.97c-.42.38-.69.67-.82.84-.13.18-.2.34-.2.5,0,.33.24.6.71.82.47.22,1.13.32,1.98.32.95,0,2.05-.11,3.28-.34ZM1031.03,247.6c-2.39,0-4.7.12-6.94.37l-.14-2.26c2.28-.25,4.63-.37,7.07-.37v2.26Z"/>
      <path class="cls-5" d="M1033.94,244.62v-2.31h2.79c.25-1.02.43-1.79.54-2.31l2.47.31c-.09.45-.24,1.12-.44,2.01h2.67v2.31h-3.25c-.75,2.84-1.68,5.67-2.79,8.48l-2.4-.82c1.04-2.69,1.9-5.24,2.58-7.67h-2.18ZM1048.68,244.96c-.74-.14-1.62-.22-2.65-.25v5.05c.97.66,2,1.51,3.08,2.55l-1.61,1.77c-.61-.55-1.17-1.04-1.67-1.46-.46,1.59-1.77,2.38-3.91,2.38-1.33,0-2.36-.31-3.1-.92-.74-.61-1.11-1.44-1.11-2.48s.37-1.85,1.1-2.46c.73-.61,1.77-.91,3.12-.91.45,0,.95.08,1.5.24v-6.15c2.1,0,3.95.11,5.56.34l-.29,2.31ZM1043.41,250.85c-.51-.28-1.01-.42-1.5-.42-.53,0-.93.1-1.21.31s-.41.5-.41.86.14.67.42.89c.28.22.68.33,1.19.33.57,0,.96-.12,1.17-.37.21-.25.32-.73.32-1.44v-.15Z"/>
      <path class="cls-5" d="M1057.02,254.69v.71h-2.38v-10.79h2.67v-1.82h-2.55c-.25.89-.53,1.69-.83,2.4v10.39h-2.5v-6.58c-.34.52-.64.92-.9,1.21l-.56-3.3c.68-.92,1.24-1.91,1.67-2.98s.81-2.39,1.13-3.95l2.46.54h11.07v2.28h-3.26v1.82h2.81v10.79h-2.52v-.71h-6.31ZM1057.81,252.61v-5.86h-.78v5.86h.78ZM1059.76,242.79v1.82h.82v-1.82h-.82ZM1060.56,252.61v-5.86h-.78v5.86h.78ZM1062.55,252.61h.78v-5.86h-.78v5.86Z"/>
      <path class="cls-5" d="M1077.7,252.32h-2.4v-8.43h1.77c.03-.17.08-.44.15-.8h-5.13v-1.58c-.26,1.2-.59,2.29-1,3.26v10.79h-2.5v-6.8c-.41.65-.76,1.12-1.05,1.43l-.58-3.3c.68-.92,1.24-1.91,1.67-2.98.44-1.07.81-2.39,1.13-3.95l2.55.32c-.04.35-.08.59-.12.73h5.37c.06-.4.11-.8.15-1.22l2.53.08c-.03.26-.08.64-.15,1.14h3.37v2.07h-3.69c-.01.08-.03.21-.06.39-.03.18-.05.32-.08.41h3.14v8.43h-5.08ZM1074.42,244.37v8.53h9.04v2.07h-9.04v.59h-2.41v-11.2h2.41ZM1077.7,246.39h2.62v-.65h-2.62v.65ZM1077.7,247.84v.68h2.62v-.68h-2.62ZM1080.31,250.64v-.68h-2.62v.68h2.62Z"/>
      <path class="cls-5" d="M1098.16,252.19l.22,2.33c-1.52.23-3.03.34-4.52.34-2.15,0-3.7-.26-4.64-.78-.94-.52-1.41-1.32-1.41-2.4,0-.84.38-1.62,1.12-2.35.75-.73,1.87-1.34,3.37-1.85-.26-.41-.7-.61-1.33-.61-.55,0-1.12.23-1.7.7s-1.31,1.32-2.21,2.57l-2.18-1.21c1.27-1.78,2.26-3.42,2.96-4.91h-2.67v-2.19h3.57c.2-.57.41-1.16.61-1.79l2.72.46c-.06.17-.14.4-.25.69-.11.29-.19.5-.24.64h6.9v2.19h-7.82c-.1.23-.27.58-.49,1.05l.03.02c.51-.19.99-.29,1.45-.29,1.59,0,2.68.66,3.28,1.99.98-.2,2.14-.38,3.47-.53l.22,2.26c-1.06.11-2.11.27-3.13.48.09.7.13,1.47.13,2.3h-2.75c0-.58-.02-1.1-.05-1.56-.74.26-1.3.54-1.69.84-.39.3-.59.58-.59.84,0,.41.23.71.68.9s1.33.29,2.63.29c1.03,0,2.46-.14,4.3-.41Z"/>
      <path class="cls-5" d="M1102.72,245.71l-.58-2.6c3.58-.82,6.21-1.22,7.87-1.22,4.38,0,6.58,1.83,6.58,5.49,0,2.32-.92,4.07-2.75,5.23-1.83,1.16-4.67,1.74-8.51,1.74l-.21-2.6c2.07,0,3.74-.16,5.01-.47s2.16-.76,2.69-1.35c.53-.59.8-1.34.8-2.26,0-1.07-.3-1.85-.92-2.35-.61-.5-1.6-.75-2.97-.75s-3.75.38-7.02,1.14Z"/>
      <path class="cls-5" d="M1129.15,240.07l1.63,2.14c-1.94,1.41-3.86,2.7-5.76,3.89-.67.42-1.1.71-1.3.88-.2.16-.3.33-.3.48,0,.15.08.3.26.46.17.16.58.45,1.22.88,2.04,1.38,4.17,2.96,6.39,4.73l-1.77,2.01c-1.79-1.41-3.87-2.94-6.24-4.61-1.39-.97-2.25-1.64-2.57-1.99-.32-.35-.48-.84-.48-1.48,0-.67.17-1.18.5-1.55.33-.36,1.19-.98,2.56-1.85,2.01-1.27,3.96-2.6,5.85-4Z"/>
      <path class="cls-5" d="M1137.69,240.88h2.67v2.86h.04c1.21-1.68,2.72-2.52,4.54-2.52,1.45,0,2.6.5,3.45,1.5.85,1,1.28,2.4,1.28,4.2,0,2.8-.8,4.84-2.41,6.14s-4.18,1.94-7.7,1.94l-.13-2.46c1.87,0,3.33-.19,4.39-.56,1.06-.37,1.82-.96,2.28-1.76s.69-1.9.69-3.29c0-2.05-.71-3.08-2.12-3.08-1.12,0-2.12.55-2.99,1.65-.87,1.1-1.33,2.45-1.36,4.05h-2.6v-8.65Z"/>
      <path class="cls-5" d="M1156.49,241.39v3.89h2.52v-5.27h2.72v5.27h2.52v-3.89h2.58v6.1h-5.1v4.74h3.18v-3.64h2.63v6.82h-2.63v-.9h-9.08v.9h-2.63v-6.82h2.63v3.64h3.18v-4.74h-5.1v-6.1h2.58Z"/>
      <path class="cls-5" d="M1169.94,241.72h7.77v-1.7h2.6v1.7h4.49v2.18h-4.49v3.21c.35.68.53,1.46.53,2.35,0,1.76-.51,3.07-1.54,3.94-1.03.87-2.75,1.43-5.18,1.67l-.44-2.35c1.63-.16,2.73-.37,3.31-.63s.95-.67,1.13-1.22c0-.01,0-.03.02-.06.01-.03.02-.05.02-.06l-.03-.02c-.59.35-1.25.53-1.99.53-1.08,0-1.95-.31-2.62-.94-.68-.62-1.01-1.43-1.01-2.43s.34-1.81,1.03-2.43c.69-.62,1.59-.94,2.71-.94.46,0,.95.1,1.44.29l.04-.02v-.9h-7.77v-2.18ZM1175.46,246.97c-.27.24-.4.54-.4.92s.13.68.4.92c.27.24.61.36,1.04.36s.78-.12,1.04-.36.4-.54.4-.92-.13-.68-.4-.92-.62-.36-1.04-.36-.78.12-1.04.36Z"/>
    </g>
  </g>
</svg>