<?xml version="1.0" encoding="UTF-8"?>
<svg id="_レイヤー_2" data-name="レイヤー 2" xmlns="http://www.w3.org/2000/svg" viewBox="0 0 330.24 498.97">
  <defs>
    <style>
      .cls-1 {
        fill: #cb7d1e;
      }

      .cls-2 {
        opacity: .15;
      }
    </style>
  </defs>
  <g id="_数字" data-name="数字">
    <g class="cls-2">
      <path class="cls-1" d="M34.84,18.03l8.4-7.01L55.35.91c.17-.14.09-.42-.13-.44-1.75-.19-5.03-.34-9.46-.34-6.08,0-9.99.29-10.75.57-.06.02-.11.07-.14.14-.5,1.3-.72,10.79-.44,17.02,0,.21.25.31.41.18ZM1.85,18.31c.47.73,1.01,1.42,1.64,2.05,2.25,2.25,5.24,3.49,8.42,3.49s6.17-1.24,8.42-3.49c4.65-4.65,4.65-12.2,0-16.85-.12-.12-.23-.23-.35-.34-.09-.09-.24-.09-.33,0L1.9,17.98c-.1.08-.12.22-.05.33ZM1.31,16.61L18.41,2.34c.13-.11.12-.31-.02-.4C16.43.66,14.17.02,11.91.02c-3.05,0-6.1,1.16-8.42,3.48C1.24,5.75,0,8.75,0,11.93,0,13.53.32,15.08.92,16.52c.06.16.26.2.39.09ZM46.34,10.05c-.11.09-.12.26-.02.36l10.13,10.73c.15.16.41.07.43-.14.19-1.76.34-5.02.34-9.42,0-4.73-.17-8.15-.38-9.79-.02-.2-.26-.29-.41-.16l-4.2,3.51-5.88,4.91ZM55.77,22.23l-10.42-11.04c-.09-.1-.24-.11-.34-.02l-8.87,7.4-1.48,1.24c-.06.05-.1.13-.09.21.16,1.97.33,2.35.35,2.38-.02-.04.08.06.04.04.55.29,4.53.6,10.82.6,4.79,0,8.24-.18,9.86-.39.2-.03.29-.27.15-.42ZM69.94,18.31c.47.73,1.01,1.42,1.64,2.05,2.25,2.25,5.24,3.49,8.42,3.49s6.17-1.24,8.42-3.49c4.65-4.65,4.65-12.2,0-16.85-.12-.12-.23-.23-.35-.34-.09-.09-.24-.09-.33,0l-17.75,14.82c-.1.08-.12.22-.05.33ZM69.4,16.61l17.1-14.27c.13-.11.12-.31-.02-.4-1.96-1.27-4.22-1.91-6.48-1.91-3.05,0-6.1,1.16-8.42,3.48-2.25,2.25-3.49,5.24-3.49,8.42,0,1.6.32,3.15.92,4.59.06.16.26.2.39.09ZM102.93,18.03l8.4-7.01L123.44.91c.17-.14.09-.42-.13-.44-1.75-.19-5.03-.34-9.46-.34-6.08,0-9.99.29-10.75.57-.06.02-.11.07-.14.14-.5,1.3-.72,10.79-.44,17.02,0,.21.25.31.41.18ZM123.85,22.23l-10.42-11.04c-.09-.1-.24-.11-.34-.02l-8.87,7.4-1.48,1.24c-.06.05-.1.13-.09.21.16,1.97.33,2.35.35,2.38-.02-.04.08.06.04.04.55.29,4.53.6,10.82.6,4.79,0,8.24-.18,9.86-.39.2-.03.29-.27.15-.42ZM114.43,10.05c-.11.09-.12.26-.02.36l10.13,10.73c.15.16.41.07.43-.14.19-1.76.34-5.02.34-9.42,0-4.73-.17-8.15-.38-9.79-.02-.2-.26-.29-.41-.16l-4.2,3.51-5.88,4.91ZM191.94,22.23l-10.42-11.04c-.09-.1-.24-.11-.34-.02l-8.87,7.4-1.48,1.24c-.06.05-.1.13-.09.21.16,1.97.33,2.35.35,2.38-.02-.04.08.06.04.04.55.29,4.53.6,10.82.6,4.79,0,8.24-.18,9.86-.39.2-.03.29-.27.15-.42ZM138.02,18.31c.47.73,1.01,1.42,1.64,2.05,2.25,2.25,5.24,3.49,8.42,3.49s6.17-1.24,8.42-3.49c4.65-4.65,4.65-12.2,0-16.85-.12-.12-.23-.23-.35-.34-.09-.09-.24-.09-.33,0l-17.75,14.82c-.1.08-.12.22-.05.33ZM137.49,16.61l17.1-14.27c.13-.11.12-.31-.02-.4-1.96-1.27-4.22-1.91-6.48-1.91-3.05,0-6.1,1.16-8.42,3.48-2.25,2.25-3.49,5.24-3.49,8.42,0,1.6.32,3.15.92,4.59.06.16.26.2.39.09ZM171.01,18.03l8.4-7.01,12.12-10.11c.17-.14.09-.42-.13-.44-1.75-.19-5.03-.34-9.46-.34-6.08,0-9.99.29-10.75.57-.06.02-.11.07-.14.14-.5,1.3-.72,10.79-.44,17.02,0,.21.25.31.41.18ZM182.51,10.05c-.11.09-.12.26-.02.36l10.13,10.73c.15.16.41.07.43-.14.19-1.76.34-5.02.34-9.42,0-4.73-.17-8.15-.38-9.79-.02-.2-.26-.29-.41-.16l-4.2,3.51-5.88,4.91ZM250.6,10.05c-.11.09-.12.26-.02.36l10.13,10.73c.15.16.41.07.43-.14.19-1.76.34-5.02.34-9.42,0-4.73-.17-8.15-.38-9.79-.03-.2-.26-.29-.41-.16l-4.2,3.51-5.88,4.91ZM260.03,22.23l-10.42-11.04c-.09-.1-.24-.11-.34-.02l-8.87,7.4-1.48,1.24c-.06.05-.1.13-.09.21.16,1.97.33,2.35.35,2.38-.02-.04.08.06.04.04.55.29,4.53.6,10.82.6,4.79,0,8.24-.18,9.86-.39.2-.03.29-.27.15-.42ZM239.1,18.03l8.4-7.01,12.12-10.11c.17-.14.09-.42-.13-.44-1.75-.19-5.03-.34-9.46-.34-6.08,0-9.99.29-10.75.57-.06.02-.11.07-.14.14-.5,1.3-.72,10.79-.44,17.02,0,.21.25.31.41.18ZM224.43,3.15c-.09-.08-.24-.09-.33,0l-17.75,14.82c-.1.08-.12.22-.05.33.47.73,1.01,1.42,1.64,2.05,2.25,2.25,5.24,3.49,8.42,3.49s6.17-1.24,8.42-3.49c4.65-4.65,4.65-12.2,0-16.85-.12-.12-.23-.23-.35-.34ZM205.75,16.59l17.1-14.27c.13-.11.12-.31-.02-.4-1.96-1.27-4.22-1.91-6.48-1.91-3.05,0-6.1,1.16-8.42,3.48-2.25,2.25-3.49,5.24-3.49,8.42,0,1.6.32,3.15.92,4.59.06.16.26.2.39.09ZM292.34,3.17c-.09-.09-.24-.09-.33,0l-17.75,14.82c-.1.08-.12.22-.05.33.47.73,1.01,1.42,1.64,2.05,2.25,2.25,5.24,3.49,8.42,3.49s6.17-1.24,8.42-3.49c4.65-4.65,4.65-12.2,0-16.85-.12-.12-.23-.23-.35-.34ZM273.66,16.61l17.1-14.27c.13-.11.12-.31-.02-.4-1.96-1.27-4.22-1.91-6.48-1.91-3.05,0-6.1,1.16-8.42,3.48-2.25,2.25-3.49,5.24-3.49,8.42,0,1.6.32,3.16.92,4.59.06.16.26.2.39.09ZM328.12,22.23l-10.42-11.04c-.09-.1-.24-.11-.34-.02l-8.87,7.4-1.48,1.24c-.06.05-.1.13-.09.21.16,1.97.33,2.35.35,2.38-.02-.04.08.06.04.04.55.29,4.53.6,10.82.6,4.79,0,8.24-.18,9.86-.39.2-.03.29-.27.15-.42ZM307.19,18.03l8.4-7.01,12.12-10.11c.17-.14.09-.42-.13-.44-1.75-.19-5.03-.34-9.46-.34-6.08,0-9.99.29-10.75.57-.06.02-.11.07-.14.14-.5,1.3-.72,10.79-.44,17.02,0,.21.25.31.41.18ZM318.69,10.05c-.11.09-.12.26-.02.36l10.13,10.73c.15.16.41.07.43-.14.19-1.76.34-5.02.34-9.42,0-4.73-.17-8.15-.38-9.79-.02-.2-.26-.29-.41-.16l-4.2,3.51-5.88,4.91ZM22.73,54.94c.19-1.76.34-5.02.34-9.42,0-4.73-.17-8.15-.38-9.79-.03-.2-.26-.29-.41-.16l-4.2,3.51-5.88,4.91c-.11.09-.12.26-.02.36l10.13,10.73c.15.16.41.07.43-.14ZM.69,51.97l8.4-7.01,12.12-10.11c.17-.14.09-.42-.13-.44-1.75-.19-5.03-.35-9.46-.35-6.08,0-9.99.29-10.75.57-.06.02-.11.07-.14.14C.22,36.07,0,45.56.28,51.79c0,.21.25.31.41.18ZM.79,56.38c.55.29,4.53.6,10.82.6,4.79,0,8.24-.18,9.86-.39.2-.03.29-.27.15-.42l-10.42-11.04c-.09-.1-.24-.11-.34-.02l-8.87,7.4-1.48,1.24c-.06.05-.1.13-.09.21.16,1.97.33,2.35.35,2.38-.02-.04.08.06.04.04ZM80.28,43.99c-.11.09-.12.26-.02.36l10.13,10.73c.15.16.41.07.43-.14.19-1.76.34-5.02.34-9.42,0-4.73-.17-8.15-.38-9.79-.02-.2-.26-.29-.41-.16l-4.2,3.51-5.88,4.91ZM68.88,56.38c.55.29,4.53.6,10.82.6,4.79,0,8.24-.18,9.86-.39.2-.03.29-.27.15-.42l-10.42-11.04c-.09-.1-.24-.11-.34-.02l-8.87,7.4-1.48,1.24c-.06.05-.1.13-.09.21.16,1.97.33,2.35.35,2.38-.02-.04.08.06.04.04ZM54.28,37.44c-.12-.12-.23-.23-.35-.34-.09-.08-.24-.09-.33,0l-17.75,14.82c-.1.08-.12.22-.05.33.47.73,1.01,1.42,1.64,2.05,2.25,2.25,5.24,3.49,8.42,3.49s6.17-1.24,8.42-3.49c4.65-4.65,4.65-12.2,0-16.85ZM35.25,50.55l17.1-14.27c.13-.11.12-.31-.02-.4-1.96-1.27-4.22-1.91-6.48-1.91-3.05,0-6.1,1.16-8.42,3.48-2.25,2.25-3.49,5.24-3.49,8.42,0,1.6.32,3.15.92,4.59.06.16.26.2.39.09ZM89.16,34.41c-1.75-.19-5.03-.35-9.46-.35-6.08,0-9.99.29-10.75.57-.06.02-.11.07-.14.14-.5,1.3-.72,10.79-.44,17.02,0,.21.25.31.41.18l8.4-7.01,12.12-10.11c.17-.14.09-.42-.13-.44ZM122.36,37.44c-.12-.12-.23-.23-.35-.34-.09-.08-.24-.09-.33,0l-17.75,14.82c-.1.08-.12.22-.05.33.47.73,1.01,1.42,1.64,2.05,2.25,2.25,5.24,3.49,8.42,3.49s6.17-1.24,8.42-3.49c4.65-4.65,4.65-12.2,0-16.85ZM103.34,50.55l17.1-14.27c.13-.11.12-.31-.02-.4-1.96-1.27-4.22-1.91-6.48-1.91-3.05,0-6.1,1.16-8.42,3.48-2.25,2.25-3.49,5.24-3.49,8.42,0,1.6.32,3.15.92,4.59.06.16.26.2.39.09ZM136.96,56.38c.55.29,4.53.6,10.82.6,4.79,0,8.24-.18,9.86-.39.2-.03.29-.27.15-.42l-10.42-11.04c-.09-.1-.24-.11-.34-.02l-8.87,7.4-1.48,1.24c-.06.05-.1.13-.09.21.16,1.97.33,2.35.35,2.38-.02-.04.08.06.04.04ZM148.36,43.99c-.11.09-.12.26-.02.36l10.13,10.73c.15.16.41.07.43-.14.19-1.76.34-5.02.34-9.42,0-4.73-.17-8.15-.38-9.79-.02-.2-.26-.29-.41-.16l-4.2,3.51-5.88,4.91ZM157.25,34.41c-1.75-.19-5.03-.35-9.46-.35-6.08,0-9.99.29-10.75.57-.06.02-.11.07-.14.14-.5,1.3-.72,10.79-.44,17.02,0,.21.25.31.41.18l8.4-7.01,12.12-10.11c.17-.14.09-.42-.13-.44ZM190.45,37.44c-.12-.12-.23-.23-.35-.34-.09-.09-.24-.09-.33,0l-17.75,14.82c-.1.08-.12.22-.05.33.47.73,1.01,1.42,1.64,2.05,2.25,2.25,5.24,3.49,8.42,3.49s6.17-1.24,8.42-3.49c4.65-4.65,4.65-12.2,0-16.85ZM171.42,50.55l17.1-14.27c.13-.11.12-.31-.02-.4-1.96-1.27-4.22-1.91-6.48-1.91-3.05,0-6.1,1.16-8.42,3.48-2.25,2.25-3.49,5.24-3.49,8.42,0,1.6.32,3.15.92,4.59.06.16.26.2.39.09ZM215.11,45.11l-8.87,7.4-1.48,1.24c-.06.05-.1.13-.09.21.16,1.97.33,2.35.35,2.38-.02-.04.08.06.04.04.55.29,4.53.6,10.82.6,4.79,0,8.24-.18,9.86-.39.2-.03.29-.27.15-.42l-10.42-11.04c-.09-.1-.24-.11-.34-.02ZM204.95,51.97l8.4-7.01,12.12-10.11c.17-.14.09-.42-.13-.44-1.75-.19-5.03-.35-9.46-.35-6.08,0-9.99.29-10.75.57-.06.02-.11.07-.14.14-.5,1.3-.72,10.79-.44,17.02,0,.21.25.31.41.18ZM226.99,54.94c.19-1.76.34-5.02.34-9.42,0-4.73-.17-8.15-.38-9.79-.02-.2-.26-.29-.41-.16l-4.2,3.51-5.88,4.91c-.11.09-.12.26-.02.36l10.13,10.73c.15.16.41.07.43-.14ZM293.42,34.41c-1.75-.19-5.03-.35-9.46-.35-6.08,0-9.99.29-10.75.57-.06.02-.11.07-.14.14-.5,1.3-.72,10.79-.44,17.02,0,.21.25.31.41.18l8.4-7.01,12.12-10.11c.17-.14.09-.42-.13-.44ZM283.2,45.11l-8.87,7.4-1.48,1.24c-.06.05-.1.13-.09.21.16,1.97.33,2.35.35,2.38-.02-.04.08.06.04.04.55.29,4.53.6,10.82.6,4.79,0,8.24-.18,9.86-.39.2-.03.29-.27.15-.42l-10.42-11.04c-.09-.1-.24-.11-.34-.02ZM295.08,54.94c.19-1.76.34-5.02.34-9.42,0-4.73-.17-8.15-.38-9.79-.03-.2-.26-.29-.41-.16l-4.2,3.51-5.88,4.91c-.11.09-.12.26-.02.36l10.13,10.73c.15.16.41.07.43-.14ZM258.54,37.44c-.12-.12-.23-.23-.35-.34-.09-.08-.24-.09-.33,0l-17.75,14.82c-.1.08-.12.22-.05.33.47.73,1.01,1.42,1.64,2.05,2.25,2.25,5.24,3.49,8.42,3.49s6.17-1.24,8.42-3.49c4.65-4.65,4.65-12.2,0-16.85ZM239.51,50.55l17.1-14.27c.13-.11.12-.31-.02-.4-1.96-1.27-4.22-1.91-6.48-1.91-3.05,0-6.1,1.16-8.42,3.48-2.25,2.25-3.49,5.24-3.49,8.42,0,1.6.32,3.15.92,4.59.06.16.26.2.39.09ZM326.76,37.18c-.12-.12-.23-.23-.35-.34-.09-.09-.24-.09-.33,0l-17.75,14.82c-.1.08-.12.22-.05.33.47.73,1.01,1.42,1.64,2.05,2.25,2.25,5.24,3.49,8.42,3.49s6.17-1.24,8.42-3.49c4.65-4.65,4.65-12.2,0-16.85ZM307.73,50.29l17.1-14.27c.13-.11.12-.31-.02-.4-1.96-1.27-4.22-1.91-6.48-1.91-3.05,0-6.1,1.16-8.42,3.48-2.25,2.25-3.49,5.24-3.49,8.42,0,1.6.32,3.15.92,4.59.06.16.26.2.39.09ZM46.34,77.93c-.11.09-.12.26-.02.36l10.13,10.73c.15.16.41.07.43-.14.19-1.76.34-5.02.34-9.42,0-4.73-.17-8.15-.38-9.79-.02-.2-.26-.29-.41-.16l-4.2,3.51-5.88,4.91ZM55.22,68.35c-1.75-.19-5.03-.34-9.46-.34-6.08,0-9.99.29-10.75.57-.06.02-.11.07-.14.14-.5,1.3-.72,10.79-.44,17.02,0,.21.25.31.41.18l8.4-7.01,12.12-10.11c.17-.14.09-.42-.13-.44ZM19.99,71.04c-.09-.08-.24-.09-.33,0L1.9,85.85c-.1.08-.12.22-.05.33.47.73,1.01,1.42,1.64,2.05,2.25,2.25,5.24,3.49,8.42,3.49s6.17-1.24,8.42-3.49c4.65-4.65,4.65-12.2,0-16.85-.12-.12-.23-.23-.35-.34ZM1.31,84.49l17.1-14.27c.13-.11.12-.31-.02-.4-1.96-1.27-4.22-1.91-6.48-1.91-3.05,0-6.1,1.16-8.42,3.48S0,76.62,0,79.8c0,1.6.32,3.15.92,4.59.07.16.26.2.39.09ZM34.94,90.32c.55.29,4.53.6,10.82.6,4.79,0,8.24-.18,9.86-.39.2-.03.29-.27.15-.42l-10.42-11.04c-.09-.1-.24-.11-.34-.02l-8.87,7.4-1.48,1.24c-.06.05-.1.13-.09.21.16,1.97.33,2.35.35,2.38-.02-.04.08.06.04.04ZM123.31,68.35c-1.75-.19-5.03-.34-9.46-.34-6.08,0-9.99.29-10.75.57-.06.02-.11.07-.14.14-.5,1.3-.72,10.79-.44,17.02,0,.21.25.31.41.18l8.4-7.01,12.12-10.11c.17-.14.09-.42-.13-.44ZM114.43,77.93c-.11.09-.12.26-.02.36l10.13,10.73c.15.16.41.07.43-.14.19-1.76.34-5.02.34-9.42,0-4.73-.17-8.15-.38-9.79-.02-.2-.26-.29-.41-.16l-4.2,3.51-5.88,4.91ZM88.43,71.38c-.12-.12-.23-.23-.35-.34-.09-.08-.24-.09-.33,0l-17.75,14.82c-.1.08-.12.22-.05.33.47.73,1.01,1.42,1.64,2.05,2.25,2.25,5.24,3.49,8.42,3.49s6.17-1.24,8.42-3.49c4.65-4.65,4.65-12.2,0-16.85ZM69.4,84.49l17.1-14.27c.13-.11.12-.31-.02-.4-1.96-1.27-4.22-1.91-6.48-1.91-3.05,0-6.1,1.16-8.42,3.48-2.25,2.25-3.49,5.24-3.49,8.42,0,1.6.32,3.15.92,4.59.06.16.26.2.39.09ZM103.03,90.32c.55.29,4.53.6,10.82.6,4.79,0,8.24-.18,9.86-.39.2-.03.29-.27.15-.42l-10.42-11.04c-.09-.1-.24-.11-.34-.02l-8.87,7.4-1.48,1.24c-.06.05-.1.13-.09.21.16,1.97.33,2.35.35,2.38-.02-.04.08.06.04.04ZM182.51,77.93c-.11.09-.12.26-.02.36l10.13,10.73c.15.16.41.07.43-.14.19-1.76.34-5.02.34-9.42,0-4.73-.17-8.15-.38-9.79-.02-.2-.26-.29-.41-.16l-4.2,3.51-5.88,4.91ZM156.51,71.38c-.12-.12-.23-.23-.35-.34-.09-.09-.24-.09-.33,0l-17.75,14.82c-.1.08-.12.22-.05.33.47.73,1.01,1.42,1.64,2.05,2.25,2.25,5.24,3.49,8.42,3.49s6.17-1.24,8.42-3.49c4.65-4.65,4.65-12.2,0-16.85ZM137.49,84.49l17.1-14.27c.13-.11.12-.31-.02-.4-1.96-1.27-4.22-1.91-6.48-1.91-3.05,0-6.1,1.16-8.42,3.48-2.25,2.25-3.49,5.24-3.49,8.42,0,1.6.32,3.16.92,4.59.06.16.26.2.39.09ZM171.11,90.32c.55.29,4.53.6,10.82.6,4.79,0,8.24-.18,9.86-.39.2-.03.29-.27.15-.42l-10.42-11.04c-.09-.1-.24-.11-.34-.02l-8.87,7.4-1.48,1.24c-.06.05-.1.13-.09.21.16,1.97.33,2.35.35,2.38-.02-.04.08.06.04.04ZM191.4,68.35c-1.75-.19-5.03-.34-9.46-.34-6.08,0-9.99.29-10.75.57-.06.02-.11.07-.14.14-.5,1.3-.72,10.79-.44,17.02,0,.21.25.31.41.18l8.4-7.01,12.12-10.11c.17-.14.09-.42-.13-.44ZM239.2,90.32c.55.29,4.53.6,10.82.6,4.79,0,8.24-.18,9.86-.39.2-.03.29-.27.15-.42l-10.42-11.04c-.09-.1-.24-.11-.34-.02l-8.87,7.4-1.48,1.24c-.06.05-.1.13-.09.21.16,1.97.33,2.35.35,2.38-.02-.04.08.06.04.04ZM261.14,88.87c.19-1.76.34-5.02.34-9.42,0-4.73-.17-8.15-.38-9.79-.03-.2-.26-.29-.41-.16l-4.2,3.51-5.88,4.91c-.11.09-.12.26-.02.36l10.13,10.73c.15.16.41.07.43-.14ZM224.38,70.78c-.09-.09-.24-.09-.33,0l-17.75,14.82c-.1.08-.12.22-.05.33.47.73,1.01,1.42,1.64,2.05,2.25,2.25,5.24,3.49,8.42,3.49s6.17-1.24,8.42-3.49c4.65-4.65,4.65-12.2,0-16.85-.12-.12-.23-.23-.35-.34ZM205.7,84.23l17.1-14.27c.13-.11.12-.31-.02-.4-1.96-1.27-4.22-1.91-6.48-1.91-3.05,0-6.1,1.16-8.42,3.48s-3.49,5.24-3.49,8.42c0,1.6.32,3.15.92,4.59.06.16.26.2.39.09ZM239.1,85.91l8.4-7.01,12.12-10.11c.17-.14.09-.42-.13-.44-1.75-.19-5.03-.34-9.46-.34-6.08,0-9.99.29-10.75.57-.06.02-.11.07-.14.14-.5,1.3-.72,10.79-.44,17.02,0,.21.25.31.41.18ZM329.23,88.87c.19-1.76.34-5.02.34-9.42,0-4.73-.17-8.15-.38-9.79-.02-.2-.26-.29-.41-.16l-4.2,3.51-5.88,4.91c-.11.09-.12.26-.02.36l10.13,10.73c.15.16.41.07.43-.14ZM307.29,90.32c.55.29,4.53.6,10.82.6,4.79,0,8.24-.18,9.86-.39.2-.03.29-.27.15-.42l-10.42-11.04c-.09-.1-.24-.11-.34-.02l-8.87,7.4-1.48,1.24c-.06.05-.1.13-.09.21.16,1.97.33,2.35.35,2.38-.02-.04.08.06.04.04ZM307.19,85.91l8.4-7.01,12.12-10.11c.17-.14.09-.42-.13-.44-1.75-.19-5.03-.34-9.46-.34-6.08,0-9.99.29-10.75.57-.06.02-.11.07-.14.14-.5,1.3-.72,10.79-.44,17.02,0,.21.25.31.41.18ZM292.34,71.04c-.09-.08-.24-.09-.33,0l-17.75,14.82c-.1.08-.12.22-.05.33.47.73,1.01,1.42,1.64,2.05,2.25,2.25,5.24,3.49,8.42,3.49s6.17-1.24,8.42-3.49c4.65-4.65,4.65-12.2,0-16.85-.12-.12-.23-.23-.35-.34ZM273.66,84.49l17.1-14.27c.13-.11.12-.31-.02-.4-1.96-1.27-4.22-1.91-6.48-1.91-3.05,0-6.1,1.16-8.42,3.48-2.25,2.25-3.49,5.24-3.49,8.42,0,1.6.32,3.15.92,4.59.06.16.26.2.39.09ZM10.85,112.98l-8.87,7.4-1.48,1.24c-.06.05-.1.13-.09.21.16,1.97.33,2.35.35,2.38-.02-.04.08.06.04.04.55.29,4.53.6,10.82.6,4.79,0,8.24-.18,9.86-.39.2-.03.29-.27.15-.42l-10.42-11.04c-.09-.1-.24-.11-.34-.02ZM22.73,122.81c.19-1.76.34-5.02.34-9.42,0-4.73-.17-8.15-.38-9.79-.03-.2-.26-.29-.41-.16l-4.2,3.51-5.88,4.91c-.11.09-.12.26-.02.36l10.13,10.73c.15.16.41.07.43-.14ZM21.07,102.28c-1.75-.19-5.03-.35-9.46-.35-6.08,0-9.99.29-10.75.57-.06.02-.11.07-.14.14-.5,1.3-.72,10.79-.44,17.02,0,.21.25.31.41.18l8.4-7.01,12.12-10.11c.17-.14.09-.42-.13-.44ZM68.88,124.25c.55.29,4.53.6,10.82.6,4.79,0,8.24-.18,9.86-.39.2-.03.29-.27.15-.42l-10.42-11.04c-.09-.1-.24-.11-.34-.02l-8.87,7.4-1.48,1.24c-.06.05-.1.13-.09.21.16,1.97.33,2.35.35,2.38-.02-.04.08.06.04.04ZM54.28,105.32c-.12-.12-.23-.23-.35-.34-.09-.09-.24-.09-.33,0l-17.75,14.82c-.1.08-.12.22-.05.33.47.73,1.01,1.42,1.64,2.05,2.25,2.25,5.24,3.49,8.42,3.49s6.17-1.24,8.42-3.49c4.65-4.65,4.65-12.2,0-16.85ZM35.25,118.42l17.1-14.27c.13-.11.12-.31-.02-.4-1.96-1.27-4.22-1.91-6.48-1.91-3.05,0-6.1,1.16-8.42,3.48s-3.49,5.24-3.49,8.42c0,1.6.32,3.15.92,4.59.06.16.26.2.39.09ZM89.16,102.28c-1.75-.19-5.03-.35-9.46-.35-6.08,0-9.99.29-10.75.57-.06.02-.11.07-.14.14-.5,1.3-.72,10.79-.44,17.02,0,.21.25.31.41.18l8.4-7.01,12.12-10.11c.17-.14.09-.42-.13-.44ZM80.28,111.86c-.11.09-.12.26-.02.36l10.13,10.73c.15.16.41.07.43-.14.19-1.76.34-5.02.34-9.42,0-4.73-.17-8.15-.38-9.79-.02-.2-.26-.29-.41-.16l-4.2,3.51-5.88,4.91ZM34.94,158.19c.55.29,4.53.6,10.82.6,4.79,0,8.24-.18,9.86-.39.2-.03.29-.27.15-.42l-10.42-11.04c-.09-.1-.24-.11-.34-.02l-8.87,7.4-1.48,1.24c-.06.05-.1.13-.09.21.16,1.97.33,2.35.35,2.38-.02-.04.08.06.04.04ZM46.34,145.8c-.11.09-.12.26-.02.36l10.13,10.73c.15.16.41.07.43-.14.19-1.76.34-5.02.34-9.42,0-4.73-.17-8.15-.38-9.79-.02-.2-.26-.29-.41-.16l-4.2,3.51-5.88,4.91ZM55.22,136.22c-1.75-.19-5.03-.35-9.46-.35-6.08,0-9.99.29-10.75.57-.06.02-.11.07-.14.14-.5,1.3-.72,10.79-.44,17.02,0,.21.25.31.41.18l8.4-7.01,12.12-10.11c.17-.14.09-.42-.13-.44ZM19.98,138.92c-.09-.09-.24-.09-.33,0l-17.75,14.82c-.1.08-.12.22-.05.33.47.73,1.01,1.42,1.64,2.05,2.25,2.25,5.24,3.49,8.42,3.49s6.17-1.24,8.42-3.49c4.65-4.65,4.65-12.2,0-16.85-.12-.12-.23-.23-.35-.34ZM1.31,152.36l17.1-14.27c.13-.11.12-.31-.02-.4-1.96-1.27-4.22-1.91-6.48-1.91-3.05,0-6.1,1.16-8.42,3.48C1.24,141.5,0,144.5,0,147.68c0,1.6.32,3.15.92,4.59.07.16.26.2.39.09ZM88.43,139.25c-.12-.12-.23-.23-.35-.34-.09-.09-.24-.09-.33,0l-17.75,14.82c-.1.08-.12.22-.05.33.47.73,1.01,1.42,1.64,2.05,2.25,2.25,5.24,3.49,8.42,3.49s6.17-1.24,8.42-3.49c4.65-4.65,4.65-12.2,0-16.85ZM69.4,152.36l17.1-14.27c.13-.11.12-.31-.02-.4-1.96-1.27-4.22-1.91-6.48-1.91-3.05,0-6.1,1.16-8.42,3.48-2.25,2.25-3.49,5.24-3.49,8.42,0,1.6.32,3.15.92,4.59.06.16.26.2.39.09ZM21.07,170.16c-1.75-.19-5.03-.35-9.46-.35-6.08,0-9.99.29-10.75.57-.06.02-.11.07-.14.14-.5,1.3-.72,10.79-.44,17.02,0,.21.25.31.41.18l8.4-7.01,12.12-10.11c.17-.14.09-.42-.13-.44ZM22.27,171.32l-4.2,3.51-5.88,4.91c-.11.09-.12.26-.02.36l10.13,10.73c.15.16.41.07.43-.15.19-1.76.34-5.02.34-9.42,0-4.73-.17-8.15-.38-9.79-.03-.2-.26-.29-.41-.16ZM21.62,191.91l-10.42-11.04c-.09-.1-.24-.11-.34-.02l-8.87,7.4-1.48,1.24c-.06.05-.1.13-.09.21.16,1.97.33,2.35.35,2.38-.02-.04.08.06.04.04.55.29,4.53.6,10.82.6,4.79,0,8.24-.18,9.86-.39.2-.03.29-.27.15-.42ZM68.78,187.72l8.4-7.01,12.12-10.11c.17-.14.09-.42-.13-.44-1.75-.19-5.03-.35-9.46-.35-6.08,0-9.99.29-10.75.57-.06.02-.11.07-.14.14-.5,1.3-.72,10.79-.44,17.02,0,.21.25.31.41.18ZM89.7,191.91l-10.42-11.04c-.09-.1-.24-.11-.34-.02l-8.87,7.4-1.48,1.24c-.06.05-.1.13-.09.21.16,1.97.33,2.35.35,2.38-.02-.04.08.06.04.04.55.29,4.53.6,10.82.6,4.79,0,8.24-.18,9.86-.39.2-.03.29-.27.15-.42ZM54.28,173.19c-.12-.12-.23-.23-.35-.34-.09-.09-.24-.09-.33,0l-17.75,14.82c-.1.08-.12.22-.05.33.47.73,1.01,1.42,1.64,2.05,2.25,2.25,5.24,3.49,8.42,3.49,3.18,0,6.17-1.24,8.42-3.49,4.65-4.65,4.65-12.2,0-16.85ZM35.25,186.3l17.1-14.27c.13-.11.12-.31-.02-.4-1.96-1.27-4.22-1.91-6.48-1.91-3.05,0-6.1,1.16-8.42,3.48-2.25,2.25-3.49,5.24-3.49,8.42,0,1.6.32,3.15.92,4.59.06.16.26.2.39.09ZM90.81,190.69c.19-1.76.34-5.02.34-9.42,0-4.73-.17-8.15-.38-9.79-.02-.2-.26-.29-.41-.16l-4.2,3.51-5.88,4.91c-.11.09-.12.26-.02.36l10.13,10.73c.15.16.41.07.43-.15ZM20.34,207.13c-.12-.12-.23-.23-.35-.34-.09-.09-.24-.09-.33,0l-17.75,14.82c-.1.08-.12.22-.05.33.47.73,1.01,1.42,1.64,2.05,2.25,2.25,5.24,3.49,8.42,3.49s6.17-1.24,8.42-3.49c4.65-4.65,4.65-12.2,0-16.85ZM1.31,220.24l17.1-14.27c.13-.11.12-.31-.02-.4-1.96-1.27-4.22-1.91-6.48-1.91-3.05,0-6.1,1.16-8.42,3.48C1.24,209.38,0,212.37,0,215.55c0,1.6.32,3.15.92,4.59.06.16.26.2.39.09ZM55.22,204.1c-1.75-.19-5.03-.35-9.46-.35-6.08,0-9.99.29-10.75.57-.06.02-.11.07-.14.14-.5,1.3-.72,10.79-.44,17.02,0,.21.25.31.41.18l8.4-7.01,12.12-10.11c.17-.14.09-.42-.13-.44ZM46.34,213.68c-.11.09-.12.26-.02.36l10.13,10.73c.15.16.41.07.43-.15.19-1.76.34-5.02.34-9.42,0-4.73-.17-8.15-.38-9.79-.02-.2-.26-.29-.41-.16l-4.2,3.51-5.88,4.91ZM34.94,226.07c.55.29,4.53.6,10.82.6,4.79,0,8.24-.18,9.86-.39.2-.03.29-.27.15-.42l-10.42-11.04c-.09-.1-.24-.1-.34-.02l-8.87,7.4-1.48,1.24c-.06.05-.1.13-.09.21.16,1.97.33,2.35.35,2.38-.02-.04.08.06.04.04ZM123.31,204.1c-1.75-.19-5.03-.35-9.46-.35-6.08,0-9.99.29-10.75.57-.06.02-.11.07-.14.14-.5,1.3-.72,10.79-.44,17.02,0,.21.25.31.41.18l8.4-7.01,12.12-10.11c.17-.14.09-.42-.13-.44ZM114.43,213.68c-.11.09-.12.26-.02.36l10.13,10.73c.15.16.41.07.43-.15.19-1.76.34-5.02.34-9.42,0-4.73-.17-8.15-.38-9.79-.02-.2-.26-.29-.41-.16l-4.2,3.51-5.88,4.91ZM88.07,206.79c-.09-.09-.24-.09-.33,0l-17.75,14.82c-.1.08-.12.22-.05.33.47.73,1.01,1.42,1.64,2.05,2.25,2.25,5.24,3.49,8.42,3.49,3.18,0,6.17-1.24,8.42-3.49,4.65-4.65,4.65-12.2,0-16.85-.12-.12-.23-.23-.35-.34ZM86.48,205.56c-1.96-1.27-4.22-1.91-6.48-1.91-3.05,0-6.1,1.16-8.42,3.48-2.25,2.25-3.49,5.24-3.49,8.42,0,1.6.32,3.15.92,4.59.06.16.26.2.39.09l17.1-14.27c.13-.11.12-.31-.02-.4ZM103.03,226.07c.55.29,4.53.6,10.82.6,4.79,0,8.24-.18,9.86-.39.2-.03.29-.27.15-.42l-10.42-11.04c-.09-.1-.24-.1-.34-.02l-8.87,7.4-1.48,1.24c-.06.05-.1.13-.09.21.16,1.97.33,2.35.35,2.38-.02-.04.08.06.04.04ZM191.4,204.1c-1.75-.19-5.03-.35-9.46-.35-6.08,0-9.99.29-10.75.57-.06.02-.11.07-.14.14-.5,1.3-.72,10.79-.44,17.02,0,.21.25.31.41.18l8.4-7.01,12.12-10.11c.17-.14.09-.42-.13-.44ZM182.51,213.68c-.11.09-.12.26-.02.36l10.13,10.73c.15.16.41.07.43-.15.19-1.76.34-5.02.34-9.42,0-4.73-.17-8.15-.38-9.79-.02-.2-.26-.29-.41-.16l-4.2,3.51-5.88,4.91ZM156.16,206.79c-.09-.09-.24-.09-.33,0l-17.75,14.82c-.1.08-.12.22-.05.33.47.73,1.01,1.42,1.64,2.05,2.25,2.25,5.24,3.49,8.42,3.49s6.17-1.24,8.42-3.49c4.65-4.65,4.65-12.2,0-16.85-.12-.12-.23-.23-.35-.34ZM154.57,205.56c-1.96-1.27-4.22-1.91-6.48-1.91-3.05,0-6.1,1.16-8.42,3.48-2.25,2.25-3.49,5.24-3.49,8.42,0,1.6.32,3.15.92,4.59.06.16.26.2.39.09l17.1-14.27c.13-.11.12-.31-.02-.4ZM171.11,226.07c.55.29,4.53.6,10.82.6,4.79,0,8.24-.18,9.86-.39.2-.03.29-.27.15-.42l-10.42-11.04c-.09-.1-.24-.1-.34-.02l-8.87,7.4-1.48,1.24c-.06.05-.1.13-.09.21.16,1.97.33,2.35.35,2.38-.02-.04.08.06.04.04ZM259.49,204.1c-1.75-.19-5.03-.35-9.46-.35-6.08,0-9.99.29-10.75.57-.06.02-.11.07-.14.14-.5,1.3-.72,10.79-.44,17.02,0,.21.25.31.41.18l8.4-7.01,12.12-10.11c.17-.14.09-.42-.13-.44ZM224.38,206.54c-.09-.09-.24-.09-.33,0l-17.75,14.82c-.1.08-.12.22-.05.33.47.73,1.01,1.42,1.64,2.05,2.25,2.25,5.24,3.49,8.42,3.49s6.17-1.24,8.42-3.49c4.65-4.65,4.65-12.2,0-16.85-.12-.12-.23-.23-.35-.34ZM205.7,219.98l17.1-14.27c.13-.11.12-.31-.02-.4-1.96-1.27-4.22-1.91-6.48-1.91-3.05,0-6.1,1.16-8.42,3.48s-3.49,5.24-3.49,8.42c0,1.6.32,3.16.92,4.59.06.16.26.2.39.09ZM249.26,214.79l-8.87,7.4-1.48,1.24c-.06.05-.1.13-.09.21.16,1.97.33,2.35.35,2.38-.02-.04.08.06.04.04.55.29,4.53.6,10.82.6,4.79,0,8.24-.18,9.86-.39.2-.03.29-.27.15-.42l-10.42-11.04c-.09-.1-.24-.1-.34-.02ZM261.14,224.62c.19-1.76.34-5.02.34-9.42,0-4.73-.17-8.15-.38-9.79-.03-.2-.26-.29-.41-.16l-4.2,3.51-5.88,4.91c-.11.09-.12.26-.02.36l10.13,10.73c.15.16.41.07.43-.15ZM292.34,206.79c-.09-.09-.24-.09-.33,0l-17.75,14.82c-.1.08-.12.22-.05.33.47.73,1.01,1.42,1.64,2.05,2.25,2.25,5.24,3.49,8.42,3.49s6.17-1.24,8.42-3.49c4.65-4.65,4.65-12.2,0-16.85-.12-.12-.23-.23-.35-.34ZM273.66,220.24l17.1-14.27c.13-.11.12-.31-.02-.4-1.96-1.27-4.22-1.91-6.48-1.91-3.05,0-6.1,1.16-8.42,3.48-2.25,2.25-3.49,5.24-3.49,8.42,0,1.6.32,3.15.92,4.59.06.16.26.2.39.09ZM35.78,255.87c.47.73,1.01,1.42,1.64,2.05,2.25,2.25,5.24,3.49,8.42,3.49s6.17-1.24,8.42-3.49c4.65-4.65,4.65-12.2,0-16.85-.12-.12-.23-.23-.35-.34-.09-.09-.24-.09-.33,0l-17.75,14.82c-.1.08-.12.22-.05.33ZM35.25,254.18l17.1-14.27c.13-.11.12-.31-.02-.4-1.96-1.27-4.22-1.91-6.48-1.91-3.05,0-6.1,1.16-8.42,3.48-2.25,2.25-3.49,5.24-3.49,8.42,0,1.6.32,3.16.92,4.59.06.16.26.2.39.09ZM90.77,239.36c-.02-.2-.26-.29-.41-.16l-4.2,3.51-5.88,4.91c-.11.09-.12.26-.02.36l10.13,10.73c.15.16.41.07.43-.14.19-1.76.34-5.02.34-9.42,0-4.73-.17-8.15-.38-9.79ZM89.16,238.03c-1.75-.19-5.03-.34-9.46-.34-6.08,0-9.99.29-10.75.57-.06.02-.11.07-.14.14-.5,1.3-.72,10.79-.44,17.02,0,.21.25.31.41.18l8.4-7.01,12.12-10.11c.17-.14.09-.42-.13-.44ZM68.88,260c.55.29,4.53.6,10.82.6,4.79,0,8.24-.18,9.86-.39.2-.03.29-.27.15-.42l-10.42-11.04c-.09-.1-.24-.11-.34-.02l-8.87,7.4-1.48,1.24c-.06.05-.1.13-.09.21.16,1.97.33,2.35.35,2.38-.02-.04.08.06.04.04ZM158.9,258.56c.19-1.76.34-5.02.34-9.42,0-4.73-.17-8.15-.38-9.79-.02-.2-.26-.29-.41-.16l-4.2,3.51-5.88,4.91c-.11.09-.12.26-.02.36l10.13,10.73c.15.16.41.07.43-.14ZM157.79,259.79l-10.42-11.04c-.09-.1-.24-.11-.34-.02l-8.87,7.4-1.48,1.24c-.06.05-.1.13-.09.21.16,1.97.33,2.35.35,2.38-.02-.04.08.06.04.04.55.29,4.53.6,10.82.6,4.79,0,8.24-.18,9.86-.39.2-.03.29-.27.15-.42ZM157.25,238.03c-1.75-.19-5.03-.34-9.46-.34-6.08,0-9.99.29-10.75.57-.06.02-.11.07-.14.14-.5,1.3-.72,10.79-.44,17.02,0,.21.25.31.41.18l8.4-7.01,12.12-10.11c.17-.14.09-.42-.13-.44ZM122.36,241.07c-.12-.12-.23-.23-.35-.34-.09-.09-.24-.09-.33,0l-17.75,14.82c-.1.08-.12.22-.05.33.47.73,1.01,1.42,1.64,2.05,2.25,2.25,5.24,3.49,8.42,3.49s6.17-1.24,8.42-3.49c4.65-4.65,4.65-12.2,0-16.85ZM103.34,254.18l17.1-14.27c.13-.11.12-.31-.02-.4-1.96-1.27-4.22-1.91-6.48-1.91-3.05,0-6.1,1.16-8.42,3.48s-3.49,5.24-3.49,8.42c0,1.6.32,3.16.92,4.59.06.16.26.2.39.09ZM225.34,238.03c-1.75-.19-5.03-.34-9.46-.34-6.08,0-9.99.29-10.75.57-.06.02-.11.07-.14.14-.5,1.3-.72,10.79-.44,17.02,0,.21.25.31.41.18l8.4-7.01,12.12-10.11c.17-.14.09-.42-.13-.44ZM226.99,258.56c.19-1.76.34-5.02.34-9.42,0-4.73-.17-8.15-.38-9.79-.02-.2-.26-.29-.41-.16l-4.2,3.51-5.88,4.91c-.11.09-.12.26-.02.36l10.13,10.73c.15.16.41.07.43-.14ZM215.11,248.73l-8.87,7.4-1.48,1.24c-.06.05-.1.13-.09.21.16,1.97.33,2.35.35,2.38-.02-.04.08.06.04.04.55.29,4.53.6,10.82.6,4.79,0,8.24-.18,9.86-.39.2-.03.29-.27.15-.42l-10.42-11.04c-.09-.1-.24-.11-.34-.02ZM190.45,241.07c-.12-.12-.23-.23-.35-.34-.09-.09-.24-.09-.33,0l-17.75,14.82c-.1.08-.12.22-.05.33.47.73,1.01,1.42,1.64,2.05,2.25,2.25,5.24,3.49,8.42,3.49s6.17-1.24,8.42-3.49c4.65-4.65,4.65-12.2,0-16.85ZM171.42,254.18l17.1-14.27c.13-.11.12-.31-.02-.4-1.96-1.27-4.22-1.91-6.48-1.91-3.05,0-6.1,1.16-8.42,3.48-2.25,2.25-3.49,5.24-3.49,8.42,0,1.6.32,3.15.92,4.59.06.16.26.2.39.09ZM293.42,238.03c-1.75-.19-5.03-.34-9.46-.34-6.08,0-9.99.29-10.75.57-.06.02-.11.07-.14.14-.5,1.3-.72,10.79-.44,17.02,0,.21.25.31.41.18l8.4-7.01,12.12-10.11c.17-.14.09-.42-.13-.44ZM258.19,240.73c-.09-.09-.24-.09-.33,0l-17.75,14.82c-.1.08-.12.22-.05.33.47.73,1.01,1.42,1.64,2.05,2.25,2.25,5.24,3.49,8.42,3.49s6.17-1.24,8.42-3.49c4.65-4.65,4.65-12.2,0-16.85-.12-.12-.23-.23-.35-.34ZM239.51,254.18l17.1-14.27c.13-.11.12-.31-.02-.4-1.96-1.27-4.22-1.91-6.48-1.91-3.05,0-6.1,1.16-8.42,3.48-2.25,2.25-3.49,5.24-3.49,8.42,0,1.6.32,3.15.92,4.59.06.16.26.2.39.09ZM283.2,248.73l-8.87,7.4-1.48,1.24c-.06.05-.1.13-.09.21.16,1.97.33,2.35.35,2.38-.02-.04.08.06.04.04.55.29,4.53.6,10.82.6,4.79,0,8.24-.18,9.86-.39.2-.03.29-.27.15-.42l-10.42-11.04c-.09-.1-.24-.11-.34-.02ZM295.08,258.56c.19-1.76.34-5.02.34-9.42,0-4.73-.17-8.15-.38-9.79-.03-.2-.26-.29-.41-.16l-4.2,3.51-5.88,4.91c-.11.09-.12.26-.02.36l10.13,10.73c.15.16.41.07.43-.14ZM326.27,240.73c-.09-.09-.24-.09-.33,0l-17.75,14.82c-.1.08-.12.22-.05.33.47.73,1.01,1.42,1.64,2.05,2.25,2.25,5.24,3.49,8.42,3.49s6.17-1.24,8.42-3.49c4.65-4.65,4.65-12.2,0-16.85-.12-.12-.23-.23-.35-.34ZM307.6,254.18l17.1-14.27c.13-.11.12-.31-.02-.4-1.96-1.27-4.22-1.91-6.48-1.91-3.05,0-6.1,1.16-8.42,3.48-2.25,2.25-3.49,5.24-3.49,8.42,0,1.6.32,3.15.92,4.59.07.16.26.2.39.09ZM122.36,173.07c-.12-.12-.23-.23-.35-.34-.09-.09-.24-.09-.33,0l-17.75,14.82c-.1.08-.12.22-.05.33.47.73,1.01,1.42,1.64,2.05,2.25,2.25,5.24,3.49,8.42,3.49s6.17-1.24,8.42-3.49c4.65-4.65,4.65-12.2,0-16.85ZM103.34,186.18l17.1-14.27c.13-.11.12-.31-.02-.4-1.96-1.27-4.22-1.91-6.48-1.91-3.05,0-6.1,1.16-8.42,3.48s-3.49,5.24-3.49,8.42c0,1.6.32,3.16.92,4.59.06.16.26.2.39.09ZM158.9,190.56c.19-1.76.34-5.02.34-9.42,0-4.73-.17-8.15-.38-9.79-.02-.2-.26-.29-.41-.16l-4.2,3.51-5.88,4.91c-.11.09-.12.26-.02.36l10.13,10.73c.15.16.41.07.43-.14ZM157.79,191.79l-10.42-11.04c-.09-.1-.24-.11-.34-.02l-8.87,7.4-1.48,1.24c-.06.05-.1.13-.09.21.16,1.97.33,2.35.35,2.38-.02-.04.08.06.04.04.55.29,4.53.6,10.82.6,4.79,0,8.24-.18,9.86-.39.2-.03.29-.27.15-.42ZM136.87,187.6l8.4-7.01,12.12-10.11c.17-.14.09-.42-.13-.44-1.75-.19-5.03-.34-9.46-.34-6.08,0-9.99.29-10.75.57-.06.02-.11.07-.14.14-.5,1.3-.72,10.79-.44,17.02,0,.21.25.31.41.18ZM190.45,173.07c-.12-.12-.23-.23-.35-.34-.09-.09-.24-.09-.33,0l-17.75,14.82c-.1.08-.12.22-.05.33.47.73,1.01,1.42,1.64,2.05,2.25,2.25,5.24,3.49,8.42,3.49s6.17-1.24,8.42-3.49c4.65-4.65,4.65-12.2,0-16.85ZM171.42,186.18l17.1-14.27c.13-.11.12-.31-.02-.4-1.96-1.27-4.22-1.91-6.48-1.91-3.05,0-6.1,1.16-8.42,3.48-2.25,2.25-3.49,5.24-3.49,8.42,0,1.6.32,3.15.92,4.59.06.16.26.2.39.09ZM226.99,190.56c.19-1.76.34-5.02.34-9.42,0-4.73-.17-8.15-.38-9.79-.02-.2-.26-.29-.41-.16l-4.2,3.51-5.88,4.91c-.11.09-.12.26-.02.36l10.13,10.73c.15.16.41.07.43-.14ZM225.34,170.03c-1.75-.19-5.03-.34-9.46-.34-6.08,0-9.99.29-10.75.57-.06.02-.11.07-.14.14-.5,1.3-.72,10.79-.44,17.02,0,.21.25.31.41.18l8.4-7.01,12.12-10.11c.17-.14.09-.42-.13-.44ZM215.11,180.73l-8.87,7.4-1.48,1.24c-.06.05-.1.13-.09.21.16,1.97.33,2.35.35,2.38-.02-.04.08.06.04.04.55.29,4.53.6,10.82.6,4.79,0,8.24-.18,9.86-.39.2-.03.29-.27.15-.42l-10.42-11.04c-.09-.1-.24-.11-.34-.02ZM258.19,172.73c-.09-.09-.24-.09-.33,0l-17.75,14.82c-.1.08-.12.22-.05.33.47.73,1.01,1.42,1.64,2.05,2.25,2.25,5.24,3.49,8.42,3.49s6.17-1.24,8.42-3.49c4.65-4.65,4.65-12.2,0-16.85-.12-.12-.23-.23-.35-.34ZM239.51,186.18l17.1-14.27c.13-.11.12-.31-.02-.4-1.96-1.27-4.22-1.91-6.48-1.91-3.05,0-6.1,1.16-8.42,3.48-2.25,2.25-3.49,5.24-3.49,8.42,0,1.6.32,3.15.92,4.59.06.16.26.2.39.09ZM317.35,282.67l-8.87,7.4-1.48,1.24c-.06.05-.1.13-.09.21.16,1.97.33,2.35.35,2.38-.02-.04.08.06.04.04.55.29,4.53.6,10.82.6,4.79,0,8.24-.18,9.86-.39.2-.03.29-.27.15-.42l-10.42-11.04c-.09-.1-.24-.11-.34-.02ZM327.57,271.97c-1.75-.19-5.03-.35-9.46-.35-6.08,0-9.99.29-10.75.57-.06.02-.11.07-.14.14-.5,1.3-.72,10.79-.44,17.02,0,.21.25.31.41.18l8.4-7.01,12.12-10.11c.17-.14.09-.42-.13-.44ZM292.34,274.67c-.09-.08-.24-.09-.33,0l-17.75,14.82c-.1.08-.12.22-.05.33.47.73,1.01,1.42,1.64,2.05,2.25,2.25,5.24,3.49,8.42,3.49s6.17-1.24,8.42-3.49c4.65-4.65,4.65-12.2,0-16.85-.12-.12-.23-.23-.35-.34ZM273.66,288.11l17.1-14.27c.13-.11.12-.31-.02-.4-1.96-1.27-4.22-1.91-6.48-1.91-3.05,0-6.1,1.16-8.42,3.48-2.25,2.25-3.49,5.24-3.49,8.42,0,1.6.32,3.15.92,4.59.06.16.26.2.39.09ZM329.23,292.5c.19-1.76.34-5.02.34-9.42,0-4.73-.17-8.15-.38-9.79-.02-.2-.26-.29-.41-.16l-4.2,3.51-5.88,4.91c-.11.09-.12.26-.02.36l10.13,10.73c.15.16.41.07.43-.14ZM261.23,292.5c.19-1.76.34-5.02.34-9.42,0-4.73-.17-8.15-.38-9.79-.02-.2-.26-.29-.41-.16l-4.2,3.51-5.88,4.91c-.11.09-.12.26-.02.36l10.13,10.73c.15.16.41.07.43-.14ZM249.35,282.67l-8.87,7.4-1.48,1.24c-.06.05-.1.13-.09.21.16,1.97.33,2.35.35,2.38-.02-.04.08.06.04.04.55.29,4.53.6,10.82.6,4.79,0,8.24-.18,9.86-.39.2-.03.29-.27.15-.42l-10.42-11.04c-.09-.1-.24-.11-.34-.02ZM224.34,274.67c-.09-.08-.24-.09-.33,0l-1.81,1.51,1.94-1.94c-4.67-4.21-11.9-4.07-16.4.43-2.25,2.25-3.49,5.24-3.49,8.42,0,1.27.21,2.5.59,3.67.12.43.27.85.44,1.26.02.05.06.08.1.11.24.51.51.99.82,1.46-.03.07-.03.15.01.21.47.73,1.01,1.42,1.64,2.05,2.25,2.25,5.24,3.49,8.42,3.49s6.17-1.24,8.42-3.49c4.65-4.65,4.65-12.2,0-16.85-.12-.12-.23-.23-.35-.34ZM259.57,271.97c-1.75-.19-5.03-.35-9.46-.35-6.08,0-9.99.29-10.75.57-.06.02-.11.07-.14.14-.5,1.3-.72,10.79-.44,17.02,0,.21.25.31.41.18l8.4-7.01,12.12-10.11c.17-.14.09-.42-.13-.44ZM293.42,305.91c-1.75-.19-5.03-.34-9.46-.34-6.08,0-9.99.29-10.75.57-.06.02-.11.07-.14.14-.5,1.3-.72,10.79-.44,17.02,0,.21.25.31.41.18l8.4-7.01,12.12-10.11c.17-.14.09-.42-.13-.44ZM283.2,316.61l-8.87,7.4-1.48,1.24c-.06.05-.1.13-.09.21.16,1.97.33,2.35.35,2.38-.02-.04.08.06.04.04.55.29,4.53.6,10.82.6,4.79,0,8.24-.18,9.86-.39.2-.03.29-.27.15-.42l-10.42-11.04c-.09-.1-.24-.11-.34-.02ZM295.08,326.44c.19-1.76.34-5.02.34-9.42,0-4.73-.17-8.15-.38-9.79-.03-.2-.26-.29-.41-.16l-4.2,3.51-5.88,4.91c-.11.09-.12.26-.02.36l10.13,10.73c.15.16.41.07.43-.14ZM258.19,308.6c-.09-.08-.24-.09-.33,0l-17.75,14.82c-.1.08-.12.22-.05.33.47.73,1.01,1.42,1.64,2.05,2.25,2.25,5.24,3.49,8.42,3.49s6.17-1.24,8.42-3.49c4.65-4.65,4.65-12.2,0-16.85-.12-.12-.23-.23-.35-.34ZM239.51,322.05l17.1-14.27c.13-.11.12-.31-.02-.4-1.96-1.27-4.22-1.91-6.48-1.91-3.05,0-6.1,1.16-8.42,3.48-2.25,2.25-3.49,5.24-3.49,8.42,0,1.6.32,3.15.92,4.59.06.16.26.2.39.09ZM326.27,308.6c-.09-.08-.24-.09-.33,0l-17.75,14.82c-.1.08-.12.22-.05.33.47.73,1.01,1.42,1.64,2.05,2.25,2.25,5.24,3.49,8.42,3.49s6.17-1.24,8.42-3.49c4.65-4.65,4.65-12.2,0-16.85-.12-.12-.23-.23-.35-.34ZM307.6,322.05l17.1-14.27c.13-.11.12-.31-.02-.4-1.96-1.27-4.22-1.91-6.48-1.91-3.05,0-6.1,1.16-8.42,3.48s-3.49,5.24-3.49,8.42c0,1.6.32,3.15.92,4.59.07.16.26.2.39.09ZM260.69,341.01l-4.2,3.51-5.88,4.91c-.11.09-.12.26-.02.36l10.13,10.73c.15.16.41.07.43-.14.19-1.76.34-5.02.34-9.42,0-4.73-.17-8.15-.38-9.79-.03-.2-.26-.29-.41-.16ZM260.03,361.6l-10.42-11.04c-.09-.1-.24-.11-.34-.02l-8.87,7.4-1.48,1.24c-.06.05-.1.13-.09.21.16,1.97.33,2.35.35,2.38-.02-.04.08.06.04.04.55.29,4.53.6,10.82.6,4.79,0,8.24-.18,9.86-.39.2-.03.29-.27.15-.42ZM259.49,339.85c-1.75-.19-5.03-.35-9.46-.35-6.08,0-9.99.29-10.75.57-.06.02-.11.07-.14.14-.5,1.3-.72,10.79-.44,17.02,0,.21.25.31.41.18l8.4-7.01,12.12-10.11c.17-.14.09-.42-.13-.44ZM317.35,350.54l-8.87,7.4-1.48,1.24c-.06.05-.1.13-.09.21.16,1.97.33,2.35.35,2.38-.02-.04.08.06.04.04.55.29,4.53.6,10.82.6,4.79,0,8.24-.18,9.86-.39.2-.03.29-.27.15-.42l-10.42-11.04c-.09-.1-.24-.11-.34-.02ZM292.34,342.54c-.09-.09-.24-.09-.33,0l-17.75,14.82c-.1.08-.12.22-.05.33.47.73,1.01,1.42,1.64,2.05,2.25,2.25,5.24,3.49,8.42,3.49s6.17-1.24,8.42-3.49c4.65-4.65,4.65-12.2,0-16.85-.12-.12-.23-.23-.35-.34ZM273.66,355.99l17.1-14.27c.13-.11.12-.31-.02-.4-1.96-1.27-4.22-1.91-6.48-1.91-3.05,0-6.1,1.16-8.42,3.48-2.25,2.25-3.49,5.24-3.49,8.42,0,1.6.32,3.15.92,4.59.06.16.26.2.39.09ZM329.23,360.37c.19-1.76.34-5.02.34-9.42,0-4.73-.17-8.15-.38-9.79-.02-.2-.26-.29-.41-.16l-4.2,3.51-5.88,4.91c-.11.09-.12.26-.02.36l10.13,10.73c.15.16.41.07.43-.14ZM327.57,339.85c-1.75-.19-5.03-.35-9.46-.35-6.08,0-9.99.29-10.75.57-.06.02-.11.07-.14.14-.5,1.3-.72,10.79-.44,17.02,0,.21.25.31.41.18l8.4-7.01,12.12-10.11c.17-.14.09-.42-.13-.44ZM.79,395.75c.55.29,4.53.6,10.82.6,4.79,0,8.24-.18,9.86-.39.2-.03.29-.27.15-.42l-10.42-11.04c-.09-.1-.24-.11-.34-.02l-8.87,7.4-1.48,1.24c-.06.05-.1.13-.09.21.16,1.97.33,2.35.35,2.38-.02-.04.08.06.04.04ZM22.73,394.31c.19-1.76.34-5.02.34-9.42,0-4.73-.17-8.15-.38-9.79-.03-.2-.26-.29-.41-.16l-4.2,3.51-5.88,4.91c-.11.09-.12.26-.02.36l10.13,10.73c.15.16.41.07.43-.14ZM.69,391.35l8.4-7.01,12.12-10.11c.17-.14.09-.42-.13-.44-1.75-.19-5.03-.35-9.46-.35-6.08,0-9.99.29-10.75.57-.06.02-.11.07-.14.14-.5,1.3-.72,10.79-.44,17.02,0,.21.25.31.41.18ZM89.7,395.54l-10.42-11.04c-.09-.1-.24-.11-.34-.02l-8.87,7.4-1.48,1.24c-.06.05-.1.13-.09.21.16,1.97.33,2.35.35,2.38-.02-.04.08.06.04.04.55.29,4.53.6,10.82.6,4.79,0,8.24-.18,9.86-.39.2-.03.29-.27.15-.42ZM90.81,394.31c.19-1.76.34-5.02.34-9.42,0-4.73-.17-8.15-.38-9.79-.02-.2-.26-.29-.41-.16l-4.2,3.51-5.88,4.91c-.11.09-.12.26-.02.36l10.13,10.73c.15.16.41.07.43-.14ZM68.37,391.17c0,.21.25.31.41.18l8.4-7.01,12.12-10.11c.17-.14.09-.42-.13-.44-1.75-.19-5.03-.35-9.46-.35-6.08,0-9.99.29-10.75.57-.06.02-.11.07-.14.14-.5,1.3-.72,10.79-.44,17.02ZM54.28,376.82c-.12-.12-.23-.23-.35-.34-.09-.09-.24-.09-.33,0l-17.75,14.82c-.1.08-.12.22-.05.33.47.73,1.01,1.42,1.64,2.05,2.25,2.25,5.24,3.49,8.42,3.49s6.17-1.24,8.42-3.49c4.65-4.65,4.65-12.2,0-16.85ZM34.85,389.83c.06.16.26.2.39.09l17.1-14.27c.13-.11.12-.31-.02-.4-1.96-1.27-4.22-1.91-6.48-1.91-3.05,0-6.1,1.16-8.42,3.48-2.25,2.25-3.49,5.24-3.49,8.42,0,1.6.32,3.15.92,4.59ZM258.54,376.82c-.12-.12-.23-.23-.35-.34-.09-.09-.24-.09-.33,0l-17.75,14.82c-.1.08-.12.22-.05.33.47.73,1.01,1.42,1.64,2.05,2.25,2.25,5.24,3.49,8.42,3.49s6.17-1.24,8.42-3.49c4.65-4.65,4.65-12.2,0-16.85ZM239.51,389.93l17.1-14.27c.13-.11.12-.31-.02-.4-1.96-1.27-4.22-1.91-6.48-1.91-3.05,0-6.1,1.16-8.42,3.48-2.25,2.25-3.49,5.24-3.49,8.42,0,1.6.32,3.15.92,4.59.06.16.26.2.39.09ZM293.42,373.79c-1.75-.19-5.03-.35-9.46-.35-6.08,0-9.99.29-10.75.57-.06.02-.11.07-.14.14-.5,1.3-.72,10.79-.44,17.02,0,.21.25.31.41.18l8.4-7.01,12.12-10.11c.17-.14.09-.42-.13-.44ZM283.2,384.48l-8.87,7.4-1.48,1.24c-.06.05-.1.13-.09.21.16,1.97.33,2.35.35,2.38-.02-.04.08.06.04.04.55.29,4.53.6,10.82.6,4.79,0,8.24-.18,9.86-.39.2-.03.29-.27.15-.42l-10.42-11.04c-.09-.1-.24-.11-.34-.02ZM295.08,394.31c.19-1.76.34-5.02.34-9.42,0-4.73-.17-8.15-.38-9.79-.03-.2-.26-.29-.41-.16l-4.2,3.51-5.88,4.91c-.11.09-.12.26-.02.36l10.13,10.73c.15.16.41.07.43-.14ZM326.27,376.48c-.09-.09-.24-.09-.33,0l-17.75,14.82c-.1.08-.12.22-.05.33.47.73,1.01,1.42,1.64,2.05,2.25,2.25,5.24,3.49,8.42,3.49s6.17-1.24,8.42-3.49c4.65-4.65,4.65-12.2,0-16.85-.12-.12-.23-.23-.35-.34ZM307.6,389.93l17.1-14.27c.13-.11.12-.31-.02-.4-1.96-1.27-4.22-1.91-6.48-1.91-3.05,0-6.1,1.16-8.42,3.48s-3.49,5.24-3.49,8.42c0,1.6.32,3.15.92,4.59.06.16.26.2.39.09ZM56.88,428.25c.19-1.76.34-5.02.34-9.42,0-4.73-.17-8.15-.38-9.79-.02-.2-.26-.29-.41-.16l-4.2,3.51-5.88,4.91c-.11.09-.12.26-.02.36l10.13,10.73c.15.16.41.07.43-.15ZM19.98,410.42c-.09-.09-.24-.09-.33,0l-17.75,14.82c-.1.08-.12.22-.05.33.47.73,1.01,1.42,1.64,2.05,2.25,2.25,5.24,3.49,8.42,3.49s6.17-1.24,8.42-3.49c4.65-4.65,4.65-12.2,0-16.85-.12-.12-.23-.23-.35-.34ZM18.39,409.18c-1.96-1.27-4.22-1.91-6.48-1.91-3.05,0-6.1,1.16-8.42,3.48S0,416,0,419.18c0,1.6.32,3.15.92,4.59.07.16.26.2.39.09l17.1-14.27c.13-.11.12-.31-.02-.4ZM34.84,425.29l8.4-7.01,12.12-10.11c.17-.14.09-.42-.13-.44-1.75-.19-5.03-.35-9.46-.35-6.08,0-9.99.29-10.75.57-.06.02-.11.07-.14.14-.5,1.3-.72,10.79-.44,17.02,0,.21.25.31.41.18ZM34.94,429.69c.55.29,4.53.6,10.82.6,4.79,0,8.24-.18,9.86-.39.2-.03.29-.27.15-.42l-10.42-11.04c-.09-.1-.24-.11-.34-.02l-8.87,7.4-1.48,1.24c-.06.05-.1.13-.09.21.16,1.97.33,2.35.35,2.38-.02-.04.08.06.04.04ZM88.07,410.42c-.09-.09-.24-.09-.33,0l-17.75,14.82c-.1.08-.12.22-.05.33.47.73,1.01,1.42,1.64,2.05,2.25,2.25,5.24,3.49,8.42,3.49s6.17-1.24,8.42-3.49c4.65-4.65,4.65-12.2,0-16.85-.12-.12-.23-.23-.35-.34ZM86.48,409.18c-1.96-1.27-4.22-1.91-6.48-1.91-3.05,0-6.1,1.16-8.42,3.48-2.25,2.25-3.49,5.24-3.49,8.42,0,1.6.32,3.16.92,4.59.06.16.26.2.39.09l17.1-14.27c.13-.11.12-.31-.02-.4ZM102.93,425.29l8.4-7.01,12.12-10.11c.17-.14.09-.42-.13-.44-1.75-.19-5.03-.35-9.46-.35-6.08,0-9.99.29-10.75.57-.06.02-.11.07-.14.14-.5,1.3-.72,10.79-.44,17.02,0,.21.25.31.41.18ZM124.97,428.25c.19-1.76.34-5.02.34-9.42,0-4.73-.17-8.15-.38-9.79-.02-.2-.26-.29-.41-.16l-4.2,3.51-5.88,4.91c-.11.09-.12.26-.02.36l10.13,10.73c.15.16.41.07.43-.15ZM103.03,429.69c.55.29,4.53.6,10.82.6,4.79,0,8.24-.18,9.86-.39.2-.03.29-.27.15-.42l-10.42-11.04c-.09-.1-.24-.11-.34-.02l-8.87,7.4-1.48,1.24c-.06.05-.1.13-.09.21.16,1.97.33,2.35.35,2.38-.02-.04.08.06.04.04ZM171.11,429.69c.55.29,4.53.6,10.82.6,4.79,0,8.24-.18,9.86-.39.2-.03.29-.27.15-.42l-10.42-11.04c-.09-.1-.24-.11-.34-.02l-8.87,7.4-1.48,1.24c-.06.05-.1.13-.09.21.16,1.97.33,2.35.35,2.38-.02-.04.08.06.04.04ZM156.16,410.42c-.09-.09-.24-.09-.33,0l-17.75,14.82c-.1.08-.12.22-.05.33.47.73,1.01,1.42,1.64,2.05,2.25,2.25,5.24,3.49,8.42,3.49s6.17-1.24,8.42-3.49c4.65-4.65,4.65-12.2,0-16.85-.12-.12-.23-.23-.35-.34ZM154.57,409.18c-1.96-1.27-4.22-1.91-6.48-1.91-3.05,0-6.1,1.16-8.42,3.48s-3.49,5.24-3.49,8.42c0,1.6.32,3.15.92,4.59.06.16.26.2.39.09l17.1-14.27c.13-.11.12-.31-.02-.4ZM171.01,425.29l8.4-7.01,12.12-10.11c.17-.14.09-.42-.13-.44-1.75-.19-5.03-.35-9.46-.35-6.08,0-9.99.29-10.75.57-.06.02-.11.07-.14.14-.5,1.3-.72,10.79-.44,17.02,0,.21.25.31.41.18ZM193.05,428.25c.19-1.76.34-5.02.34-9.42,0-4.73-.17-8.15-.38-9.79-.02-.2-.26-.29-.41-.16l-4.2,3.51-5.88,4.91c-.11.09-.12.26-.02.36l10.13,10.73c.15.16.41.07.43-.15ZM261.14,428.25c.19-1.76.34-5.02.34-9.42,0-4.73-.17-8.15-.38-9.79-.03-.2-.26-.29-.41-.16l-4.2,3.51-5.88,4.91c-.11.09-.12.26-.02.36l10.13,10.73c.15.16.41.07.43-.15ZM239.1,425.29l8.4-7.01,12.12-10.11c.17-.14.09-.42-.13-.44-1.75-.19-5.03-.35-9.46-.35-6.08,0-9.99.29-10.75.57-.06.02-.11.07-.14.14-.5,1.3-.72,10.79-.44,17.02,0,.21.25.31.41.18ZM224.25,410.42c-.09-.09-.24-.09-.33,0l-17.75,14.82c-.1.08-.12.22-.05.33.47.73,1.01,1.42,1.64,2.05,2.25,2.25,5.24,3.49,8.42,3.49s6.17-1.24,8.42-3.49c4.65-4.65,4.65-12.2,0-16.85-.12-.12-.23-.23-.35-.34ZM222.66,409.18c-1.96-1.27-4.22-1.91-6.48-1.91-3.05,0-6.1,1.16-8.42,3.48-2.25,2.25-3.49,5.24-3.49,8.42,0,1.6.32,3.15.92,4.59.07.16.26.2.39.09l17.1-14.27c.13-.11.12-.31-.02-.4ZM239.2,429.69c.55.29,4.53.6,10.82.6,4.79,0,8.24-.18,9.86-.39.2-.03.29-.27.15-.42l-10.42-11.04c-.09-.1-.24-.11-.34-.02l-8.87,7.4-1.48,1.24c-.06.05-.1.13-.09.21.16,1.97.33,2.35.35,2.38-.02-.04.08.06.04.04ZM307.19,425.29l8.4-7.01,12.12-10.11c.17-.14.09-.42-.13-.44-1.75-.19-5.03-.35-9.46-.35-6.08,0-9.99.29-10.75.57-.06.02-.11.07-.14.14-.5,1.3-.72,10.79-.44,17.02,0,.21.25.31.41.18ZM317.69,418.44c-.09-.1-.24-.11-.34-.02l-8.87,7.4-1.48,1.24c-.06.05-.1.13-.09.21.16,1.97.33,2.35.35,2.38-.02-.04.08.06.04.04.55.29,4.53.6,10.82.6,4.79,0,8.24-.18,9.86-.39.2-.03.29-.27.15-.42l-10.42-11.04ZM328.78,408.88l-4.2,3.51-5.88,4.91c-.11.09-.12.26-.02.36l10.13,10.73c.15.16.41.07.43-.15.19-1.76.34-5.02.34-9.42,0-4.73-.17-8.15-.38-9.79-.02-.2-.26-.29-.41-.16ZM292.34,410.42c-.09-.09-.24-.09-.33,0l-17.75,14.82c-.1.08-.12.22-.05.33.47.73,1.01,1.42,1.64,2.05,2.25,2.25,5.24,3.49,8.42,3.49s6.17-1.24,8.42-3.49c4.65-4.65,4.65-12.2,0-16.85-.12-.12-.23-.23-.35-.34ZM273.66,423.86l17.1-14.27c.13-.11.12-.31-.02-.4-1.96-1.27-4.22-1.91-6.48-1.91-3.05,0-6.1,1.16-8.42,3.48-2.25,2.25-3.49,5.24-3.49,8.42,0,1.6.32,3.15.92,4.59.06.16.26.2.39.09ZM78.94,452.36l-8.87,7.4-1.48,1.24c-.06.05-.1.13-.09.21.16,1.97.33,2.35.35,2.38-.02-.04.08.06.04.04.55.29,4.53.6,10.82.6,4.79,0,8.24-.18,9.86-.39.2-.03.29-.27.15-.42l-10.42-11.04c-.09-.1-.24-.1-.34-.02ZM89.16,441.66c-1.75-.19-5.03-.35-9.46-.35-6.08,0-9.99.29-10.75.57-.06.02-.11.07-.14.14-.5,1.3-.72,10.79-.44,17.02,0,.21.25.31.41.18l8.4-7.01,12.12-10.11c.17-.14.09-.42-.13-.44ZM90.81,462.19c.19-1.76.34-5.02.34-9.42,0-4.73-.17-8.15-.38-9.79-.02-.2-.26-.29-.41-.16l-4.2,3.51-5.88,4.91c-.11.09-.12.26-.02.36l10.13,10.73c.15.16.41.07.43-.15ZM53.92,444.36c-.09-.09-.24-.09-.33,0l-17.75,14.82c-.1.08-.12.22-.05.33.47.73,1.01,1.42,1.64,2.05,2.25,2.25,5.24,3.49,8.42,3.49s6.17-1.24,8.42-3.49c4.65-4.65,4.65-12.2,0-16.85-.12-.12-.23-.23-.35-.34ZM52.33,443.12c-1.96-1.27-4.22-1.91-6.48-1.91-3.05,0-6.1,1.16-8.42,3.48s-3.49,5.24-3.49,8.42c0,1.6.32,3.15.92,4.59.07.16.26.2.39.09l17.1-14.27c.13-.11.12-.31-.02-.4ZM122.01,444.36c-.09-.09-.24-.09-.33,0l-17.75,14.82c-.1.08-.12.22-.05.33.47.73,1.01,1.42,1.64,2.05,2.25,2.25,5.24,3.49,8.42,3.49s6.17-1.24,8.42-3.49c4.65-4.65,4.65-12.2,0-16.85-.12-.12-.23-.23-.35-.34ZM103.34,457.8l17.1-14.27c.13-.11.12-.31-.02-.4-1.96-1.27-4.22-1.91-6.48-1.91-3.05,0-6.1,1.16-8.42,3.48-2.25,2.25-3.49,5.24-3.49,8.42,0,1.6.32,3.15.92,4.59.06.16.26.2.39.09ZM147.03,452.36l-8.87,7.4-1.48,1.24c-.06.05-.1.13-.09.21.16,1.97.33,2.35.35,2.38-.02-.04.08.06.04.04.55.29,4.53.6,10.82.6,4.79,0,8.24-.18,9.86-.39.2-.03.29-.27.15-.42l-10.42-11.04c-.09-.1-.24-.1-.34-.02ZM157.25,441.66c-1.75-.19-5.03-.35-9.46-.35-6.08,0-9.99.29-10.75.57-.06.02-.11.07-.14.14-.5,1.3-.72,10.79-.44,17.02,0,.21.25.31.41.18l8.4-7.01,12.12-10.11c.17-.14.09-.42-.13-.44ZM158.9,462.19c.19-1.76.34-5.02.34-9.42,0-4.73-.17-8.15-.38-9.79-.02-.2-.26-.29-.41-.16l-4.2,3.51-5.88,4.91c-.11.09-.12.26-.02.36l10.13,10.73c.15.16.41.07.43-.15ZM226.99,462.19c.19-1.76.34-5.02.34-9.42,0-4.73-.17-8.15-.38-9.79-.02-.2-.26-.29-.41-.16l-4.2,3.51-5.88,4.91c-.11.09-.12.26-.02.36l10.13,10.73c.15.16.41.07.43-.15ZM225.34,441.66c-1.75-.19-5.03-.35-9.46-.35-6.08,0-9.99.29-10.75.57-.06.02-.11.07-.14.14-.5,1.3-.72,10.79-.44,17.02,0,.21.25.31.41.18l8.4-7.01,12.12-10.11c.17-.14.09-.42-.13-.44ZM190.1,444.36c-.09-.09-.24-.09-.33,0l-17.75,14.82c-.1.08-.12.22-.05.33.47.73,1.01,1.42,1.64,2.05,2.25,2.25,5.24,3.49,8.42,3.49s6.17-1.24,8.42-3.49c4.65-4.65,4.65-12.2,0-16.85-.12-.12-.23-.23-.35-.34ZM171.42,457.8l17.1-14.27c.13-.11.12-.31-.02-.4-1.96-1.27-4.22-1.91-6.48-1.91-3.05,0-6.1,1.16-8.42,3.48-2.25,2.25-3.49,5.24-3.49,8.42,0,1.6.32,3.16.92,4.59.06.16.26.2.39.09ZM215.11,452.36l-8.87,7.4-1.48,1.24c-.06.05-.1.13-.09.21.16,1.97.33,2.35.35,2.38-.02-.04.08.06.04.04.55.29,4.53.6,10.82.6,4.79,0,8.24-.18,9.86-.39.2-.03.29-.27.15-.42l-10.42-11.04c-.09-.1-.24-.1-.34-.02ZM283.54,452.38c-.09-.1-.24-.1-.34-.02l-8.87,7.4-1.48,1.24c-.06.05-.1.13-.09.21.16,1.97.33,2.35.35,2.38-.02-.04.08.06.04.04.55.29,4.53.6,10.82.6,4.79,0,8.24-.18,9.86-.39.2-.03.29-.27.15-.42l-10.42-11.04ZM273.04,459.22l8.4-7.01,12.12-10.11c.17-.14.09-.42-.13-.44-1.75-.19-5.03-.35-9.46-.35-6.08,0-9.99.29-10.75.57-.06.02-.11.07-.14.14-.5,1.3-.72,10.79-.44,17.02,0,.21.25.31.41.18ZM258.19,444.36c-.09-.09-.24-.09-.33,0l-17.75,14.82c-.1.08-.12.22-.05.33.47.73,1.01,1.42,1.64,2.05,2.25,2.25,5.24,3.49,8.42,3.49s6.17-1.24,8.42-3.49c4.65-4.65,4.65-12.2,0-16.85-.12-.12-.23-.23-.35-.34ZM239.51,457.8l17.1-14.27c.13-.11.12-.31-.02-.4-1.96-1.27-4.22-1.91-6.48-1.91-3.05,0-6.1,1.16-8.42,3.48-2.25,2.25-3.49,5.24-3.49,8.42,0,1.6.32,3.15.92,4.59.06.16.26.2.39.09ZM294.63,442.82l-4.2,3.51-5.88,4.91c-.11.09-.12.26-.02.36l10.13,10.73c.15.16.41.07.43-.15.19-1.76.34-5.02.34-9.42,0-4.73-.17-8.15-.38-9.79-.03-.2-.26-.29-.41-.16ZM113.43,486.31c-.09-.1-.24-.11-.34-.02l-8.87,7.4-1.48,1.24c-.06.05-.1.13-.09.21.16,1.97.33,2.35.35,2.38-.02-.04.08.06.04.04.55.29,4.53.6,10.82.6,4.79,0,8.24-.18,9.86-.39.2-.03.29-.27.15-.42l-10.42-11.04ZM124.51,476.76l-4.2,3.51-5.88,4.91c-.11.09-.12.26-.02.36l10.13,10.73c.15.16.41.07.43-.14.19-1.76.34-5.02.34-9.42,0-4.73-.17-8.15-.38-9.79-.02-.2-.26-.29-.41-.16ZM88.07,478.29c-.09-.09-.24-.09-.33,0l-17.75,14.82c-.1.08-.12.22-.05.33.47.73,1.01,1.42,1.64,2.05,2.25,2.25,5.24,3.49,8.42,3.49s6.17-1.24,8.42-3.49c4.65-4.65,4.65-12.2,0-16.85-.12-.12-.23-.23-.35-.34ZM86.48,477.06c-1.96-1.27-4.22-1.91-6.48-1.91-3.05,0-6.1,1.16-8.42,3.48-2.25,2.25-3.49,5.24-3.49,8.42,0,1.6.32,3.15.92,4.59.06.16.26.2.39.09l17.1-14.27c.13-.11.12-.31-.02-.4ZM102.93,493.16l8.4-7.01,12.12-10.11c.17-.14.09-.42-.13-.44-1.75-.19-5.03-.34-9.46-.34-6.08,0-9.99.29-10.75.57-.06.02-.11.07-.14.14-.5,1.3-.72,10.79-.44,17.02,0,.21.25.31.41.18ZM192.6,476.76l-4.2,3.51-5.88,4.91c-.11.09-.12.26-.02.36l10.13,10.73c.15.16.41.07.43-.14.19-1.76.34-5.02.34-9.42,0-4.73-.17-8.15-.38-9.79-.02-.2-.26-.29-.41-.16ZM181.52,486.31c-.09-.1-.24-.11-.34-.02l-8.87,7.4-1.48,1.24c-.06.05-.1.13-.09.21.16,1.97.33,2.35.35,2.38-.02-.04.08.06.04.04.55.29,4.53.6,10.82.6,4.79,0,8.24-.18,9.86-.39.2-.03.29-.27.15-.42l-10.42-11.04ZM171.01,493.16l8.4-7.01,12.12-10.11c.17-.14.09-.42-.13-.44-1.75-.19-5.03-.34-9.46-.34-6.08,0-9.99.29-10.75.57-.06.02-.11.07-.14.14-.5,1.3-.72,10.79-.44,17.02,0,.21.25.31.41.18ZM156.16,478.29c-.09-.09-.24-.09-.33,0l-17.75,14.82c-.1.08-.12.22-.05.33.47.73,1.01,1.42,1.64,2.05,2.25,2.25,5.24,3.49,8.42,3.49s6.17-1.24,8.42-3.49c4.65-4.65,4.65-12.2,0-16.85-.12-.12-.23-.23-.35-.34ZM154.57,477.06c-1.96-1.27-4.22-1.91-6.48-1.91-3.05,0-6.1,1.16-8.42,3.48-2.25,2.25-3.49,5.24-3.49,8.42,0,1.6.32,3.15.92,4.59.06.16.26.2.39.09l17.1-14.27c.13-.11.12-.31-.02-.4ZM249.61,486.31c-.09-.1-.24-.11-.34-.02l-8.87,7.4-1.48,1.24c-.06.05-.1.13-.09.21.16,1.97.33,2.35.35,2.38-.02-.04.08.06.04.04.55.29,4.53.6,10.82.6,4.79,0,8.24-.18,9.86-.39.2-.03.29-.27.15-.42l-10.42-11.04ZM260.69,476.76l-4.2,3.51-5.88,4.91c-.11.09-.12.26-.02.36l10.13,10.73c.15.16.41.07.43-.14.19-1.76.34-5.02.34-9.42,0-4.73-.17-8.15-.38-9.79-.03-.2-.26-.29-.41-.16ZM224.25,478.29c-.09-.09-.24-.09-.33,0l-17.75,14.82c-.1.08-.12.22-.05.33.47.73,1.01,1.42,1.64,2.05,2.25,2.25,5.24,3.49,8.42,3.49s6.17-1.24,8.42-3.49c4.65-4.65,4.65-12.2,0-16.85-.12-.12-.23-.23-.35-.34ZM222.66,477.06c-1.96-1.27-4.22-1.91-6.48-1.91-3.05,0-6.1,1.16-8.42,3.48s-3.49,5.24-3.49,8.42c0,1.6.32,3.15.92,4.59.07.16.26.2.39.09l17.1-14.27c.13-.11.12-.31-.02-.4ZM239.1,493.16l8.4-7.01,12.12-10.11c.17-.14.09-.42-.13-.44-1.75-.19-5.03-.34-9.46-.34-6.08,0-9.99.29-10.75.57-.06.02-.11.07-.14.14-.5,1.3-.72,10.79-.44,17.02,0,.21.25.31.41.18Z"/>
    </g>
  </g>
</svg>