<?xml version="1.0" encoding="UTF-8"?>
<svg id="_レイヤー_2" data-name="レイヤー 2" xmlns="http://www.w3.org/2000/svg" viewBox="0 0 1275.54 481.29">
  <defs>
    <style>
      .cls-1 {
        fill: #d97700;
      }
    </style>
  </defs>
  <g id="_文字_アウトライン" data-name="文字_アウトライン">
    <g>
      <path class="cls-1" d="M2.32,5.31l22.58.66c-1.44,25.9-2.16,50.41-2.16,73.54,0,11.95.97,21.06,2.91,27.31,1.93,6.25,4.73,10.46,8.38,12.62,3.65,2.16,8.91,3.24,15.77,3.24,21.03,0,37.85-15.94,50.46-47.81l19.75,7.64c-15.16,40.84-38.57,61.25-70.22,61.25-18.81,0-31.82-4.56-39.01-13.7C3.59,120.93,0,104.08,0,79.51S.77,31.1,2.32,5.31Z"/>
      <path class="cls-1" d="M233.23,0l13.61,16.77c-20.81,15.72-40.34,29.38-58.6,41-6.64,4.21-10.9,7.08-12.78,8.63-1.88,1.55-2.82,3.15-2.82,4.81,0,1.55.83,3.1,2.49,4.65,1.66,1.55,5.53,4.37,11.62,8.47,21.69,14.72,43.38,30.99,65.07,48.8l-14.77,15.94c-22.36-18.15-43.44-34.03-63.25-47.64-12.06-8.3-19.5-14.05-22.33-17.26-2.82-3.21-4.23-7.52-4.23-12.95,0-5.86,1.49-10.4,4.48-13.61,2.99-3.21,10.51-8.69,22.58-16.43,20.03-12.95,39.67-26.67,58.93-41.17Z"/>
      <path class="cls-1" d="M297.14,28.55V9.79h68.72v18.76c-.55,5.64-1.77,15.55-3.65,29.71,7.97.44,16.6,1.77,25.9,3.98.22-7.19.33-20.25.33-39.18h21.08c0,16.38-.28,31.6-.83,45.65,8.74,3.43,17.43,7.8,26.06,13.11l-9.3,17.93c-6.2-4.09-12.28-7.47-18.26-10.12-1,8.41-2.32,15.47-3.98,21.16-1.66,5.7-4.12,10.68-7.39,14.94-3.27,4.26-6.78,7.78-10.54,10.54-3.76,2.76-8.91,5.98-15.44,9.63l-10.79-17.6c5.31-2.88,9.32-5.28,12.04-7.22,2.71-1.94,5.34-4.59,7.88-7.97,2.54-3.38,4.37-7.44,5.48-12.2,1.11-4.76,1.99-10.96,2.66-18.59-9.52-2.77-18.76-4.37-27.72-4.81-1.77,10.74-3.65,19.87-5.64,27.39-1.99,7.53-4.04,13.59-6.14,18.18-2.1,4.59-4.51,8.19-7.22,10.79-2.71,2.6-5.4,4.34-8.05,5.23-2.66.88-5.87,1.33-9.63,1.33-9.19,0-17.76-4.29-25.73-12.87-7.97-8.57-11.95-18.23-11.95-28.97s4.9-19.14,14.69-26.56c9.79-7.41,23.32-11.95,40.59-13.61,1.33-10.4,2.43-20.36,3.32-29.88h-46.48ZM337.48,78.19c-10.07,1.33-17.74,3.85-22.99,7.55-5.26,3.71-7.88,8-7.88,12.87,0,4.54,1.71,9.05,5.15,13.53,3.43,4.48,6.7,6.72,9.79,6.72,6.08,0,11.4-13.55,15.94-40.67Z"/>
      <path class="cls-1" d="M502.98,4.32l23.24-1.83,2.32,27.39,53.78-1.99.66,19.92-52.62,1.99,2.99,34.69,55.61-1.83.66,19.92-54.61,1.83,3.49,40.34-23.24,1.83-3.65-41.5-59.1,1.99-.66-19.92,58.1-1.83-2.99-34.86-47.81,1.66-.66-19.75,46.81-1.66-2.32-26.39Z"/>
      <path class="cls-1" d="M617.35,40.34h78.35l-4.48,76.86h25.4v18.09h-112.88v-18.09h65.4l3.65-58.76h-55.44v-18.09Z"/>
      <path class="cls-1" d="M769.24,119.02c21.02-2.1,37.79-8.27,50.3-18.51,12.5-10.24,22.46-25.76,29.88-46.56l20.42,7.97c-10.18,27.89-24.79,48.03-43.82,60.42-19.04,12.39-44.6,18.59-76.69,18.59h-3.98V8.63h23.9v110.39Z"/>
      <path class="cls-1" d="M887.54,85.66v-22.24h109.69v22.24h-109.69Z"/>
      <path class="cls-1" d="M1030.36,143.09l-3.49-19.92c17.71-1.77,32.45-4.87,44.24-9.3,11.79-4.42,21.17-10.62,28.14-18.59-13.17-6.75-28.5-14.05-45.98-21.91l10.46-19.26c17.71,7.97,33.31,15.38,46.81,22.24,3.98-10.29,6.42-23.07,7.3-38.35h-57.93c-6.75,18.04-17.6,34.2-32.54,48.47l-15.27-13.45c9.4-9.3,17.15-20.11,23.24-32.45,6.08-12.34,9.9-25.04,11.45-38.1l21.08,1.33c-.55,5.42-1.27,10.18-2.16,14.28h75.7v7.14c0,38.62-8.77,67.12-26.31,85.49-17.54,18.37-45.79,29.16-84.74,32.37Z"/>
      <path class="cls-1" d="M1155.79,85.66v-22.24h109.69v22.24h-109.69Z"/>
    </g>
    <g>
      <path class="cls-1" d="M1185.66,189.45c1.12,8.72,4.52,15.44,10.2,20.16,5.68,4.72,13.36,7.08,23.04,7.08,8.32,0,15.34-2.54,21.06-7.62,5.72-5.08,9.14-11.7,10.26-19.86-15.2-1.92-27.94-4.18-38.22-6.78-10.28-2.6-18.1-5.48-23.46-8.64-5.36-3.16-9.1-6.36-11.22-9.6s-3.18-6.94-3.18-11.1c0-6.48,3.72-12.44,11.16-17.88,7.44-5.44,16.52-8.16,27.24-8.16,15.52,0,28.12,5.28,37.8,15.84,9.68,10.56,14.52,24.36,14.52,41.4,0,13.76-4.32,25.14-12.96,34.14s-19.64,13.5-33,13.5-25.08-3.54-33.48-10.62c-8.4-7.08-13.12-16.62-14.16-28.62l14.4-3.24ZM1249.5,173.37c-1.84-9.68-6.04-17.28-12.6-22.8-6.56-5.52-14.68-8.28-24.36-8.28-6.08,0-11.48,1.24-16.2,3.72-4.72,2.48-7.08,4.84-7.08,7.08,0,1.12.54,2.28,1.62,3.48s3.06,2.54,5.94,4.02c2.88,1.48,6.52,2.94,10.92,4.38,4.4,1.44,10.2,2.9,17.4,4.38,7.2,1.48,15.32,2.82,24.36,4.02Z"/>
      <path class="cls-1" d="M1211.34,283.65h12.96v6.12l6.72-5.88c-4.8-2.96-8.96-5.92-12.48-8.88h-54v-15.48h40.68c-3.6-2.96-6.56-5.92-8.88-8.88l16.68-4.08c4.64,6.16,9.24,11.34,13.8,15.54,4.56,4.2,10.16,8.38,16.8,12.54l-6.6,11.04c2.88,3.12,6.38,5.3,10.5,6.54,4.12,1.24,9.7,1.86,16.74,1.86h6.24v47.4h-27.84c-.96,0-1.52.14-1.68.42-.16.28-.24,1.22-.24,2.82,0,1.92.6,3.08,1.8,3.48,1.2.4,5.32.84,12.36,1.32l-1.68,12c-3.68-.24-6.42-.4-8.22-.48-1.8-.08-3.82-.34-6.06-.78-2.24-.44-3.76-.78-4.56-1.02-.8-.24-1.74-.86-2.82-1.86-1.08-1-1.74-1.84-1.98-2.52-.24-.68-.52-2-.84-3.96-.32-1.96-.48-3.68-.48-5.16v-7.02c0-5.44.44-8.9,1.32-10.38.88-1.48,2.84-2.22,5.88-2.22h21.84v-17.64h-1.56c-14.08-.08-24.56-5.08-31.44-15v60h-12.96c-9.2-4.8-17-11.08-23.4-18.84-3.92,7.92-7.12,16.64-9.6,26.16l-12.96-5.28c3.2-12.8,7.68-24.2,13.44-34.2-5.28-9.52-9.8-21.52-13.56-36l13.2-5.76c2.24,10.72,5.32,20.24,9.24,28.56,5.44-6.8,11.12-12.36,17.04-16.68l6.6,9.24v-17.04ZM1195.5,321.57c4.64,6.4,9.92,11.6,15.84,15.6v-32.88c-5.76,4.48-11.04,10.24-15.84,17.28ZM1237.98,254.37l13.32-6c3.44,5.68,6.9,10.48,10.38,14.4,3.48,3.92,7.7,7.8,12.66,11.64l-7.68,11.52c-6.24-4.64-11.52-9.32-15.84-14.04-4.32-4.72-8.6-10.56-12.84-17.52Z"/>
      <path class="cls-1" d="M1169.94,394.65h-4.8v-15.12h37.2v55.56h-37.2v-15.24h4.8v-25.2ZM1271.7,466.65v14.64h-86.76c-3.2,0-5.76-.06-7.68-.18-1.92-.12-3.7-.4-5.34-.84-1.64-.44-2.84-.96-3.6-1.56-.76-.6-1.4-1.6-1.92-3-.52-1.4-.84-2.88-.96-4.44-.12-1.56-.18-3.7-.18-6.42,0-3.52.2-8.8.6-15.84l14.04-.72c-.4,8.16-.6,12.76-.6,13.8,0,2.16.26,3.46.78,3.9.52.44,2.14.66,4.86.66h86.76ZM1181.94,419.85h8.28v-25.2h-8.28v25.2ZM1190.94,444.33h75.96v13.92h-75.96v-13.92ZM1218.66,415.05v25.68h-11.88v-66.84h11.88v25.56h4.92v-20.76h10.56v20.76h4.68v-19.2h5.64v-5.52h22.68v24.6h8.4v15.96h-8.4v24.6h-22.68v-5.64h-5.64v-19.2h-4.68v20.88h-10.56v-20.88h-4.92ZM1249.86,388.65v11.4h4.56v-11.4h-4.56ZM1254.42,414.45h-4.56v11.4h4.56v-11.4Z"/>
    </g>
  </g>
</svg>