<?xml version="1.0" encoding="UTF-8"?>
<svg id="_レイヤー_2" data-name="レイヤー 2" xmlns="http://www.w3.org/2000/svg" viewBox="0 0 29.15 29.15">
  <defs>
    <style>
      .cls-1 {
        fill: #fff;
      }

      .cls-2 {
        fill: #d97700;
        opacity: .23;
      }
    </style>
  </defs>
  <g id="_イラスト" data-name="イラスト">
    <g>
      <path class="cls-2" d="M28.08,28.08c1.42,1.42-28.44,1.42-27.02,0C-.36,29.51-.36-.36,1.07,1.07-.36-.36,29.51-.36,28.08,1.07c1.42-1.42,1.42,28.44,0,27.02Z"/>
      <path class="cls-1" d="M26.5,6.91c-.18-.21-.48-.25-.7-.1l-15.62,10.63-6.4-4.09-.47-.3c-.21-.14-.49-.1-.67.08-.18.18-.2.46-.05.67l7.16,10.35c.09.13.24.21.39.23.01,0,.03,0,.04,0,.14,0,.28-.06.38-.16L26.48,7.62c.19-.2.2-.5.02-.71Z"/>
    </g>
  </g>
</svg>