<?xml version="1.0" encoding="UTF-8"?>
<svg id="_レイヤー_2" data-name="レイヤー 2" xmlns="http://www.w3.org/2000/svg" viewBox="0 0 330.29 498.95">
  <defs>
    <style>
      .cls-1 {
        fill: #cb7d1e;
      }

      .cls-2 {
        opacity: .15;
      }
    </style>
  </defs>
  <g id="_数字" data-name="数字">
    <g class="cls-2">
      <path class="cls-1" d="M102.93,18.01l8.4-7.01L123.44.89c.17-.14.09-.42-.13-.44-1.75-.19-5.03-.34-9.46-.34-6.08,0-9.99.29-10.75.57-.06.02-.11.07-.14.14-.5,1.3-.72,10.79-.44,17.02,0,.21.25.31.41.18ZM69.94,18.29c.47.73,1.01,1.42,1.64,2.05,2.25,2.25,5.24,3.49,8.42,3.49s6.17-1.24,8.42-3.49c4.65-4.65,4.65-12.2,0-16.85-.12-.12-.23-.23-.35-.34-.09-.09-.24-.09-.33,0l-17.75,14.82c-.1.08-.12.22-.05.33ZM69.4,16.59l17.1-14.27c.13-.11.12-.31-.02-.4C84.52.64,82.26,0,80,0c-3.05,0-6.1,1.16-8.42,3.48s-3.49,5.24-3.49,8.42c0,1.6.32,3.15.92,4.59.06.16.26.2.39.09ZM113.09,11.15l-8.87,7.4-1.48,1.24c-.06.05-.1.13-.09.21.16,1.97.33,2.35.35,2.38-.02-.04.08.06.04.04.55.29,4.53.6,10.82.6,4.79,0,8.24-.18,9.86-.39.2-.03.29-.27.15-.42l-10.42-11.04c-.09-.1-.24-.11-.34-.02ZM114.43,10.03c-.11.09-.12.26-.02.36l10.13,10.73c.15.16.41.07.43-.14.19-1.76.34-5.02.34-9.42,0-4.73-.17-8.15-.38-9.79-.02-.2-.26-.29-.41-.16l-4.2,3.51-5.88,4.91ZM171.02,18.01l8.4-7.01,12.12-10.11c.17-.14.09-.42-.13-.44-1.75-.19-5.03-.34-9.46-.34-6.08,0-9.99.29-10.75.57-.06.02-.11.07-.14.14-.5,1.3-.72,10.79-.44,17.02,0,.21.25.31.41.18ZM182.51,10.03c-.11.09-.12.26-.02.36l10.13,10.73c.15.16.41.07.43-.14.19-1.76.34-5.02.34-9.42,0-4.73-.17-8.15-.38-9.79-.03-.2-.26-.29-.41-.16l-4.2,3.51-5.88,4.91ZM138.02,18.29c.47.73,1.01,1.42,1.64,2.05,2.25,2.25,5.24,3.49,8.42,3.49s6.17-1.24,8.42-3.49c4.65-4.65,4.65-12.2,0-16.85-.12-.12-.23-.23-.35-.34-.09-.09-.24-.09-.33,0l-17.75,14.82c-.1.08-.12.22-.05.33ZM137.49,16.59l17.1-14.27c.13-.11.12-.31-.02-.4C152.6.64,150.35,0,148.09,0c-3.05,0-6.1,1.16-8.42,3.48s-3.49,5.24-3.49,8.42c0,1.6.32,3.15.92,4.59.06.16.26.2.39.09ZM181.18,11.15l-8.87,7.4-1.48,1.24c-.06.05-.1.13-.09.21.16,1.97.33,2.35.35,2.38-.02-.04.08.06.04.04.55.29,4.53.6,10.82.6,4.79,0,8.24-.18,9.86-.39.2-.03.29-.27.15-.42l-10.42-11.04c-.09-.1-.24-.11-.34-.02ZM206.11,18.29c.47.73,1.01,1.42,1.64,2.05,2.25,2.25,5.24,3.49,8.42,3.49s6.17-1.24,8.42-3.49c4.65-4.65,4.65-12.2,0-16.85-.12-.12-.23-.23-.35-.34-.09-.09-.24-.09-.33,0l-17.75,14.82c-.1.08-.12.22-.05.33ZM205.57,16.59l17.1-14.27c.13-.11.12-.31-.02-.4-1.96-1.27-4.22-1.91-6.48-1.91-3.05,0-6.1,1.16-8.42,3.48s-3.49,5.24-3.49,8.42c0,1.6.32,3.15.92,4.59.06.16.26.2.39.09ZM250.6,10.03c-.11.09-.12.26-.02.36l10.13,10.73c.15.16.41.07.43-.14.19-1.76.34-5.02.34-9.42,0-4.73-.17-8.15-.38-9.79-.02-.2-.26-.29-.41-.16l-4.2,3.51-5.88,4.91ZM260.03,22.21l-10.42-11.04c-.09-.1-.24-.11-.34-.02l-8.87,7.4-1.48,1.24c-.06.05-.1.13-.09.21.16,1.97.33,2.35.35,2.38-.02-.04.08.06.04.04.55.29,4.53.6,10.82.6,4.79,0,8.24-.18,9.86-.39.2-.03.29-.27.15-.42ZM239.1,18.01l8.4-7.01,12.12-10.11c.17-.14.09-.42-.13-.44-1.75-.19-5.03-.34-9.46-.34-6.08,0-9.99.29-10.75.57-.06.02-.11.07-.14.14-.5,1.3-.72,10.79-.44,17.02,0,.21.25.31.41.18ZM292.34,3.15c-.09-.09-.24-.09-.33,0l-17.75,14.82c-.1.08-.12.22-.05.33.47.73,1.01,1.42,1.64,2.05,2.25,2.25,5.24,3.49,8.42,3.49s6.17-1.24,8.42-3.49c4.65-4.65,4.65-12.2,0-16.85-.12-.12-.23-.23-.35-.34ZM273.66,16.59l17.1-14.27c.13-.11.12-.31-.02-.4-1.96-1.27-4.22-1.91-6.48-1.91-3.05,0-6.1,1.16-8.42,3.48-2.25,2.25-3.49,5.24-3.49,8.42,0,1.6.32,3.15.92,4.59.06.16.26.2.39.09ZM35.78,52.22c.47.73,1.01,1.42,1.64,2.05,2.25,2.25,5.24,3.49,8.42,3.49s6.17-1.24,8.42-3.49c4.65-4.65,4.65-12.2,0-16.85-.12-.12-.23-.23-.35-.34-.09-.08-.24-.09-.33,0l-17.75,14.82c-.1.08-.12.22-.05.33ZM35.25,50.53l17.1-14.27c.13-.11.12-.31-.02-.4-1.96-1.27-4.22-1.91-6.48-1.91-3.05,0-6.1,1.16-8.42,3.48-2.25,2.25-3.49,5.24-3.49,8.42,0,1.6.32,3.15.92,4.59.06.16.26.2.39.09ZM89.16,34.39c-1.75-.19-5.03-.35-9.46-.35-6.08,0-9.99.29-10.75.57-.06.02-.11.07-.14.14-.5,1.3-.72,10.79-.44,17.02,0,.21.25.31.41.18l8.4-7.01,12.12-10.11c.17-.14.09-.42-.13-.44ZM80.28,43.97c-.11.09-.12.26-.02.36l10.13,10.73c.15.16.41.07.43-.15.19-1.76.34-5.02.34-9.42,0-4.73-.17-8.15-.38-9.79-.02-.2-.26-.29-.41-.16l-4.2,3.51-5.88,4.91ZM68.88,56.36c.55.29,4.53.6,10.82.6,4.79,0,8.24-.18,9.86-.39.2-.03.29-.27.15-.42l-10.42-11.04c-.09-.1-.24-.11-.34-.02l-8.87,7.4-1.48,1.24c-.06.05-.1.13-.09.21.16,1.97.33,2.35.35,2.38-.02-.04.08.06.04.04ZM157.25,34.39c-1.75-.19-5.03-.35-9.46-.35-6.08,0-9.99.29-10.75.57-.06.02-.11.07-.14.14-.5,1.3-.72,10.79-.44,17.02,0,.21.25.31.41.18l8.4-7.01,12.12-10.11c.17-.14.09-.42-.13-.44ZM136.96,56.36c.55.29,4.53.6,10.82.6,4.79,0,8.24-.18,9.86-.39.2-.03.29-.27.15-.42l-10.42-11.04c-.09-.1-.24-.11-.34-.02l-8.87,7.4-1.48,1.24c-.06.05-.1.13-.09.21.16,1.97.33,2.35.35,2.38-.02-.04.08.06.04.04ZM148.36,43.97c-.11.09-.12.26-.02.36l10.13,10.73c.15.16.41.07.43-.15.19-1.76.34-5.02.34-9.42,0-4.73-.17-8.15-.38-9.79-.02-.2-.26-.29-.41-.16l-4.2,3.51-5.88,4.91ZM122.01,37.08c-.09-.09-.24-.09-.33,0l-17.75,14.82c-.1.08-.12.22-.05.33.47.73,1.01,1.42,1.64,2.05,2.25,2.25,5.24,3.49,8.42,3.49s6.17-1.24,8.42-3.49c4.65-4.65,4.65-12.2,0-16.85-.12-.12-.23-.23-.35-.34ZM103.34,50.53l17.1-14.27c.13-.11.12-.31-.02-.4-1.96-1.27-4.22-1.91-6.48-1.91-3.05,0-6.1,1.16-8.42,3.48-2.25,2.25-3.49,5.24-3.49,8.42,0,1.6.32,3.15.92,4.59.06.16.26.2.39.09ZM216.45,43.97c-.11.09-.12.26-.02.36l10.13,10.73c.15.16.41.07.43-.15.19-1.76.34-5.02.34-9.42,0-4.73-.17-8.15-.38-9.79-.03-.2-.26-.29-.41-.16l-4.2,3.51-5.88,4.91ZM190.1,37.08c-.09-.09-.24-.09-.33,0l-17.75,14.82c-.1.08-.12.22-.05.33.47.73,1.01,1.42,1.64,2.05,2.25,2.25,5.24,3.49,8.42,3.49s6.17-1.24,8.42-3.49c4.65-4.65,4.65-12.2,0-16.85-.12-.12-.23-.23-.35-.34ZM171.42,50.53l17.1-14.27c.13-.11.12-.31-.02-.4-1.96-1.27-4.22-1.91-6.48-1.91-3.05,0-6.1,1.16-8.42,3.48-2.25,2.25-3.49,5.24-3.49,8.42,0,1.6.32,3.15.92,4.59.06.16.26.2.39.09ZM205.05,56.36c.55.29,4.53.6,10.82.6,4.79,0,8.24-.18,9.86-.39.2-.03.29-.27.15-.42l-10.42-11.04c-.09-.1-.24-.11-.34-.02l-8.87,7.4-1.48,1.24c-.06.05-.1.13-.09.21.16,1.97.33,2.35.35,2.38-.02-.04.08.06.04.04ZM225.34,34.39c-1.75-.19-5.03-.35-9.46-.35-6.08,0-9.99.29-10.75.57-.06.02-.11.07-.14.14-.5,1.3-.72,10.79-.44,17.02,0,.21.25.31.41.18l8.4-7.01,12.12-10.11c.17-.14.09-.42-.13-.44ZM258.54,37.42c-.12-.12-.23-.23-.35-.34-.09-.08-.24-.09-.33,0l-17.75,14.82c-.1.08-.12.22-.05.33.47.73,1.01,1.42,1.64,2.05,2.25,2.25,5.24,3.49,8.42,3.49s6.17-1.24,8.42-3.49c4.65-4.65,4.65-12.2,0-16.85ZM239.51,50.53l17.1-14.27c.13-.11.12-.31-.02-.4-1.96-1.27-4.22-1.91-6.48-1.91-3.05,0-6.1,1.16-8.42,3.48-2.25,2.25-3.49,5.24-3.49,8.42,0,1.6.32,3.15.92,4.59.07.16.26.2.39.09ZM294.62,35.55l-4.2,3.51-5.88,4.91c-.11.09-.12.26-.02.36l10.13,10.73c.15.16.41.07.43-.15.19-1.76.34-5.02.34-9.42,0-4.73-.17-8.15-.38-9.79-.02-.2-.26-.29-.41-.16ZM293.42,34.39c-1.75-.19-5.03-.35-9.46-.35-6.08,0-9.99.29-10.75.57-.06.02-.11.07-.14.14-.5,1.3-.72,10.79-.44,17.02,0,.21.25.31.41.18l8.4-7.01,12.12-10.11c.17-.14.09-.42-.13-.44ZM293.97,56.14l-10.42-11.04c-.09-.1-.24-.11-.34-.02l-8.87,7.4-1.48,1.24c-.06.05-.1.13-.09.21.16,1.97.33,2.35.35,2.38-.02-.04.08.06.04.04.55.29,4.53.6,10.82.6,4.79,0,8.24-.18,9.86-.39.2-.03.29-.27.15-.42ZM308.32,52.2c.47.73,1.01,1.42,1.64,2.05,2.25,2.25,5.24,3.49,8.42,3.49s6.17-1.24,8.42-3.49c4.65-4.65,4.65-12.2,0-16.85-.12-.12-.23-.23-.35-.34-.09-.08-.24-.09-.33,0l-17.75,14.82c-.1.08-.12.22-.05.33ZM307.78,50.51l17.1-14.27c.13-.11.12-.31-.02-.4-1.96-1.27-4.22-1.91-6.48-1.91-3.05,0-6.1,1.16-8.42,3.48-2.25,2.25-3.49,5.24-3.49,8.42,0,1.6.32,3.15.92,4.59.06.16.26.2.39.09ZM55.22,68.33c-1.75-.19-5.03-.35-9.46-.35-6.08,0-9.99.29-10.75.57-.06.02-.11.07-.14.14-.5,1.3-.72,10.79-.44,17.02,0,.21.25.31.41.18l8.4-7.01,12.12-10.11c.17-.14.09-.42-.13-.44ZM46.34,77.91c-.11.09-.12.26-.02.36l10.13,10.73c.15.16.41.07.43-.14.19-1.76.34-5.02.34-9.42,0-4.73-.17-8.15-.38-9.79-.02-.2-.26-.29-.41-.16l-4.2,3.51-5.88,4.91ZM19.98,71.02c-.09-.08-.24-.09-.33,0L1.9,85.83c-.1.08-.12.22-.05.33.47.73,1.01,1.42,1.64,2.05,2.25,2.25,5.24,3.49,8.42,3.49s6.17-1.24,8.42-3.49c4.65-4.65,4.65-12.2,0-16.85-.12-.12-.23-.23-.35-.34ZM1.31,84.47l17.1-14.27c.13-.11.12-.31-.02-.4-1.96-1.27-4.22-1.91-6.48-1.91-3.05,0-6.1,1.16-8.42,3.48S0,76.6,0,79.78c0,1.6.32,3.15.92,4.59.06.16.26.2.39.09ZM34.94,90.29c.55.29,4.53.6,10.82.6,4.79,0,8.24-.18,9.86-.39.2-.03.29-.27.15-.42l-10.42-11.04c-.09-.1-.24-.11-.34-.02l-8.87,7.4-1.48,1.24c-.06.05-.1.13-.09.21.16,1.97.33,2.34.35,2.38-.02-.04.08.06.04.04ZM113.09,79.02l-8.87,7.4-1.48,1.24c-.06.05-.1.13-.09.21.16,1.97.33,2.34.35,2.38-.02-.04.08.06.04.04.55.29,4.53.6,10.82.6,4.79,0,8.24-.18,9.86-.39.2-.03.29-.27.15-.42l-10.42-11.04c-.09-.1-.24-.11-.34-.02ZM123.31,68.33c-1.75-.19-5.03-.35-9.46-.35-6.08,0-9.99.29-10.75.57-.06.02-.11.07-.14.14-.5,1.3-.72,10.79-.44,17.02,0,.21.25.31.41.18l8.4-7.01,12.12-10.11c.17-.14.09-.42-.13-.44ZM88.43,71.36c-.12-.12-.23-.23-.35-.34-.09-.08-.24-.09-.33,0l-17.75,14.82c-.1.08-.12.22-.05.33.47.73,1.01,1.42,1.64,2.05,2.25,2.25,5.24,3.49,8.42,3.49s6.17-1.24,8.42-3.49c4.65-4.65,4.65-12.2,0-16.85ZM69.4,84.47l17.1-14.27c.13-.11.12-.31-.02-.4-1.96-1.27-4.22-1.91-6.48-1.91-3.05,0-6.1,1.16-8.42,3.48s-3.49,5.24-3.49,8.42c0,1.6.32,3.15.92,4.59.06.16.26.2.39.09ZM124.96,88.85c.19-1.76.34-5.02.34-9.42,0-4.73-.17-8.15-.38-9.79-.02-.2-.26-.29-.41-.16l-4.2,3.51-5.88,4.91c-.11.09-.12.26-.02.36l10.13,10.73c.15.16.41.07.43-.14ZM191.4,68.33c-1.75-.19-5.03-.35-9.46-.35-6.08,0-9.99.29-10.75.57-.06.02-.11.07-.14.14-.5,1.3-.72,10.79-.44,17.02,0,.21.25.31.41.18l8.4-7.01,12.12-10.11c.17-.14.09-.42-.13-.44ZM193.05,88.85c.19-1.76.34-5.02.34-9.42,0-4.73-.17-8.15-.38-9.79-.03-.2-.26-.29-.41-.16l-4.2,3.51-5.88,4.91c-.11.09-.12.26-.02.36l10.13,10.73c.15.16.41.07.43-.14ZM156.51,71.36c-.12-.12-.23-.23-.35-.34-.09-.08-.24-.09-.33,0l-17.75,14.82c-.1.08-.12.22-.05.33.47.73,1.01,1.42,1.64,2.05,2.25,2.25,5.24,3.49,8.42,3.49s6.17-1.24,8.42-3.49c4.65-4.65,4.65-12.2,0-16.85ZM137.49,84.47l17.1-14.27c.13-.11.12-.31-.02-.4-1.96-1.27-4.22-1.91-6.48-1.91-3.05,0-6.1,1.16-8.42,3.48-2.25,2.25-3.49,5.24-3.49,8.42,0,1.6.32,3.15.92,4.59.06.16.26.2.39.09ZM181.18,79.02l-8.87,7.4-1.48,1.24c-.06.05-.1.13-.09.21.16,1.97.33,2.34.35,2.38-.02-.04.08.06.04.04.55.29,4.53.6,10.82.6,4.79,0,8.24-.18,9.86-.39.2-.03.29-.27.15-.42l-10.42-11.04c-.09-.1-.24-.11-.34-.02ZM250.6,77.91c-.11.09-.12.26-.02.36l10.13,10.73c.15.16.41.07.43-.14.19-1.76.34-5.02.34-9.42,0-4.73-.17-8.15-.38-9.79-.02-.2-.26-.29-.41-.16l-4.2,3.51-5.88,4.91ZM239.2,90.29c.55.29,4.53.6,10.82.6,4.79,0,8.24-.18,9.86-.39.2-.03.29-.27.15-.42l-10.42-11.04c-.09-.1-.24-.11-.34-.02l-8.87,7.4-1.48,1.24c-.06.05-.1.13-.09.21.16,1.97.33,2.34.35,2.38-.02-.04.08.06.04.04ZM259.49,68.33c-1.75-.19-5.03-.35-9.46-.35-6.08,0-9.99.29-10.75.57-.06.02-.11.07-.14.14-.5,1.3-.72,10.79-.44,17.02,0,.21.25.31.41.18l8.4-7.01,12.12-10.11c.17-.14.09-.42-.13-.44ZM224.6,71.36c-.12-.12-.23-.23-.35-.34-.09-.08-.24-.09-.33,0l-17.75,14.82c-.1.08-.12.22-.05.33.47.73,1.01,1.42,1.64,2.05,2.25,2.25,5.24,3.49,8.42,3.49s6.17-1.24,8.42-3.49c4.65-4.65,4.65-12.2,0-16.85ZM205.57,84.47l17.1-14.27c.13-.11.12-.31-.02-.4-1.96-1.27-4.22-1.91-6.48-1.91-3.05,0-6.1,1.16-8.42,3.48s-3.49,5.24-3.49,8.42c0,1.6.32,3.15.92,4.59.06.16.26.2.39.09ZM307.29,90.29c.55.29,4.53.6,10.82.6,4.79,0,8.24-.18,9.86-.39.2-.03.29-.27.15-.42l-10.42-11.04c-.09-.1-.24-.11-.34-.02l-8.87,7.4-1.48,1.24c-.06.05-.1.13-.09.21.16,1.97.33,2.34.35,2.38-.02-.04.08.06.04.04ZM292.69,71.36c-.12-.12-.23-.23-.35-.34-.09-.08-.24-.09-.33,0l-17.75,14.82c-.1.08-.12.22-.05.33.47.73,1.01,1.42,1.64,2.05,2.25,2.25,5.24,3.49,8.42,3.49s6.17-1.24,8.42-3.49c4.65-4.65,4.65-12.2,0-16.85ZM273.66,84.47l17.1-14.27c.13-.11.12-.31-.02-.4-1.96-1.27-4.22-1.91-6.48-1.91-3.05,0-6.1,1.16-8.42,3.48s-3.49,5.24-3.49,8.42c0,1.6.32,3.15.92,4.59.06.16.26.2.39.09ZM329.23,88.85c.19-1.76.34-5.02.34-9.42,0-4.73-.17-8.15-.38-9.79-.03-.2-.26-.29-.41-.16l-4.2,3.51-5.88,4.91c-.11.09-.12.26-.02.36l10.13,10.73c.15.16.41.07.43-.14ZM307.19,85.89l8.4-7.01,12.12-10.11c.17-.14.09-.42-.13-.44-1.75-.19-5.03-.35-9.46-.35-6.08,0-9.99.29-10.75.57-.06.02-.11.07-.14.14-.5,1.3-.72,10.79-.44,17.02,0,.21.25.31.41.18ZM10.85,112.96l-8.87,7.4-1.48,1.24c-.06.05-.1.13-.09.21.16,1.97.33,2.35.35,2.38-.02-.04.08.06.04.04.55.29,4.53.6,10.82.6,4.79,0,8.24-.18,9.86-.39.2-.03.29-.27.15-.42l-10.42-11.04c-.09-.1-.24-.11-.34-.02ZM22.73,122.79c.19-1.76.34-5.02.34-9.42,0-4.73-.17-8.15-.38-9.79-.02-.2-.26-.29-.41-.16l-4.2,3.51-5.88,4.91c-.11.09-.12.26-.02.36l10.13,10.73c.15.16.41.07.43-.15ZM21.07,102.26c-1.75-.19-5.03-.35-9.46-.35-6.08,0-9.99.29-10.75.57-.06.02-.11.07-.14.14-.5,1.3-.72,10.79-.44,17.02,0,.21.25.31.41.18l8.4-7.01,12.12-10.11c.17-.14.09-.42-.13-.44ZM54.28,105.3c-.12-.12-.23-.23-.35-.34-.09-.08-.24-.09-.33,0l-17.75,14.82c-.1.08-.12.22-.05.33.47.73,1.01,1.42,1.64,2.05,2.25,2.25,5.24,3.49,8.42,3.49s6.17-1.24,8.42-3.49c4.65-4.65,4.65-12.2,0-16.85ZM35.25,118.4l17.1-14.27c.13-.11.12-.31-.02-.4-1.96-1.27-4.22-1.91-6.48-1.91-3.05,0-6.1,1.16-8.42,3.48-2.25,2.25-3.49,5.24-3.49,8.42,0,1.6.32,3.15.92,4.59.06.16.26.2.39.09ZM80.28,111.84c-.11.09-.12.26-.02.36l10.13,10.73c.15.16.41.07.43-.15.19-1.76.34-5.02.34-9.42,0-4.73-.17-8.15-.38-9.79-.02-.2-.26-.29-.41-.16l-4.2,3.51-5.88,4.91ZM68.88,124.23c.55.29,4.53.6,10.82.6,4.79,0,8.24-.18,9.86-.39.2-.03.29-.27.15-.42l-10.42-11.04c-.09-.1-.24-.11-.34-.02l-8.87,7.4-1.48,1.24c-.06.05-.1.13-.09.21.16,1.97.33,2.35.35,2.38-.02-.04.08.06.04.04ZM89.16,102.26c-1.75-.19-5.03-.35-9.46-.35-6.08,0-9.99.29-10.75.57-.06.02-.11.07-.14.14-.5,1.3-.72,10.79-.44,17.02,0,.21.25.31.41.18l8.4-7.01,12.12-10.11c.17-.14.09-.42-.13-.44ZM46.34,145.78c-.11.09-.12.26-.02.36l10.13,10.73c.15.16.41.07.43-.15.19-1.76.34-5.02.34-9.42,0-4.73-.17-8.15-.38-9.79-.02-.2-.26-.29-.41-.16l-4.2,3.51-5.88,4.91ZM55.22,136.2c-1.75-.19-5.03-.35-9.46-.35-6.08,0-9.99.29-10.75.57-.06.02-.11.07-.14.14-.5,1.3-.72,10.79-.44,17.02,0,.21.25.31.41.18l8.4-7.01,12.12-10.11c.17-.14.09-.42-.13-.44ZM34.94,158.17c.55.29,4.53.6,10.82.6,4.79,0,8.24-.18,9.86-.39.2-.03.29-.27.15-.42l-10.42-11.04c-.09-.1-.24-.11-.34-.02l-8.87,7.4-1.48,1.24c-.06.05-.1.13-.09.21.16,1.97.33,2.35.35,2.38-.02-.04.08.06.04.04ZM19.98,138.9c-.09-.08-.24-.09-.33,0l-17.75,14.82c-.1.08-.12.22-.05.33.47.73,1.01,1.42,1.64,2.05,2.25,2.25,5.24,3.49,8.42,3.49s6.17-1.24,8.42-3.49c4.65-4.65,4.65-12.2,0-16.85-.12-.12-.23-.23-.35-.34ZM1.31,152.34l17.1-14.27c.13-.11.12-.31-.02-.4-1.96-1.27-4.22-1.91-6.48-1.91-3.05,0-6.1,1.16-8.42,3.48S0,144.48,0,147.66c0,1.6.32,3.15.92,4.59.06.16.26.2.39.09ZM88.43,139.23c-.12-.12-.23-.23-.35-.34-.09-.08-.24-.09-.33,0l-17.75,14.82c-.1.08-.12.22-.05.33.47.73,1.01,1.42,1.64,2.05,2.25,2.25,5.24,3.49,8.42,3.49s6.17-1.24,8.42-3.49c4.65-4.65,4.65-12.2,0-16.85ZM69.4,152.34l17.1-14.27c.13-.11.12-.31-.02-.4-1.96-1.27-4.22-1.91-6.48-1.91-3.05,0-6.1,1.16-8.42,3.48-2.25,2.25-3.49,5.24-3.49,8.42,0,1.6.32,3.15.92,4.59.06.16.26.2.39.09ZM22.27,171.3l-4.2,3.51-5.88,4.91c-.11.09-.12.26-.02.36l10.13,10.73c.15.16.41.07.43-.15.19-1.76.34-5.02.34-9.42,0-4.73-.17-8.15-.38-9.79-.02-.2-.26-.29-.41-.16ZM21.07,170.14c-1.75-.19-5.03-.35-9.46-.35-6.08,0-9.99.29-10.75.57-.06.02-.11.07-.14.14-.5,1.3-.72,10.79-.44,17.02,0,.21.25.31.41.18l8.4-7.01,12.12-10.11c.17-.14.09-.42-.13-.44ZM21.62,191.89l-10.42-11.04c-.09-.1-.24-.11-.34-.02l-8.87,7.4-1.48,1.24c-.06.05-.1.13-.09.21.16,1.97.33,2.35.35,2.38-.02-.04.08.06.04.04.55.29,4.53.6,10.82.6,4.79,0,8.24-.18,9.86-.39.2-.03.29-.27.15-.42ZM90.81,190.67c.19-1.76.34-5.02.34-9.42,0-4.73-.17-8.15-.38-9.79-.02-.2-.26-.29-.41-.16l-4.2,3.51-5.88,4.91c-.11.09-.12.26-.02.36l10.13,10.73c.15.16.41.07.43-.15ZM68.78,187.7l8.4-7.01,12.12-10.11c.17-.14.09-.42-.13-.44-1.75-.19-5.03-.35-9.46-.35-6.08,0-9.99.29-10.75.57-.06.02-.11.07-.14.14-.5,1.3-.72,10.79-.44,17.02,0,.21.25.31.41.18ZM89.7,191.89l-10.42-11.04c-.09-.1-.24-.11-.34-.02l-8.87,7.4-1.48,1.24c-.06.05-.1.13-.09.21.16,1.97.33,2.35.35,2.38-.02-.04.08.06.04.04.55.29,4.53.6,10.82.6,4.79,0,8.24-.18,9.86-.39.2-.03.29-.27.15-.42ZM54.28,173.17c-.12-.12-.23-.23-.35-.34-.09-.09-.24-.09-.33,0l-17.75,14.82c-.1.08-.12.22-.05.33.47.73,1.01,1.42,1.64,2.05,2.25,2.25,5.24,3.49,8.42,3.49s6.17-1.24,8.42-3.49c4.65-4.65,4.65-12.2,0-16.85ZM35.25,186.28l17.1-14.27c.13-.11.12-.31-.02-.4-1.96-1.27-4.22-1.91-6.48-1.91-3.05,0-6.1,1.16-8.42,3.48-2.25,2.25-3.49,5.24-3.49,8.42,0,1.6.32,3.15.92,4.59.06.16.26.2.39.09ZM157.79,191.89l-10.42-11.04c-.09-.1-.24-.11-.34-.02l-8.87,7.4-1.48,1.24c-.06.05-.1.13-.09.21.16,1.97.33,2.35.35,2.38-.02-.04.08.06.04.04.55.29,4.53.6,10.82.6,4.79,0,8.24-.18,9.86-.39.2-.03.29-.27.15-.42ZM158.9,190.67c.19-1.76.34-5.02.34-9.42,0-4.73-.17-8.15-.38-9.79-.02-.2-.26-.29-.41-.16l-4.2,3.51-5.88,4.91c-.11.09-.12.26-.02.36l10.13,10.73c.15.16.41.07.43-.15ZM122.01,172.83c-.09-.09-.24-.09-.33,0l-17.75,14.82c-.1.08-.12.22-.05.33.47.73,1.01,1.42,1.64,2.05,2.25,2.25,5.24,3.49,8.42,3.49s6.17-1.24,8.42-3.49c4.65-4.65,4.65-12.2,0-16.85-.12-.12-.23-.23-.35-.34ZM103.34,186.28l17.1-14.27c.13-.11.12-.31-.02-.4-1.96-1.27-4.22-1.91-6.48-1.91-3.05,0-6.1,1.16-8.42,3.48s-3.49,5.24-3.49,8.42c0,1.6.32,3.15.92,4.59.06.16.26.2.39.09ZM136.86,187.7l8.4-7.01,12.12-10.11c.17-.14.09-.42-.13-.44-1.75-.19-5.03-.35-9.46-.35-6.08,0-9.99.29-10.75.57-.06.02-.11.07-.14.14-.5,1.3-.72,10.79-.44,17.02,0,.21.25.31.41.18ZM225.34,170.14c-1.75-.19-5.03-.35-9.46-.35-6.08,0-9.99.29-10.75.57-.06.02-.11.07-.14.14-.5,1.3-.72,10.79-.44,17.02,0,.21.25.31.41.18l8.4-7.01,12.12-10.11c.17-.14.09-.42-.13-.44ZM190.1,172.83c-.09-.09-.24-.09-.33,0l-17.75,14.82c-.1.08-.12.22-.05.33.47.73,1.01,1.42,1.64,2.05,2.25,2.25,5.24,3.49,8.42,3.49s6.17-1.24,8.42-3.49c4.65-4.65,4.65-12.2,0-16.85-.12-.12-.23-.23-.35-.34ZM171.42,186.28l17.1-14.27c.13-.11.12-.31-.02-.4-1.96-1.27-4.22-1.91-6.48-1.91-3.05,0-6.1,1.16-8.42,3.48s-3.49,5.24-3.49,8.42c0,1.6.32,3.15.92,4.59.06.16.26.2.39.09ZM205.05,192.11c.55.29,4.53.6,10.82.6,4.79,0,8.24-.18,9.86-.39.2-.03.29-.27.15-.42l-10.42-11.04c-.09-.1-.24-.11-.34-.02l-8.87,7.4-1.48,1.24c-.06.05-.1.13-.09.21.16,1.97.33,2.35.35,2.38-.02-.04.08.06.04.04ZM216.45,179.72c-.11.09-.12.26-.02.36l10.13,10.73c.15.16.41.07.43-.15.19-1.76.34-5.02.34-9.42,0-4.73-.17-8.15-.38-9.79-.03-.2-.26-.29-.41-.16l-4.2,3.51-5.88,4.91ZM258.54,173.17c-.12-.12-.23-.23-.35-.34-.09-.09-.24-.09-.33,0l-17.75,14.82c-.1.08-.12.22-.05.33.47.73,1.01,1.42,1.64,2.05,2.25,2.25,5.24,3.49,8.42,3.49s6.17-1.24,8.42-3.49c4.65-4.65,4.65-12.2,0-16.85ZM239.51,186.28l17.1-14.27c.13-.11.12-.31-.02-.4-1.96-1.27-4.22-1.91-6.48-1.91-3.05,0-6.1,1.16-8.42,3.48s-3.49,5.24-3.49,8.42c0,1.6.32,3.15.92,4.59.07.16.26.2.39.09ZM55.22,204.08c-1.75-.19-5.03-.35-9.46-.35-6.08,0-9.99.29-10.75.57-.06.02-.11.07-.14.14-.5,1.3-.72,10.79-.44,17.02,0,.21.25.31.41.18l8.4-7.01,12.12-10.11c.17-.14.09-.42-.13-.44ZM46.34,213.66c-.11.09-.12.26-.02.36l10.13,10.73c.15.16.41.07.43-.15.19-1.76.34-5.02.34-9.42,0-4.73-.17-8.15-.38-9.79-.02-.2-.26-.29-.41-.16l-4.2,3.51-5.88,4.91ZM34.94,226.05c.55.29,4.53.6,10.82.6,4.79,0,8.24-.18,9.86-.39.2-.03.29-.27.15-.42l-10.42-11.04c-.09-.1-.24-.1-.34-.02l-8.87,7.4-1.48,1.24c-.06.05-.1.13-.09.21.16,1.97.33,2.35.35,2.38-.02-.04.08.06.04.04ZM20.34,207.11c-.12-.12-.23-.23-.35-.34-.09-.09-.24-.09-.33,0l-17.75,14.82c-.1.08-.12.22-.05.33.47.73,1.01,1.42,1.64,2.05,2.25,2.25,5.24,3.49,8.42,3.49s6.17-1.24,8.42-3.49c4.65-4.65,4.65-12.2,0-16.85ZM1.31,220.22l17.1-14.27c.13-.11.12-.31-.02-.4-1.96-1.27-4.22-1.91-6.48-1.91-3.05,0-6.1,1.16-8.42,3.48s-3.49,5.24-3.49,8.42c0,1.6.32,3.15.92,4.59.06.16.26.2.39.09ZM113.09,214.77l-8.87,7.4-1.48,1.24c-.06.05-.1.13-.09.21.16,1.97.33,2.35.35,2.38-.02-.04.08.06.04.04.55.29,4.53.6,10.82.6,4.79,0,8.24-.18,9.86-.39.2-.03.29-.27.15-.42l-10.42-11.04c-.09-.1-.24-.1-.34-.02ZM88.07,206.77c-.09-.09-.24-.09-.33,0l-17.75,14.82c-.1.08-.12.22-.05.33.47.73,1.01,1.42,1.64,2.05,2.25,2.25,5.24,3.49,8.42,3.49s6.17-1.24,8.42-3.49c4.65-4.65,4.65-12.2,0-16.85-.12-.12-.23-.23-.35-.34ZM86.48,205.54c-1.96-1.27-4.22-1.91-6.48-1.91-3.05,0-6.1,1.16-8.42,3.48-2.25,2.25-3.49,5.24-3.49,8.42,0,1.6.32,3.15.92,4.59.06.16.26.2.39.09l17.1-14.27c.13-.11.12-.31-.02-.4ZM124.96,224.6c.19-1.76.34-5.02.34-9.42,0-4.73-.17-8.15-.38-9.79-.02-.2-.26-.29-.41-.16l-4.2,3.51-5.88,4.91c-.11.09-.12.26-.02.36l10.13,10.73c.15.16.41.07.43-.15ZM123.31,204.08c-1.75-.19-5.03-.35-9.46-.35-6.08,0-9.99.29-10.75.57-.06.02-.11.07-.14.14-.5,1.3-.72,10.79-.44,17.02,0,.21.25.31.41.18l8.4-7.01,12.12-10.11c.17-.14.09-.42-.13-.44ZM181.18,214.77l-8.87,7.4-1.48,1.24c-.06.05-.1.13-.09.21.16,1.97.33,2.35.35,2.38-.02-.04.08.06.04.04.55.29,4.53.6,10.82.6,4.79,0,8.24-.18,9.86-.39.2-.03.29-.27.15-.42l-10.42-11.04c-.09-.1-.24-.1-.34-.02ZM156.16,206.77c-.09-.09-.24-.09-.33,0l-17.75,14.82c-.1.08-.12.22-.05.33.47.73,1.01,1.42,1.64,2.05,2.25,2.25,5.24,3.49,8.42,3.49s6.17-1.24,8.42-3.49c4.65-4.65,4.65-12.2,0-16.85-.12-.12-.23-.23-.35-.34ZM154.57,205.54c-1.96-1.27-4.22-1.91-6.48-1.91-3.05,0-6.1,1.16-8.42,3.48s-3.49,5.24-3.49,8.42c0,1.6.32,3.15.92,4.59.06.16.26.2.39.09l17.1-14.27c.13-.11.12-.31-.02-.4ZM193.05,224.6c.19-1.76.34-5.02.34-9.42,0-4.73-.17-8.15-.38-9.79-.03-.2-.26-.29-.41-.16l-4.2,3.51-5.88,4.91c-.11.09-.12.26-.02.36l10.13,10.73c.15.16.41.07.43-.15ZM191.4,204.08c-1.75-.19-5.03-.35-9.46-.35-6.08,0-9.99.29-10.75.57-.06.02-.11.07-.14.14-.5,1.3-.72,10.79-.44,17.02,0,.21.25.31.41.18l8.4-7.01,12.12-10.11c.17-.14.09-.42-.13-.44ZM261.14,224.6c.19-1.76.34-5.02.34-9.42,0-4.73-.17-8.15-.38-9.79-.02-.2-.26-.29-.41-.16l-4.2,3.51-5.88,4.91c-.11.09-.12.26-.02.36l10.13,10.73c.15.16.41.07.43-.15ZM239.1,221.64l8.4-7.01,12.12-10.11c.17-.14.09-.42-.13-.44-1.75-.19-5.03-.35-9.46-.35-6.08,0-9.99.29-10.75.57-.06.02-.11.07-.14.14-.5,1.3-.72,10.79-.44,17.02,0,.21.25.31.41.18ZM224.6,207.11c-.12-.12-.23-.23-.35-.34-.09-.09-.24-.09-.33,0l-17.75,14.82c-.1.08-.12.22-.05.33.47.73,1.01,1.42,1.64,2.05,2.25,2.25,5.24,3.49,8.42,3.49s6.17-1.24,8.42-3.49c4.65-4.65,4.65-12.2,0-16.85ZM205.57,220.22l17.1-14.27c.13-.11.12-.31-.02-.4-1.96-1.27-4.22-1.91-6.48-1.91-3.05,0-6.1,1.16-8.42,3.48s-3.49,5.24-3.49,8.42c0,1.6.32,3.15.92,4.59.06.16.26.2.39.09ZM239.2,226.05c.55.29,4.53.6,10.82.6,4.79,0,8.24-.18,9.86-.39.2-.03.29-.27.15-.42l-10.42-11.04c-.09-.1-.24-.1-.34-.02l-8.87,7.4-1.48,1.24c-.06.05-.1.13-.09.21.16,1.97.33,2.35.35,2.38-.02-.04.08.06.04.04ZM292.69,207.11c-.12-.12-.23-.23-.35-.34-.09-.09-.24-.09-.33,0l-17.75,14.82c-.1.08-.12.22-.05.33.47.73,1.01,1.42,1.64,2.05,2.25,2.25,5.24,3.49,8.42,3.49s6.17-1.24,8.42-3.49c4.65-4.65,4.65-12.2,0-16.85ZM273.66,220.22l17.1-14.27c.13-.11.12-.31-.02-.4-1.96-1.27-4.22-1.91-6.48-1.91-3.05,0-6.1,1.16-8.42,3.48s-3.49,5.24-3.49,8.42c0,1.6.32,3.15.92,4.59.06.16.26.2.39.09ZM12.19,247.59c-.11.09-.12.26-.02.36l10.13,10.73c.15.16.41.07.43-.14.19-1.76.34-5.02.34-9.42,0-4.73-.17-8.15-.38-9.79-.02-.2-.26-.29-.41-.16l-4.2,3.51-5.88,4.91ZM.79,259.98c.55.29,4.53.6,10.82.6,4.79,0,8.24-.18,9.86-.39.2-.03.29-.27.15-.42l-10.42-11.04c-.09-.1-.24-.1-.34-.02l-8.87,7.4-1.48,1.24c-.06.05-.1.13-.09.21.16,1.97.33,2.35.35,2.38-.02-.04.08.06.04.04ZM21.07,238.01c-1.75-.19-5.03-.35-9.46-.35-6.08,0-9.99.29-10.75.57-.06.02-.11.07-.14.14-.5,1.3-.72,10.79-.44,17.02,0,.21.25.31.41.18l8.4-7.01,12.12-10.11c.17-.14.09-.42-.13-.44ZM90.81,258.54c.19-1.76.34-5.02.34-9.42,0-4.73-.17-8.15-.38-9.79-.02-.2-.26-.29-.41-.16l-4.2,3.51-5.88,4.91c-.11.09-.12.26-.02.36l10.13,10.73c.15.16.41.07.43-.14ZM89.7,259.77l-10.42-11.04c-.09-.1-.24-.1-.34-.02l-8.87,7.4-1.48,1.24c-.06.05-.1.13-.09.21.16,1.97.33,2.35.35,2.38-.02-.04.08.06.04.04.55.29,4.53.6,10.82.6,4.79,0,8.24-.18,9.86-.39.2-.03.29-.27.15-.42ZM89.16,238.01c-1.75-.19-5.03-.35-9.46-.35-6.08,0-9.99.29-10.75.57-.06.02-.11.07-.14.14-.5,1.3-.72,10.79-.44,17.02,0,.21.25.31.41.18l8.4-7.01,12.12-10.11c.17-.14.09-.42-.13-.44ZM54.28,241.05c-.12-.12-.23-.23-.35-.34-.09-.09-.24-.09-.33,0l-17.75,14.82c-.1.08-.12.22-.05.33.47.73,1.01,1.42,1.64,2.05,2.25,2.25,5.24,3.49,8.42,3.49s6.17-1.24,8.42-3.49c4.65-4.65,4.65-12.2,0-16.85ZM35.25,254.15l17.1-14.27c.13-.11.12-.31-.02-.4-1.96-1.27-4.22-1.91-6.48-1.91-3.05,0-6.1,1.16-8.42,3.48s-3.49,5.24-3.49,8.42c0,1.6.32,3.15.92,4.59.06.16.26.2.39.09ZM157.79,259.77l-10.42-11.04c-.09-.1-.24-.1-.34-.02l-8.87,7.4-1.48,1.24c-.06.05-.1.13-.09.21.16,1.97.33,2.35.35,2.38-.02-.04.08.06.04.04.55.29,4.53.6,10.82.6,4.79,0,8.24-.18,9.86-.39.2-.03.29-.27.15-.42ZM122.01,240.71c-.09-.09-.24-.09-.33,0l-17.75,14.82c-.1.08-.12.22-.05.33.47.73,1.01,1.42,1.64,2.05,2.25,2.25,5.24,3.49,8.42,3.49s6.17-1.24,8.42-3.49c4.65-4.65,4.65-12.2,0-16.85-.12-.12-.23-.23-.35-.34ZM103.34,254.15l17.1-14.27c.13-.11.12-.31-.02-.4-1.96-1.27-4.22-1.91-6.48-1.91-3.05,0-6.1,1.16-8.42,3.48s-3.49,5.24-3.49,8.42c0,1.6.32,3.15.92,4.59.06.16.26.2.39.09ZM158.9,258.54c.19-1.76.34-5.02.34-9.42,0-4.73-.17-8.15-.38-9.79-.02-.2-.26-.29-.41-.16l-4.2,3.51-5.88,4.91c-.11.09-.12.26-.02.36l10.13,10.73c.15.16.41.07.43-.14ZM157.25,238.01c-1.75-.19-5.03-.35-9.46-.35-6.08,0-9.99.29-10.75.57-.06.02-.11.07-.14.14-.5,1.3-.72,10.79-.44,17.02,0,.21.25.31.41.18l8.4-7.01,12.12-10.11c.17-.14.09-.42-.13-.44ZM226.99,258.54c.19-1.76.34-5.02.34-9.42,0-4.73-.17-8.15-.38-9.79-.03-.2-.26-.29-.41-.16l-4.2,3.51-5.88,4.91c-.11.09-.12.26-.02.36l10.13,10.73c.15.16.41.07.43-.14ZM204.95,255.58l8.4-7.01,12.12-10.11c.17-.14.09-.42-.13-.44-1.75-.19-5.03-.35-9.46-.35-6.08,0-9.99.29-10.75.57-.06.02-.11.07-.14.14-.5,1.3-.72,10.79-.44,17.02,0,.21.25.31.41.18ZM205.05,259.98c.55.29,4.53.6,10.82.6,4.79,0,8.24-.18,9.86-.39.2-.03.29-.27.15-.42l-10.42-11.04c-.09-.1-.24-.1-.34-.02l-8.87,7.4-1.48,1.24c-.06.05-.1.13-.09.21.16,1.97.33,2.35.35,2.38-.02-.04.08.06.04.04ZM190.1,240.71c-.09-.09-.24-.09-.33,0l-17.75,14.82c-.1.08-.12.22-.05.33.47.73,1.01,1.42,1.64,2.05,2.25,2.25,5.24,3.49,8.42,3.49s6.17-1.24,8.42-3.49c4.65-4.65,4.65-12.2,0-16.85-.12-.12-.23-.23-.35-.34ZM171.42,254.15l17.1-14.27c.13-.11.12-.31-.02-.4-1.96-1.27-4.22-1.91-6.48-1.91-3.05,0-6.1,1.16-8.42,3.48s-3.49,5.24-3.49,8.42c0,1.6.32,3.15.92,4.59.06.16.26.2.39.09ZM284.54,247.59c-.11.09-.12.26-.02.36l10.13,10.73c.15.16.41.07.43-.14.19-1.76.34-5.02.34-9.42,0-4.73-.17-8.15-.38-9.79-.02-.2-.26-.29-.41-.16l-4.2,3.51-5.88,4.91ZM293.42,238.01c-1.75-.19-5.03-.35-9.46-.35-6.08,0-9.99.29-10.75.57-.06.02-.11.07-.14.14-.5,1.3-.72,10.79-.44,17.02,0,.21.25.31.41.18l8.4-7.01,12.12-10.11c.17-.14.09-.42-.13-.44ZM273.14,259.98c.55.29,4.53.6,10.82.6,4.79,0,8.24-.18,9.86-.39.2-.03.29-.27.15-.42l-10.42-11.04c-.09-.1-.24-.1-.34-.02l-8.87,7.4-1.48,1.24c-.06.05-.1.13-.09.21.16,1.97.33,2.35.35,2.38-.02-.04.08.06.04.04ZM258.19,240.71c-.09-.08-.24-.09-.33,0l-17.75,14.82c-.1.08-.12.22-.05.33.47.73,1.01,1.42,1.64,2.05,2.25,2.25,5.24,3.49,8.42,3.49s6.17-1.24,8.42-3.49c4.65-4.65,4.65-12.2,0-16.85-.12-.12-.23-.23-.35-.34ZM239.51,254.15l17.1-14.27c.13-.11.12-.31-.02-.4-1.96-1.27-4.22-1.91-6.48-1.91-3.05,0-6.1,1.16-8.42,3.48s-3.49,5.24-3.49,8.42c0,1.6.32,3.15.92,4.59.06.16.26.2.39.09ZM326.27,240.71c-.09-.09-.24-.09-.33,0l-17.75,14.82c-.1.08-.12.22-.05.33.47.73,1.01,1.42,1.64,2.05,2.25,2.25,5.24,3.49,8.42,3.49s6.17-1.24,8.42-3.49c4.65-4.65,4.65-12.2,0-16.85-.12-.12-.23-.23-.35-.34ZM307.6,254.15l17.1-14.27c.13-.11.12-.31-.02-.4-1.96-1.27-4.22-1.91-6.48-1.91-3.05,0-6.1,1.16-8.42,3.48-2.25,2.25-3.49,5.24-3.49,8.42,0,1.6.32,3.15.92,4.59.06.16.26.2.39.09ZM46.34,281.53c-.11.09-.12.26-.02.36l10.13,10.73c.15.16.41.07.43-.14.19-1.76.34-5.02.34-9.42,0-4.73-.17-8.15-.38-9.79-.02-.2-.26-.29-.41-.16l-4.2,3.51-5.88,4.91ZM20.34,274.98c-.12-.12-.23-.23-.35-.34-.09-.08-.24-.09-.33,0l-17.75,14.82c-.1.08-.12.22-.05.33.47.73,1.01,1.42,1.64,2.05,2.25,2.25,5.24,3.49,8.42,3.49s6.17-1.24,8.42-3.49c4.65-4.65,4.65-12.2,0-16.85ZM1.31,288.09l17.1-14.27c.13-.11.12-.31-.02-.4-1.96-1.27-4.22-1.91-6.48-1.91-3.05,0-6.1,1.16-8.42,3.48s-3.49,5.24-3.49,8.42c0,1.6.32,3.15.92,4.59.06.16.26.2.39.09ZM55.22,271.95c-1.75-.19-5.03-.34-9.46-.34-6.08,0-9.99.29-10.75.57-.06.02-.11.07-.14.14-.5,1.3-.72,10.79-.44,17.02,0,.21.25.31.41.18l8.4-7.01,12.12-10.11c.17-.14.09-.42-.13-.44ZM34.94,293.92c.55.29,4.53.6,10.82.6,4.79,0,8.24-.18,9.86-.39.2-.03.29-.27.15-.42l-10.42-11.04c-.09-.1-.24-.1-.34-.02l-8.87,7.4-1.48,1.24c-.06.05-.1.13-.09.21.16,1.97.33,2.35.35,2.38-.02-.04.08.06.04.04ZM88.07,274.65c-.09-.09-.24-.09-.33,0l-17.75,14.82c-.1.08-.12.22-.05.33.47.73,1.01,1.42,1.64,2.05,2.25,2.25,5.24,3.49,8.42,3.49s6.17-1.24,8.42-3.49c4.65-4.65,4.65-12.2,0-16.85-.12-.12-.23-.23-.35-.34ZM86.48,273.41c-1.96-1.27-4.22-1.91-6.48-1.91-3.05,0-6.1,1.16-8.42,3.48-2.25,2.25-3.49,5.24-3.49,8.42,0,1.6.32,3.15.92,4.59.06.16.26.2.39.09l17.1-14.27c.13-.11.12-.31-.02-.4ZM249.26,282.65l-8.87,7.4-1.48,1.24c-.06.05-.1.13-.09.21.16,1.97.33,2.35.35,2.38-.02-.04.08.06.04.04.55.29,4.53.6,10.82.6,4.79,0,8.24-.18,9.86-.39.2-.03.29-.27.15-.42l-10.42-11.04c-.09-.1-.24-.1-.34-.02ZM261.14,292.48c.19-1.76.34-5.02.34-9.42,0-4.73-.17-8.15-.38-9.79-.02-.2-.26-.29-.41-.16l-4.2,3.51-5.88,4.91c-.11.09-.12.26-.02.36l10.13,10.73c.15.16.41.07.43-.14ZM259.49,271.95c-1.75-.19-5.03-.34-9.46-.34-6.08,0-9.99.29-10.75.57-.06.02-.11.07-.14.14-.5,1.3-.72,10.79-.44,17.02,0,.21.25.31.41.18l8.4-7.01,12.12-10.11c.17-.14.09-.42-.13-.44ZM317.35,282.65l-8.87,7.4-1.48,1.24c-.06.05-.1.13-.09.21.16,1.97.33,2.35.35,2.38-.02-.04.08.06.04.04.55.29,4.53.6,10.82.6,4.79,0,8.24-.18,9.86-.39.2-.03.29-.27.15-.42l-10.42-11.04c-.09-.1-.24-.1-.34-.02ZM329.23,292.48c.19-1.76.34-5.02.34-9.42,0-4.73-.17-8.15-.38-9.79-.03-.2-.26-.29-.41-.16l-4.2,3.51-5.88,4.91c-.11.09-.12.26-.02.36l10.13,10.73c.15.16.41.07.43-.14ZM292.69,274.98c-.12-.12-.23-.23-.35-.34-.09-.08-.24-.09-.33,0l-17.75,14.82c-.1.08-.12.22-.05.33.47.73,1.01,1.42,1.64,2.05,2.25,2.25,5.24,3.49,8.42,3.49s6.17-1.24,8.42-3.49c4.65-4.65,4.65-12.2,0-16.85ZM273.66,288.09l17.1-14.27c.13-.11.12-.31-.02-.4-1.96-1.27-4.22-1.91-6.48-1.91-3.05,0-6.1,1.16-8.42,3.48-2.25,2.25-3.49,5.24-3.49,8.42,0,1.6.32,3.15.92,4.59.06.16.26.2.39.09ZM327.57,271.95c-1.75-.19-5.03-.34-9.46-.34-6.08,0-9.99.29-10.75.57-.06.02-.11.07-.14.14-.5,1.3-.72,10.79-.44,17.02,0,.21.25.31.41.18l8.4-7.01,12.12-10.11c.17-.14.09-.42-.13-.44ZM22.73,326.42c.19-1.76.34-5.02.34-9.42,0-4.73-.17-8.15-.38-9.79-.02-.2-.26-.29-.41-.16l-4.2,3.51-5.88,4.91c-.11.09-.12.26-.02.36l10.13,10.73c.15.16.41.07.43-.14ZM.69,323.45l8.4-7.01,12.12-10.11c.17-.14.09-.42-.13-.44-1.75-.19-5.03-.34-9.46-.34-6.08,0-9.99.29-10.75.57-.06.02-.11.07-.14.14-.5,1.3-.72,10.79-.44,17.02,0,.21.25.31.41.18ZM21.62,327.64l-10.42-11.04c-.09-.1-.24-.11-.34-.02l-8.87,7.4-1.48,1.24c-.06.05-.1.13-.09.21.16,1.97.33,2.35.35,2.38-.02-.04.08.06.04.04.55.29,4.53.6,10.82.6,4.79,0,8.24-.18,9.86-.39.2-.03.29-.27.15-.42ZM90.81,326.42c.19-1.76.34-5.02.34-9.42,0-4.73-.17-8.15-.38-9.79-.02-.2-.26-.29-.41-.16l-4.2,3.51-5.88,4.91c-.11.09-.12.26-.02.36l10.13,10.73c.15.16.41.07.43-.14ZM89.16,305.89c-1.75-.19-5.03-.34-9.46-.34-6.08,0-9.99.29-10.75.57-.06.02-.11.07-.14.14-.5,1.3-.72,10.79-.44,17.02,0,.21.25.31.41.18l8.4-7.01,12.12-10.11c.17-.14.09-.42-.13-.44ZM78.94,316.59l-8.87,7.4-1.48,1.24c-.06.05-.1.13-.09.21.16,1.97.33,2.35.35,2.38-.02-.04.08.06.04.04.55.29,4.53.6,10.82.6,4.79,0,8.24-.18,9.86-.39.2-.03.29-.27.15-.42l-10.42-11.04c-.09-.1-.24-.11-.34-.02ZM54.28,308.92c-.12-.12-.23-.23-.35-.34-.09-.08-.24-.09-.33,0l-17.75,14.82c-.1.08-.12.22-.05.33.47.73,1.01,1.42,1.64,2.05,2.25,2.25,5.24,3.49,8.42,3.49s6.17-1.24,8.42-3.49c4.65-4.65,4.65-12.2,0-16.85ZM35.25,322.03l17.1-14.27c.13-.11.12-.31-.02-.4-1.96-1.27-4.22-1.91-6.48-1.91-3.05,0-6.1,1.16-8.42,3.48s-3.49,5.24-3.49,8.42c0,1.6.32,3.15.92,4.59.06.16.26.2.39.09ZM293.97,327.64l-10.42-11.04c-.09-.1-.24-.11-.34-.02l-8.87,7.4-1.48,1.24c-.06.05-.1.13-.09.21.16,1.97.33,2.35.35,2.38-.02-.04.08.06.04.04.55.29,4.53.6,10.82.6,4.79,0,8.24-.18,9.86-.39.2-.03.29-.27.15-.42ZM258.19,308.58c-.09-.08-.24-.09-.33,0l-17.75,14.82c-.1.08-.12.22-.05.33.47.73,1.01,1.42,1.64,2.05,2.25,2.25,5.24,3.49,8.42,3.49s6.17-1.24,8.42-3.49c4.65-4.65,4.65-12.2,0-16.85-.12-.12-.23-.23-.35-.34ZM239.51,322.03l17.1-14.27c.13-.11.12-.31-.02-.4-1.96-1.27-4.22-1.91-6.48-1.91-3.05,0-6.1,1.16-8.42,3.48-2.25,2.25-3.49,5.24-3.49,8.42,0,1.6.32,3.15.92,4.59.06.16.26.2.39.09ZM295.08,326.42c.19-1.76.34-5.02.34-9.42,0-4.73-.17-8.15-.38-9.79-.02-.2-.26-.29-.41-.16l-4.2,3.51-5.88,4.91c-.11.09-.12.26-.02.36l10.13,10.73c.15.16.41.07.43-.14ZM273.04,323.45l8.4-7.01,12.12-10.11c.17-.14.09-.42-.13-.44-1.75-.19-5.03-.34-9.46-.34-6.08,0-9.99.29-10.75.57-.06.02-.11.07-.14.14-.5,1.3-.72,10.79-.44,17.02,0,.21.25.31.41.18ZM326.27,308.58c-.09-.08-.24-.09-.33,0l-17.75,14.82c-.1.08-.12.22-.05.33.47.73,1.01,1.42,1.64,2.05,2.25,2.25,5.24,3.49,8.42,3.49s6.17-1.24,8.42-3.49c4.65-4.65,4.65-12.2,0-16.85-.12-.12-.23-.23-.35-.34ZM307.6,322.03l17.1-14.27c.13-.11.12-.31-.02-.4-1.96-1.27-4.22-1.91-6.48-1.91-3.05,0-6.1,1.16-8.42,3.48-2.25,2.25-3.49,5.24-3.49,8.42,0,1.6.32,3.15.92,4.59.06.16.26.2.39.09ZM46.34,349.41c-.11.09-.12.26-.02.36l10.13,10.73c.15.16.41.07.43-.14.19-1.76.34-5.02.34-9.42,0-4.73-.17-8.15-.38-9.79-.02-.2-.26-.29-.41-.16l-4.2,3.51-5.88,4.91ZM55.22,339.83c-1.75-.19-5.03-.35-9.46-.35-6.08,0-9.99.29-10.75.57-.06.02-.11.07-.14.14-.5,1.3-.72,10.79-.44,17.02,0,.21.25.31.41.18l8.4-7.01,12.12-10.11c.17-.14.09-.42-.13-.44ZM34.94,361.8c.55.29,4.53.6,10.82.6,4.79,0,8.24-.18,9.86-.39.2-.03.29-.27.15-.42l-10.42-11.04c-.09-.1-.24-.11-.34-.02l-8.87,7.4-1.48,1.24c-.06.05-.1.13-.09.21.16,1.97.33,2.35.35,2.38-.02-.04.08.06.04.04ZM19.98,342.52c-.09-.08-.24-.09-.33,0l-17.75,14.82c-.1.08-.12.22-.05.33.47.73,1.01,1.42,1.64,2.05,2.25,2.25,5.24,3.49,8.42,3.49s6.17-1.24,8.42-3.49c4.65-4.65,4.65-12.2,0-16.85-.12-.12-.23-.23-.35-.34ZM18.39,341.29c-1.96-1.27-4.22-1.91-6.48-1.91-3.05,0-6.1,1.16-8.42,3.48C1.24,345.11,0,348.1,0,351.28c0,1.6.32,3.15.92,4.59.06.16.26.2.39.09l17.1-14.27c.13-.11.12-.31-.02-.4ZM88.07,342.52c-.09-.08-.24-.09-.33,0l-17.75,14.82c-.1.08-.12.22-.05.33.47.73,1.01,1.42,1.64,2.05,2.25,2.25,5.24,3.49,8.42,3.49s6.17-1.24,8.42-3.49c4.65-4.65,4.65-12.2,0-16.85-.12-.12-.23-.23-.35-.34ZM69.4,355.97l17.1-14.27c.13-.11.12-.31-.02-.4-1.96-1.27-4.22-1.91-6.48-1.91-3.05,0-6.1,1.16-8.42,3.48-2.25,2.25-3.49,5.24-3.49,8.42,0,1.6.32,3.15.92,4.59.06.16.26.2.39.09ZM249.26,350.52l-8.87,7.4-1.48,1.24c-.06.05-.1.13-.09.21.16,1.97.33,2.35.35,2.38-.02-.04.08.06.04.04.55.29,4.53.6,10.82.6,4.79,0,8.24-.18,9.86-.39.2-.03.29-.27.15-.42l-10.42-11.04c-.09-.1-.24-.11-.34-.02ZM261.14,360.35c.19-1.76.34-5.02.34-9.42,0-4.73-.17-8.15-.38-9.79-.02-.2-.26-.29-.41-.16l-4.2,3.51-5.88,4.91c-.11.09-.12.26-.02.36l10.13,10.73c.15.16.41.07.43-.14ZM259.49,339.83c-1.75-.19-5.03-.35-9.46-.35-6.08,0-9.99.29-10.75.57-.06.02-.11.07-.14.14-.5,1.3-.72,10.79-.44,17.02,0,.21.25.31.41.18l8.4-7.01,12.12-10.11c.17-.14.09-.42-.13-.44ZM317.35,350.52l-8.87,7.4-1.48,1.24c-.06.05-.1.13-.09.21.16,1.97.33,2.35.35,2.38-.02-.04.08.06.04.04.55.29,4.53.6,10.82.6,4.79,0,8.24-.18,9.86-.39.2-.03.29-.27.15-.42l-10.42-11.04c-.09-.1-.24-.11-.34-.02ZM327.57,339.83c-1.75-.19-5.03-.35-9.46-.35-6.08,0-9.99.29-10.75.57-.06.02-.11.07-.14.14-.5,1.3-.72,10.79-.44,17.02,0,.21.25.31.41.18l8.4-7.01,12.12-10.11c.17-.14.09-.42-.13-.44ZM329.23,360.35c.19-1.76.34-5.02.34-9.42,0-4.73-.17-8.15-.38-9.79-.03-.2-.26-.29-.41-.16l-4.2,3.51-5.88,4.91c-.11.09-.12.26-.02.36l10.13,10.73c.15.16.41.07.43-.14ZM292.34,342.52c-.09-.08-.24-.09-.33,0l-17.75,14.82c-.1.08-.12.22-.05.33.47.73,1.01,1.42,1.64,2.05,2.25,2.25,5.24,3.49,8.42,3.49s6.17-1.24,8.42-3.49c4.65-4.65,4.65-12.2,0-16.85-.12-.12-.23-.23-.35-.34ZM290.74,341.29c-1.96-1.27-4.22-1.91-6.48-1.91-3.05,0-6.1,1.16-8.42,3.48s-3.49,5.24-3.49,8.42c0,1.6.32,3.15.92,4.59.06.16.26.2.39.09l17.1-14.27c.13-.11.12-.31-.02-.4ZM10.85,384.46l-8.87,7.4-1.48,1.24c-.06.05-.1.13-.09.21.16,1.97.33,2.35.35,2.38-.02-.04.08.06.04.04.55.29,4.53.6,10.82.6,4.79,0,8.24-.18,9.86-.39.2-.03.29-.27.15-.42l-10.42-11.04c-.09-.1-.24-.1-.34-.02ZM22.73,394.29c.19-1.76.34-5.02.34-9.42,0-4.73-.17-8.15-.38-9.79-.02-.2-.26-.29-.41-.16l-4.2,3.51-5.88,4.91c-.11.09-.12.26-.02.36l10.13,10.73c.15.16.41.07.43-.14ZM21.07,373.77c-1.75-.19-5.03-.35-9.46-.35-6.08,0-9.99.29-10.75.57-.06.02-.11.07-.14.14-.5,1.3-.72,10.79-.44,17.02,0,.21.25.31.41.18l8.4-7.01,12.12-10.11c.17-.14.09-.42-.13-.44ZM89.16,373.77c-1.75-.19-5.03-.35-9.46-.35-6.08,0-9.99.29-10.75.57-.06.02-.11.07-.14.14-.5,1.3-.72,10.79-.44,17.02,0,.21.25.31.41.18l8.4-7.01,12.12-10.11c.17-.14.09-.42-.13-.44ZM90.81,394.29c.19-1.76.34-5.02.34-9.42,0-4.73-.17-8.15-.38-9.79-.02-.2-.26-.29-.41-.16l-4.2,3.51-5.88,4.91c-.11.09-.12.26-.02.36l10.13,10.73c.15.16.41.07.43-.14ZM78.94,384.46l-8.87,7.4-1.48,1.24c-.06.05-.1.13-.09.21.16,1.97.33,2.35.35,2.38-.02-.04.08.06.04.04.55.29,4.53.6,10.82.6,4.79,0,8.24-.18,9.86-.39.2-.03.29-.27.15-.42l-10.42-11.04c-.09-.1-.24-.1-.34-.02ZM54.28,376.8c-.12-.12-.23-.23-.35-.34-.09-.09-.24-.09-.33,0l-17.75,14.82c-.1.08-.12.22-.05.33.47.73,1.01,1.42,1.64,2.05,2.25,2.25,5.24,3.49,8.42,3.49s6.17-1.24,8.42-3.49c4.65-4.65,4.65-12.2,0-16.85ZM35.25,389.91l17.1-14.27c.13-.11.12-.31-.02-.4-1.96-1.27-4.22-1.91-6.48-1.91-3.05,0-6.1,1.16-8.42,3.48s-3.49,5.24-3.49,8.42c0,1.6.32,3.16.92,4.59.06.16.26.2.39.09ZM283.2,384.46l-8.87,7.4-1.48,1.24c-.06.05-.1.13-.09.21.16,1.97.33,2.35.35,2.38-.02-.04.08.06.04.04.55.29,4.53.6,10.82.6,4.79,0,8.24-.18,9.86-.39.2-.03.29-.27.15-.42l-10.42-11.04c-.09-.1-.24-.1-.34-.02ZM258.19,376.46c-.09-.09-.24-.09-.33,0l-17.75,14.82c-.1.08-.12.22-.05.33.47.73,1.01,1.42,1.64,2.05,2.25,2.25,5.24,3.49,8.42,3.49s6.17-1.24,8.42-3.49c4.65-4.65,4.65-12.2,0-16.85-.12-.12-.23-.23-.35-.34ZM239.51,389.91l17.1-14.27c.13-.11.12-.31-.02-.4-1.96-1.27-4.22-1.91-6.48-1.91-3.05,0-6.1,1.16-8.42,3.48s-3.49,5.24-3.49,8.42c0,1.6.32,3.15.92,4.59.06.16.26.2.39.09ZM293.42,373.77c-1.75-.19-5.03-.35-9.46-.35-6.08,0-9.99.29-10.75.57-.06.02-.11.07-.14.14-.5,1.3-.72,10.79-.44,17.02,0,.21.25.31.41.18l8.4-7.01,12.12-10.11c.17-.14.09-.42-.13-.44ZM295.08,394.29c.19-1.76.34-5.02.34-9.42,0-4.73-.17-8.15-.38-9.79-.02-.2-.26-.29-.41-.16l-4.2,3.51-5.88,4.91c-.11.09-.12.26-.02.36l10.13,10.73c.15.16.41.07.43-.14ZM326.27,376.46c-.09-.09-.24-.09-.33,0l-17.75,14.82c-.1.08-.12.22-.05.33.47.73,1.01,1.42,1.64,2.05,2.25,2.25,5.24,3.49,8.42,3.49s6.17-1.24,8.42-3.49c4.65-4.65,4.65-12.2,0-16.85-.12-.12-.23-.23-.35-.34ZM307.6,389.91l17.1-14.27c.13-.11.12-.31-.02-.4-1.96-1.27-4.22-1.91-6.48-1.91-3.05,0-6.1,1.16-8.42,3.48-2.25,2.25-3.49,5.24-3.49,8.42,0,1.6.32,3.16.92,4.59.06.16.26.2.39.09ZM19.98,410.4c-.09-.09-.24-.09-.33,0l-17.75,14.82c-.1.08-.12.22-.05.33.47.73,1.01,1.42,1.64,2.05,2.25,2.25,5.24,3.49,8.42,3.49s6.17-1.24,8.42-3.49c4.65-4.65,4.65-12.2,0-16.85-.12-.12-.23-.23-.35-.34ZM18.39,409.16c-1.96-1.27-4.22-1.91-6.48-1.91-3.05,0-6.1,1.16-8.42,3.48C1.24,412.99,0,415.98,0,419.16c0,1.6.32,3.15.92,4.59.06.16.26.2.39.09l17.1-14.27c.13-.11.12-.31-.02-.4ZM34.94,429.67c.55.29,4.53.6,10.82.6,4.79,0,8.24-.18,9.86-.39.2-.03.29-.27.15-.42l-10.42-11.04c-.09-.1-.24-.1-.34-.02l-8.87,7.4-1.48,1.24c-.06.05-.1.13-.09.21.16,1.97.33,2.35.35,2.38-.02-.04.08.06.04.04ZM56.88,428.23c.19-1.76.34-5.02.34-9.42,0-4.73-.17-8.15-.38-9.79-.02-.2-.26-.29-.41-.16l-4.2,3.51-5.88,4.91c-.11.09-.12.26-.02.36l10.13,10.73c.15.16.41.07.43-.15ZM34.84,425.27l8.4-7.01,12.12-10.11c.17-.14.09-.42-.13-.44-1.75-.19-5.03-.35-9.46-.35-6.08,0-9.99.29-10.75.57-.06.02-.11.07-.14.14-.5,1.3-.72,10.79-.44,17.02,0,.21.25.31.41.18ZM124.96,428.23c.19-1.76.34-5.02.34-9.42,0-4.73-.17-8.15-.38-9.79-.02-.2-.26-.29-.41-.16l-4.2,3.51-5.88,4.91c-.11.09-.12.26-.02.36l10.13,10.73c.15.16.41.07.43-.15ZM123.31,407.7c-1.75-.19-5.03-.35-9.46-.35-6.08,0-9.99.29-10.75.57-.06.02-.11.07-.14.14-.5,1.3-.72,10.79-.44,17.02,0,.21.25.31.41.18l8.4-7.01,12.12-10.11c.17-.14.09-.42-.13-.44ZM113.09,418.4l-8.87,7.4-1.48,1.24c-.06.05-.1.13-.09.21.16,1.97.33,2.35.35,2.38-.02-.04.08.06.04.04.55.29,4.53.6,10.82.6,4.79,0,8.24-.18,9.86-.39.2-.03.29-.27.15-.42l-10.42-11.04c-.09-.1-.24-.1-.34-.02ZM88.07,410.4c-.09-.09-.24-.09-.33,0l-17.75,14.82c-.1.08-.12.22-.05.33.47.73,1.01,1.42,1.64,2.05,2.25,2.25,5.24,3.49,8.42,3.49s6.17-1.24,8.42-3.49c4.65-4.65,4.65-12.2,0-16.85-.12-.12-.23-.23-.35-.34ZM69.4,423.84l17.1-14.27c.13-.11.12-.31-.02-.4-1.96-1.27-4.22-1.91-6.48-1.91-3.05,0-6.1,1.16-8.42,3.48s-3.49,5.24-3.49,8.42c0,1.6.32,3.15.92,4.59.06.16.26.2.39.09ZM156.16,410.4c-.09-.09-.24-.09-.33,0l-17.75,14.82c-.1.08-.12.22-.05.33.47.73,1.01,1.42,1.64,2.05,2.25,2.25,5.24,3.49,8.42,3.49s6.17-1.24,8.42-3.49c4.65-4.65,4.65-12.2,0-16.85-.12-.12-.23-.23-.35-.34ZM154.57,409.16c-1.96-1.27-4.22-1.91-6.48-1.91-3.05,0-6.1,1.16-8.42,3.48-2.25,2.25-3.49,5.24-3.49,8.42,0,1.6.32,3.16.92,4.59.06.16.26.2.39.09l17.1-14.27c.13-.11.12-.31-.02-.4ZM193.05,428.23c.19-1.76.34-5.02.34-9.42,0-4.73-.17-8.15-.38-9.79-.03-.2-.26-.29-.41-.16l-4.2,3.51-5.88,4.91c-.11.09-.12.26-.02.36l10.13,10.73c.15.16.41.07.43-.15ZM191.4,407.7c-1.75-.19-5.03-.35-9.46-.35-6.08,0-9.99.29-10.75.57-.06.02-.11.07-.14.14-.5,1.3-.72,10.79-.44,17.02,0,.21.25.31.41.18l8.4-7.01,12.12-10.11c.17-.14.09-.42-.13-.44ZM181.18,418.4l-8.87,7.4-1.48,1.24c-.06.05-.1.13-.09.21.16,1.97.33,2.35.35,2.38-.02-.04.08.06.04.04.55.29,4.53.6,10.82.6,4.79,0,8.24-.18,9.86-.39.2-.03.29-.27.15-.42l-10.42-11.04c-.09-.1-.24-.1-.34-.02ZM261.14,428.23c.19-1.76.34-5.02.34-9.42,0-4.73-.17-8.15-.38-9.79-.02-.2-.26-.29-.41-.16l-4.2,3.51-5.88,4.91c-.11.09-.12.26-.02.36l10.13,10.73c.15.16.41.07.43-.15ZM259.49,407.7c-1.75-.19-5.03-.35-9.46-.35-6.08,0-9.99.29-10.75.57-.06.02-.11.07-.14.14-.5,1.3-.72,10.79-.44,17.02,0,.21.25.31.41.18l8.4-7.01,12.12-10.11c.17-.14.09-.42-.13-.44ZM249.26,418.4l-8.87,7.4-1.48,1.24c-.06.05-.1.13-.09.21.16,1.97.33,2.35.35,2.38-.02-.04.08.06.04.04.55.29,4.53.6,10.82.6,4.79,0,8.24-.18,9.86-.39.2-.03.29-.27.15-.42l-10.42-11.04c-.09-.1-.24-.1-.34-.02ZM224.25,410.4c-.09-.09-.24-.09-.33,0l-17.75,14.82c-.1.08-.12.22-.05.33.47.73,1.01,1.42,1.64,2.05,2.25,2.25,5.24,3.49,8.42,3.49,3.18,0,6.17-1.24,8.42-3.49,4.65-4.65,4.65-12.2,0-16.85-.12-.12-.23-.23-.35-.34ZM205.57,423.84l17.1-14.27c.13-.11.12-.31-.02-.4-1.96-1.27-4.22-1.91-6.48-1.91-3.05,0-6.1,1.16-8.42,3.48s-3.49,5.24-3.49,8.42c0,1.6.32,3.16.92,4.59.06.16.26.2.39.09ZM328.78,408.86l-4.2,3.51-5.88,4.91c-.11.09-.12.26-.02.36l10.13,10.73c.15.16.41.07.43-.15.19-1.76.34-5.02.34-9.42,0-4.73-.17-8.15-.38-9.79-.03-.2-.26-.29-.41-.16ZM317.69,418.42c-.09-.1-.24-.1-.34-.02l-8.87,7.4-1.48,1.24c-.06.05-.1.13-.09.21.16,1.97.33,2.35.35,2.38-.02-.04.08.06.04.04.55.29,4.53.6,10.82.6,4.79,0,8.24-.18,9.86-.39.2-.03.29-.27.15-.42l-10.42-11.04ZM307.19,425.27l8.4-7.01,12.12-10.11c.17-.14.09-.42-.13-.44-1.75-.19-5.03-.35-9.46-.35-6.08,0-9.99.29-10.75.57-.06.02-.11.07-.14.14-.5,1.3-.72,10.79-.44,17.02,0,.21.25.31.41.18ZM292.34,410.4c-.09-.09-.24-.09-.33,0l-17.75,14.82c-.1.08-.12.22-.05.33.47.73,1.01,1.42,1.64,2.05,2.25,2.25,5.24,3.49,8.42,3.49,3.18,0,6.17-1.24,8.42-3.49,4.65-4.65,4.65-12.2,0-16.85-.12-.12-.23-.23-.35-.34ZM273.66,423.84l17.1-14.27c.13-.11.12-.31-.02-.4-1.96-1.27-4.22-1.91-6.48-1.91-3.05,0-6.1,1.16-8.42,3.48-2.25,2.25-3.49,5.24-3.49,8.42,0,1.6.32,3.16.92,4.59.06.16.26.2.39.09ZM53.92,444.33c-.09-.09-.24-.09-.33,0l-17.75,14.82c-.1.08-.12.22-.05.33.47.73,1.01,1.42,1.64,2.05,2.25,2.25,5.24,3.49,8.42,3.49s6.17-1.24,8.42-3.49c4.65-4.65,4.65-12.2,0-16.85-.12-.12-.23-.23-.35-.34ZM52.33,443.1c-1.96-1.27-4.22-1.91-6.48-1.91-3.05,0-6.1,1.16-8.42,3.48-2.25,2.25-3.49,5.24-3.49,8.42,0,1.6.32,3.15.92,4.59.06.16.26.2.39.09l17.1-14.27c.13-.11.12-.31-.02-.4ZM90.81,462.17c.19-1.76.34-5.02.34-9.42,0-4.73-.17-8.15-.38-9.79-.02-.2-.26-.29-.41-.16l-4.2,3.51-5.88,4.91c-.11.09-.12.26-.02.36l10.13,10.73c.15.16.41.07.43-.15ZM78.94,452.34l-8.87,7.4-1.48,1.24c-.06.05-.1.13-.09.21.16,1.97.33,2.35.35,2.38-.02-.04.08.06.04.04.55.29,4.53.6,10.82.6,4.79,0,8.24-.18,9.86-.39.2-.03.29-.27.15-.42l-10.42-11.04c-.09-.1-.24-.1-.34-.02ZM89.16,441.64c-1.75-.19-5.03-.35-9.46-.35-6.08,0-9.99.29-10.75.57-.06.02-.11.07-.14.14-.5,1.3-.72,10.79-.44,17.02,0,.21.25.31.41.18l8.4-7.01,12.12-10.11c.17-.14.09-.42-.13-.44ZM147.03,452.34l-8.87,7.4-1.48,1.24c-.06.05-.1.13-.09.21.16,1.97.33,2.35.35,2.38-.02-.04.08.06.04.04.55.29,4.53.6,10.82.6,4.79,0,8.24-.18,9.86-.39.2-.03.29-.27.15-.42l-10.42-11.04c-.09-.1-.24-.1-.34-.02ZM158.9,462.17c.19-1.76.34-5.02.34-9.42,0-4.73-.17-8.15-.38-9.79-.02-.2-.26-.29-.41-.16l-4.2,3.51-5.88,4.91c-.11.09-.12.26-.02.36l10.13,10.73c.15.16.41.07.43-.15ZM157.25,441.64c-1.75-.19-5.03-.35-9.46-.35-6.08,0-9.99.29-10.75.57-.06.02-.11.07-.14.14-.5,1.3-.72,10.79-.44,17.02,0,.21.25.31.41.18l8.4-7.01,12.12-10.11c.17-.14.09-.42-.13-.44ZM122.01,444.33c-.09-.09-.24-.09-.33,0l-17.75,14.82c-.1.08-.12.22-.05.33.47.73,1.01,1.42,1.64,2.05,2.25,2.25,5.24,3.49,8.42,3.49s6.17-1.24,8.42-3.49c4.65-4.65,4.65-12.2,0-16.85-.12-.12-.23-.23-.35-.34ZM103.34,457.78l17.1-14.27c.13-.11.12-.31-.02-.4-1.96-1.27-4.22-1.91-6.48-1.91-3.05,0-6.1,1.16-8.42,3.48s-3.49,5.24-3.49,8.42c0,1.6.32,3.15.92,4.59.06.16.26.2.39.09ZM190.1,444.33c-.09-.09-.24-.09-.33,0l-17.75,14.82c-.1.08-.12.22-.05.33.47.73,1.01,1.42,1.64,2.05,2.25,2.25,5.24,3.49,8.42,3.49s6.17-1.24,8.42-3.49c4.65-4.65,4.65-12.2,0-16.85-.12-.12-.23-.23-.35-.34ZM171.42,457.78l17.1-14.27c.13-.11.12-.31-.02-.4-1.96-1.27-4.22-1.91-6.48-1.91-3.05,0-6.1,1.16-8.42,3.48-2.25,2.25-3.49,5.24-3.49,8.42,0,1.6.32,3.15.92,4.59.06.16.26.2.39.09ZM215.11,452.34l-8.87,7.4-1.48,1.24c-.06.05-.1.13-.09.21.16,1.97.33,2.35.35,2.38-.02-.04.08.06.04.04.55.29,4.53.6,10.82.6,4.79,0,8.24-.18,9.86-.39.2-.03.29-.27.15-.42l-10.42-11.04c-.09-.1-.24-.1-.34-.02ZM225.34,441.64c-1.75-.19-5.03-.35-9.46-.35-6.08,0-9.99.29-10.75.57-.06.02-.11.07-.14.14-.5,1.3-.72,10.79-.44,17.02,0,.21.25.31.41.18l8.4-7.01,12.12-10.11c.17-.14.09-.42-.13-.44ZM226.99,462.17c.19-1.76.34-5.02.34-9.42,0-4.73-.17-8.15-.38-9.79-.03-.2-.26-.29-.41-.16l-4.2,3.51-5.88,4.91c-.11.09-.12.26-.02.36l10.13,10.73c.15.16.41.07.43-.15ZM294.62,442.8l-4.2,3.51-5.88,4.91c-.11.09-.12.26-.02.36l10.13,10.73c.15.16.41.07.43-.15.19-1.76.34-5.02.34-9.42,0-4.73-.17-8.15-.38-9.79-.02-.2-.26-.29-.41-.16ZM283.54,452.36c-.09-.1-.24-.1-.34-.02l-8.87,7.4-1.48,1.24c-.06.05-.1.13-.09.21.16,1.97.33,2.35.35,2.38-.02-.04.08.06.04.04.55.29,4.53.6,10.82.6,4.79,0,8.24-.18,9.86-.39.2-.03.29-.27.15-.42l-10.42-11.04ZM273.04,459.2l8.4-7.01,12.12-10.11c.17-.14.09-.42-.13-.44-1.75-.19-5.03-.35-9.46-.35-6.08,0-9.99.29-10.75.57-.06.02-.11.07-.14.14-.5,1.3-.72,10.79-.44,17.02,0,.21.25.31.41.18ZM258.19,444.33c-.09-.09-.24-.09-.33,0l-17.75,14.82c-.1.08-.12.22-.05.33.47.73,1.01,1.42,1.64,2.05,2.25,2.25,5.24,3.49,8.42,3.49s6.17-1.24,8.42-3.49c4.65-4.65,4.65-12.2,0-16.85-.12-.12-.23-.23-.35-.34ZM239.51,457.78l17.1-14.27c.13-.11.12-.31-.02-.4-1.96-1.27-4.22-1.91-6.48-1.91-3.05,0-6.1,1.16-8.42,3.48s-3.49,5.24-3.49,8.42c0,1.6.32,3.15.92,4.59.07.16.26.2.39.09ZM113.43,486.29c-.09-.1-.24-.1-.34-.02l-8.87,7.4-1.48,1.24c-.06.05-.1.13-.09.21.16,1.97.33,2.35.35,2.38-.02-.04.08.06.04.04.55.29,4.53.6,10.82.6,4.79,0,8.24-.18,9.86-.39.2-.03.29-.27.15-.42l-10.42-11.04ZM88.07,478.27c-.09-.08-.24-.09-.33,0l-17.75,14.82c-.1.08-.12.22-.05.33.47.73,1.01,1.42,1.64,2.05,2.25,2.25,5.24,3.49,8.42,3.49s6.17-1.24,8.42-3.49c4.65-4.65,4.65-12.2,0-16.85-.12-.12-.23-.23-.35-.34ZM86.48,477.04c-1.96-1.27-4.22-1.91-6.48-1.91-3.05,0-6.1,1.16-8.42,3.48s-3.49,5.24-3.49,8.42c0,1.6.32,3.15.92,4.59.06.16.26.2.39.09l17.1-14.27c.13-.11.12-.31-.02-.4ZM124.51,476.74l-4.2,3.51-5.88,4.91c-.11.09-.12.26-.02.36l10.13,10.73c.15.16.41.07.43-.15.19-1.76.34-5.02.34-9.42,0-4.73-.17-8.15-.38-9.79-.02-.2-.26-.29-.41-.16ZM102.93,493.14l8.4-7.01,12.12-10.11c.17-.14.09-.42-.13-.44-1.75-.19-5.03-.35-9.46-.35-6.08,0-9.99.29-10.75.57-.06.02-.11.07-.14.14-.5,1.3-.72,10.79-.44,17.02,0,.21.25.31.41.18ZM171.02,493.14l8.4-7.01,12.12-10.11c.17-.14.09-.42-.13-.44-1.75-.19-5.03-.35-9.46-.35-6.08,0-9.99.29-10.75.57-.06.02-.11.07-.14.14-.5,1.3-.72,10.79-.44,17.02,0,.21.25.31.41.18ZM156.16,478.27c-.09-.08-.24-.09-.33,0l-17.75,14.82c-.1.08-.12.22-.05.33.47.73,1.01,1.42,1.64,2.05,2.25,2.25,5.24,3.49,8.42,3.49s6.17-1.24,8.42-3.49c4.65-4.65,4.65-12.2,0-16.85-.12-.12-.23-.23-.35-.34ZM154.57,477.04c-1.96-1.27-4.22-1.91-6.48-1.91-3.05,0-6.1,1.16-8.42,3.48-2.25,2.25-3.49,5.24-3.49,8.42,0,1.6.32,3.15.92,4.59.06.16.26.2.39.09l17.1-14.27c.13-.11.12-.31-.02-.4ZM192.6,476.74l-4.2,3.51-5.88,4.91c-.11.09-.12.26-.02.36l10.13,10.73c.15.16.41.07.43-.15.19-1.76.34-5.02.34-9.42,0-4.73-.17-8.15-.38-9.79-.03-.2-.26-.29-.41-.16ZM181.52,486.29c-.09-.1-.24-.1-.34-.02l-8.87,7.4-1.48,1.24c-.06.05-.1.13-.09.21.16,1.97.33,2.35.35,2.38-.02-.04.08.06.04.04.55.29,4.53.6,10.82.6,4.79,0,8.24-.18,9.86-.39.2-.03.29-.27.15-.42l-10.42-11.04ZM260.69,476.74l-4.2,3.51-5.88,4.91c-.11.09-.12.26-.02.36l10.13,10.73c.15.16.41.07.43-.15.19-1.76.34-5.02.34-9.42,0-4.73-.17-8.15-.38-9.79-.02-.2-.26-.29-.41-.16ZM224.25,478.27c-.09-.08-.24-.09-.33,0l-17.75,14.82c-.1.08-.12.22-.05.33.47.73,1.01,1.42,1.64,2.05,2.25,2.25,5.24,3.49,8.42,3.49s6.17-1.24,8.42-3.49c4.65-4.65,4.65-12.2,0-16.85-.12-.12-.23-.23-.35-.34ZM222.66,477.04c-1.96-1.27-4.22-1.91-6.48-1.91-3.05,0-6.1,1.16-8.42,3.48s-3.49,5.24-3.49,8.42c0,1.6.32,3.15.92,4.59.06.16.26.2.39.09l17.1-14.27c.13-.11.12-.31-.02-.4ZM249.61,486.29c-.09-.1-.24-.1-.34-.02l-8.87,7.4-1.48,1.24c-.06.05-.1.13-.09.21.16,1.97.33,2.35.35,2.38-.02-.04.08.06.04.04.55.29,4.53.6,10.82.6,4.79,0,8.24-.18,9.86-.39.2-.03.29-.27.15-.42l-10.42-11.04ZM239.1,493.14l8.4-7.01,12.12-10.11c.17-.14.09-.42-.13-.44-1.75-.19-5.03-.35-9.46-.35-6.08,0-9.99.29-10.75.57-.06.02-.11.07-.14.14-.5,1.3-.72,10.79-.44,17.02,0,.21.25.31.41.18Z"/>
    </g>
  </g>
</svg>