<?xml version="1.0" encoding="UTF-8"?>
<svg id="_レイヤー_2" data-name="レイヤー 2" xmlns="http://www.w3.org/2000/svg" viewBox="0 0 1022.66 93.96">
  <defs>
    <style>
      .cls-1 {
        fill: #d97700;
      }
    </style>
  </defs>
  <g id="_文字_アウトライン" data-name="文字_アウトライン">
    <g>
      <path class="cls-1" d="M40.77,20.61c-5.46-2.7-11.31-4.05-17.55-4.05-3.36,0-5.94.72-7.74,2.16s-2.7,3.36-2.7,5.76c0,4.26,3.09,7.26,9.27,9,8.4,2.34,14.32,5.19,17.77,8.55,3.45,3.36,5.18,7.71,5.18,13.05,0,6.18-2.04,10.91-6.12,14.17-4.08,3.27-9.99,4.91-17.73,4.91s-14.91-1.95-21.15-5.85l3.15-10.08c5.76,3.9,11.85,5.85,18.27,5.85,3.54,0,6.22-.77,8.05-2.29,1.83-1.53,2.75-3.7,2.75-6.53,0-2.58-.74-4.62-2.21-6.12-1.47-1.5-4.13-2.82-7.96-3.96-7.68-2.22-13.25-5.01-16.7-8.37C1.9,33.45.18,29.34.18,24.48c0-5.4,1.99-9.72,5.99-12.96,3.99-3.24,9.58-4.86,16.78-4.86s14.25,1.41,20.43,4.23l-2.61,9.72Z"/>
      <path class="cls-1" d="M58.77,16.56V5.76h12.33v10.8h-12.33ZM58.77,73.26V26.46h12.33v46.8h-12.33Z"/>
      <path class="cls-1" d="M99.72,7.56v28.53h.18l22.95-28.53h14.67l-26.1,31.5,27,34.2h-14.67l-23.85-31.23h-.18v31.23h-12.6V7.56h12.6Z"/>
      <path class="cls-1" d="M149.94,16.56V5.76h12.33v10.8h-12.33ZM149.94,73.26V26.46h12.33v46.8h-12.33Z"/>
      <path class="cls-1" d="M246.42,5.76v67.5h-10.89l-.27-6.57h-.18c-3.54,4.98-8.31,7.47-14.31,7.47-5.58,0-10.1-2.12-13.55-6.35-3.45-4.23-5.17-10.21-5.17-17.96s1.67-13.95,5-18.09c3.33-4.14,7.9-6.21,13.73-6.21s10.23,2.31,13.77,6.93h.18V5.76h11.7ZM213.29,49.86c0,4.86,1,8.6,3.02,11.21,2.01,2.61,4.6,3.92,7.78,3.92s5.75-1.27,7.7-3.83c1.95-2.55,2.92-6.16,2.92-10.84v-.9c0-4.56-.98-8.15-2.92-10.76-1.95-2.61-4.52-3.91-7.7-3.91-3.42,0-6.07,1.26-7.96,3.78-1.89,2.52-2.83,6.3-2.83,11.34Z"/>
      <path class="cls-1" d="M267.83,54.09c.3,3.54,1.67,6.34,4.1,8.42,2.43,2.07,5.5,3.1,9.22,3.1,4.44,0,8.85-1.11,13.23-3.33l2.7,8.28c-5.4,2.4-11.1,3.6-17.1,3.6-7.08,0-12.83-2.19-17.24-6.57-4.41-4.38-6.62-10.29-6.62-17.73s2.04-13.5,6.12-17.82c4.08-4.32,9.6-6.48,16.56-6.48s12.38,2.07,16.25,6.21c3.87,4.14,5.8,10.08,5.8,17.82,0,1.5-.09,3-.27,4.5h-32.76ZM267.83,46.08h21.96c-.06-3.9-1.04-6.89-2.92-8.96-1.89-2.07-4.54-3.11-7.96-3.11s-5.93,1.05-7.88,3.15c-1.95,2.1-3.01,5.07-3.2,8.91Z"/>
      <path class="cls-1" d="M343.43,37.8c-4.98-2.28-9.87-3.42-14.67-3.42-5.52,0-8.28,1.62-8.28,4.86,0,1.56.6,2.76,1.8,3.6,1.2.84,3.3,1.47,6.3,1.89,6.66.96,11.43,2.69,14.31,5.17,2.88,2.49,4.32,5.93,4.32,10.31s-1.67,7.73-5,10.21c-3.33,2.49-8.03,3.74-14.08,3.74-7.26,0-13.71-1.5-19.35-4.5l2.25-8.82c5.1,2.94,10.59,4.41,16.47,4.41,5.22,0,7.83-1.74,7.83-5.22,0-1.62-.54-2.83-1.62-3.64s-3.18-1.49-6.3-2.03c-6.6-1.08-11.33-2.85-14.17-5.31-2.85-2.46-4.28-5.79-4.28-9.99s1.63-7.42,4.91-9.85c3.27-2.43,8.02-3.65,14.26-3.65s12.09,1.14,17.55,3.42l-2.25,8.82Z"/>
      <path class="cls-1" d="M360.53,16.56V5.76h12.33v10.8h-12.33ZM360.53,73.26V26.46h12.33v46.8h-12.33Z"/>
      <path class="cls-1" d="M403.73,25.56c6,0,10.86,2.49,14.58,7.47h.18l.27-6.57h10.89v42.03c0,16.98-8.19,25.47-24.57,25.47-5.4,0-10.5-.9-15.3-2.7l2.07-8.82c4.32,1.8,8.64,2.7,12.96,2.7,4.68,0,8.07-1.23,10.17-3.69,2.1-2.46,3.15-6.69,3.15-12.69v-3.33h-.18c-3.42,4.62-8.16,6.93-14.22,6.93-5.28,0-9.67-2.11-13.18-6.34-3.51-4.23-5.27-9.91-5.27-17.05,0-7.56,1.63-13.35,4.91-17.37,3.27-4.02,7.79-6.03,13.54-6.03ZM396.53,48.96c0,4.5.97,8.03,2.92,10.58,1.95,2.55,4.49,3.82,7.61,3.82,3.3,0,5.94-1.23,7.92-3.69,1.98-2.46,2.97-5.88,2.97-10.26v-.9c0-4.38-.99-7.8-2.97-10.26-1.98-2.46-4.62-3.69-7.92-3.69s-5.88,1.23-7.74,3.69c-1.86,2.46-2.79,6.03-2.79,10.71Z"/>
      <path class="cls-1" d="M442.07,26.46h10.98l.18,6.57h.18c1.8-2.34,4.04-4.17,6.71-5.49,2.67-1.32,5.41-1.98,8.24-1.98,5.4,0,9.37,1.67,11.92,5,2.55,3.33,3.83,8.78,3.83,16.33v26.37h-11.52v-25.2c0-5.16-.6-8.65-1.8-10.48-1.2-1.83-3.36-2.75-6.48-2.75-2.64,0-5.06,1.35-7.25,4.05-2.19,2.7-3.29,5.85-3.29,9.45v24.93h-11.7V26.46Z"/>
      <path class="cls-1" d="M516.05,4.95c-2.88,10.98-4.32,22.95-4.32,35.91s1.44,24.93,4.32,35.91l-11.79,1.35c-3-11.46-4.5-23.88-4.5-37.26s1.5-25.8,4.5-37.26l11.79,1.35ZM569.6,61.29l1.62,10.44c-6.84,1.8-13.95,2.7-21.33,2.7-8.46,0-15.14-1.63-20.03-4.91-4.89-3.27-7.33-7.63-7.33-13.09,0-2.64,1-5.74,3.01-9.31,2.01-3.57,4.75-6.92,8.24-10.04l8.46,6.75c-2.46,2.4-4.38,4.7-5.76,6.88-1.38,2.19-2.07,3.95-2.07,5.26,0,5.1,5.16,7.65,15.48,7.65,6.48,0,13.05-.78,19.71-2.34ZM530.09,21.06v-10.53h38.7v10.53h-38.7Z"/>
      <path class="cls-1" d="M584.63,15.66h12.06V.09h11.34v15.57h8.91v10.17h-7.29c5.04,8.64,8.37,14.4,9.99,17.28V2.43h44.37v78.3h-11.7v-4.14h-21.33v4.14h-11.34v-31.23l-5.13,4.41c-1.68-3.48-3.84-7.77-6.48-12.87v40.59h-11.34v-34.92c-2.64,7.92-5.91,14.52-9.81,19.8l-5.76-11.16c6.66-9.48,11.22-19.32,13.68-29.52h-10.17v-10.17ZM630.98,24.21h21.33v-11.97h-21.33v11.97ZM630.98,33.66v11.97h21.33v-11.97h-21.33ZM630.98,55.08v12.06h21.33v-12.06h-21.33Z"/>
      <path class="cls-1" d="M672.83,25.2v-9.72h33.93v9.72h-33.93ZM675.26,11.7V2.61h29.43v9.09h-29.43ZM685.88,78.84v3.24h-10.62v-27.45h29.7v24.21h-19.08ZM675.98,37.98v-8.82h28.53v8.82h-28.53ZM675.98,50.67v-8.73h28.53v8.73h-28.53ZM685.88,70.2h9.36v-6.93h-9.36v6.93ZM749.6,60.57l-9.63-3.78c2.94-4.68,5.31-10.05,7.11-16.11-6.6-3.3-11.76-7.98-15.48-14.04-4.26,6.78-10.11,11.79-17.55,15.03l8.19,1.98c-1.32,6.12-3.54,12.15-6.66,18.09l-9.36-3.51c2.52-4.86,4.5-10.14,5.94-15.84-1.5.54-2.46.87-2.88.99l-3.51-10.35c7.26-2.46,12.36-5.53,15.3-9.22,2.94-3.69,4.41-8.87,4.41-15.53V.36h11.43v7.92c0,6.54,1.51,11.67,4.54,15.39,3.03,3.72,8.29,6.84,15.79,9.36l-2.97,8.91,2.79.81c-1.62,6.24-4.11,12.18-7.47,17.82ZM725.48,36.63h11.43v9.63c0,6.48,1.56,11.6,4.68,15.34,3.12,3.75,8.49,6.89,16.11,9.41l-3.51,10.35c-9.96-3.06-17.46-8.7-22.5-16.92-5.16,8.28-12.63,13.92-22.41,16.92l-3.51-10.35c7.26-2.46,12.36-5.54,15.3-9.22,2.94-3.69,4.41-8.87,4.41-15.53v-9.63ZM707.57,20.7c2.7-5.28,4.77-10.92,6.21-16.92l9.81,2.34c-1.38,6.24-3.6,12.3-6.66,18.18l-9.36-3.6ZM749.15,23.04l-9.63-3.78c3.06-4.86,5.49-10.44,7.29-16.74l9.81,2.7c-1.62,6.24-4.11,12.18-7.47,17.82Z"/>
      <path class="cls-1" d="M777.59,3.33l12.24.36c-.78,14.04-1.17,27.33-1.17,39.87,0,6.48.52,11.42,1.58,14.81,1.05,3.39,2.57,5.67,4.54,6.84,1.98,1.17,4.83,1.75,8.55,1.75,11.4,0,20.52-8.64,27.36-25.92l10.71,4.14c-8.22,22.14-20.91,33.21-38.07,33.21-10.2,0-17.25-2.47-21.15-7.42-3.9-4.95-5.85-14.08-5.85-27.41s.42-26.25,1.26-40.23Z"/>
      <path class="cls-1" d="M858.86,21.06v-10.17h14.31c.84-4.8,1.47-8.43,1.89-10.89l11.43.99c-.72,4.44-1.29,7.74-1.71,9.9h31.41v10.17h-33.39c-4.02,20.04-9.12,39.18-15.3,57.42l-11.34-2.61c6.12-17.94,11.1-36.21,14.94-54.81h-12.24ZM930.5,64.89l1.35,10.17c-6.42,1.2-12.75,1.8-18.99,1.8-8.28,0-14.89-1.52-19.84-4.54-4.95-3.03-7.42-6.91-7.42-11.65s3-9.27,9-13.95l8.19,5.22c-2.34,1.98-3.9,3.5-4.68,4.54-.78,1.05-1.17,2.06-1.17,3.02,0,2.1,1.42,3.82,4.27,5.17,2.85,1.35,6.73,2.02,11.66,2.02,5.34,0,11.22-.6,17.64-1.8ZM929.78,38.34c-12.78,0-24.9.69-36.36,2.07l-.72-10.08c11.76-1.38,24.12-2.07,37.08-2.07v10.08Z"/>
      <path class="cls-1" d="M965.33,11.52c-2.76,9.48-4.14,19.56-4.14,30.24,0,6.66,1.06,12.27,3.2,16.83,2.13,4.56,4.24,6.84,6.34,6.84,1.5,0,3.51-1.71,6.03-5.13,2.52-3.42,5.01-8.31,7.47-14.67l10.53,4.05c-3,8.7-6.84,15.51-11.52,20.43-4.68,4.92-9.15,7.38-13.41,7.38-5.1,0-9.83-3.48-14.17-10.44-4.35-6.96-6.53-15.39-6.53-25.29,0-11.28,1.5-21.81,4.5-31.59l11.7,1.35ZM999.26,12.78l11.07-3.24c8.22,16.56,12.33,36,12.33,58.32h-11.97c0-9.66-1.01-19.29-3.01-28.89-2.01-9.6-4.82-18.33-8.42-26.19Z"/>
    </g>
  </g>
</svg>