<?xml version="1.0" encoding="UTF-8"?>
<svg id="_レイヤー_2" data-name="レイヤー 2" xmlns="http://www.w3.org/2000/svg" viewBox="0 0 378.1 87.8">
  <defs>
    <style>
      .cls-1 {
        fill: #d97700;
      }
    </style>
  </defs>
  <g id="_文字_アウトライン" data-name="文字_アウトライン">
    <g>
      <path class="cls-1" d="M2.9,32.1L0,19.4c20.4-4.87,35.67-7.3,45.8-7.3,25.53,0,38.3,10.67,38.3,32,0,26.67-21.77,40-65.3,40l-1-12.7c18.33,0,31.58-2.15,39.75-6.45,8.17-4.3,12.25-10.82,12.25-19.55,0-7-2.03-12.13-6.1-15.4-4.07-3.27-10.5-4.9-19.3-4.9s-22.23,2.33-41.5,7Z"/>
      <path class="cls-1" d="M98.8,25.8v-11.4h17.1c1.47-5.67,2.63-10.37,3.5-14.1l12,1.6c-.8,3.87-1.8,8.03-3,12.5h16.7v11.4h-19.7c-5,17.6-10.77,34.3-17.3,50.1l-11.6-3.9c6.13-15.13,11.53-30.53,16.2-46.2h-13.9ZM185.1,27.8c-5.53-.93-11.27-1.5-17.2-1.7v32.1c5.8,3.6,12.2,8.6,19.2,15l-7.9,8.8c-4-3.47-7.97-6.77-11.9-9.9-1,5.4-3.37,9.37-7.1,11.9-3.73,2.53-8.97,3.8-15.7,3.8-7.4,0-13.18-1.7-17.35-5.1-4.17-3.4-6.25-8.03-6.25-13.9s2.05-10.28,6.15-13.65c4.1-3.37,9.92-5.05,17.45-5.05,3.4,0,6.97.63,10.7,1.9V14.4c11.8,0,22.27.67,31.4,2l-1.5,11.4ZM155.2,63.9c-3.93-2-7.5-3-10.7-3-3.67,0-6.42.7-8.25,2.1-1.83,1.4-2.75,3.33-2.75,5.8,0,2.6.97,4.63,2.9,6.1,1.93,1.47,4.63,2.2,8.1,2.2,4.07,0,6.87-.83,8.4-2.5,1.53-1.67,2.3-4.83,2.3-9.5v-1.2Z"/>
      <path class="cls-1" d="M260.1,49.4c0,12.8-1.55,22.23-4.65,28.3-3.1,6.07-7.32,9.1-12.65,9.1-2.6,0-5.95-.45-10.05-1.35-4.1-.9-7.82-2.02-11.15-3.35l3.5-11.5c7.07,2.53,12.07,3.8,15,3.8.67,0,1.3-.3,1.9-.9.6-.6,1.2-1.58,1.8-2.95.6-1.37,1.12-3.07,1.55-5.1.43-2.03.78-4.6,1.05-7.7.27-3.1.4-6.55.4-10.35v-6.85c0-1.37-.13-2.82-.4-4.35-.27-1.53-.5-2.5-.7-2.9s-.73-.82-1.6-1.25c-.87-.43-1.65-.65-2.35-.65h-14.35c-4.4,18.8-10.4,37.53-18,56.2l-11.3-4c6.53-16.2,12.07-33.6,16.6-52.2h-14.9v-11.3h17.5c1.53-7.27,2.8-13.97,3.8-20.1l12,1.1c-.87,6.27-1.97,12.6-3.3,19h14.6c1.67,0,3.53.2,5.6.6,2.07.4,3.5.73,4.3,1,.8.27,1.7,1.04,2.7,2.3,1,1.27,1.6,2.4,1.8,3.4.2,1,.47,2.78.8,5.35.33,2.57.5,4.92.5,7.05v9.6ZM273.9,21.8l-10.3,4.9c-2.6-5.27-5.43-10.57-8.5-15.9l10.3-5.2c3.07,5.67,5.9,11.07,8.5,16.2ZM277.4,68.4c-3.6-11.8-7.87-23.83-12.8-36.1l11.8-4.2c5.67,14.13,10.07,26.47,13.2,37l-12.2,3.3ZM290.1,18.6l-10.5,5c-3-5.8-5.9-11.2-8.7-16.2l10.5-5.3c2.4,4.33,5.3,9.83,8.7,16.5Z"/>
      <path class="cls-1" d="M309.8,5.8h13v19.6h.1c7.27-11.73,16.77-17.6,28.5-17.6,8.27,0,14.78,2.88,19.55,8.65,4.77,5.77,7.15,13.88,7.15,24.35,0,16.27-4.63,28.17-13.9,35.7-9.27,7.53-23.97,11.3-44.1,11.3l-.7-12c16.4,0,27.95-2.67,34.65-8,6.7-5.33,10.05-14.33,10.05-27,0-6.73-1.2-11.82-3.6-15.25-2.4-3.43-5.87-5.15-10.4-5.15-6.87,0-13.12,3.5-18.75,10.5-5.63,7-8.62,15.53-8.95,25.6l-12.6-.1V5.8Z"/>
    </g>
  </g>
</svg>