<?xml version="1.0" encoding="UTF-8"?>
<svg id="_レイヤー_2" data-name="レイヤー 2" xmlns="http://www.w3.org/2000/svg" viewBox="0 0 448.58 181.79">
  <defs>
    <style>
      .cls-1 {
        fill: #d97700;
      }
    </style>
  </defs>
  <g id="_文字" data-name="文字">
    <g>
      <path class="cls-1" d="M0,84.91l7.49-1.71-2.75-12.09,10.84-2.47,2.75,12.09,5.23-1.19-1.72-7.57,23.87-5.44c-.06-.48-.14-1.38-.24-2.69-.11-1.31-.19-2.35-.25-3.1l11.63-2.24c.08.58.18,1.46.31,2.64.13,1.17.21,2.08.25,2.73l14.51-3.3,2.17,9.52-15.99,3.64c.03.38.08,1,.14,1.86.06.86.08,1.51.08,1.95l14.27-3.25,8.81,38.69-22.39,5.1-11.16,2.54-8.81-38.69,7.49-1.71c-.02-.82-.07-2.09-.13-3.83l-20.9,4.76,1.33,5.85,10.37-2.36,8.92,39.16,38.22-8.7,2.17,9.52-38.22,8.7.62,2.73-11.23,2.56-5.74-25.19-2.46,2.53c-.24-.33-.92-1.29-2.05-2.9-1.13-1.6-1.99-2.83-2.56-3.68l6.96,30.58-10.84,2.47-5.45-23.95c-.52,4.22-1.36,7.83-2.54,10.83l-7.39-11.2c2.9-8.15,4.25-16.39,4.05-24.72l-7.33,1.67-2.31-10.14ZM21.26,90.73c.84,1.07,2.12,2.65,3.83,4.75,1.71,2.1,2.98,3.68,3.83,4.75l-2.43-10.69-5.23,1.19ZM52.8,90.85l10.84-2.47-.67-2.96-10.84,2.47.67,2.96ZM54.31,97.49l.71,3.12,10.84-2.47-.71-3.12-10.84,2.47ZM68.08,107.89l-.71-3.12-10.84,2.47.71,3.12,10.84-2.47Z"/>
      <path class="cls-1" d="M78.6,65.78l10.06-2.29-2.49-10.92,11.78-2.68,2.49,10.92,7.33-1.67,2.4,10.53-5.54,1.26c4.9,4.95,9.54,9.83,13.92,14.64l-5.7,8.11c-2.46-3.1-4.74-5.92-6.85-8.45l8.19,35.96-11.78,2.68-6.52-28.63c-.52,6.14-1.72,11.44-3.6,15.92l-8.33-9.18c3.45-9.1,5.17-18.27,5.14-27.51l-8.11,1.85-2.4-10.53ZM110.89,58.43l21.76-4.96-2.49-10.92,12.4-2.82,2.49,10.92,5.69-1.3,2.4,10.53-5.69,1.3,8.06,35.41c.54,2.39.93,4.27,1.16,5.64.23,1.37.29,2.71.18,4.02-.11,1.31-.38,2.27-.82,2.89-.43.62-1.22,1.26-2.35,1.93-1.13.67-2.38,1.2-3.74,1.59-1.36.39-3.26.87-5.71,1.42-2.34.53-6.97,1.45-13.9,2.75l-3-10.31c6.04-1.1,10.12-1.9,12.26-2.38,2.13-.49,3.36-.91,3.69-1.29.33-.37.31-1.34-.04-2.9l-8.19-35.96-21.76,4.96-2.4-10.53ZM114.53,77.29l9.52-6.84c5.15,6.54,10.05,13.52,14.7,20.94l-9.66,6.22c-4.5-7.29-9.36-14.06-14.55-20.32Z"/>
      <path class="cls-1" d="M254.06,73.58c3.79,1.49,7.28,2.55,10.49,3.19l-3.38,10.37c-7.83-1.94-14.97-5.34-21.44-10.21l.14.62c.54,2.39.94,4.27,1.2,5.63.25,1.36.34,2.68.25,3.96-.09,1.28-.29,2.23-.58,2.84-.3.61-.94,1.23-1.92,1.83-.98.61-2.05,1.08-3.2,1.43-1.15.34-2.79.76-4.93,1.25-1.56.36-4.37.86-8.44,1.51l-2.43-8.14c-2.96,3.57-6.22,7.02-9.79,10.35l-6.84-5.91c-.31,3.19-1.04,6.5-2.17,9.93l-10.97-8.91c.87-4.35,1.1-8.82.68-13.41-.42-4.58-1.84-12.23-4.28-22.94l-4.88-21.45,28.63-6.52-1.39-6.08,12.79-2.91,1.39,6.08,27.38-6.23,2.22,9.75-22.46,5.12.5,2.18,19.27-4.39,2.26,9.91,3.98-.91,1.95,8.58-3.98.91,2.22,9.75,3.82,2c-1.9,3.93-3.92,7.54-6.07,10.82ZM219.94,47.3l-19.81,4.51-1.72-7.57,19.81-4.51-.5-2.18-22.15,5.04,2.75,12.09,22.15-5.04-.53-2.34ZM211.16,82.61c-2.47-1.73-4.82-3.25-7.03-4.55l4.32-6.24-3.59.82-1.72-7.57,19.81-4.51-.53-2.34-22.15,5.04.11.47c2.49,10.92,3.51,19.74,3.07,26.46,2.19-1.92,4.76-4.45,7.71-7.58ZM217.39,75.37c1.44-1.86,2.51-3.28,3.21-4.26l5.8,4.59-1.72-7.57-13.57,3.09c2.24,1.41,4.33,2.79,6.28,4.15ZM226.97,78.19c-1.94,3.01-3.83,5.63-5.68,7.86,2.22-.34,3.8-.62,4.73-.83,1.14-.26,1.8-.56,1.97-.9.17-.34.08-1.29-.28-2.85l-.75-3.28ZM232.34,44.47l.53,2.34,8.27-1.88-.53-2.34-8.27,1.88ZM235.36,57.73l8.27-1.88-.53-2.34-8.27,1.88.53,2.34ZM245.3,69.34c1.4-2.01,2.79-4.3,4.18-6.86l-10.53,2.4c2.14,1.7,4.25,3.19,6.35,4.46Z"/>
      <path class="cls-1" d="M327.99,10.14l-26.83,6.11,5.88,25.82,29.95-6.82,2.38,10.45-29.95,6.82,5.24,23.01-12.79,2.91-5.24-23.01-29.95,6.82-2.38-10.45,29.95-6.82-5.88-25.82-26.83,6.11-2.31-10.14L325.68,0l2.31,10.14ZM278.83,46.85c-4.84-6.61-9.24-12.12-13.2-16.52l9.51-7.25c4.38,4.8,8.8,10.3,13.28,16.5l-9.58,7.27ZM326.48,16.14c-.92,6.77-2.5,13.75-4.75,20.94l-11.79-2.4c2.03-6.92,3.51-13.76,4.43-20.54l12.11,2Z"/>
      <path class="cls-1" d="M144.71,154.43l-11.25,26.25-4.86,1.11,11.25-26.25,4.86-1.11Z"/>
      <path class="cls-1" d="M163.32,150.65l2.08,9.16h.06s4.38-10.64,4.38-10.64l5.76-1.31-5.27,11.97,10.43,9.32-5.76,1.31-9.04-8.49h-.06s2.28,10.05,2.28,10.05l-4.97,1.13-4.86-21.35,4.97-1.13Z"/>
      <path class="cls-1" d="M181.46,154.9c1.06-1.73,2.81-2.87,5.25-3.43,2.44-.55,4.5-.28,6.2.82,1.7,1.1,2.82,2.87,3.38,5.31.56,2.44.31,4.52-.75,6.25-1.05,1.73-2.8,2.87-5.24,3.42s-4.51.28-6.21-.81c-1.71-1.1-2.84-2.87-3.39-5.3-.56-2.44-.3-4.52.76-6.25ZM189.53,163.85c2.11-.48,2.82-2.21,2.14-5.19-.68-2.98-2.07-4.24-4.18-3.76-2.13.48-2.85,2.22-2.17,5.2.68,2.98,2.08,4.23,4.21,3.75Z"/>
      <path class="cls-1" d="M196.01,142.59l4.68-1.07,1.95,8.57h.06c.85-1.7,2.16-2.75,3.93-3.15,1.83-.42,3.29-.18,4.37.7,1.08.88,1.92,2.62,2.51,5.21l1.91,8.4-4.62,1.05-1.8-7.9c-.36-1.58-.77-2.6-1.22-3.06-.45-.46-1.1-.6-1.94-.4-.76.17-1.34.72-1.73,1.64-.4.92-.48,1.89-.25,2.9l1.82,7.99-4.68,1.07-5-21.94Z"/>
      <path class="cls-1" d="M221.39,153.52c.35.92.93,1.58,1.72,1.96.79.38,1.73.45,2.8.21,1.44-.33,2.78-1,4-2.02l1.75,2.96c-1.56,1.18-3.37,2-5.44,2.47-2.42.55-4.52.28-6.32-.81-1.8-1.09-2.97-2.84-3.52-5.26-.55-2.44-.31-4.52.73-6.24,1.04-1.72,2.72-2.85,5.02-3.37,2.36-.54,4.35-.28,5.96.78s2.71,2.84,3.28,5.36c.14.6.22,1.15.25,1.63l-10.24,2.33ZM220.7,150.63l6.03-1.37c-.53-2.24-1.78-3.13-3.75-2.68-.9.2-1.54.65-1.94,1.35-.4.7-.51,1.6-.34,2.71Z"/>
      <path class="cls-1" d="M232.71,138.23l-.87-3.8,4.94-1.13.87,3.8-4.94,1.13ZM236.83,156.37l-3.46-15.21,4.94-1.13,3.46,15.21-4.94,1.13Z"/>
      <path class="cls-1" d="M255.87,129.57l2.08,9.16h.06s4.38-10.64,4.38-10.64l5.76-1.31-5.27,11.97,10.43,9.32-5.76,1.31-9.04-8.49h-.06s2.29,10.05,2.29,10.05l-4.97,1.13-4.86-21.35,4.97-1.13Z"/>
      <path class="cls-1" d="M274.01,133.83c1.06-1.73,2.81-2.87,5.25-3.43,2.44-.56,4.5-.28,6.2.82,1.7,1.1,2.82,2.87,3.38,5.31.55,2.44.31,4.52-.75,6.25-1.05,1.73-2.8,2.87-5.24,3.42-2.44.56-4.51.28-6.22-.81-1.71-1.1-2.84-2.87-3.39-5.3-.55-2.44-.3-4.52.76-6.25ZM282.08,142.77c2.11-.48,2.82-2.21,2.14-5.19-.68-2.98-2.07-4.24-4.18-3.76-2.13.48-2.85,2.22-2.17,5.2.68,2.98,2.08,4.23,4.21,3.75Z"/>
      <path class="cls-1" d="M288.56,121.52l4.68-1.07,1.95,8.57h.06c.85-1.7,2.16-2.75,3.93-3.15,1.83-.42,3.29-.19,4.37.7,1.08.88,1.92,2.62,2.51,5.21l1.91,8.4-4.62,1.05-1.8-7.9c-.36-1.58-.77-2.6-1.22-3.06-.45-.46-1.1-.6-1.94-.4-.76.17-1.34.72-1.73,1.64-.4.92-.48,1.89-.25,2.9l1.82,7.99-4.68,1.07-5-21.94Z"/>
      <path class="cls-1" d="M313.94,132.44c.35.92.93,1.58,1.72,1.96s1.73.45,2.8.21c1.44-.33,2.78-1,4-2.02l1.75,2.96c-1.56,1.18-3.37,2-5.44,2.47-2.42.55-4.53.28-6.32-.81-1.8-1.09-2.97-2.84-3.52-5.26-.55-2.44-.31-4.52.73-6.24,1.04-1.72,2.71-2.85,5.02-3.37,2.36-.54,4.35-.28,5.96.78,1.62,1.06,2.71,2.84,3.28,5.36.14.6.22,1.15.25,1.63l-10.24,2.33ZM313.25,129.55l6.03-1.37c-.53-2.24-1.78-3.13-3.75-2.68-.9.2-1.54.65-1.94,1.35-.4.7-.51,1.6-.34,2.71Z"/>
      <path class="cls-1" d="M325.26,117.16l-.87-3.8,4.94-1.13.87,3.8-4.94,1.13ZM329.38,135.29l-3.46-15.21,4.94-1.13,3.46,15.21-4.94,1.13Z"/>
      <path class="cls-1" d="M339.09,110.62l2.95,12.96c.71,3.12,2.25,4.41,4.63,3.87,2.36-.54,3.18-2.37,2.47-5.49l-2.95-12.96,4.91-1.12,2.88,12.64c.67,2.96.45,5.37-.66,7.23-1.12,1.85-3.05,3.09-5.8,3.72-2.75.63-5.03.35-6.85-.84-1.82-1.19-3.06-3.26-3.74-6.22l-2.88-12.64,5.03-1.15Z"/>
      <path class="cls-1" d="M362.08,121.48c.35.92.93,1.58,1.72,1.96.79.38,1.73.45,2.8.21,1.44-.33,2.78-1,4-2.02l1.75,2.96c-1.56,1.18-3.37,2-5.44,2.47-2.42.55-4.52.28-6.32-.81-1.8-1.09-2.97-2.84-3.52-5.26-.56-2.44-.31-4.52.73-6.24,1.04-1.72,2.71-2.85,5.02-3.37,2.36-.54,4.35-.28,5.96.78,1.62,1.06,2.71,2.84,3.28,5.36.14.6.22,1.15.25,1.63l-10.24,2.33ZM361.4,118.59l6.03-1.37c-.53-2.24-1.78-3.13-3.75-2.68-.9.2-1.54.65-1.94,1.35-.4.7-.51,1.6-.34,2.71Z"/>
      <path class="cls-1" d="M373.34,109.29l4.24-.97.55,2.03h.06c.78-1.83,1.93-2.91,3.47-3.27.94-.21,1.74-.21,2.4,0,.67.22,1.33.7,1.99,1.45h.06c1.01-1.88,2.36-3.01,4.06-3.4,1.66-.38,2.97-.19,3.93.55.96.75,1.69,2.22,2.19,4.42l2.15,9.45-4.5,1.03-1.95-8.57c-.31-1.36-.65-2.24-1.01-2.63-.37-.39-.9-.5-1.6-.34-.6.14-1.05.57-1.33,1.3-.29.73-.31,1.59-.09,2.59l1.95,8.57-4.5,1.03-1.95-8.57c-.31-1.36-.64-2.24-1-2.63-.36-.39-.88-.51-1.59-.35-.6.14-1.05.57-1.33,1.3-.28.73-.31,1.59-.09,2.59l1.95,8.57-4.59,1.05-3.46-15.21Z"/>
      <path class="cls-1" d="M403.17,102.49l2,8.78c.28,1.21.61,1.99.99,2.34.39.35.94.45,1.66.28.74-.17,1.32-.7,1.73-1.61.41-.9.5-1.87.26-2.91l-1.82-7.99,4.68-1.07,3.46,15.21-4.33.99-.57-2.09h-.06c-.4.88-.97,1.63-1.71,2.25-.74.62-1.55,1.03-2.43,1.23-1.74.4-3.11.21-4.11-.56-1-.77-1.77-2.28-2.28-4.54l-2.11-9.27,4.62-1.05Z"/>
      <path class="cls-1" d="M416.54,99.45l4.45-1.01.7,2.92h.06c1.21-2.54,3.29-4.15,6.23-4.82l.85,3.74c-2.18.5-3.74,1.35-4.68,2.54-.94,1.2-1.22,2.61-.85,4.22l1.49,6.52-4.77,1.09-3.46-15.21Z"/>
      <path class="cls-1" d="M437.83,94.29c2.44-.56,4.28-.49,5.54.2,1.25.69,2.12,2.09,2.6,4.19l1.25,5.47c.32,1.4.78,2.74,1.37,4l-4.45,1.01c-.36-.84-.62-1.53-.78-2.07h-.06c-.36.88-.93,1.62-1.72,2.27s-1.67,1.07-2.64,1.29c-1.46.33-2.72.19-3.79-.43-1.06-.62-1.76-1.64-2.08-3.06-.38-1.68.03-3.19,1.23-4.53,1.2-1.34,3.15-2.32,5.84-2.93l1.08-.25v-.06c-.21-.86-.51-1.41-.93-1.67-.42-.25-1.06-.28-1.91-.09-1.99.45-3.79,1.32-5.4,2.61l-1.37-3.17c1.77-1.33,3.84-2.26,6.22-2.8ZM437.24,105.75c.12.53.37.9.76,1.12.39.22.86.27,1.4.14.97-.22,1.71-.71,2.21-1.46.5-.75.64-1.59.42-2.53l-.16-.7-1.08.25c-1.33.3-2.29.74-2.89,1.3-.6.57-.82,1.19-.67,1.87Z"/>
    </g>
  </g>
</svg>