<?xml version="1.0" encoding="UTF-8"?>
<svg id="_レイヤー_2" data-name="レイヤー 2" xmlns="http://www.w3.org/2000/svg" viewBox="0 0 512 150.94">
  <defs>
    <style>
      .cls-1 {
        fill: #d97700;
      }
    </style>
  </defs>
  <g id="_イラスト" data-name="イラスト">
    <g>
      <path class="cls-1" d="M440.32,4.7c-37.14,0-61.55,1.71-67.18,3.42-.52.16-.92.56-1.08,1.08-1.71,5.63-3.42,30.04-3.42,67.18,0,15.02.28,27.94.73,38.4.06,1.31,1.59,1.98,2.59,1.14L499.45,9.52c1.08-.9.54-2.65-.86-2.79-11.26-1.14-31.44-2.03-58.26-2.03Z"/>
      <path class="cls-1" d="M507.14,136.89c.94.94,2.54.37,2.69-.95,1.2-10.97,2.17-31.67,2.17-59.57,0-28.82-1.03-49.97-2.29-60.63-.15-1.24-1.62-1.82-2.58-1.02l-65.25,54.46c-.71.6-.76,1.67-.1,2.33l65.37,65.37Z"/>
      <path class="cls-1" d="M370.82,128.49c-.39.33-.6.84-.56,1.35.63,8.02,1.38,13.03,2.11,14.5,0,0,0,0,0,0,0,0,0,0,0,0,0,0,0,0,0,0,3.66,1.8,28.69,3.71,67.96,3.71,27.89,0,48.6-.96,59.57-2.17,1.32-.14,1.88-1.75.95-2.69l-66.14-66.14c-.58-.58-1.5-.62-2.13-.1l-61.75,51.53Z"/>
      <path class="cls-1" d="M206.96,129.1c14.08,14.08,32.81,21.84,52.72,21.84s38.64-7.76,52.72-21.84c29.07-29.07,29.07-76.37,0-105.44-.73-.73-1.47-1.43-2.21-2.11-.58-.53-1.47-.54-2.08-.04l-111.1,92.72c-.61.51-.76,1.39-.33,2.06,2.91,4.58,6.34,8.88,10.28,12.82Z"/>
      <path class="cls-1" d="M206.96,23.66c-14.08,14.08-21.84,32.81-21.84,52.72,0,10.03,1.98,19.74,5.73,28.72.41.97,1.65,1.26,2.46.58l107.04-89.33c.81-.68.75-1.96-.13-2.53-12.28-7.97-26.41-11.97-40.54-11.97-19.1,0-38.18,7.27-52.72,21.8Z"/>
      <path class="cls-1" d="M125.73,68.65C105.2,33.2,90.05,9.32,83.52.63c-.63-.84-1.88-.84-2.52,0-6.53,8.69-21.68,32.57-42.21,68.02C17.03,106.25,3.53,132.11.11,140.73c-.34.86.13,1.81,1.01,2.09,8.75,2.71,39.12,5.24,81.14,5.24s72.38-2.53,81.14-5.24c.88-.27,1.35-1.23,1.01-2.09-3.42-8.62-16.92-34.48-38.68-72.08Z"/>
    </g>
  </g>
</svg>