<?xml version="1.0" encoding="UTF-8"?>
<svg id="_レイヤー_2" data-name="レイヤー 2" xmlns="http://www.w3.org/2000/svg" viewBox="0 0 29.4 1553.58">
  <defs>
    <style>
      .cls-1 {
        fill: #d97700;
      }
    </style>
  </defs>
  <g id="_文字" data-name="文字">
    <g>
      <path class="cls-1" d="M4.95,1539.99c-.9,1.82-1.35,3.77-1.35,5.85,0,1.12.24,1.98.72,2.58.48.6,1.12.9,1.92.9,1.42,0,2.42-1.03,3-3.09.78-2.8,1.73-4.77,2.85-5.92,1.12-1.15,2.57-1.73,4.35-1.73,2.06,0,3.63.68,4.72,2.04,1.09,1.36,1.63,3.33,1.63,5.91s-.65,4.97-1.95,7.05l-3.36-1.05c1.3-1.92,1.95-3.95,1.95-6.09,0-1.18-.26-2.08-.77-2.69-.51-.61-1.23-.92-2.17-.92-.86,0-1.54.25-2.04.74s-.94,1.38-1.32,2.65c-.74,2.56-1.67,4.42-2.79,5.57-1.12,1.15-2.49,1.72-4.11,1.72-1.8,0-3.24-.67-4.32-2s-1.62-3.2-1.62-5.59.47-4.75,1.41-6.81l3.24.87Z"/>
      <path class="cls-1" d="M3.6,1533.99H0v-4.11h3.6v4.11ZM22.5,1533.99H6.9v-4.11h15.6v4.11Z"/>
      <path class="cls-1" d="M.6,1520.34h9.51v-.06l-9.51-7.65v-4.89l10.5,8.7,11.4-9v4.89l-10.41,7.95v.06h10.41v4.2H.6v-4.2Z"/>
      <path class="cls-1" d="M3.6,1503.6H0v-4.11h3.6v4.11ZM22.5,1503.6H6.9v-4.11h15.6v4.11Z"/>
      <path class="cls-1" d="M0,1471.44h22.5v3.63l-2.19.09v.06c1.66,1.18,2.49,2.77,2.49,4.77,0,1.86-.71,3.37-2.12,4.52-1.41,1.15-3.4,1.72-5.98,1.72s-4.65-.55-6.03-1.67-2.07-2.63-2.07-4.58.77-3.41,2.31-4.59v-.06H0v-3.9ZM14.7,1482.48c1.62,0,2.87-.33,3.73-1,.87-.67,1.31-1.53,1.31-2.59s-.42-1.92-1.28-2.57c-.85-.65-2.05-.98-3.62-.98h-.3c-1.52,0-2.71.33-3.58.98s-1.3,1.5-1.3,2.57c0,1.14.42,2.02,1.26,2.65.84.63,2.1.95,3.78.95Z"/>
      <path class="cls-1" d="M16.11,1464.3c1.18-.1,2.11-.55,2.8-1.37s1.04-1.83,1.04-3.07c0-1.48-.37-2.95-1.11-4.41l2.76-.9c.8,1.8,1.2,3.7,1.2,5.7,0,2.36-.73,4.28-2.19,5.75-1.46,1.47-3.43,2.21-5.91,2.21s-4.5-.68-5.94-2.04c-1.44-1.36-2.16-3.2-2.16-5.52s.69-4.12,2.07-5.42,3.36-1.93,5.94-1.93c.5,0,1,.03,1.5.09v10.92ZM13.44,1464.3v-7.32c-1.3.02-2.3.35-2.99.97-.69.63-1.04,1.52-1.04,2.66s.35,1.97,1.05,2.62c.7.65,1.69,1,2.97,1.06Z"/>
      <path class="cls-1" d="M10.68,1439.1c-.76,1.66-1.14,3.29-1.14,4.89,0,1.84.54,2.76,1.62,2.76.52,0,.92-.2,1.2-.6.28-.4.49-1.1.63-2.1.32-2.22.9-3.81,1.72-4.77.83-.96,1.98-1.44,3.44-1.44s2.58.55,3.4,1.66c.83,1.11,1.25,2.68,1.25,4.7,0,2.42-.5,4.57-1.5,6.45l-2.94-.75c.98-1.7,1.47-3.53,1.47-5.49,0-1.74-.58-2.61-1.74-2.61-.54,0-.95.18-1.21.54-.27.36-.5,1.06-.67,2.1-.36,2.2-.95,3.78-1.77,4.72-.82.95-1.93,1.43-3.33,1.43s-2.47-.54-3.28-1.64c-.81-1.09-1.22-2.67-1.22-4.75s.38-4.03,1.14-5.85l2.94.75Z"/>
      <path class="cls-1" d="M3.6,1433.4H0v-4.11h3.6v4.11ZM22.5,1433.4H6.9v-4.11h15.6v4.11Z"/>
      <path class="cls-1" d="M6.6,1419c0-2,.83-3.62,2.49-4.86v-.06l-2.19-.09v-3.63h14.01c5.66,0,8.49,2.73,8.49,8.19,0,1.8-.3,3.5-.9,5.1l-2.94-.69c.6-1.44.9-2.88.9-4.32,0-1.56-.41-2.69-1.23-3.39-.82-.7-2.23-1.05-4.23-1.05h-1.11v.06c1.54,1.14,2.31,2.72,2.31,4.74,0,1.76-.71,3.22-2.12,4.39s-3.3,1.75-5.68,1.75c-2.52,0-4.45-.54-5.79-1.64-1.34-1.09-2.01-2.59-2.01-4.51ZM14.4,1421.4c1.5,0,2.67-.33,3.52-.98.85-.65,1.28-1.49,1.28-2.54,0-1.1-.41-1.98-1.23-2.64-.82-.66-1.96-.99-3.42-.99h-.3c-1.46,0-2.6.33-3.42.99-.82.66-1.23,1.54-1.23,2.64s.41,1.96,1.23,2.58c.82.62,2.01.93,3.57.93Z"/>
      <path class="cls-1" d="M6.9,1406.22v-3.66l2.19-.06v-.06c-.78-.6-1.39-1.34-1.83-2.23-.44-.89-.66-1.8-.66-2.75,0-1.8.56-3.12,1.67-3.97,1.11-.85,2.93-1.28,5.45-1.28h8.79v3.84h-8.4c-1.72,0-2.88.2-3.49.6-.61.4-.92,1.12-.92,2.16,0,.88.45,1.68,1.35,2.42s1.95,1.09,3.15,1.09h8.31v3.9H6.9Z"/>
      <path class="cls-1" d="M4.95,1365.96c-.9,1.82-1.35,3.77-1.35,5.85,0,1.12.24,1.98.72,2.58.48.6,1.12.9,1.92.9,1.42,0,2.42-1.03,3-3.09.78-2.8,1.73-4.77,2.85-5.92s2.57-1.72,4.35-1.72c2.06,0,3.63.68,4.72,2.04,1.09,1.36,1.63,3.33,1.63,5.91s-.65,4.97-1.95,7.05l-3.36-1.05c1.3-1.92,1.95-3.95,1.95-6.09,0-1.18-.26-2.07-.77-2.68s-1.23-.92-2.17-.92c-.86,0-1.54.25-2.04.73-.5.49-.94,1.38-1.32,2.66-.74,2.56-1.67,4.42-2.79,5.57-1.12,1.15-2.49,1.72-4.11,1.72-1.8,0-3.24-.66-4.32-1.99s-1.62-3.2-1.62-5.6.47-4.75,1.41-6.81l3.24.87Z"/>
      <path class="cls-1" d="M3.6,1359.96H0v-4.11h3.6v4.11ZM22.5,1359.96H6.9v-4.11h15.6v4.11Z"/>
      <path class="cls-1" d="M.6,1346.31h9.51v-.06l-9.51-7.65v-4.89l10.5,8.7,11.4-9v4.89l-10.41,7.95v.06h10.41v4.2H.6v-4.2Z"/>
      <path class="cls-1" d="M3.6,1329.57H0v-4.11h3.6v4.11ZM22.5,1329.57H6.9v-4.11h15.6v4.11Z"/>
      <path class="cls-1" d="M0,1297.42h22.5v3.63l-2.19.09v.06c1.66,1.18,2.49,2.77,2.49,4.77,0,1.86-.71,3.37-2.12,4.52-1.41,1.15-3.4,1.72-5.98,1.72s-4.65-.55-6.03-1.66c-1.38-1.11-2.07-2.63-2.07-4.58s.77-3.41,2.31-4.59v-.06H0v-3.9ZM14.7,1308.46c1.62,0,2.87-.33,3.73-1,.87-.67,1.31-1.54,1.31-2.6s-.42-1.92-1.28-2.56c-.85-.65-2.05-.98-3.62-.98h-.3c-1.52,0-2.71.33-3.58.98-.87.65-1.3,1.5-1.3,2.56,0,1.14.42,2.03,1.26,2.65.84.63,2.1.95,3.78.95Z"/>
      <path class="cls-1" d="M16.11,1290.28c1.18-.1,2.11-.55,2.8-1.37.69-.81,1.04-1.83,1.04-3.07,0-1.48-.37-2.95-1.11-4.41l2.76-.9c.8,1.8,1.2,3.7,1.2,5.7,0,2.36-.73,4.28-2.19,5.75-1.46,1.47-3.43,2.21-5.91,2.21s-4.5-.68-5.94-2.04c-1.44-1.36-2.16-3.2-2.16-5.52s.69-4.12,2.07-5.41c1.38-1.29,3.36-1.94,5.94-1.94.5,0,1,.03,1.5.09v10.92ZM13.44,1290.28v-7.32c-1.3.02-2.3.35-2.99.98-.69.63-1.04,1.51-1.04,2.66s.35,1.97,1.05,2.62c.7.65,1.69,1,2.97,1.06Z"/>
      <path class="cls-1" d="M10.68,1265.08c-.76,1.66-1.14,3.29-1.14,4.89,0,1.84.54,2.76,1.62,2.76.52,0,.92-.2,1.2-.6.28-.4.49-1.1.63-2.1.32-2.22.9-3.81,1.72-4.77.83-.96,1.98-1.44,3.44-1.44s2.58.55,3.4,1.66c.83,1.11,1.25,2.68,1.25,4.7,0,2.42-.5,4.57-1.5,6.45l-2.94-.75c.98-1.7,1.47-3.53,1.47-5.49,0-1.74-.58-2.61-1.74-2.61-.54,0-.95.18-1.21.54-.27.36-.5,1.06-.67,2.1-.36,2.2-.95,3.78-1.77,4.72-.82.95-1.93,1.43-3.33,1.43s-2.47-.54-3.28-1.63c-.81-1.09-1.22-2.68-1.22-4.76s.38-4.03,1.14-5.85l2.94.75Z"/>
      <path class="cls-1" d="M3.6,1259.38H0v-4.11h3.6v4.11ZM22.5,1259.38H6.9v-4.11h15.6v4.11Z"/>
      <path class="cls-1" d="M6.6,1244.98c0-2,.83-3.62,2.49-4.86v-.06l-2.19-.09v-3.63h14.01c5.66,0,8.49,2.73,8.49,8.19,0,1.8-.3,3.5-.9,5.1l-2.94-.69c.6-1.44.9-2.88.9-4.32,0-1.56-.41-2.69-1.23-3.39-.82-.7-2.23-1.05-4.23-1.05h-1.11v.06c1.54,1.14,2.31,2.72,2.31,4.74,0,1.76-.71,3.22-2.12,4.4-1.41,1.17-3.3,1.75-5.68,1.75-2.52,0-4.45-.54-5.79-1.63s-2.01-2.6-2.01-4.52ZM14.4,1247.38c1.5,0,2.67-.32,3.52-.97.85-.65,1.28-1.5,1.28-2.54,0-1.1-.41-1.98-1.23-2.64-.82-.66-1.96-.99-3.42-.99h-.3c-1.46,0-2.6.33-3.42.99s-1.23,1.54-1.23,2.64.41,1.96,1.23,2.58c.82.62,2.01.93,3.57.93Z"/>
      <path class="cls-1" d="M6.9,1232.2v-3.66l2.19-.06v-.06c-.78-.6-1.39-1.34-1.83-2.23-.44-.89-.66-1.8-.66-2.75,0-1.8.56-3.12,1.67-3.98,1.11-.85,2.93-1.27,5.45-1.27h8.79v3.84h-8.4c-1.72,0-2.88.2-3.49.6-.61.4-.92,1.12-.92,2.16,0,.88.45,1.68,1.35,2.41.9.73,1.95,1.1,3.15,1.1h8.31v3.9H6.9Z"/>
      <path class="cls-1" d="M4.95,1191.94c-.9,1.82-1.35,3.77-1.35,5.85,0,1.12.24,1.98.72,2.58.48.6,1.12.9,1.92.9,1.42,0,2.42-1.03,3-3.09.78-2.8,1.73-4.78,2.85-5.93,1.12-1.15,2.57-1.72,4.35-1.72,2.06,0,3.63.68,4.72,2.04s1.63,3.33,1.63,5.91-.65,4.97-1.95,7.05l-3.36-1.05c1.3-1.92,1.95-3.95,1.95-6.09,0-1.18-.26-2.08-.77-2.68-.51-.61-1.23-.92-2.17-.92-.86,0-1.54.25-2.04.74-.5.49-.94,1.38-1.32,2.66-.74,2.56-1.67,4.42-2.79,5.56-1.12,1.15-2.49,1.72-4.11,1.72-1.8,0-3.24-.66-4.32-1.99s-1.62-3.2-1.62-5.6.47-4.75,1.41-6.81l3.24.87Z"/>
      <path class="cls-1" d="M3.6,1185.94H0v-4.11h3.6v4.11ZM22.5,1185.94H6.9v-4.11h15.6v4.11Z"/>
      <path class="cls-1" d="M.6,1172.29h9.51v-.06l-9.51-7.65v-4.89l10.5,8.7,11.4-9v4.89l-10.41,7.95v.06h10.41v4.2H.6v-4.2Z"/>
      <path class="cls-1" d="M3.6,1155.55H0v-4.11h3.6v4.11ZM22.5,1155.55H6.9v-4.11h15.6v4.11Z"/>
      <path class="cls-1" d="M0,1123.39h22.5v3.63l-2.19.09v.06c1.66,1.18,2.49,2.77,2.49,4.77,0,1.86-.71,3.37-2.12,4.51-1.41,1.15-3.4,1.73-5.98,1.73s-4.65-.56-6.03-1.67c-1.38-1.11-2.07-2.63-2.07-4.57s.77-3.41,2.31-4.59v-.06H0v-3.9ZM14.7,1134.43c1.62,0,2.87-.34,3.73-1.01.87-.67,1.31-1.53,1.31-2.59s-.42-1.92-1.28-2.57c-.85-.65-2.05-.97-3.62-.97h-.3c-1.52,0-2.71.33-3.58.97-.87.65-1.3,1.51-1.3,2.57,0,1.14.42,2.02,1.26,2.66.84.63,2.1.95,3.78.95Z"/>
      <path class="cls-1" d="M16.11,1116.25c1.18-.1,2.11-.56,2.8-1.37.69-.81,1.04-1.83,1.04-3.08,0-1.48-.37-2.95-1.11-4.41l2.76-.9c.8,1.8,1.2,3.7,1.2,5.7,0,2.36-.73,4.28-2.19,5.75s-3.43,2.21-5.91,2.21-4.5-.68-5.94-2.04c-1.44-1.36-2.16-3.2-2.16-5.52s.69-4.12,2.07-5.42c1.38-1.29,3.36-1.93,5.94-1.93.5,0,1,.03,1.5.09v10.92ZM13.44,1116.25v-7.32c-1.3.02-2.3.34-2.99.97-.69.63-1.04,1.52-1.04,2.66s.35,1.98,1.05,2.62c.7.65,1.69,1,2.97,1.07Z"/>
      <path class="cls-1" d="M10.68,1091.05c-.76,1.66-1.14,3.29-1.14,4.89,0,1.84.54,2.76,1.62,2.76.52,0,.92-.2,1.2-.6.28-.4.49-1.1.63-2.1.32-2.22.9-3.81,1.72-4.77.83-.96,1.98-1.44,3.44-1.44s2.58.55,3.4,1.67c.83,1.11,1.25,2.67,1.25,4.7,0,2.42-.5,4.57-1.5,6.45l-2.94-.75c.98-1.7,1.47-3.53,1.47-5.49,0-1.74-.58-2.61-1.74-2.61-.54,0-.95.18-1.21.54s-.5,1.06-.67,2.1c-.36,2.2-.95,3.78-1.77,4.73-.82.95-1.93,1.42-3.33,1.42s-2.47-.54-3.28-1.64c-.81-1.09-1.22-2.67-1.22-4.75s.38-4.03,1.14-5.85l2.94.75Z"/>
      <path class="cls-1" d="M3.6,1085.35H0v-4.11h3.6v4.11ZM22.5,1085.35H6.9v-4.11h15.6v4.11Z"/>
      <path class="cls-1" d="M6.6,1070.95c0-2,.83-3.62,2.49-4.86v-.06l-2.19-.09v-3.63h14.01c5.66,0,8.49,2.73,8.49,8.19,0,1.8-.3,3.5-.9,5.1l-2.94-.69c.6-1.44.9-2.88.9-4.32,0-1.56-.41-2.69-1.23-3.39-.82-.7-2.23-1.05-4.23-1.05h-1.11v.06c1.54,1.14,2.31,2.72,2.31,4.74,0,1.76-.71,3.22-2.12,4.4-1.41,1.17-3.3,1.75-5.68,1.75-2.52,0-4.45-.54-5.79-1.63s-2.01-2.59-2.01-4.51ZM14.4,1073.35c1.5,0,2.67-.32,3.52-.97.85-.65,1.28-1.49,1.28-2.54,0-1.1-.41-1.98-1.23-2.64-.82-.66-1.96-.99-3.42-.99h-.3c-1.46,0-2.6.33-3.42.99-.82.66-1.23,1.54-1.23,2.64s.41,1.96,1.23,2.58c.82.62,2.01.93,3.57.93Z"/>
      <path class="cls-1" d="M6.9,1058.17v-3.66l2.19-.06v-.06c-.78-.6-1.39-1.35-1.83-2.24-.44-.89-.66-1.8-.66-2.75,0-1.8.56-3.12,1.67-3.97,1.11-.85,2.93-1.28,5.45-1.28h8.79v3.84h-8.4c-1.72,0-2.88.2-3.49.6-.61.4-.92,1.12-.92,2.16,0,.88.45,1.69,1.35,2.42s1.95,1.09,3.15,1.09h8.31v3.9H6.9Z"/>
      <path class="cls-1" d="M4.95,1017.91c-.9,1.82-1.35,3.77-1.35,5.85,0,1.12.24,1.98.72,2.58.48.6,1.12.9,1.92.9,1.42,0,2.42-1.03,3-3.09.78-2.8,1.73-4.77,2.85-5.92,1.12-1.15,2.57-1.73,4.35-1.73,2.06,0,3.63.68,4.72,2.04,1.09,1.36,1.63,3.33,1.63,5.91s-.65,4.97-1.95,7.05l-3.36-1.05c1.3-1.92,1.95-3.95,1.95-6.09,0-1.18-.26-2.08-.77-2.69-.51-.61-1.23-.92-2.17-.92-.86,0-1.54.25-2.04.74s-.94,1.38-1.32,2.65c-.74,2.56-1.67,4.42-2.79,5.57-1.12,1.15-2.49,1.72-4.11,1.72-1.8,0-3.24-.67-4.32-2s-1.62-3.2-1.62-5.59.47-4.75,1.41-6.81l3.24.87Z"/>
      <path class="cls-1" d="M3.6,1011.91H0v-4.11h3.6v4.11ZM22.5,1011.91H6.9v-4.11h15.6v4.11Z"/>
      <path class="cls-1" d="M.6,998.26h9.51v-.06l-9.51-7.65v-4.89l10.5,8.7,11.4-9v4.89l-10.41,7.95v.06h10.41v4.2H.6v-4.2Z"/>
      <path class="cls-1" d="M3.6,981.52H0v-4.11h3.6v4.11ZM22.5,981.52H6.9v-4.11h15.6v4.11Z"/>
      <path class="cls-1" d="M0,949.36h22.5v3.63l-2.19.09v.06c1.66,1.18,2.49,2.77,2.49,4.77,0,1.86-.71,3.37-2.12,4.52-1.41,1.15-3.4,1.72-5.98,1.72s-4.65-.55-6.03-1.67-2.07-2.63-2.07-4.58.77-3.41,2.31-4.59v-.06H0v-3.9ZM14.7,960.4c1.62,0,2.87-.33,3.73-1,.87-.67,1.31-1.53,1.31-2.59s-.42-1.92-1.28-2.57c-.85-.65-2.05-.98-3.62-.98h-.3c-1.52,0-2.71.33-3.58.98s-1.3,1.5-1.3,2.57c0,1.14.42,2.02,1.26,2.65.84.63,2.1.95,3.78.95Z"/>
      <path class="cls-1" d="M16.11,942.22c1.18-.1,2.11-.55,2.8-1.37s1.04-1.83,1.04-3.07c0-1.48-.37-2.95-1.11-4.41l2.76-.9c.8,1.8,1.2,3.7,1.2,5.7,0,2.36-.73,4.28-2.19,5.75-1.46,1.47-3.43,2.21-5.91,2.21s-4.5-.68-5.94-2.04c-1.44-1.36-2.16-3.2-2.16-5.52s.69-4.12,2.07-5.42,3.36-1.93,5.94-1.93c.5,0,1,.03,1.5.09v10.92ZM13.44,942.22v-7.32c-1.3.02-2.3.35-2.99.97-.69.63-1.04,1.52-1.04,2.66s.35,1.97,1.05,2.62c.7.65,1.69,1,2.97,1.06Z"/>
      <path class="cls-1" d="M10.68,917.02c-.76,1.66-1.14,3.29-1.14,4.89,0,1.84.54,2.76,1.62,2.76.52,0,.92-.2,1.2-.6.28-.4.49-1.1.63-2.1.32-2.22.9-3.81,1.72-4.77.83-.96,1.98-1.44,3.44-1.44s2.58.55,3.4,1.66c.83,1.11,1.25,2.68,1.25,4.7,0,2.42-.5,4.57-1.5,6.45l-2.94-.75c.98-1.7,1.47-3.53,1.47-5.49,0-1.74-.58-2.61-1.74-2.61-.54,0-.95.18-1.21.54-.27.36-.5,1.06-.67,2.1-.36,2.2-.95,3.78-1.77,4.72-.82.95-1.93,1.43-3.33,1.43s-2.47-.54-3.28-1.64c-.81-1.09-1.22-2.67-1.22-4.75s.38-4.03,1.14-5.85l2.94.75Z"/>
      <path class="cls-1" d="M3.6,911.32H0v-4.11h3.6v4.11ZM22.5,911.32H6.9v-4.11h15.6v4.11Z"/>
      <path class="cls-1" d="M6.6,896.92c0-2,.83-3.62,2.49-4.86v-.06l-2.19-.09v-3.63h14.01c5.66,0,8.49,2.73,8.49,8.19,0,1.8-.3,3.5-.9,5.1l-2.94-.69c.6-1.44.9-2.88.9-4.32,0-1.56-.41-2.69-1.23-3.39-.82-.7-2.23-1.05-4.23-1.05h-1.11v.06c1.54,1.14,2.31,2.72,2.31,4.74,0,1.76-.71,3.22-2.12,4.39s-3.3,1.75-5.68,1.75c-2.52,0-4.45-.54-5.79-1.64-1.34-1.09-2.01-2.59-2.01-4.51ZM14.4,899.32c1.5,0,2.67-.33,3.52-.98.85-.65,1.28-1.49,1.28-2.54,0-1.1-.41-1.98-1.23-2.64-.82-.66-1.96-.99-3.42-.99h-.3c-1.46,0-2.6.33-3.42.99-.82.66-1.23,1.54-1.23,2.64s.41,1.96,1.23,2.58c.82.62,2.01.93,3.57.93Z"/>
      <path class="cls-1" d="M6.9,884.14v-3.66l2.19-.06v-.06c-.78-.6-1.39-1.34-1.83-2.23-.44-.89-.66-1.8-.66-2.75,0-1.8.56-3.12,1.67-3.97,1.11-.85,2.93-1.28,5.45-1.28h8.79v3.84h-8.4c-1.72,0-2.88.2-3.49.6-.61.4-.92,1.12-.92,2.16,0,.88.45,1.68,1.35,2.42s1.95,1.09,3.15,1.09h8.31v3.9H6.9Z"/>
      <path class="cls-1" d="M4.95,843.88c-.9,1.82-1.35,3.77-1.35,5.85,0,1.12.24,1.98.72,2.58.48.6,1.12.9,1.92.9,1.42,0,2.42-1.03,3-3.09.78-2.8,1.73-4.77,2.85-5.92s2.57-1.72,4.35-1.72c2.06,0,3.63.68,4.72,2.04,1.09,1.36,1.63,3.33,1.63,5.91s-.65,4.97-1.95,7.05l-3.36-1.05c1.3-1.92,1.95-3.95,1.95-6.09,0-1.18-.26-2.07-.77-2.68s-1.23-.92-2.17-.92c-.86,0-1.54.25-2.04.73-.5.49-.94,1.38-1.32,2.66-.74,2.56-1.67,4.42-2.79,5.57-1.12,1.15-2.49,1.72-4.11,1.72-1.8,0-3.24-.66-4.32-1.99s-1.62-3.2-1.62-5.6.47-4.75,1.41-6.81l3.24.87Z"/>
      <path class="cls-1" d="M3.6,837.88H0v-4.11h3.6v4.11ZM22.5,837.88H6.9v-4.11h15.6v4.11Z"/>
      <path class="cls-1" d="M.6,824.23h9.51v-.06l-9.51-7.65v-4.89l10.5,8.7,11.4-9v4.89l-10.41,7.95v.06h10.41v4.2H.6v-4.2Z"/>
      <path class="cls-1" d="M3.6,807.49H0v-4.11h3.6v4.11ZM22.5,807.49H6.9v-4.11h15.6v4.11Z"/>
      <path class="cls-1" d="M0,775.34h22.5v3.63l-2.19.09v.06c1.66,1.18,2.49,2.77,2.49,4.77,0,1.86-.71,3.37-2.12,4.51-1.41,1.15-3.4,1.73-5.98,1.73s-4.65-.56-6.03-1.67-2.07-2.63-2.07-4.58.77-3.41,2.31-4.59v-.06H0v-3.9ZM14.7,786.38c1.62,0,2.87-.33,3.73-1,.87-.67,1.31-1.54,1.31-2.6s-.42-1.91-1.28-2.56c-.85-.65-2.05-.97-3.62-.97h-.3c-1.52,0-2.71.32-3.58.97s-1.3,1.5-1.3,2.56c0,1.14.42,2.03,1.26,2.66s2.1.95,3.78.95Z"/>
      <path class="cls-1" d="M16.11,768.2c1.18-.1,2.11-.56,2.8-1.37s1.04-1.83,1.04-3.08c0-1.48-.37-2.95-1.11-4.41l2.76-.9c.8,1.8,1.2,3.7,1.2,5.7,0,2.36-.73,4.28-2.19,5.74-1.46,1.47-3.43,2.21-5.91,2.21s-4.5-.68-5.94-2.04c-1.44-1.36-2.16-3.2-2.16-5.52s.69-4.12,2.07-5.42,3.36-1.94,5.94-1.94c.5,0,1,.03,1.5.09v10.92ZM13.44,768.2v-7.32c-1.3.02-2.3.34-2.99.98-.69.63-1.04,1.51-1.04,2.65s.35,1.98,1.05,2.62c.7.65,1.69,1.01,2.97,1.07Z"/>
      <path class="cls-1" d="M10.68,743c-.76,1.66-1.14,3.29-1.14,4.89,0,1.84.54,2.76,1.62,2.76.52,0,.92-.2,1.2-.6s.49-1.1.63-2.1c.32-2.22.9-3.81,1.72-4.77.83-.96,1.98-1.44,3.44-1.44s2.58.55,3.4,1.67c.83,1.11,1.25,2.67,1.25,4.7,0,2.42-.5,4.57-1.5,6.45l-2.94-.75c.98-1.7,1.47-3.53,1.47-5.49,0-1.74-.58-2.61-1.74-2.61-.54,0-.95.18-1.21.54-.27.36-.5,1.06-.67,2.1-.36,2.2-.95,3.78-1.77,4.73-.82.95-1.93,1.42-3.33,1.42s-2.47-.54-3.28-1.63c-.81-1.09-1.22-2.67-1.22-4.75s.38-4.03,1.14-5.85l2.94.75Z"/>
      <path class="cls-1" d="M3.6,737.3H0v-4.11h3.6v4.11ZM22.5,737.3H6.9v-4.11h15.6v4.11Z"/>
      <path class="cls-1" d="M6.6,722.9c0-2,.83-3.62,2.49-4.86v-.06l-2.19-.09v-3.63h14.01c5.66,0,8.49,2.73,8.49,8.19,0,1.8-.3,3.5-.9,5.1l-2.94-.69c.6-1.44.9-2.88.9-4.32,0-1.56-.41-2.69-1.23-3.39-.82-.7-2.23-1.05-4.23-1.05h-1.11v.06c1.54,1.14,2.31,2.72,2.31,4.74,0,1.76-.71,3.22-2.12,4.4-1.41,1.17-3.3,1.75-5.68,1.75-2.52,0-4.45-.54-5.79-1.63s-2.01-2.6-2.01-4.52ZM14.4,725.3c1.5,0,2.67-.32,3.52-.97.85-.65,1.28-1.5,1.28-2.54,0-1.1-.41-1.98-1.23-2.64-.82-.66-1.96-.99-3.42-.99h-.3c-1.46,0-2.6.33-3.42.99s-1.23,1.54-1.23,2.64.41,1.96,1.23,2.58c.82.62,2.01.93,3.57.93Z"/>
      <path class="cls-1" d="M6.9,710.12v-3.66l2.19-.06v-.06c-.78-.6-1.39-1.34-1.83-2.24-.44-.89-.66-1.8-.66-2.74,0-1.8.56-3.12,1.67-3.98,1.11-.85,2.93-1.27,5.45-1.27h8.79v3.84h-8.4c-1.72,0-2.88.2-3.49.6-.61.4-.92,1.12-.92,2.16,0,.88.45,1.69,1.35,2.42.9.73,1.95,1.09,3.15,1.09h8.31v3.9H6.9Z"/>
      <path class="cls-1" d="M4.95,669.86c-.9,1.82-1.35,3.77-1.35,5.85,0,1.12.24,1.98.72,2.58.48.6,1.12.9,1.92.9,1.42,0,2.42-1.03,3-3.09.78-2.8,1.73-4.78,2.85-5.93,1.12-1.15,2.57-1.72,4.35-1.72,2.06,0,3.63.68,4.72,2.04s1.63,3.33,1.63,5.91-.65,4.97-1.95,7.05l-3.36-1.05c1.3-1.92,1.95-3.95,1.95-6.09,0-1.18-.26-2.08-.77-2.68-.51-.61-1.23-.92-2.17-.92-.86,0-1.54.25-2.04.74-.5.49-.94,1.38-1.32,2.66-.74,2.56-1.67,4.42-2.79,5.56-1.12,1.15-2.49,1.72-4.11,1.72-1.8,0-3.24-.66-4.32-1.99s-1.62-3.2-1.62-5.6.47-4.75,1.41-6.81l3.24.87Z"/>
      <path class="cls-1" d="M3.6,663.86H0v-4.11h3.6v4.11ZM22.5,663.86H6.9v-4.11h15.6v4.11Z"/>
      <path class="cls-1" d="M.6,650.21h9.51v-.06l-9.51-7.65v-4.89l10.5,8.7,11.4-9v4.89l-10.41,7.95v.06h10.41v4.2H.6v-4.2Z"/>
      <path class="cls-1" d="M3.6,633.47H0v-4.11h3.6v4.11ZM22.5,633.47H6.9v-4.11h15.6v4.11Z"/>
      <path class="cls-1" d="M0,601.31h22.5v3.63l-2.19.09v.06c1.66,1.18,2.49,2.77,2.49,4.77,0,1.86-.71,3.37-2.12,4.51-1.41,1.15-3.4,1.73-5.98,1.73s-4.65-.56-6.03-1.67c-1.38-1.11-2.07-2.63-2.07-4.57s.77-3.41,2.31-4.59v-.06H0v-3.9ZM14.7,612.35c1.62,0,2.87-.34,3.73-1.01.87-.67,1.31-1.53,1.31-2.59s-.42-1.92-1.28-2.57c-.85-.65-2.05-.97-3.62-.97h-.3c-1.52,0-2.71.33-3.58.97-.87.65-1.3,1.51-1.3,2.57,0,1.14.42,2.02,1.26,2.66.84.63,2.1.95,3.78.95Z"/>
      <path class="cls-1" d="M16.11,594.17c1.18-.1,2.11-.56,2.8-1.37.69-.81,1.04-1.83,1.04-3.08,0-1.48-.37-2.95-1.11-4.41l2.76-.9c.8,1.8,1.2,3.7,1.2,5.7,0,2.36-.73,4.28-2.19,5.75s-3.43,2.21-5.91,2.21-4.5-.68-5.94-2.04c-1.44-1.36-2.16-3.2-2.16-5.52s.69-4.12,2.07-5.42c1.38-1.29,3.36-1.93,5.94-1.93.5,0,1,.03,1.5.09v10.92ZM13.44,594.17v-7.32c-1.3.02-2.3.34-2.99.97-.69.63-1.04,1.52-1.04,2.66s.35,1.98,1.05,2.62c.7.65,1.69,1,2.97,1.07Z"/>
      <path class="cls-1" d="M10.68,568.97c-.76,1.66-1.14,3.29-1.14,4.89,0,1.84.54,2.76,1.62,2.76.52,0,.92-.2,1.2-.6.28-.4.49-1.1.63-2.1.32-2.22.9-3.81,1.72-4.77.83-.96,1.98-1.44,3.44-1.44s2.58.55,3.4,1.67c.83,1.11,1.25,2.67,1.25,4.7,0,2.42-.5,4.57-1.5,6.45l-2.94-.75c.98-1.7,1.47-3.53,1.47-5.49,0-1.74-.58-2.61-1.74-2.61-.54,0-.95.18-1.21.54s-.5,1.06-.67,2.1c-.36,2.2-.95,3.78-1.77,4.73-.82.95-1.93,1.42-3.33,1.42s-2.47-.54-3.28-1.64c-.81-1.09-1.22-2.67-1.22-4.75s.38-4.03,1.14-5.85l2.94.75Z"/>
      <path class="cls-1" d="M3.6,563.27H0v-4.11h3.6v4.11ZM22.5,563.27H6.9v-4.11h15.6v4.11Z"/>
      <path class="cls-1" d="M6.6,548.87c0-2,.83-3.62,2.49-4.86v-.06l-2.19-.09v-3.63h14.01c5.66,0,8.49,2.73,8.49,8.19,0,1.8-.3,3.5-.9,5.1l-2.94-.69c.6-1.44.9-2.88.9-4.32,0-1.56-.41-2.69-1.23-3.39-.82-.7-2.23-1.05-4.23-1.05h-1.11v.06c1.54,1.14,2.31,2.72,2.31,4.74,0,1.76-.71,3.22-2.12,4.39s-3.3,1.75-5.68,1.75c-2.52,0-4.45-.54-5.79-1.64-1.34-1.09-2.01-2.59-2.01-4.51ZM14.4,551.27c1.5,0,2.67-.33,3.52-.98.85-.65,1.28-1.49,1.28-2.54,0-1.1-.41-1.98-1.23-2.64-.82-.66-1.96-.99-3.42-.99h-.3c-1.46,0-2.6.33-3.42.99-.82.66-1.23,1.54-1.23,2.64s.41,1.96,1.23,2.58c.82.62,2.01.93,3.57.93Z"/>
      <path class="cls-1" d="M6.9,536.09v-3.66l2.19-.06v-.06c-.78-.6-1.39-1.35-1.83-2.24-.44-.89-.66-1.8-.66-2.75,0-1.8.56-3.12,1.67-3.97,1.11-.85,2.93-1.28,5.45-1.28h8.79v3.84h-8.4c-1.72,0-2.88.2-3.49.6-.61.4-.92,1.12-.92,2.16,0,.88.45,1.69,1.35,2.42s1.95,1.09,3.15,1.09h8.31v3.9H6.9Z"/>
      <path class="cls-1" d="M4.95,495.83c-.9,1.82-1.35,3.77-1.35,5.85,0,1.12.24,1.98.72,2.58.48.6,1.12.9,1.92.9,1.42,0,2.42-1.03,3-3.09.78-2.8,1.73-4.77,2.85-5.92s2.57-1.73,4.35-1.73c2.06,0,3.63.68,4.72,2.04,1.09,1.36,1.63,3.33,1.63,5.91s-.65,4.97-1.95,7.05l-3.36-1.05c1.3-1.92,1.95-3.95,1.95-6.09,0-1.18-.26-2.07-.77-2.69-.51-.61-1.23-.91-2.17-.91-.86,0-1.54.24-2.04.73s-.94,1.38-1.32,2.65c-.74,2.56-1.67,4.42-2.79,5.57-1.12,1.15-2.49,1.72-4.11,1.72-1.8,0-3.24-.67-4.32-2s-1.62-3.2-1.62-5.59.47-4.75,1.41-6.81l3.24.87Z"/>
      <path class="cls-1" d="M3.6,489.83H0v-4.11h3.6v4.11ZM22.5,489.83H6.9v-4.11h15.6v4.11Z"/>
      <path class="cls-1" d="M.6,476.18h9.51v-.06l-9.51-7.65v-4.89l10.5,8.7,11.4-9v4.89l-10.41,7.95v.06h10.41v4.2H.6v-4.2Z"/>
      <path class="cls-1" d="M3.6,459.44H0v-4.11h3.6v4.11ZM22.5,459.44H6.9v-4.11h15.6v4.11Z"/>
      <path class="cls-1" d="M0,427.28h22.5v3.63l-2.19.09v.06c1.66,1.18,2.49,2.77,2.49,4.77,0,1.86-.71,3.37-2.12,4.52-1.41,1.15-3.4,1.72-5.98,1.72s-4.65-.55-6.03-1.67-2.07-2.63-2.07-4.58.77-3.41,2.31-4.59v-.06H0v-3.9ZM14.7,438.32c1.62,0,2.87-.33,3.73-1,.87-.67,1.31-1.53,1.31-2.59s-.42-1.92-1.28-2.57c-.85-.65-2.05-.98-3.62-.98h-.3c-1.52,0-2.71.33-3.58.98s-1.3,1.5-1.3,2.57c0,1.14.42,2.02,1.26,2.65.84.63,2.1.95,3.78.95Z"/>
      <path class="cls-1" d="M16.11,420.14c1.18-.1,2.11-.55,2.8-1.37s1.04-1.83,1.04-3.07c0-1.48-.37-2.95-1.11-4.41l2.76-.9c.8,1.8,1.2,3.7,1.2,5.7,0,2.36-.73,4.28-2.19,5.75-1.46,1.47-3.43,2.21-5.91,2.21s-4.5-.68-5.94-2.04c-1.44-1.36-2.16-3.2-2.16-5.52s.69-4.12,2.07-5.42,3.36-1.93,5.94-1.93c.5,0,1,.03,1.5.09v10.92ZM13.44,420.14v-7.32c-1.3.02-2.3.35-2.99.97-.69.63-1.04,1.52-1.04,2.66s.35,1.97,1.05,2.62c.7.65,1.69,1,2.97,1.06Z"/>
      <path class="cls-1" d="M10.68,394.94c-.76,1.66-1.14,3.29-1.14,4.89,0,1.84.54,2.76,1.62,2.76.52,0,.92-.2,1.2-.6.28-.4.49-1.1.63-2.1.32-2.22.9-3.81,1.72-4.77.83-.96,1.98-1.44,3.44-1.44s2.58.55,3.4,1.66c.83,1.11,1.25,2.68,1.25,4.7,0,2.42-.5,4.57-1.5,6.45l-2.94-.75c.98-1.7,1.47-3.53,1.47-5.49,0-1.74-.58-2.61-1.74-2.61-.54,0-.95.18-1.21.54-.27.36-.5,1.06-.67,2.1-.36,2.2-.95,3.78-1.77,4.72-.82.95-1.93,1.43-3.33,1.43s-2.47-.54-3.28-1.64c-.81-1.09-1.22-2.67-1.22-4.75s.38-4.03,1.14-5.85l2.94.75Z"/>
      <path class="cls-1" d="M3.6,389.24H0v-4.11h3.6v4.11ZM22.5,389.24H6.9v-4.11h15.6v4.11Z"/>
      <path class="cls-1" d="M6.6,374.84c0-2,.83-3.62,2.49-4.86v-.06l-2.19-.09v-3.63h14.01c5.66,0,8.49,2.73,8.49,8.19,0,1.8-.3,3.5-.9,5.1l-2.94-.69c.6-1.44.9-2.88.9-4.32,0-1.56-.41-2.69-1.23-3.39-.82-.7-2.23-1.05-4.23-1.05h-1.11v.06c1.54,1.14,2.31,2.72,2.31,4.74,0,1.76-.71,3.22-2.12,4.39s-3.3,1.75-5.68,1.75c-2.52,0-4.45-.54-5.79-1.64-1.34-1.09-2.01-2.59-2.01-4.51ZM14.4,377.24c1.5,0,2.67-.33,3.52-.98.85-.65,1.28-1.49,1.28-2.54,0-1.1-.41-1.98-1.23-2.64-.82-.66-1.96-.99-3.42-.99h-.3c-1.46,0-2.6.33-3.42.99-.82.66-1.23,1.54-1.23,2.64s.41,1.96,1.23,2.58c.82.62,2.01.93,3.57.93Z"/>
      <path class="cls-1" d="M6.9,362.06v-3.66l2.19-.06v-.06c-.78-.6-1.39-1.34-1.83-2.23-.44-.89-.66-1.8-.66-2.75,0-1.8.56-3.12,1.67-3.97,1.11-.85,2.93-1.28,5.45-1.28h8.79v3.84h-8.4c-1.72,0-2.88.2-3.49.6-.61.4-.92,1.12-.92,2.16,0,.88.45,1.68,1.35,2.42s1.95,1.09,3.15,1.09h8.31v3.9H6.9Z"/>
      <path class="cls-1" d="M4.95,321.8c-.9,1.82-1.35,3.77-1.35,5.85,0,1.12.24,1.98.72,2.58.48.6,1.12.9,1.92.9,1.42,0,2.42-1.03,3-3.09.78-2.8,1.73-4.77,2.85-5.92s2.57-1.72,4.35-1.72c2.06,0,3.63.68,4.72,2.04,1.09,1.36,1.63,3.33,1.63,5.91s-.65,4.97-1.95,7.05l-3.36-1.05c1.3-1.92,1.95-3.95,1.95-6.09,0-1.18-.26-2.07-.77-2.68s-1.23-.92-2.17-.92c-.86,0-1.54.25-2.04.73-.5.49-.94,1.38-1.32,2.66-.74,2.56-1.67,4.42-2.79,5.57-1.12,1.15-2.49,1.72-4.11,1.72-1.8,0-3.24-.66-4.32-1.99s-1.62-3.2-1.62-5.6.47-4.75,1.41-6.81l3.24.87Z"/>
      <path class="cls-1" d="M3.6,315.8H0v-4.11h3.6v4.11ZM22.5,315.8H6.9v-4.11h15.6v4.11Z"/>
      <path class="cls-1" d="M.6,302.15h9.51v-.06l-9.51-7.65v-4.89l10.5,8.7,11.4-9v4.89l-10.41,7.95v.06h10.41v4.2H.6v-4.2Z"/>
      <path class="cls-1" d="M3.6,285.41H0v-4.11h3.6v4.11ZM22.5,285.41H6.9v-4.11h15.6v4.11Z"/>
      <path class="cls-1" d="M0,253.26h22.5v3.63l-2.19.09v.06c1.66,1.18,2.49,2.77,2.49,4.77,0,1.86-.71,3.37-2.12,4.51-1.41,1.15-3.4,1.73-5.98,1.73s-4.65-.56-6.03-1.67-2.07-2.63-2.07-4.58.77-3.41,2.31-4.59v-.06H0v-3.9ZM14.7,264.3c1.62,0,2.87-.33,3.73-1,.87-.67,1.31-1.54,1.31-2.6s-.42-1.91-1.28-2.56c-.85-.65-2.05-.97-3.62-.97h-.3c-1.52,0-2.71.32-3.58.97s-1.3,1.5-1.3,2.56c0,1.14.42,2.03,1.26,2.66s2.1.95,3.78.95Z"/>
      <path class="cls-1" d="M16.11,246.12c1.18-.1,2.11-.56,2.8-1.37s1.04-1.83,1.04-3.08c0-1.48-.37-2.95-1.11-4.41l2.76-.9c.8,1.8,1.2,3.7,1.2,5.7,0,2.36-.73,4.28-2.19,5.74-1.46,1.47-3.43,2.21-5.91,2.21s-4.5-.68-5.94-2.04c-1.44-1.36-2.16-3.2-2.16-5.52s.69-4.12,2.07-5.42,3.36-1.94,5.94-1.94c.5,0,1,.03,1.5.09v10.92ZM13.44,246.12v-7.32c-1.3.02-2.3.34-2.99.98-.69.63-1.04,1.51-1.04,2.65s.35,1.98,1.05,2.62c.7.65,1.69,1.01,2.97,1.07Z"/>
      <path class="cls-1" d="M10.68,220.92c-.76,1.66-1.14,3.29-1.14,4.89,0,1.84.54,2.76,1.62,2.76.52,0,.92-.2,1.2-.6.28-.4.49-1.1.63-2.1.32-2.22.9-3.81,1.72-4.77.83-.96,1.98-1.44,3.44-1.44s2.58.55,3.4,1.66c.83,1.11,1.25,2.68,1.25,4.7,0,2.42-.5,4.57-1.5,6.45l-2.94-.75c.98-1.7,1.47-3.53,1.47-5.49,0-1.74-.58-2.61-1.74-2.61-.54,0-.95.18-1.21.54-.27.36-.5,1.06-.67,2.1-.36,2.2-.95,3.78-1.77,4.72-.82.95-1.93,1.43-3.33,1.43s-2.47-.54-3.28-1.63c-.81-1.09-1.22-2.68-1.22-4.76s.38-4.03,1.14-5.85l2.94.75Z"/>
      <path class="cls-1" d="M3.6,215.22H0v-4.11h3.6v4.11ZM22.5,215.22H6.9v-4.11h15.6v4.11Z"/>
      <path class="cls-1" d="M6.6,200.82c0-2,.83-3.62,2.49-4.86v-.06l-2.19-.09v-3.63h14.01c5.66,0,8.49,2.73,8.49,8.19,0,1.8-.3,3.5-.9,5.1l-2.94-.69c.6-1.44.9-2.88.9-4.32,0-1.56-.41-2.69-1.23-3.39-.82-.7-2.23-1.05-4.23-1.05h-1.11v.06c1.54,1.14,2.31,2.72,2.31,4.74,0,1.76-.71,3.22-2.12,4.4-1.41,1.17-3.3,1.75-5.68,1.75-2.52,0-4.45-.54-5.79-1.63s-2.01-2.6-2.01-4.52ZM14.4,203.22c1.5,0,2.67-.32,3.52-.97.85-.65,1.28-1.5,1.28-2.54,0-1.1-.41-1.98-1.23-2.64-.82-.66-1.96-.99-3.42-.99h-.3c-1.46,0-2.6.33-3.42.99s-1.23,1.54-1.23,2.64.41,1.96,1.23,2.58c.82.62,2.01.93,3.57.93Z"/>
      <path class="cls-1" d="M6.9,188.04v-3.66l2.19-.06v-.06c-.78-.6-1.39-1.34-1.83-2.23-.44-.89-.66-1.8-.66-2.75,0-1.8.56-3.12,1.67-3.98,1.11-.85,2.93-1.27,5.45-1.27h8.79v3.84h-8.4c-1.72,0-2.88.2-3.49.6-.61.4-.92,1.12-.92,2.16,0,.88.45,1.68,1.35,2.41.9.73,1.95,1.1,3.15,1.1h8.31v3.9H6.9Z"/>
      <path class="cls-1" d="M4.95,147.78c-.9,1.82-1.35,3.77-1.35,5.85,0,1.12.24,1.98.72,2.58.48.6,1.12.9,1.92.9,1.42,0,2.42-1.03,3-3.09.78-2.8,1.73-4.78,2.85-5.93,1.12-1.15,2.57-1.72,4.35-1.72,2.06,0,3.63.68,4.72,2.04s1.63,3.33,1.63,5.91-.65,4.97-1.95,7.05l-3.36-1.05c1.3-1.92,1.95-3.95,1.95-6.09,0-1.18-.26-2.08-.77-2.68-.51-.61-1.23-.92-2.17-.92-.86,0-1.54.25-2.04.74-.5.49-.94,1.38-1.32,2.66-.74,2.56-1.67,4.42-2.79,5.56-1.12,1.15-2.49,1.72-4.11,1.72-1.8,0-3.24-.66-4.32-1.99s-1.62-3.2-1.62-5.6.47-4.75,1.41-6.81l3.24.87Z"/>
      <path class="cls-1" d="M3.6,141.78H0v-4.11h3.6v4.11ZM22.5,141.78H6.9v-4.11h15.6v4.11Z"/>
      <path class="cls-1" d="M.6,128.13h9.51v-.06l-9.51-7.65v-4.89l10.5,8.7,11.4-9v4.89l-10.41,7.95v.06h10.41v4.2H.6v-4.2Z"/>
      <path class="cls-1" d="M3.6,111.39H0v-4.11h3.6v4.11ZM22.5,111.39H6.9v-4.11h15.6v4.11Z"/>
      <path class="cls-1" d="M0,79.23h22.5v3.63l-2.19.09v.06c1.66,1.18,2.49,2.77,2.49,4.77,0,1.86-.71,3.37-2.12,4.51-1.41,1.15-3.4,1.73-5.98,1.73s-4.65-.56-6.03-1.67-2.07-2.63-2.07-4.58.77-3.41,2.31-4.59v-.06H0v-3.9ZM14.7,90.27c1.62,0,2.87-.33,3.73-1,.87-.67,1.31-1.54,1.31-2.6s-.42-1.91-1.28-2.56c-.85-.65-2.05-.97-3.62-.97h-.3c-1.52,0-2.71.32-3.58.97s-1.3,1.5-1.3,2.56c0,1.14.42,2.03,1.26,2.66s2.1.95,3.78.95Z"/>
      <path class="cls-1" d="M16.11,72.09c1.18-.1,2.11-.56,2.8-1.37s1.04-1.83,1.04-3.08c0-1.48-.37-2.95-1.11-4.41l2.76-.9c.8,1.8,1.2,3.7,1.2,5.7,0,2.36-.73,4.28-2.19,5.74-1.46,1.47-3.43,2.21-5.91,2.21s-4.5-.68-5.94-2.04c-1.44-1.36-2.16-3.2-2.16-5.52s.69-4.12,2.07-5.42,3.36-1.94,5.94-1.94c.5,0,1,.03,1.5.09v10.92ZM13.44,72.09v-7.32c-1.3.02-2.3.34-2.99.98-.69.63-1.04,1.51-1.04,2.65s.35,1.98,1.05,2.62c.7.65,1.69,1.01,2.97,1.07Z"/>
      <path class="cls-1" d="M10.68,46.89c-.76,1.66-1.14,3.29-1.14,4.89,0,1.84.54,2.76,1.62,2.76.52,0,.92-.2,1.2-.6s.49-1.1.63-2.1c.32-2.22.9-3.81,1.72-4.77.83-.96,1.98-1.44,3.44-1.44s2.58.55,3.4,1.67c.83,1.11,1.25,2.67,1.25,4.7,0,2.42-.5,4.57-1.5,6.45l-2.94-.75c.98-1.7,1.47-3.53,1.47-5.49,0-1.74-.58-2.61-1.74-2.61-.54,0-.95.18-1.21.54-.27.36-.5,1.06-.67,2.1-.36,2.2-.95,3.78-1.77,4.73-.82.95-1.93,1.42-3.33,1.42s-2.47-.54-3.28-1.63c-.81-1.09-1.22-2.67-1.22-4.75s.38-4.03,1.14-5.85l2.94.75Z"/>
      <path class="cls-1" d="M3.6,41.19H0v-4.11h3.6v4.11ZM22.5,41.19H6.9v-4.11h15.6v4.11Z"/>
      <path class="cls-1" d="M6.6,26.79c0-2,.83-3.62,2.49-4.86v-.06l-2.19-.09v-3.63h14.01c5.66,0,8.49,2.73,8.49,8.19,0,1.8-.3,3.5-.9,5.1l-2.94-.69c.6-1.44.9-2.88.9-4.32,0-1.56-.41-2.69-1.23-3.39-.82-.7-2.23-1.05-4.23-1.05h-1.11v.06c1.54,1.14,2.31,2.72,2.31,4.74,0,1.76-.71,3.22-2.12,4.4-1.41,1.17-3.3,1.75-5.68,1.75-2.52,0-4.45-.54-5.79-1.63s-2.01-2.6-2.01-4.52ZM14.4,29.19c1.5,0,2.67-.32,3.52-.97.85-.65,1.28-1.5,1.28-2.54,0-1.1-.41-1.98-1.23-2.64-.82-.66-1.96-.99-3.42-.99h-.3c-1.46,0-2.6.33-3.42.99s-1.23,1.54-1.23,2.64.41,1.96,1.23,2.58c.82.62,2.01.93,3.57.93Z"/>
      <path class="cls-1" d="M6.9,14.01v-3.66l2.19-.06v-.06c-.78-.6-1.39-1.34-1.83-2.24-.44-.89-.66-1.8-.66-2.74,0-1.8.56-3.12,1.67-3.98,1.11-.85,2.93-1.27,5.45-1.27h8.79v3.84h-8.4c-1.72,0-2.88.2-3.49.6-.61.4-.92,1.12-.92,2.16,0,.88.45,1.69,1.35,2.42.9.73,1.95,1.09,3.15,1.09h8.31v3.9H6.9Z"/>
    </g>
  </g>
</svg>