<?xml version="1.0" encoding="UTF-8"?>
<svg id="_レイヤー_2" data-name="レイヤー 2" xmlns="http://www.w3.org/2000/svg" viewBox="0 0 2989.03 63.7">
  <defs>
    <style>
      .cls-1 {
        fill: #d97700;
      }
    </style>
  </defs>
  <g id="_文字" data-name="文字">
    <g>
      <path class="cls-1" d="M29.45,10.72c-3.94-1.95-8.17-2.92-12.68-2.92-2.43,0-4.29.52-5.59,1.56-1.3,1.04-1.95,2.43-1.95,4.16,0,3.08,2.23,5.24,6.69,6.5,6.07,1.69,10.35,3.75,12.84,6.18,2.49,2.43,3.74,5.57,3.74,9.42,0,4.46-1.47,7.88-4.42,10.24-2.95,2.36-7.21,3.54-12.8,3.54s-10.77-1.41-15.28-4.23l2.28-7.28c4.16,2.82,8.56,4.23,13.19,4.23,2.56,0,4.5-.55,5.82-1.66,1.32-1.11,1.98-2.68,1.98-4.71,0-1.86-.53-3.34-1.59-4.42-1.06-1.08-2.98-2.04-5.75-2.86-5.55-1.6-9.57-3.62-12.06-6.04C1.38,20,.13,17.03.13,13.52.13,9.62,1.57,6.5,4.45,4.16,7.33,1.82,11.38.65,16.58.65s10.29,1.02,14.75,3.05l-1.88,7.02Z"/>
      <path class="cls-1" d="M42.44,7.8V0h8.9v7.8h-8.9ZM42.44,48.75V14.95h8.9v33.8h-8.9Z"/>
      <path class="cls-1" d="M72.02,1.3v20.61h.13L88.72,1.3h10.6l-18.85,22.75,19.5,24.7h-10.6l-17.22-22.55h-.13v22.55h-9.1V1.3h9.1Z"/>
      <path class="cls-1" d="M108.29,7.8V0h8.9v7.8h-8.9ZM108.29,48.75V14.95h8.9v33.8h-8.9Z"/>
      <path class="cls-1" d="M177.97,0v48.75h-7.87l-.19-4.75h-.13c-2.56,3.6-6,5.4-10.33,5.4-4.03,0-7.29-1.53-9.78-4.58-2.49-3.05-3.74-7.38-3.74-12.97s1.2-10.07,3.61-13.06c2.4-2.99,5.71-4.49,9.91-4.49s7.39,1.67,9.94,5h.13V0h8.45ZM154.05,31.85c0,3.51.73,6.21,2.18,8.09,1.45,1.88,3.33,2.83,5.62,2.83s4.15-.92,5.56-2.76c1.41-1.84,2.11-4.45,2.11-7.83v-.65c0-3.29-.7-5.88-2.11-7.77-1.41-1.89-3.26-2.83-5.56-2.83-2.47,0-4.39.91-5.75,2.73-1.37,1.82-2.05,4.55-2.05,8.19Z"/>
      <path class="cls-1" d="M193.44,34.91c.22,2.56,1.2,4.58,2.96,6.08,1.75,1.5,3.98,2.24,6.66,2.24,3.21,0,6.39-.8,9.56-2.4l1.95,5.98c-3.9,1.73-8.02,2.6-12.35,2.6-5.11,0-9.26-1.58-12.45-4.75-3.18-3.16-4.78-7.43-4.78-12.81s1.47-9.75,4.42-12.87c2.95-3.12,6.93-4.68,11.96-4.68s8.94,1.5,11.73,4.49c2.8,2.99,4.19,7.28,4.19,12.87,0,1.08-.06,2.17-.2,3.25h-23.66ZM193.44,29.12h15.86c-.04-2.82-.75-4.97-2.11-6.47-1.37-1.5-3.28-2.24-5.75-2.24s-4.28.76-5.69,2.27c-1.41,1.52-2.18,3.66-2.31,6.44Z"/>
      <path class="cls-1" d="M248.04,23.14c-3.6-1.65-7.13-2.47-10.59-2.47-3.99,0-5.98,1.17-5.98,3.51,0,1.13.43,1.99,1.3,2.6.87.61,2.38,1.06,4.55,1.36,4.81.69,8.26,1.94,10.33,3.74,2.08,1.8,3.12,4.28,3.12,7.44s-1.2,5.58-3.61,7.38c-2.4,1.8-5.8,2.7-10.17,2.7-5.24,0-9.9-1.08-13.98-3.25l1.62-6.37c3.68,2.12,7.65,3.18,11.9,3.18,3.77,0,5.65-1.26,5.65-3.77,0-1.17-.39-2.05-1.17-2.63-.78-.58-2.3-1.07-4.55-1.46-4.77-.78-8.18-2.06-10.24-3.83-2.06-1.78-3.09-4.18-3.09-7.21s1.18-5.36,3.54-7.12c2.36-1.75,5.8-2.63,10.3-2.63s8.73.82,12.67,2.47l-1.62,6.37Z"/>
      <path class="cls-1" d="M260.39,7.8V0h8.9v7.8h-8.9ZM260.39,48.75V14.95h8.9v33.8h-8.9Z"/>
      <path class="cls-1" d="M291.58,14.3c4.33,0,7.84,1.8,10.53,5.4h.13l.19-4.75h7.87v30.35c0,12.26-5.92,18.4-17.75,18.4-3.9,0-7.58-.65-11.05-1.95l1.49-6.37c3.12,1.3,6.24,1.95,9.36,1.95,3.38,0,5.83-.89,7.34-2.67,1.52-1.78,2.27-4.83,2.27-9.17v-2.41h-.13c-2.47,3.34-5.89,5-10.27,5-3.81,0-6.99-1.53-9.52-4.58-2.53-3.05-3.8-7.16-3.8-12.32,0-5.46,1.18-9.64,3.54-12.54,2.36-2.9,5.62-4.36,9.78-4.36ZM286.38,31.2c0,3.25.7,5.8,2.11,7.64,1.41,1.84,3.24,2.76,5.49,2.76,2.38,0,4.29-.89,5.72-2.67,1.43-1.78,2.15-4.25,2.15-7.41v-.65c0-3.16-.71-5.63-2.15-7.41-1.43-1.78-3.34-2.67-5.72-2.67s-4.25.89-5.59,2.67c-1.34,1.78-2.01,4.36-2.01,7.74Z"/>
      <path class="cls-1" d="M319.27,14.95h7.93l.13,4.75h.13c1.3-1.69,2.91-3.01,4.84-3.96,1.93-.95,3.91-1.43,5.95-1.43,3.9,0,6.77,1.2,8.61,3.61,1.84,2.41,2.76,6.34,2.76,11.8v19.04h-8.32v-18.2c0-3.73-.43-6.25-1.3-7.57-.87-1.32-2.43-1.98-4.68-1.98-1.91,0-3.65.97-5.23,2.92-1.58,1.95-2.37,4.22-2.37,6.83v18h-8.45V14.95Z"/>
      <path class="cls-1" d="M406.5,10.72c-3.94-1.95-8.17-2.92-12.68-2.92-2.43,0-4.29.52-5.59,1.56-1.3,1.04-1.95,2.43-1.95,4.16,0,3.08,2.23,5.24,6.69,6.5,6.07,1.69,10.35,3.75,12.84,6.18,2.49,2.43,3.74,5.57,3.74,9.42,0,4.46-1.47,7.88-4.42,10.24-2.95,2.36-7.21,3.54-12.8,3.54s-10.77-1.41-15.28-4.23l2.28-7.28c4.16,2.82,8.56,4.23,13.19,4.23,2.56,0,4.5-.55,5.82-1.66,1.32-1.11,1.98-2.68,1.98-4.71,0-1.86-.53-3.34-1.59-4.42-1.06-1.08-2.98-2.04-5.75-2.86-5.55-1.6-9.57-3.62-12.06-6.04-2.49-2.43-3.74-5.39-3.74-8.91,0-3.9,1.44-7.02,4.32-9.36,2.88-2.34,6.92-3.51,12.12-3.51s10.29,1.02,14.75,3.05l-1.88,7.02Z"/>
      <path class="cls-1" d="M419.5,7.8V0h8.9v7.8h-8.9ZM419.5,48.75V14.95h8.9v33.8h-8.9Z"/>
      <path class="cls-1" d="M449.08,1.3v20.61h.13l16.57-20.61h10.6l-18.85,22.75,19.5,24.7h-10.6l-17.22-22.55h-.13v22.55h-9.1V1.3h9.1Z"/>
      <path class="cls-1" d="M485.35,7.8V0h8.9v7.8h-8.9ZM485.35,48.75V14.95h8.9v33.8h-8.9Z"/>
      <path class="cls-1" d="M555.02,0v48.75h-7.86l-.19-4.75h-.13c-2.56,3.6-6,5.4-10.33,5.4-4.03,0-7.29-1.53-9.78-4.58-2.49-3.05-3.74-7.38-3.74-12.97s1.2-10.07,3.61-13.06c2.4-2.99,5.71-4.49,9.91-4.49s7.39,1.67,9.94,5h.13V0h8.45ZM531.1,31.85c0,3.51.73,6.21,2.18,8.09,1.45,1.88,3.33,2.83,5.62,2.83s4.15-.92,5.56-2.76c1.41-1.84,2.11-4.45,2.11-7.83v-.65c0-3.29-.7-5.88-2.11-7.77-1.41-1.89-3.26-2.83-5.56-2.83-2.47,0-4.39.91-5.75,2.73-1.37,1.82-2.05,4.55-2.05,8.19Z"/>
      <path class="cls-1" d="M570.49,34.91c.22,2.56,1.2,4.58,2.96,6.08,1.75,1.5,3.97,2.24,6.66,2.24,3.21,0,6.39-.8,9.55-2.4l1.95,5.98c-3.9,1.73-8.02,2.6-12.35,2.6-5.11,0-9.26-1.58-12.45-4.75-3.18-3.16-4.78-7.43-4.78-12.81s1.47-9.75,4.42-12.87c2.95-3.12,6.93-4.68,11.96-4.68s8.94,1.5,11.73,4.49c2.8,2.99,4.19,7.28,4.19,12.87,0,1.08-.06,2.17-.2,3.25h-23.66ZM570.49,29.12h15.86c-.04-2.82-.75-4.97-2.11-6.47s-3.28-2.24-5.75-2.24-4.28.76-5.69,2.27c-1.41,1.52-2.18,3.66-2.31,6.44Z"/>
      <path class="cls-1" d="M625.09,23.14c-3.6-1.65-7.13-2.47-10.59-2.47-3.99,0-5.98,1.17-5.98,3.51,0,1.13.43,1.99,1.3,2.6.87.61,2.38,1.06,4.55,1.36,4.81.69,8.26,1.94,10.33,3.74,2.08,1.8,3.12,4.28,3.12,7.44s-1.2,5.58-3.61,7.38c-2.4,1.8-5.8,2.7-10.17,2.7-5.24,0-9.9-1.08-13.98-3.25l1.62-6.37c3.68,2.12,7.65,3.18,11.9,3.18,3.77,0,5.65-1.26,5.65-3.77,0-1.17-.39-2.05-1.17-2.63-.78-.58-2.3-1.07-4.55-1.46-4.77-.78-8.18-2.06-10.24-3.83-2.06-1.78-3.09-4.18-3.09-7.21s1.18-5.36,3.54-7.12c2.36-1.75,5.79-2.63,10.3-2.63s8.73.82,12.67,2.47l-1.62,6.37Z"/>
      <path class="cls-1" d="M637.44,7.8V0h8.91v7.8h-8.91ZM637.44,48.75V14.95h8.91v33.8h-8.91Z"/>
      <path class="cls-1" d="M668.64,14.3c4.33,0,7.84,1.8,10.53,5.4h.13l.2-4.75h7.87v30.35c0,12.26-5.92,18.4-17.75,18.4-3.9,0-7.58-.65-11.05-1.95l1.49-6.37c3.12,1.3,6.24,1.95,9.36,1.95,3.38,0,5.83-.89,7.34-2.67,1.52-1.78,2.28-4.83,2.28-9.17v-2.41h-.13c-2.47,3.34-5.89,5-10.27,5-3.81,0-6.99-1.53-9.52-4.58s-3.8-7.16-3.8-12.32c0-5.46,1.18-9.64,3.54-12.54,2.36-2.9,5.62-4.36,9.78-4.36ZM663.44,31.2c0,3.25.7,5.8,2.11,7.64,1.41,1.84,3.24,2.76,5.49,2.76,2.38,0,4.29-.89,5.72-2.67,1.43-1.78,2.15-4.25,2.15-7.41v-.65c0-3.16-.71-5.63-2.15-7.41-1.43-1.78-3.34-2.67-5.72-2.67s-4.25.89-5.59,2.67c-1.34,1.78-2.01,4.36-2.01,7.74Z"/>
      <path class="cls-1" d="M696.33,14.95h7.93l.13,4.75h.13c1.3-1.69,2.91-3.01,4.84-3.96s3.91-1.43,5.95-1.43c3.9,0,6.77,1.2,8.61,3.61,1.84,2.41,2.76,6.34,2.76,11.8v19.04h-8.32v-18.2c0-3.73-.43-6.25-1.3-7.57-.87-1.32-2.43-1.98-4.68-1.98-1.91,0-3.65.97-5.23,2.92-1.58,1.95-2.37,4.22-2.37,6.83v18h-8.45V14.95Z"/>
      <path class="cls-1" d="M783.56,10.72c-3.94-1.95-8.17-2.92-12.67-2.92-2.43,0-4.29.52-5.59,1.56-1.3,1.04-1.95,2.43-1.95,4.16,0,3.08,2.23,5.24,6.69,6.5,6.07,1.69,10.35,3.75,12.84,6.18,2.49,2.43,3.74,5.57,3.74,9.42,0,4.46-1.47,7.88-4.42,10.24-2.95,2.36-7.21,3.54-12.8,3.54s-10.77-1.41-15.28-4.23l2.28-7.28c4.16,2.82,8.56,4.23,13.19,4.23,2.56,0,4.5-.55,5.82-1.66,1.32-1.11,1.98-2.68,1.98-4.71,0-1.86-.53-3.34-1.59-4.42-1.06-1.08-2.98-2.04-5.75-2.86-5.55-1.6-9.57-3.62-12.06-6.04-2.49-2.43-3.74-5.39-3.74-8.91,0-3.9,1.44-7.02,4.32-9.36s6.92-3.51,12.12-3.51,10.29,1.02,14.75,3.05l-1.88,7.02Z"/>
      <path class="cls-1" d="M796.56,7.8V0h8.91v7.8h-8.91ZM796.56,48.75V14.95h8.91v33.8h-8.91Z"/>
      <path class="cls-1" d="M826.13,1.3v20.61h.13l16.57-20.61h10.6l-18.85,22.75,19.5,24.7h-10.6l-17.22-22.55h-.13v22.55h-9.1V1.3h9.1Z"/>
      <path class="cls-1" d="M862.4,7.8V0h8.91v7.8h-8.91ZM862.4,48.75V14.95h8.91v33.8h-8.91Z"/>
      <path class="cls-1" d="M932.08,0v48.75h-7.87l-.2-4.75h-.13c-2.56,3.6-6,5.4-10.33,5.4-4.03,0-7.29-1.53-9.78-4.58s-3.74-7.38-3.74-12.97,1.2-10.07,3.61-13.06c2.4-2.99,5.71-4.49,9.91-4.49s7.39,1.67,9.95,5h.13V0h8.45ZM908.16,31.85c0,3.51.72,6.21,2.18,8.09s3.33,2.83,5.62,2.83,4.15-.92,5.56-2.76c1.41-1.84,2.11-4.45,2.11-7.83v-.65c0-3.29-.7-5.88-2.11-7.77-1.41-1.89-3.26-2.83-5.56-2.83-2.47,0-4.39.91-5.75,2.73s-2.05,4.55-2.05,8.19Z"/>
      <path class="cls-1" d="M947.55,34.91c.22,2.56,1.2,4.58,2.96,6.08,1.76,1.5,3.98,2.24,6.66,2.24,3.21,0,6.39-.8,9.56-2.4l1.95,5.98c-3.9,1.73-8.02,2.6-12.35,2.6-5.11,0-9.26-1.58-12.45-4.75s-4.78-7.43-4.78-12.81,1.47-9.75,4.42-12.87c2.95-3.12,6.93-4.68,11.96-4.68s8.94,1.5,11.73,4.49,4.19,7.28,4.19,12.87c0,1.08-.07,2.17-.2,3.25h-23.66ZM947.55,29.12h15.86c-.04-2.82-.75-4.97-2.11-6.47-1.37-1.5-3.28-2.24-5.75-2.24s-4.28.76-5.69,2.27c-1.41,1.52-2.18,3.66-2.31,6.44Z"/>
      <path class="cls-1" d="M1002.15,23.14c-3.6-1.65-7.13-2.47-10.6-2.47-3.99,0-5.98,1.17-5.98,3.51,0,1.13.43,1.99,1.3,2.6.87.61,2.38,1.06,4.55,1.36,4.81.69,8.25,1.94,10.33,3.74,2.08,1.8,3.12,4.28,3.12,7.44s-1.2,5.58-3.61,7.38c-2.41,1.8-5.8,2.7-10.17,2.7-5.24,0-9.9-1.08-13.97-3.25l1.62-6.37c3.68,2.12,7.65,3.18,11.89,3.18,3.77,0,5.66-1.26,5.66-3.77,0-1.17-.39-2.05-1.17-2.63s-2.3-1.07-4.55-1.46c-4.77-.78-8.18-2.06-10.24-3.83-2.06-1.78-3.09-4.18-3.09-7.21s1.18-5.36,3.54-7.12,5.8-2.63,10.3-2.63,8.73.82,12.68,2.47l-1.62,6.37Z"/>
      <path class="cls-1" d="M1014.5,7.8V0h8.9v7.8h-8.9ZM1014.5,48.75V14.95h8.9v33.8h-8.9Z"/>
      <path class="cls-1" d="M1045.7,14.3c4.33,0,7.84,1.8,10.53,5.4h.13l.19-4.75h7.87v30.35c0,12.26-5.92,18.4-17.75,18.4-3.9,0-7.58-.65-11.05-1.95l1.5-6.37c3.12,1.3,6.24,1.95,9.36,1.95,3.38,0,5.83-.89,7.35-2.67,1.52-1.78,2.27-4.83,2.27-9.17v-2.41h-.13c-2.47,3.34-5.89,5-10.27,5-3.81,0-6.99-1.53-9.52-4.58-2.53-3.05-3.8-7.16-3.8-12.32,0-5.46,1.18-9.64,3.54-12.54s5.62-4.36,9.78-4.36ZM1040.5,31.2c0,3.25.7,5.8,2.11,7.64s3.24,2.76,5.49,2.76c2.38,0,4.29-.89,5.72-2.67,1.43-1.78,2.14-4.25,2.14-7.41v-.65c0-3.16-.71-5.63-2.14-7.41-1.43-1.78-3.34-2.67-5.72-2.67s-4.25.89-5.59,2.67c-1.34,1.78-2.01,4.36-2.01,7.74Z"/>
      <path class="cls-1" d="M1073.39,14.95h7.93l.13,4.75h.13c1.3-1.69,2.91-3.01,4.84-3.96,1.93-.95,3.91-1.43,5.95-1.43,3.9,0,6.77,1.2,8.61,3.61,1.84,2.41,2.76,6.34,2.76,11.8v19.04h-8.32v-18.2c0-3.73-.43-6.25-1.3-7.57-.87-1.32-2.43-1.98-4.68-1.98-1.91,0-3.65.97-5.23,2.92s-2.37,4.22-2.37,6.83v18h-8.45V14.95Z"/>
      <path class="cls-1" d="M1160.62,10.72c-3.94-1.95-8.17-2.92-12.68-2.92-2.43,0-4.29.52-5.59,1.56-1.3,1.04-1.95,2.43-1.95,4.16,0,3.08,2.23,5.24,6.7,6.5,6.07,1.69,10.34,3.75,12.84,6.18,2.49,2.43,3.74,5.57,3.74,9.42,0,4.46-1.47,7.88-4.42,10.24-2.95,2.36-7.21,3.54-12.8,3.54s-10.77-1.41-15.28-4.23l2.28-7.28c4.16,2.82,8.56,4.23,13.2,4.23,2.56,0,4.49-.55,5.82-1.66,1.32-1.11,1.98-2.68,1.98-4.71,0-1.86-.53-3.34-1.59-4.42-1.06-1.08-2.98-2.04-5.75-2.86-5.55-1.6-9.57-3.62-12.06-6.04-2.49-2.43-3.74-5.39-3.74-8.91,0-3.9,1.44-7.02,4.32-9.36,2.88-2.34,6.92-3.51,12.12-3.51s10.29,1.02,14.75,3.05l-1.88,7.02Z"/>
      <path class="cls-1" d="M1173.62,7.8V0h8.9v7.8h-8.9ZM1173.62,48.75V14.95h8.9v33.8h-8.9Z"/>
      <path class="cls-1" d="M1203.19,1.3v20.61h.13l16.58-20.61h10.59l-18.85,22.75,19.5,24.7h-10.59l-17.22-22.55h-.13v22.55h-9.1V1.3h9.1Z"/>
      <path class="cls-1" d="M1239.46,7.8V0h8.9v7.8h-8.9ZM1239.46,48.75V14.95h8.9v33.8h-8.9Z"/>
      <path class="cls-1" d="M1309.14,0v48.75h-7.87l-.2-4.75h-.13c-2.56,3.6-6,5.4-10.34,5.4-4.03,0-7.29-1.53-9.78-4.58-2.49-3.05-3.74-7.38-3.74-12.97s1.2-10.07,3.61-13.06c2.4-2.99,5.71-4.49,9.91-4.49s7.39,1.67,9.95,5h.13V0h8.45ZM1285.22,31.85c0,3.51.72,6.21,2.18,8.09,1.45,1.88,3.32,2.83,5.62,2.83s4.15-.92,5.56-2.76,2.11-4.45,2.11-7.83v-.65c0-3.29-.7-5.88-2.11-7.77-1.41-1.89-3.26-2.83-5.56-2.83-2.47,0-4.39.91-5.75,2.73s-2.05,4.55-2.05,8.19Z"/>
      <path class="cls-1" d="M1324.61,34.91c.22,2.56,1.2,4.58,2.96,6.08,1.75,1.5,3.97,2.24,6.66,2.24,3.21,0,6.39-.8,9.55-2.4l1.95,5.98c-3.9,1.73-8.02,2.6-12.35,2.6-5.11,0-9.26-1.58-12.45-4.75-3.18-3.16-4.78-7.43-4.78-12.81s1.47-9.75,4.42-12.87c2.95-3.12,6.93-4.68,11.96-4.68s8.94,1.5,11.73,4.49c2.8,2.99,4.19,7.28,4.19,12.87,0,1.08-.06,2.17-.2,3.25h-23.66ZM1324.61,29.12h15.86c-.04-2.82-.75-4.97-2.11-6.47s-3.28-2.24-5.75-2.24-4.28.76-5.69,2.27c-1.41,1.52-2.18,3.66-2.31,6.44Z"/>
      <path class="cls-1" d="M1379.21,23.14c-3.6-1.65-7.13-2.47-10.59-2.47-3.99,0-5.98,1.17-5.98,3.51,0,1.13.43,1.99,1.3,2.6.87.61,2.38,1.06,4.55,1.36,4.81.69,8.26,1.94,10.33,3.74,2.08,1.8,3.12,4.28,3.12,7.44s-1.2,5.58-3.61,7.38c-2.4,1.8-5.8,2.7-10.17,2.7-5.24,0-9.9-1.08-13.98-3.25l1.62-6.37c3.68,2.12,7.65,3.18,11.9,3.18,3.77,0,5.65-1.26,5.65-3.77,0-1.17-.39-2.05-1.17-2.63-.78-.58-2.3-1.07-4.55-1.46-4.77-.78-8.18-2.06-10.24-3.83-2.06-1.78-3.09-4.18-3.09-7.21s1.18-5.36,3.54-7.12c2.36-1.75,5.79-2.63,10.3-2.63s8.73.82,12.67,2.47l-1.62,6.37Z"/>
      <path class="cls-1" d="M1391.56,7.8V0h8.91v7.8h-8.91ZM1391.56,48.75V14.95h8.91v33.8h-8.91Z"/>
      <path class="cls-1" d="M1422.76,14.3c4.33,0,7.84,1.8,10.53,5.4h.13l.2-4.75h7.87v30.35c0,12.26-5.92,18.4-17.75,18.4-3.9,0-7.58-.65-11.05-1.95l1.49-6.37c3.12,1.3,6.24,1.95,9.36,1.95,3.38,0,5.83-.89,7.34-2.67,1.52-1.78,2.28-4.83,2.28-9.17v-2.41h-.13c-2.47,3.34-5.89,5-10.27,5-3.81,0-6.99-1.53-9.52-4.58s-3.8-7.16-3.8-12.32c0-5.46,1.18-9.64,3.54-12.54,2.36-2.9,5.62-4.36,9.78-4.36ZM1417.56,31.2c0,3.25.7,5.8,2.11,7.64,1.41,1.84,3.24,2.76,5.49,2.76,2.38,0,4.29-.89,5.72-2.67,1.43-1.78,2.15-4.25,2.15-7.41v-.65c0-3.16-.71-5.63-2.15-7.41-1.43-1.78-3.34-2.67-5.72-2.67s-4.25.89-5.59,2.67c-1.34,1.78-2.01,4.36-2.01,7.74Z"/>
      <path class="cls-1" d="M1450.45,14.95h7.93l.13,4.75h.13c1.3-1.69,2.91-3.01,4.84-3.96s3.91-1.43,5.95-1.43c3.9,0,6.77,1.2,8.61,3.61,1.84,2.41,2.76,6.34,2.76,11.8v19.04h-8.32v-18.2c0-3.73-.43-6.25-1.3-7.57-.87-1.32-2.43-1.98-4.68-1.98-1.91,0-3.65.97-5.23,2.92-1.58,1.95-2.37,4.22-2.37,6.83v18h-8.45V14.95Z"/>
      <path class="cls-1" d="M1537.68,10.72c-3.94-1.95-8.17-2.92-12.67-2.92-2.43,0-4.29.52-5.59,1.56-1.3,1.04-1.95,2.43-1.95,4.16,0,3.08,2.23,5.24,6.69,6.5,6.07,1.69,10.35,3.75,12.84,6.18,2.49,2.43,3.74,5.57,3.74,9.42,0,4.46-1.47,7.88-4.42,10.24-2.95,2.36-7.21,3.54-12.8,3.54s-10.77-1.41-15.28-4.23l2.28-7.28c4.16,2.82,8.56,4.23,13.19,4.23,2.56,0,4.5-.55,5.82-1.66,1.32-1.11,1.98-2.68,1.98-4.71,0-1.86-.53-3.34-1.59-4.42-1.06-1.08-2.98-2.04-5.75-2.86-5.55-1.6-9.57-3.62-12.06-6.04-2.49-2.43-3.74-5.39-3.74-8.91,0-3.9,1.44-7.02,4.32-9.36s6.92-3.51,12.12-3.51,10.29,1.02,14.75,3.05l-1.88,7.02Z"/>
      <path class="cls-1" d="M1550.67,7.8V0h8.9v7.8h-8.9ZM1550.67,48.75V14.95h8.9v33.8h-8.9Z"/>
      <path class="cls-1" d="M1580.25,1.3v20.61h.13l16.57-20.61h10.6l-18.85,22.75,19.5,24.7h-10.59l-17.22-22.55h-.13v22.55h-9.1V1.3h9.1Z"/>
      <path class="cls-1" d="M1616.52,7.8V0h8.91v7.8h-8.91ZM1616.52,48.75V14.95h8.91v33.8h-8.91Z"/>
      <path class="cls-1" d="M1686.2,0v48.75h-7.87l-.19-4.75h-.13c-2.56,3.6-6,5.4-10.33,5.4-4.03,0-7.29-1.53-9.78-4.58-2.49-3.05-3.74-7.38-3.74-12.97s1.2-10.07,3.61-13.06,5.71-4.49,9.91-4.49,7.39,1.67,9.94,5h.13V0h8.45ZM1662.28,31.85c0,3.51.73,6.21,2.18,8.09,1.45,1.88,3.33,2.83,5.62,2.83s4.15-.92,5.56-2.76c1.41-1.84,2.11-4.45,2.11-7.83v-.65c0-3.29-.71-5.88-2.11-7.77-1.41-1.89-3.26-2.83-5.56-2.83-2.47,0-4.39.91-5.75,2.73-1.37,1.82-2.05,4.55-2.05,8.19Z"/>
      <path class="cls-1" d="M1701.67,34.91c.22,2.56,1.2,4.58,2.96,6.08,1.75,1.5,3.97,2.24,6.66,2.24,3.21,0,6.39-.8,9.55-2.4l1.95,5.98c-3.9,1.73-8.02,2.6-12.35,2.6-5.11,0-9.26-1.58-12.45-4.75-3.18-3.16-4.78-7.43-4.78-12.81s1.47-9.75,4.42-12.87c2.95-3.12,6.93-4.68,11.96-4.68s8.94,1.5,11.73,4.49,4.19,7.28,4.19,12.87c0,1.08-.07,2.17-.2,3.25h-23.66ZM1701.67,29.12h15.86c-.04-2.82-.75-4.97-2.11-6.47-1.37-1.5-3.28-2.24-5.75-2.24s-4.28.76-5.69,2.27c-1.41,1.52-2.18,3.66-2.31,6.44Z"/>
      <path class="cls-1" d="M1756.27,23.14c-3.6-1.65-7.13-2.47-10.59-2.47-3.99,0-5.98,1.17-5.98,3.51,0,1.13.43,1.99,1.3,2.6.87.61,2.38,1.06,4.55,1.36,4.81.69,8.26,1.94,10.34,3.74,2.08,1.8,3.12,4.28,3.12,7.44s-1.2,5.58-3.61,7.38c-2.4,1.8-5.8,2.7-10.17,2.7-5.24,0-9.9-1.08-13.97-3.25l1.62-6.37c3.68,2.12,7.65,3.18,11.89,3.18,3.77,0,5.65-1.26,5.65-3.77,0-1.17-.39-2.05-1.17-2.63-.78-.58-2.3-1.07-4.55-1.46-4.77-.78-8.18-2.06-10.24-3.83-2.06-1.78-3.09-4.18-3.09-7.21s1.18-5.36,3.54-7.12c2.36-1.75,5.79-2.63,10.3-2.63s8.73.82,12.67,2.47l-1.62,6.37Z"/>
      <path class="cls-1" d="M1768.62,7.8V0h8.9v7.8h-8.9ZM1768.62,48.75V14.95h8.9v33.8h-8.9Z"/>
      <path class="cls-1" d="M1799.82,14.3c4.33,0,7.84,1.8,10.53,5.4h.13l.19-4.75h7.87v30.35c0,12.26-5.92,18.4-17.75,18.4-3.9,0-7.58-.65-11.05-1.95l1.5-6.37c3.12,1.3,6.24,1.95,9.36,1.95,3.38,0,5.83-.89,7.35-2.67,1.52-1.78,2.27-4.83,2.27-9.17v-2.41h-.13c-2.47,3.34-5.89,5-10.27,5-3.81,0-6.99-1.53-9.52-4.58-2.53-3.05-3.8-7.16-3.8-12.32,0-5.46,1.18-9.64,3.54-12.54s5.62-4.36,9.78-4.36ZM1794.62,31.2c0,3.25.7,5.8,2.11,7.64s3.24,2.76,5.49,2.76c2.38,0,4.29-.89,5.72-2.67,1.43-1.78,2.14-4.25,2.14-7.41v-.65c0-3.16-.71-5.63-2.14-7.41-1.43-1.78-3.34-2.67-5.72-2.67s-4.25.89-5.59,2.67c-1.34,1.78-2.01,4.36-2.01,7.74Z"/>
      <path class="cls-1" d="M1827.5,14.95h7.93l.13,4.75h.13c1.3-1.69,2.91-3.01,4.84-3.96,1.93-.95,3.91-1.43,5.95-1.43,3.9,0,6.77,1.2,8.61,3.61,1.84,2.41,2.76,6.34,2.76,11.8v19.04h-8.32v-18.2c0-3.73-.43-6.25-1.3-7.57-.87-1.32-2.43-1.98-4.68-1.98-1.91,0-3.65.97-5.23,2.92-1.58,1.95-2.37,4.22-2.37,6.83v18h-8.45V14.95Z"/>
      <path class="cls-1" d="M1914.73,10.72c-3.94-1.95-8.17-2.92-12.68-2.92-2.43,0-4.29.52-5.59,1.56-1.3,1.04-1.95,2.43-1.95,4.16,0,3.08,2.23,5.24,6.7,6.5,6.07,1.69,10.34,3.75,12.84,6.18,2.49,2.43,3.74,5.57,3.74,9.42,0,4.46-1.47,7.88-4.42,10.24-2.95,2.36-7.21,3.54-12.8,3.54s-10.77-1.41-15.28-4.23l2.28-7.28c4.16,2.82,8.56,4.23,13.2,4.23,2.56,0,4.49-.55,5.82-1.66,1.32-1.11,1.98-2.68,1.98-4.71,0-1.86-.53-3.34-1.59-4.42-1.06-1.08-2.98-2.04-5.75-2.86-5.55-1.6-9.57-3.62-12.06-6.04-2.49-2.43-3.74-5.39-3.74-8.91,0-3.9,1.44-7.02,4.32-9.36,2.88-2.34,6.92-3.51,12.12-3.51s10.29,1.02,14.75,3.05l-1.88,7.02Z"/>
      <path class="cls-1" d="M1927.73,7.8V0h8.91v7.8h-8.91ZM1927.73,48.75V14.95h8.91v33.8h-8.91Z"/>
      <path class="cls-1" d="M1957.31,1.3v20.61h.13l16.58-20.61h10.59l-18.85,22.75,19.5,24.7h-10.6l-17.22-22.55h-.13v22.55h-9.1V1.3h9.1Z"/>
      <path class="cls-1" d="M1993.58,7.8V0h8.9v7.8h-8.9ZM1993.58,48.75V14.95h8.9v33.8h-8.9Z"/>
      <path class="cls-1" d="M2063.25,0v48.75h-7.87l-.2-4.75h-.13c-2.56,3.6-6,5.4-10.34,5.4-4.03,0-7.29-1.53-9.78-4.58-2.49-3.05-3.74-7.38-3.74-12.97s1.2-10.07,3.61-13.06c2.4-2.99,5.71-4.49,9.91-4.49s7.39,1.67,9.95,5h.13V0h8.45ZM2039.33,31.85c0,3.51.72,6.21,2.18,8.09,1.45,1.88,3.32,2.83,5.62,2.83s4.15-.92,5.56-2.76,2.11-4.45,2.11-7.83v-.65c0-3.29-.7-5.88-2.11-7.77-1.41-1.89-3.26-2.83-5.56-2.83-2.47,0-4.39.91-5.75,2.73s-2.05,4.55-2.05,8.19Z"/>
      <path class="cls-1" d="M2078.72,34.91c.22,2.56,1.2,4.58,2.96,6.08s3.98,2.24,6.66,2.24c3.21,0,6.39-.8,9.56-2.4l1.95,5.98c-3.9,1.73-8.02,2.6-12.35,2.6-5.11,0-9.26-1.58-12.45-4.75-3.19-3.16-4.78-7.43-4.78-12.81s1.47-9.75,4.42-12.87c2.95-3.12,6.93-4.68,11.96-4.68s8.94,1.5,11.73,4.49c2.8,2.99,4.19,7.28,4.19,12.87,0,1.08-.06,2.17-.2,3.25h-23.66ZM2078.72,29.12h15.86c-.04-2.82-.75-4.97-2.11-6.47s-3.28-2.24-5.75-2.24-4.28.76-5.69,2.27c-1.41,1.52-2.18,3.66-2.31,6.44Z"/>
      <path class="cls-1" d="M2133.32,23.14c-3.6-1.65-7.13-2.47-10.59-2.47-3.99,0-5.98,1.17-5.98,3.51,0,1.13.43,1.99,1.3,2.6.87.61,2.38,1.06,4.55,1.36,4.81.69,8.25,1.94,10.33,3.74,2.08,1.8,3.12,4.28,3.12,7.44s-1.2,5.58-3.61,7.38c-2.41,1.8-5.8,2.7-10.17,2.7-5.24,0-9.9-1.08-13.98-3.25l1.62-6.37c3.68,2.12,7.65,3.18,11.9,3.18,3.77,0,5.66-1.26,5.66-3.77,0-1.17-.39-2.05-1.17-2.63-.78-.58-2.3-1.07-4.55-1.46-4.77-.78-8.18-2.06-10.24-3.83-2.06-1.78-3.09-4.18-3.09-7.21s1.18-5.36,3.54-7.12c2.36-1.75,5.8-2.63,10.3-2.63s8.73.82,12.67,2.47l-1.62,6.37Z"/>
      <path class="cls-1" d="M2145.67,7.8V0h8.91v7.8h-8.91ZM2145.67,48.75V14.95h8.91v33.8h-8.91Z"/>
      <path class="cls-1" d="M2176.87,14.3c4.33,0,7.84,1.8,10.53,5.4h.13l.2-4.75h7.87v30.35c0,12.26-5.92,18.4-17.75,18.4-3.9,0-7.58-.65-11.05-1.95l1.49-6.37c3.12,1.3,6.24,1.95,9.36,1.95,3.38,0,5.83-.89,7.34-2.67,1.52-1.78,2.28-4.83,2.28-9.17v-2.41h-.13c-2.47,3.34-5.89,5-10.27,5-3.81,0-6.99-1.53-9.52-4.58s-3.8-7.16-3.8-12.32c0-5.46,1.18-9.64,3.54-12.54,2.36-2.9,5.62-4.36,9.78-4.36ZM2171.67,31.2c0,3.25.7,5.8,2.11,7.64,1.41,1.84,3.24,2.76,5.49,2.76,2.38,0,4.29-.89,5.72-2.67,1.43-1.78,2.15-4.25,2.15-7.41v-.65c0-3.16-.71-5.63-2.15-7.41-1.43-1.78-3.34-2.67-5.72-2.67s-4.25.89-5.59,2.67c-1.34,1.78-2.01,4.36-2.01,7.74Z"/>
      <path class="cls-1" d="M2204.56,14.95h7.93l.13,4.75h.13c1.3-1.69,2.91-3.01,4.84-3.96,1.93-.95,3.91-1.43,5.95-1.43,3.9,0,6.77,1.2,8.61,3.61,1.84,2.41,2.76,6.34,2.76,11.8v19.04h-8.32v-18.2c0-3.73-.43-6.25-1.3-7.57-.87-1.32-2.43-1.98-4.68-1.98-1.91,0-3.65.97-5.23,2.92-1.58,1.95-2.37,4.22-2.37,6.83v18h-8.45V14.95Z"/>
      <path class="cls-1" d="M2291.79,10.72c-3.94-1.95-8.17-2.92-12.67-2.92-2.43,0-4.29.52-5.59,1.56-1.3,1.04-1.95,2.43-1.95,4.16,0,3.08,2.23,5.24,6.69,6.5,6.07,1.69,10.35,3.75,12.84,6.18,2.49,2.43,3.74,5.57,3.74,9.42,0,4.46-1.47,7.88-4.42,10.24-2.95,2.36-7.21,3.54-12.8,3.54s-10.77-1.41-15.28-4.23l2.28-7.28c4.16,2.82,8.56,4.23,13.19,4.23,2.56,0,4.5-.55,5.82-1.66,1.32-1.11,1.98-2.68,1.98-4.71,0-1.86-.53-3.34-1.59-4.42-1.06-1.08-2.98-2.04-5.75-2.86-5.55-1.6-9.57-3.62-12.06-6.04-2.49-2.43-3.74-5.39-3.74-8.91,0-3.9,1.44-7.02,4.32-9.36s6.92-3.51,12.12-3.51,10.29,1.02,14.75,3.05l-1.88,7.02Z"/>
      <path class="cls-1" d="M2304.79,7.8V0h8.9v7.8h-8.9ZM2304.79,48.75V14.95h8.9v33.8h-8.9Z"/>
      <path class="cls-1" d="M2334.36,1.3v20.61h.13l16.57-20.61h10.6l-18.85,22.75,19.5,24.7h-10.59l-17.22-22.55h-.13v22.55h-9.1V1.3h9.1Z"/>
      <path class="cls-1" d="M2370.63,7.8V0h8.91v7.8h-8.91ZM2370.63,48.75V14.95h8.91v33.8h-8.91Z"/>
      <path class="cls-1" d="M2440.31,0v48.75h-7.87l-.19-4.75h-.13c-2.56,3.6-6,5.4-10.33,5.4-4.03,0-7.29-1.53-9.78-4.58-2.49-3.05-3.74-7.38-3.74-12.97s1.2-10.07,3.61-13.06,5.71-4.49,9.91-4.49,7.39,1.67,9.94,5h.13V0h8.45ZM2416.39,31.85c0,3.51.73,6.21,2.18,8.09,1.45,1.88,3.33,2.83,5.62,2.83s4.15-.92,5.56-2.76c1.41-1.84,2.11-4.45,2.11-7.83v-.65c0-3.29-.71-5.88-2.11-7.77-1.41-1.89-3.26-2.83-5.56-2.83-2.47,0-4.39.91-5.75,2.73-1.37,1.82-2.05,4.55-2.05,8.19Z"/>
      <path class="cls-1" d="M2455.78,34.91c.22,2.56,1.2,4.58,2.96,6.08,1.75,1.5,3.97,2.24,6.66,2.24,3.21,0,6.39-.8,9.55-2.4l1.95,5.98c-3.9,1.73-8.02,2.6-12.35,2.6-5.11,0-9.26-1.58-12.45-4.75-3.18-3.16-4.78-7.43-4.78-12.81s1.47-9.75,4.42-12.87c2.95-3.12,6.93-4.68,11.96-4.68s8.94,1.5,11.73,4.49,4.19,7.28,4.19,12.87c0,1.08-.07,2.17-.2,3.25h-23.66ZM2455.78,29.12h15.86c-.04-2.82-.75-4.97-2.11-6.47-1.37-1.5-3.28-2.24-5.75-2.24s-4.28.76-5.69,2.27c-1.41,1.52-2.18,3.66-2.31,6.44Z"/>
      <path class="cls-1" d="M2510.38,23.14c-3.6-1.65-7.13-2.47-10.59-2.47-3.99,0-5.98,1.17-5.98,3.51,0,1.13.43,1.99,1.3,2.6.87.61,2.38,1.06,4.55,1.36,4.81.69,8.26,1.94,10.34,3.74,2.08,1.8,3.12,4.28,3.12,7.44s-1.2,5.58-3.61,7.38c-2.4,1.8-5.8,2.7-10.17,2.7-5.24,0-9.9-1.08-13.97-3.25l1.62-6.37c3.68,2.12,7.65,3.18,11.89,3.18,3.77,0,5.65-1.26,5.65-3.77,0-1.17-.39-2.05-1.17-2.63-.78-.58-2.3-1.07-4.55-1.46-4.77-.78-8.18-2.06-10.24-3.83-2.06-1.78-3.09-4.18-3.09-7.21s1.18-5.36,3.54-7.12c2.36-1.75,5.79-2.63,10.3-2.63s8.73.82,12.67,2.47l-1.62,6.37Z"/>
      <path class="cls-1" d="M2522.73,7.8V0h8.9v7.8h-8.9ZM2522.73,48.75V14.95h8.9v33.8h-8.9Z"/>
      <path class="cls-1" d="M2553.93,14.3c4.33,0,7.84,1.8,10.53,5.4h.13l.19-4.75h7.87v30.35c0,12.26-5.92,18.4-17.75,18.4-3.9,0-7.58-.65-11.05-1.95l1.5-6.37c3.12,1.3,6.24,1.95,9.36,1.95,3.38,0,5.83-.89,7.35-2.67,1.52-1.78,2.27-4.83,2.27-9.17v-2.41h-.13c-2.47,3.34-5.89,5-10.27,5-3.81,0-6.99-1.53-9.52-4.58-2.53-3.05-3.8-7.16-3.8-12.32,0-5.46,1.18-9.64,3.54-12.54s5.62-4.36,9.78-4.36ZM2548.73,31.2c0,3.25.7,5.8,2.11,7.64s3.24,2.76,5.49,2.76c2.38,0,4.29-.89,5.72-2.67,1.43-1.78,2.14-4.25,2.14-7.41v-.65c0-3.16-.71-5.63-2.14-7.41-1.43-1.78-3.34-2.67-5.72-2.67s-4.25.89-5.59,2.67c-1.34,1.78-2.01,4.36-2.01,7.74Z"/>
      <path class="cls-1" d="M2581.62,14.95h7.93l.13,4.75h.13c1.3-1.69,2.91-3.01,4.84-3.96,1.93-.95,3.91-1.43,5.95-1.43,3.9,0,6.77,1.2,8.61,3.61,1.84,2.41,2.76,6.34,2.76,11.8v19.04h-8.32v-18.2c0-3.73-.43-6.25-1.3-7.57-.87-1.32-2.43-1.98-4.68-1.98-1.91,0-3.65.97-5.23,2.92-1.58,1.95-2.37,4.22-2.37,6.83v18h-8.45V14.95Z"/>
      <path class="cls-1" d="M2668.85,10.72c-3.94-1.95-8.17-2.92-12.68-2.92-2.43,0-4.29.52-5.59,1.56-1.3,1.04-1.95,2.43-1.95,4.16,0,3.08,2.23,5.24,6.7,6.5,6.07,1.69,10.34,3.75,12.84,6.18,2.49,2.43,3.74,5.57,3.74,9.42,0,4.46-1.47,7.88-4.42,10.24-2.95,2.36-7.21,3.54-12.8,3.54s-10.77-1.41-15.28-4.23l2.28-7.28c4.16,2.82,8.56,4.23,13.2,4.23,2.56,0,4.49-.55,5.82-1.66,1.32-1.11,1.98-2.68,1.98-4.71,0-1.86-.53-3.34-1.59-4.42-1.06-1.08-2.98-2.04-5.75-2.86-5.55-1.6-9.57-3.62-12.06-6.04-2.49-2.43-3.74-5.39-3.74-8.91,0-3.9,1.44-7.02,4.32-9.36,2.88-2.34,6.92-3.51,12.12-3.51s10.29,1.02,14.75,3.05l-1.88,7.02Z"/>
      <path class="cls-1" d="M2681.85,7.8V0h8.91v7.8h-8.91ZM2681.85,48.75V14.95h8.91v33.8h-8.91Z"/>
      <path class="cls-1" d="M2711.42,1.3v20.61h.13l16.58-20.61h10.59l-18.85,22.75,19.5,24.7h-10.6l-17.22-22.55h-.13v22.55h-9.1V1.3h9.1Z"/>
      <path class="cls-1" d="M2747.69,7.8V0h8.9v7.8h-8.9ZM2747.69,48.75V14.95h8.9v33.8h-8.9Z"/>
      <path class="cls-1" d="M2817.37,0v48.75h-7.87l-.2-4.75h-.13c-2.56,3.6-6,5.4-10.34,5.4-4.03,0-7.29-1.53-9.78-4.58-2.49-3.05-3.74-7.38-3.74-12.97s1.2-10.07,3.61-13.06c2.4-2.99,5.71-4.49,9.91-4.49s7.39,1.67,9.95,5h.13V0h8.45ZM2793.45,31.85c0,3.51.72,6.21,2.18,8.09,1.45,1.88,3.32,2.83,5.62,2.83s4.15-.92,5.56-2.76,2.11-4.45,2.11-7.83v-.65c0-3.29-.7-5.88-2.11-7.77-1.41-1.89-3.26-2.83-5.56-2.83-2.47,0-4.39.91-5.75,2.73s-2.05,4.55-2.05,8.19Z"/>
      <path class="cls-1" d="M2832.84,34.91c.22,2.56,1.2,4.58,2.96,6.08s3.98,2.24,6.66,2.24c3.21,0,6.39-.8,9.56-2.4l1.95,5.98c-3.9,1.73-8.02,2.6-12.35,2.6-5.11,0-9.26-1.58-12.45-4.75-3.19-3.16-4.78-7.43-4.78-12.81s1.47-9.75,4.42-12.87c2.95-3.12,6.93-4.68,11.96-4.68s8.94,1.5,11.73,4.49c2.8,2.99,4.19,7.28,4.19,12.87,0,1.08-.06,2.17-.2,3.25h-23.66ZM2832.84,29.12h15.86c-.04-2.82-.75-4.97-2.11-6.47s-3.28-2.24-5.75-2.24-4.28.76-5.69,2.27c-1.41,1.52-2.18,3.66-2.31,6.44Z"/>
      <path class="cls-1" d="M2887.44,23.14c-3.6-1.65-7.13-2.47-10.59-2.47-3.99,0-5.98,1.17-5.98,3.51,0,1.13.43,1.99,1.3,2.6.87.61,2.38,1.06,4.55,1.36,4.81.69,8.25,1.94,10.33,3.74,2.08,1.8,3.12,4.28,3.12,7.44s-1.2,5.58-3.61,7.38c-2.41,1.8-5.8,2.7-10.17,2.7-5.24,0-9.9-1.08-13.98-3.25l1.62-6.37c3.68,2.12,7.65,3.18,11.9,3.18,3.77,0,5.66-1.26,5.66-3.77,0-1.17-.39-2.05-1.17-2.63-.78-.58-2.3-1.07-4.55-1.46-4.77-.78-8.18-2.06-10.24-3.83-2.06-1.78-3.09-4.18-3.09-7.21s1.18-5.36,3.54-7.12c2.36-1.75,5.8-2.63,10.3-2.63s8.73.82,12.67,2.47l-1.62,6.37Z"/>
      <path class="cls-1" d="M2899.79,7.8V0h8.91v7.8h-8.91ZM2899.79,48.75V14.95h8.91v33.8h-8.91Z"/>
      <path class="cls-1" d="M2930.99,14.3c4.33,0,7.84,1.8,10.53,5.4h.13l.2-4.75h7.87v30.35c0,12.26-5.92,18.4-17.75,18.4-3.9,0-7.58-.65-11.05-1.95l1.49-6.37c3.12,1.3,6.24,1.95,9.36,1.95,3.38,0,5.83-.89,7.34-2.67,1.52-1.78,2.28-4.83,2.28-9.17v-2.41h-.13c-2.47,3.34-5.89,5-10.27,5-3.81,0-6.99-1.53-9.52-4.58s-3.8-7.16-3.8-12.32c0-5.46,1.18-9.64,3.54-12.54,2.36-2.9,5.62-4.36,9.78-4.36ZM2925.79,31.2c0,3.25.7,5.8,2.11,7.64,1.41,1.84,3.24,2.76,5.49,2.76,2.38,0,4.29-.89,5.72-2.67,1.43-1.78,2.15-4.25,2.15-7.41v-.65c0-3.16-.71-5.63-2.15-7.41-1.43-1.78-3.34-2.67-5.72-2.67s-4.25.89-5.59,2.67c-1.34,1.78-2.01,4.36-2.01,7.74Z"/>
      <path class="cls-1" d="M2958.68,14.95h7.93l.13,4.75h.13c1.3-1.69,2.91-3.01,4.84-3.96,1.93-.95,3.91-1.43,5.95-1.43,3.9,0,6.77,1.2,8.61,3.61,1.84,2.41,2.76,6.34,2.76,11.8v19.04h-8.32v-18.2c0-3.73-.43-6.25-1.3-7.57-.87-1.32-2.43-1.98-4.68-1.98-1.91,0-3.65.97-5.23,2.92-1.58,1.95-2.37,4.22-2.37,6.83v18h-8.45V14.95Z"/>
    </g>
  </g>
</svg>