<?xml version="1.0" encoding="UTF-8"?>
<svg id="_レイヤー_2" data-name="レイヤー 2" xmlns="http://www.w3.org/2000/svg" viewBox="0 0 530 517.78">
  <defs>
    <style>
      .cls-1 {
        fill: #d97700;
      }
    </style>
  </defs>
  <g id="_イラスト" data-name="イラスト">
    <g>
      <path class="cls-1" d="M530,8.14c0-4.48-3.66-8.14-8.14-8.14h-100.02c-4.48,0-8.14,3.66-8.14,8.14v62.22c0,4.48-3.66,8.14-8.14,8.14h-12.79c-4.48,0-8.14,3.66-8.14,8.14v36.06c0,4.48,3.66,8.14,8.14,8.14h41.87c4.48,0,8.14-3.66,8.14-8.14v-9.89c0-4.48,3.66-8.14,8.14-8.14h70.95c4.48,0,8.14-3.66,8.14-8.14V8.14Z"/>
      <rect class="cls-1" x="100.42" y="401.47" width="110.49" height="46.52" rx="8.14" ry="8.14"/>
      <rect class="cls-1" x="0" y="401.47" width="87.23" height="116.31" rx="8.14" ry="8.14"/>
      <path class="cls-1" d="M373.75,261.9c-4.48,0-8.14,3.66-8.14,8.14v23.65c0,4.48-3.66,8.14-8.14,8.14h-65.52c-4.48,0-8.14,3.66-8.14,8.14v70.17c0,4.48,3.66,8.14,8.14,8.14h65.52c4.48,0,8.14-3.66,8.14-8.14v-30.24c0-4.48,3.66-8.14,8.14-8.14h30.24c4.48,0,8.14-3.66,8.14-8.14v-63.58c0-4.48-3.66-8.14-8.14-8.14h-30.24Z"/>
      <path class="cls-1" d="M174.09,301.83c-4.48,0-8.14,3.66-8.14,8.14v70.17c0,4.48,3.66,8.14,8.14,8.14h41.87c4.48,0,8.14,3.66,8.14,8.14v30.24c0,4.48,3.66,8.14,8.14,8.14h30.24c4.48,0,8.14-3.66,8.14-8.14v-116.69c0-4.48-3.66-8.14-8.14-8.14h-88.39Z"/>
      <rect class="cls-1" x="48.08" y="301.83" width="104.68" height="86.45" rx="8.14" ry="8.14"/>
      <path class="cls-1" d="M433.46,308.42c-4.48,0-8.14,3.66-8.14,8.14v30.24c0,4.48-3.66,8.14-8.14,8.14h-30.24c-4.48,0-8.14,3.66-8.14,8.14v30.24c0,4.48,3.66,8.14,8.14,8.14h76.76c4.48,0,8.14-3.66,8.14-8.14v-76.76c0-4.48-3.66-8.14-8.14-8.14h-30.24Z"/>
      <path class="cls-1" d="M392.76,144.03c-4.48,0-8.14,3.66-8.14,8.14v88.39c0,4.48,3.66,8.14,8.14,8.14h24.42c4.48,0,8.14,3.66,8.14,8.14v30.24c0,4.48,3.66,8.14,8.14,8.14h30.24c4.48,0,8.14-3.66,8.14-8.14v-134.92c0-4.48-3.66-8.14-8.14-8.14h-70.95Z"/>
    </g>
  </g>
</svg>