<?xml version="1.0" encoding="UTF-8"?>
<svg id="_レイヤー_2" data-name="レイヤー 2" xmlns="http://www.w3.org/2000/svg" viewBox="0 0 588.82 222.6">
  <defs>
    <style>
      .cls-1 {
        fill: #d97700;
      }
    </style>
  </defs>
  <g id="_文字" data-name="文字">
    <g>
      <path class="cls-1" d="M73.51,78.49l-7.21,6.94c-3.06-4.47-6.41-8.58-10.06-12.33-1.3,4.01-2.7,6.37-4.17,7.09-1.48.72-4.19.51-8.14-.61-.98-.28-3.19-1.07-6.64-2.38l1.4-5.51c-3.16,1.38-6.21,2.34-9.14,2.9l-1.76-8.15c-1.15,3.28-2.22,5.23-3.2,5.87-.98.64-2.58.64-4.79.01-2.15-.61-5.02-1.56-8.59-2.85l2.18-10.03c2.29.93,3.69,1.46,4.2,1.61.67.19,1.08.18,1.25-.02.17-.2.46-1.02.86-2.46l.79-2.77-5.62-1.59c-2.67,5.89-5.64,10.79-8.91,14.69L0,59.13c2.8-3.81,5.07-7.76,6.82-11.87,1.75-4.11,3.89-10.65,6.44-19.63l3.76-13.24,23.78,6.75-8.34,29.4c2.37-.93,4.37-1.92,5.99-2.96l-3.46-.98,2.69-9.47,10.01,2.84c.23-.21.53-.54.9-.99.38-.45.64-.76.81-.94l-10.24-2.9,2.58-9.08,3.54,1c-.51-1.92-1.04-3.67-1.58-5.27l9.81-.29,1.89,8.27c1.01-1.6,1.99-3.31,2.96-5.15l11.07,3.47c-1.32,2.51-2.24,4.19-2.76,5.04l2.62.74c1.63-1.64,3.45-3.76,5.46-6.35l9.17,4.6c-1.93,2.11-3.4,3.67-4.4,4.66l3.77,1.07-2.58,9.08-10.47-2.97c.12,1.14.22,1.97.29,2.49l10.39,2.95-2.69,9.47-4.46-1.27c1.19,2.44,2.66,4.78,4.42,6.99l-7.58,6.5c-.27-.41-1.03-1.73-2.28-3.97-.54.35-1.39.8-2.55,1.36,2.96,3.22,5.54,6.56,7.72,10.01ZM89.25,20.09l-2.58,9.08-16.39-4.65-.59,2.08-11.47-3.25.59-2.08-15.08-4.28-.92,3.23-11.93-3.39.92-3.23-15.93-4.52L18.44,0l15.93,4.52,1.22-4.31,11.93,3.39-1.22,4.31,15.08,4.28,1.22-4.31,11.93,3.38-1.22,4.31,15.93,4.52ZM18.28,45.69l4.69,1.33,1.53-5.39-4.46-1.27c-.24.65-.83,2.43-1.76,5.32ZM22.61,31.62l4.39,1.25,1.4-4.93-4.39-1.24-1.4,4.92ZM40.31,60.67l-1.21-2.17c-1.4.82-2.96,1.65-4.7,2.49l-2.75-7.6-1.94,6.85c-.17.62-.41,1.41-.72,2.38-.3.97-.51,1.66-.63,2.07,3.45-.63,7.43-1.97,11.95-4.01ZM44.67,62.91l1.44,4.9c-1.08.69-1.91,1.18-2.49,1.46.55.21,1.11.4,1.67.56.41.12.69.07.83-.14s.4-.98.78-2.31l2.16-7.62-4.39,3.16ZM51.02,52.82l10.24,2.9-1.22,4.31c.97-.5,2.41-1.28,4.33-2.35l-.9-3-13.85-3.93-2.27,1.85,2.48,4.45,1.2-4.23ZM57.22,42.69l3.92,1.11c-.03-.29-.09-.7-.18-1.26-.09-.55-.15-.97-.18-1.26l-1.92-.55c-.18.23-.45.55-.82.97-.37.42-.64.75-.82.97ZM61.13,66.42l-1.8-3.92-1.79,6.31-.26.92,3.85-3.31Z"/>
      <path class="cls-1" d="M124.65,101.65c-2.77-.79-6.15-1.88-10.13-3.29l1.07-4.94c-12.79-1.8-25.44-3.92-37.95-6.36l1.93-10.6c4.69,1.05,9.42,2.06,14.19,3.03l1.77-6.23-12.7-3.6,2.58-9.08,12.7,3.6,1.38-4.85-2.69-.76-9.24-2.62,10.22-36.02,34.86,9.89-7.99,28.17,12.08,3.43c-2.43-4.35-4.7-8.26-6.81-11.75l8.69-6.02c2.56,4.44,4.09,7.09,4.56,7.95,3.01-1.81,5.56-3.47,7.65-4.98l-19.09-5.42,2.84-10,31.17,8.84-2.84,10c-5.05,4.11-10,7.7-14.86,10.75,1,1.95,1.74,3.43,2.23,4.46l9.93,2.82-2.93,10.31c-3.2,5.02-6.98,9.75-11.34,14.16l-6.86-7.19-1.4,4.93c-.82,2.87-1.5,5.04-2.05,6.49-.55,1.45-1.12,2.72-1.7,3.8-.58,1.08-1.32,1.72-2.21,1.91-.89.19-1.81.23-2.78.13-.97-.11-2.4-.43-4.3-.97ZM100.79,44.49l-1.59,5.62,3.16.9,1.59-5.62-3.16-.9ZM107.5,32.84l-3.16-.9-1.55,5.46,3.16.9,1.55-5.46ZM105.44,81.73c5.89,1.12,10.34,1.94,13.36,2.46l-1.14,4c2.4.91,4.32,1.56,5.76,1.97.82.23,1.35.23,1.58,0,.23-.24.57-1.13,1.01-2.67l4.72-16.62-11.08-3.15.7-2.46-9.47-2.69-1.38,4.85,12.54,3.56-2.58,9.08-12.54-3.56-1.48,5.23ZM117.72,49.29l-3.39-.96-1.59,5.62,3.39.96,1.59-5.62ZM119.73,42.21l1.55-5.46-3.39-.96-1.55,5.46,3.39.96ZM139.45,84.07c2.76-2.71,5.29-5.57,7.59-8.57l-4.77-1.35-2.82,9.93Z"/>
      <path class="cls-1" d="M213.01,102.36l-27.94-7.93,2.75-9.7,14.47,4.11c.11-3.9.13-7.5.07-10.79l-12.47-3.54,2.75-9.7,28.71,8.15,1.33-4.69-24.71-7.01,2.56-9,24.71,7.01,1.57-5.54,12.62,3.58-1.57,5.54,24.71,7.01-2.56,9-24.71-7.01-1.33,4.7,28.71,8.15-2.75,9.7-11.54-3.28c-1.48,2.3-3.71,5.27-6.69,8.91l14.62,4.15-2.75,9.7-27.94-7.93-1.46,5.16,25.63,7.27-2.58,9.08-25.63-7.27-2.77,9.77-12.62-3.58,2.77-9.77-25.63-7.27,2.58-9.08,25.63,7.27,1.46-5.16ZM214.84,92.4l14.08,4c2.54-3.1,4.82-6.06,6.84-8.87l-20.7-5.88c.06,3.29-.01,6.87-.22,10.75Z"/>
      <path class="cls-1" d="M286.67,120.6c-2.88,3.89-6.3,7.8-10.27,11.72-3.97,3.92-7.78,7.13-11.43,9.65l-7.82-8.79c7.6-5.5,14.68-12.16,21.23-20.01l8.29,7.42ZM277.42,109.83c-3.28-5.42-6.95-10.76-11.01-16.01l8.97-6.1c4.29,5.38,8.02,10.59,11.19,15.65l-9.15,6.47ZM274.37,77.78l9.04-6.08c3.71,4.49,7.19,9.33,10.43,14.52l-9.13,6.39c-2.84-4.63-6.29-9.57-10.35-14.83ZM323.92,97.75l-12.19,42.94,17.93,5.09-2.93,10.31-48.95-13.89,2.93-10.31,18.47,5.24,12.19-42.94-16.93-4.8,2.93-10.31,46.25,13.12-2.93,10.31-16.78-4.76Z"/>
      <path class="cls-1" d="M385.55,143.89l-22.47,17.64-4.79-1.36,22.47-17.64,4.79,1.36Z"/>
      <path class="cls-1" d="M410.59,156.77c-1.57-1.42-3.37-2.42-5.39-2.99-1-.28-1.82-.31-2.44-.07-.63.24-1.04.68-1.22,1.34-.31,1.08.28,2.08,1.77,3,2.64,1.6,4.39,3.12,5.24,4.54.85,1.43,1.03,3.01.54,4.74-.58,2.04-1.71,3.4-3.4,4.09-1.69.68-3.89.64-6.61-.13-1.21-.34-2.42-.89-3.62-1.64-1.2-.75-2.16-1.54-2.88-2.39l2.24-3.51c1.58,1.9,3.43,3.16,5.54,3.76,1,.28,1.81.29,2.44.02.63-.27,1.05-.78,1.26-1.53.17-.62.11-1.17-.2-1.68-.3-.5-.93-1.05-1.88-1.66-2.42-1.52-4.05-2.99-4.89-4.43-.84-1.43-1.03-2.97-.56-4.6.52-1.83,1.62-3.08,3.3-3.77,1.68-.69,3.76-.68,6.25.03,2.64.75,4.79,1.86,6.48,3.33l-1.98,3.56Z"/>
      <path class="cls-1" d="M421.6,160.83c2.4.68,3.99,1.63,4.76,2.83.77,1.21.86,2.85.27,4.93l-1.53,5.4c-.39,1.39-.63,2.77-.71,4.16l-4.39-1.25c.09-.91.19-1.64.31-2.19l-.06-.02c-.73.58-1.59.97-2.59,1.15-1,.18-1.98.14-2.94-.13-1.44-.41-2.48-1.14-3.12-2.19-.64-1.05-.76-2.28-.36-3.69.47-1.65,1.55-2.78,3.25-3.38,1.7-.6,3.87-.52,6.53.23l1.07.3.02-.06c.24-.85.24-1.48,0-1.9-.24-.42-.79-.75-1.64-.99-1.96-.56-3.96-.66-6-.3l.32-3.43c2.19-.32,4.46-.14,6.8.53ZM415.59,170.6c-.15.52-.1.97.13,1.35.23.38.62.64,1.16.8.96.27,1.84.2,2.63-.22.79-.42,1.32-1.09,1.58-2.01l.2-.69-1.07-.3c-1.31-.37-2.36-.45-3.16-.24s-1.29.65-1.48,1.33Z"/>
      <path class="cls-1" d="M440.43,178.21l.06,3.63c-1.79.28-3.57.17-5.36-.34-2.54-.72-4.36-1.99-5.47-3.81-1.1-1.82-1.32-3.93-.63-6.34.69-2.42,1.96-4.12,3.82-5.09,1.85-.97,4.09-1.08,6.71-.34,1.79.51,3.37,1.35,4.74,2.53l-1.98,3.12c-1.01-1.05-2.17-1.77-3.48-2.14-1.23-.35-2.29-.25-3.19.3-.89.55-1.54,1.53-1.95,2.96-.39,1.37-.33,2.55.16,3.54.5.99,1.32,1.65,2.48,1.98,1.31.37,2.67.37,4.08,0Z"/>
      <path class="cls-1" d="M450.07,162.04l4.62,1.31-2.4,8.46.06.02c1.55-1.08,3.2-1.37,4.96-.87,1.81.51,2.98,1.42,3.5,2.71.53,1.29.43,3.22-.3,5.78l-2.35,8.28-4.56-1.29,2.21-7.79c.44-1.56.57-2.65.4-3.27-.18-.62-.68-1.05-1.51-1.29-.75-.21-1.52-.01-2.31.61-.79.62-1.33,1.43-1.61,2.43l-2.24,7.88-4.62-1.31,6.14-21.64Z"/>
      <path class="cls-1" d="M462.54,188.97l4.26-15.01,4.88,1.38-4.26,15.01-4.88-1.38ZM467.62,171.08l1.06-3.75,4.88,1.38-1.06,3.75-4.88-1.38Z"/>
      <path class="cls-1" d="M477.23,186.68c-.13.98.06,1.83.57,2.55.51.72,1.3,1.23,2.36,1.53,1.42.4,2.92.45,4.48.15l.12,3.43c-1.93.28-3.92.14-5.96-.44-2.39-.68-4.11-1.92-5.16-3.74-1.06-1.82-1.24-3.92-.57-6.3.68-2.4,1.9-4.11,3.64-5.13,1.74-1.01,3.75-1.2,6.02-.55,2.33.66,3.95,1.84,4.86,3.54.91,1.7,1.01,3.8.31,6.28-.17.6-.36,1.11-.57,1.55l-10.1-2.87ZM478.01,183.82l5.95,1.69c.61-2.22-.06-3.6-2-4.15-.89-.25-1.67-.17-2.35.25-.68.42-1.21,1.16-1.59,2.21Z"/>
      <path class="cls-1" d="M503.93,177.95l13.19,3.74-1.12,3.95-8.28-2.35-1.36,4.79,7.71,2.19-1.05,3.69-7.71-2.19-2.45,8.63-4.91-1.39,5.98-21.07Z"/>
      <path class="cls-1" d="M523.48,190.05l-2.46,8.66c-.34,1.19-.42,2.04-.25,2.53.17.5.61.84,1.32,1.05.73.21,1.49.01,2.29-.58.79-.6,1.33-1.4,1.62-2.42l2.24-7.88,4.62,1.31-4.26,15.01-4.27-1.21.5-2.1-.06-.02c-.77.57-1.62.95-2.57,1.14-.95.19-1.85.16-2.72-.09-1.71-.49-2.82-1.3-3.34-2.46-.51-1.15-.46-2.85.18-5.08l2.6-9.15,4.56,1.29Z"/>
      <path class="cls-1" d="M534.63,208.78l4.09-14.4,4.88,1.38-3.99,14.05c-.84,2.94-2.07,4.76-3.71,5.43-1.64.68-4.31.49-8.03-.56l.78-3.62c2.13.61,3.55.77,4.26.49s1.28-1.21,1.73-2.78ZM539.54,191.49l1.06-3.75,4.88,1.38-1.06,3.75-4.88-1.38Z"/>
      <path class="cls-1" d="M544.59,212.26l4.26-15.01,4.88,1.38-4.26,15.01-4.88-1.38ZM549.67,194.36l1.06-3.75,4.88,1.38-1.06,3.75-4.88-1.38Z"/>
      <path class="cls-1" d="M558.26,199.92l4.27,1.21-.47,2.11.06.02c.77-.57,1.62-.96,2.55-1.15.94-.19,1.84-.16,2.71.08,1.81.51,2.98,1.42,3.5,2.71s.43,3.22-.3,5.78l-2.35,8.28-4.56-1.29,2.21-7.79c.44-1.56.57-2.65.4-3.27-.18-.62-.68-1.05-1.51-1.29-.71-.2-1.47,0-2.27.6-.81.6-1.35,1.42-1.64,2.43l-2.24,7.88-4.62-1.31,4.26-15.01Z"/>
      <path class="cls-1" d="M576.68,207.09c1.76-1.01,3.84-1.17,6.25-.49,2.4.68,4.09,1.91,5.05,3.69.96,1.78,1.1,3.87.42,6.28-.68,2.41-1.9,4.11-3.65,5.12-1.75,1.01-3.83,1.17-6.24.49-2.41-.68-4.09-1.92-5.06-3.7-.97-1.78-1.11-3.88-.43-6.28.68-2.41,1.9-4.11,3.67-5.12ZM579.47,218.81c2.08.59,3.53-.59,4.37-3.53s.21-4.71-1.86-5.3c-2.1-.59-3.56.58-4.4,3.52-.84,2.94-.2,4.71,1.89,5.31Z"/>
    </g>
  </g>
</svg>