<?xml version="1.0" encoding="UTF-8"?>
<svg xmlns="http://www.w3.org/2000/svg" xmlns:xlink="http://www.w3.org/1999/xlink" viewBox="0 0 1152 1371.71">
  <defs>
    <style>
      .cls-1 {
        fill: none;
      }

      .cls-2 {
        mix-blend-mode: multiply;
        opacity: .22;
      }

      .cls-3 {
        isolation: isolate;
      }

      .cls-4 {
        fill: #cd7000;
      }

      .cls-5 {
        clip-path: url(#clippath);
      }
    </style>
    <clipPath id="clippath">
      <rect class="cls-1" y="89.71" width="1152" height="1282"/>
    </clipPath>
  </defs>
  <g class="cls-3">
    <g id="_レイヤー_2" data-name="レイヤー 2">
      <g id="_イラスト" data-name="イラスト">
        <g class="cls-5">
          <path class="cls-4" d="M-12.51,1201.58c79.19,101.09,232.5,161.74,382.45,161.74,210.6,0,296.53-84.24,296.53-207.23,0-112.88-80.87-203.86-343.7-296.53C44.78,761.85-42.83,637.17-42.83,477.12c0-188.7,129.73-330.22,438.05-330.22,170.17,0,301.58,42.12,397.61,90.98l-37.07,129.73c-101.09-92.66-207.23-143.21-342.02-143.21-193.75,0-247.67,84.24-247.67,175.22,0,117.94,35.38,171.85,299.9,267.88,294.84,107.83,424.57,227.45,424.57,424.57,0,215.66-163.43,357.18-508.81,357.18-170.17,0-338.65-58.97-444.79-117.94l50.54-129.73Z"/>
        </g>
      </g>
      <g id="_文字_アウトライン" data-name="文字_アウトライン">
        <g class="cls-2">
          <g>
            <path class="cls-4" d="M50.44,53.55h51.66V0h40.95v53.55h88.2V0h42.84v53.55h51.66v37.8h-51.66v17.64c0,50.4-11.66,87.21-34.97,110.41-23.31,23.21-63,37.22-119.07,42.05l-7.88-37.8c46.62-4.62,78.12-14.85,94.5-30.71,16.38-15.85,24.57-43.83,24.57-83.95v-17.64h-88.2v63.95h-40.95v-63.95h-51.66v-37.8Z"/>
            <path class="cls-4" d="M367.65,151.2v-37.8h125.05v-51.34c-25.41,1.89-55.86,2.83-91.35,2.83V27.09c46.62,0,84.58-1.94,113.87-5.83,29.29-3.88,57.69-10.66,85.21-20.32l12.29,36.85c-25.2,9.03-50.93,15.54-77.18,19.53v56.07h103.01v37.8h-104.58c-3.78,34.44-14.33,60.38-31.66,77.81-17.32,17.43-43.63,29.29-78.91,35.59l-11.97-36.86c26.25-5.04,45.31-13.12,57.17-24.25,11.86-11.13,19.26-28.56,22.21-52.29h-123.17Z"/>
            <path class="cls-4" d="M703.75,22.05h228.69v37.8h-92.29v146.79h101.75v37.8h-247.59v-37.8h101.75V59.85h-92.3V22.05Z"/>
          </g>
        </g>
      </g>
    </g>
  </g>
</svg>