<?xml version="1.0" encoding="UTF-8"?>
<svg xmlns="http://www.w3.org/2000/svg" viewBox="0 0 79.33 43.26">
  <defs>
    <style>
      .cls-1 {
        isolation: isolate;
      }

      .cls-2 {
        fill: #cd7000;
        mix-blend-mode: multiply;
        opacity: .22;
      }
    </style>
  </defs>
  <g class="cls-1">
    <g id="_レイヤー_2" data-name="レイヤー 2">
      <g id="_イラスト" data-name="イラスト">
        <path class="cls-2" d="M.34,31.42c-.24.2-.37.51-.34.82.38,4.86.83,7.88,1.28,8.78,0,0,0,0,0,0,0,0,0,0,0,0,0,0,0,0,0,0,2.21,1.09,17.37,2.25,41.14,2.25,16.88,0,29.42-.58,36.06-1.31.8-.09,1.14-1.06.57-1.63L39.01.28c-.35-.35-.91-.38-1.29-.06L.34,31.42Z"/>
      </g>
    </g>
  </g>
</svg>